<svg xmlns="http://www.w3.org/2000/svg" viewBox="0 0 269.5 75" enable-background="new 0 0 269.5 75"><path fill="#fff" d="M251.4 62.2h-46.3c-4.8 0-8.7-3.9-8.7-8.7v-32c0-4.8 3.9-8.7 8.7-8.7h46.3c4.8 0 8.7 3.9 8.7 8.7v32c0 4.8-3.9 8.7-8.7 8.7zm-46.3-46.7c-3.3 0-6 2.7-6 6v32c0 3.3 2.7 6 6 6h46.3c3.3 0 6-2.7 6-6v-32c0-3.3-2.7-6-6-6h-46.3z"/><g fill="#fff"><path d="M224.6 42.3c-.3.9-.8 1.6-1.5 2.2-.6.6-1.4 1.2-2.3 1.5-.9.4-2 .6-3.2.6s-2.2-.2-3.2-.6c-.9-.4-1.7-.9-2.3-1.5-.6-.6-1.1-1.4-1.5-2.2-.3-.8-.5-1.7-.5-2.7v-11.3h2.5v11.4c0 .8.1 1.4.4 2 .2.6.6 1.1 1 1.5.4.4 1 .7 1.6.9.6.2 1.3.3 2 .3s1.4-.1 2-.3c.6-.2 1.1-.5 1.6-1s.8-.9 1-1.5c.3-.6.4-1.2.4-2v-11.3h2.5v11.4c0 .9-.2 1.8-.5 2.6zM243.5 46.4l-5.6-7.2-5.6 7.2h-2.9l7-9.1-6.9-9h2.9l5.5 7.1 5.5-7.1h2.9l-6.9 9 7 9.1h-2.9z"/></g><g fill="#fff"><path d="M46.9 65.7h-36.5c-.5 0-.9-.4-.9-.9v-54.6c0-.5.4-.9.9-.9h12.5c.5 0 .9.4.9.9v42.8c0 .5.4.9.9.9h22.1c.5 0 .9.4.9.9v10c.1.5-.3.9-.8.9zM58.2 64.8v-54.6c0-.5.4-.9.9-.9h12.5c.5 0 .9.4.9.9v54.6c0 .5-.4.9-.9.9h-12.4c-.5 0-1-.4-1-.9zM85.9 64.8v-54.6c0-.5.4-.9.9-.9h36.6c.5 0 .9.4.9.9v9.7c0 .5-.4.9-.9.9h-22.2c-.5 0-.9.4-.9.9v11c0 .5.4.9.9.9h20c.5 0 .9.4.9.9v9.1c0 .5-.4.9-.9.9h-20c-.5 0-.9.4-.9.9v19.2c0 .5-.4.9-.9.9h-12.6c-.5.2-.9-.2-.9-.7zM148.1 64.8v-43.1c0-.5-.4-.9-.9-.9h-14.4c-.5 0-.9-.4-.9-.9v-9.7c0-.5.4-.9.9-.9h45.1c.5 0 .9.4.9.9v9.7c0 .5-.4.9-.9.9h-14.5c-.5 0-.9.4-.9.9v43.1c0 .5-.4.9-.9.9h-12.6c-.5 0-.9-.4-.9-.9z"/></g></svg>
