<svg xmlns="http://www.w3.org/2000/svg">
<defs>
<font id="GTHaptikLight" horiz-adv-x="640" >
  <font-face 
    font-family="GT Haptik Light"
    font-weight="450"
    font-stretch="normal"
    units-per-em="1000"
    panose-1="2 0 5 5 2 0 0 2 0 4"
    ascent="800"
    descent="-200"
    x-height="500"
    cap-height="700"
    bbox="-220 -250.001 1308 920"
    underline-thickness="0"
    underline-position="0"
    unicode-range="U+0020-U+FB04"
  />
<missing-glyph horiz-adv-x="885" 
d="M331 580l-64 -95v-68h-30v68l-65 95h34l46 -64l45 64h34zM618 474c0 5.33301 -0.666016 11.5 -1.99902 18.5s-5.5 13.833 -12.5 20.5s-18 12.167 -33 16.5s-36.167 6.5 -63.5 6.5c-26.667 0 -60.334 -4 -101.001 -12v-171c0 -8 -3.33301 -14.167 -10 -18.5
s-14 -7.83301 -22 -10.5s-15.333 -5.66699 -22 -9s-10 -8 -10 -14c0 -10.667 7.33301 -16 22 -16c23.333 0 46.833 2.83301 70.5 8.5s48.167 8.5 73.5 8.5c20 0 39.667 -2.16699 59 -6.5s36.333 -10.5 51 -18.5v197zM420.001 414c0 23.333 7.33301 42.5 22 57.5
s33.667 22.5 57 22.5c24 0 43.5 -7.5 58.5 -22.5s22.5 -34.167 22.5 -57.5s-7.5 -42.666 -22.5 -57.999s-34.5 -23 -58.5 -23c-23.333 0 -42.333 7.66699 -57 23s-22 34.666 -22 57.999zM552.001 414c0 15.333 -5 27.666 -15 36.999s-22.667 14 -38 14
c-14.667 0 -26.834 -4.66699 -36.501 -14s-14.5 -21.666 -14.5 -36.999s4.83301 -27.833 14.5 -37.5s21.834 -14.5 36.501 -14.5c15.333 0 28 4.83301 38 14.5s15 22.167 15 37.5zM377.001 577c0 10 -2.33398 18.5 -7.00098 25.5s-10.5 12.667 -17.5 17s-15 7.5 -24 9.5
s-17.833 3 -26.5 3c-13.333 0 -27.666 -1.5 -42.999 -4.5s-31 -6.66699 -47 -11s-31.333 -9.16602 -46 -14.499l-40 -15v-230c30 11.333 59.833 21.166 89.5 29.499s58.5 12.5 86.5 12.5c11.333 0 23.833 -1 37.5 -3s26.167 -5.66699 37.5 -11v192zM725 373v-100h-29v100h29
zM70 676c0 10.667 3.49609 19.333 10.4961 26s15.833 10 26.5 10c10 0 18.667 -3.33301 26 -10s11 -15.334 11 -26.001c0 -6.66699 -1.5 -13.167 -4.5 -19.5s-7.5 -11.166 -13.5 -14.499v-24c12 4.66699 25.333 9.5 40 14.5s29.834 9.5 45.501 13.5s31.167 7.33301 46.5 10

<glyph glyph-name="IJ" unicode="IJ" horiz-adv-x="469" 
d="M144 700v-700h-64v700h64zM399 700v-482c0 -69.333 -18 -123 -54 -161s-83.667 -57 -143 -57v64c22 0 41.5 4 58.5 12s31 19 42 33s19.333 30.333 25 49s8.5 38.667 8.5 60v482h63z" />
    <glyph glyph-name="ij" unicode="ij" horiz-adv-x="434" 
d="M267 652c0 16 5.33301 29.333 16 40s24 16 40 16c15.333 0 28.5 -5.33301 39.5 -16s16.5 -24 16.5 -40c0 -15.333 -5.5 -28.5 -16.5 -39.5s-24.167 -16.5 -39.5 -16.5c-16 0 -29.333 5.5 -40 16.5s-16 24.167 -16 39.5zM50 652c0 16 5.33301 29.333 16 40s24 16 40 16
c15.333 0 28.5 -5.33301 39.5 -16s16.5 -24 16.5 -40c0 -15.333 -5.5 -28.5 -16.5 -39.5s-24.167 -16.5 -39.5 -16.5c-16 0 -29.333 5.5 -40 16.5s-16 24.167 -16 39.5zM354 500v-534c0 -59.333 -13.5 -102.5 -40.5 -129.5s-72.5 -40.5 -136.5 -40.5h-10v59h10
c23.333 0 42.5 2.5 57.5 7.5s26.833 12.167 35.5 21.5s14.667 20.833 18 34.5s5 29.5 5 47.5v534h61zM136 500v-500h-61v500h61z" />
    <glyph glyph-name="ff" unicode="ff" horiz-adv-x="695" 
d="M460 446l-287.002 0.00195312v-446h-61v446h-97v54h97v35c0 32.667 3.66699 60.167 11 82.5s17.833 40.166 31.5 53.499s29.834 23 48.501 29s39 9 61 9c12 0 23.667 -0.666992 35 -2l34 -4v-57c-11.333 2 -22 3.66699 -32 5s-20 2 -30 2
c-32.667 0 -57.167 -8.5 -73.5 -25.5s-24.5 -47.833 -24.5 -92.5v-35h287v35c0 32.667 3.66699 60.167 11 82.5s17.833 40.166 31.5 53.499s29.834 23 48.501 29s39 9 61 9c12 0 23.667 -0.666992 35 -2l34 -4v-57c-11.333 2 -22 3.66699 -32 5s-20 2 -30 2
c-32.667 0 -57.167 -8.5 -73.5 -25.5s-24.5 -47.833 -24.5 -92.5v-35h154v-54h-154v-446h-61v446z" />
    <glyph glyph-name="fi" unicode="fi" horiz-adv-x="559" 
d="M398 652c0 16 5.33301 29.333 16 40s24 16 40 16c15.333 0 28.5 -5.33301 39.5 -16s16.5 -24 16.5 -40c0 -15.333 -5.5 -28.5 -16.5 -39.5s-24.167 -16.5 -39.5 -16.5c-16 0 -29.333 5.5 -40 16.5s-16 24.167 -16 39.5zM484 500v-500h-61v500h61zM173 446
l-0.000976562 -445.999h-61v446h-97v54h97v35c0 32.667 3.66699 60.167 11 82.5s17.833 40.166 31.5 53.499s29.834 23 48.501 29s39 9 61 9c12 0 23.667 -0.666992 35 -2l34 -4v-57c-11.333 2 -22 3.66699 -32 5s-20 2 -30 2c-32.667 0 -57.167 -8.5 -73.5 -25.5
s-24.5 -47.833 -24.5 -92.5v-35h154v-54h-154z" />
    <glyph glyph-name="fl" unicode="fl" horiz-adv-x="556" 
d="M484 700v-700h-63v700h63zM173 446l-0.000976562 -445.999h-61v446h-97v54h97v35c0 32.667 3.66699 60.167 11 82.5s17.833 40.166 31.5 53.499s29.834 23 48.501 29s39 9 61 9c12 0 23.667 -0.666992 35 -2l34 -4v-57c-11.333 2 -22 3.66699 -32 5s-20 2 -30 2
c-32.667 0 -57.167 -8.5 -73.5 -25.5s-24.5 -47.833 -24.5 -92.5v-35h154v-54h-154z" />
    <glyph glyph-name="ffi" unicode="ffi" horiz-adv-x="906" 
d="M745 652c0 16 5.33301 29.333 16 40s24 16 40 16c15.333 0 28.5 -5.33301 39.5 -16s16.5 -24 16.5 -40c0 -15.333 -5.5 -28.5 -16.5 -39.5s-24.167 -16.5 -39.5 -16.5c-16 0 -29.333 5.5 -40 16.5s-16 24.167 -16 39.5zM831 500v-500h-61v500h61zM460 446
l-287.002 0.00195312v-446h-61v446h-97v54h97v35c0 32.667 3.66699 60.167 11 82.5s17.833 40.166 31.5 53.499s29.834 23 48.501 29s39 9 61 9c12 0 23.667 -0.666992 35 -2l34 -4v-57c-11.333 2 -22 3.66699 -32 5s-20 2 -30 2c-32.667 0 -57.167 -8.5 -73.5 -25.5
s-24.5 -47.833 -24.5 -92.5v-35h287v35c0 32.667 3.66699 60.167 11 82.5s17.833 40.166 31.5 53.499s29.834 23 48.501 29s39 9 61 9c12 0 23.667 -0.666992 35 -2l34 -4v-57c-11.333 2 -22 3.66699 -32 5s-20 2 -30 2c-32.667 0 -57.167 -8.5 -73.5 -25.5
s-24.5 -47.833 -24.5 -92.5v-35h154v-54h-154v-446h-61v446z" />
    <glyph glyph-name="ffl" unicode="ffl" horiz-adv-x="901" 
d="M831 700v-700h-63v700h63zM460 446l-287.002 0.00195312v-446h-61v446h-97v54h97v35c0 32.667 3.66699 60.167 11 82.5s17.833 40.166 31.5 53.499s29.834 23 48.501 29s39 9 61 9c12 0 23.667 -0.666992 35 -2l34 -4v-57c-11.333 2 -22 3.66699 -32 5s-20 2 -30 2
c-32.667 0 -57.167 -8.5 -73.5 -25.5s-24.5 -47.833 -24.5 -92.5v-35h287v35c0 32.667 3.66699 60.167 11 82.5s17.833 40.166 31.5 53.499s29.834 23 48.501 29s39 9 61 9c12 0 23.667 -0.666992 35 -2l34 -4v-57c-11.333 2 -22 3.66699 -32 5s-20 2 -30 2
c-32.667 0 -57.167 -8.5 -73.5 -25.5s-24.5 -47.833 -24.5 -92.5v-35h154v-54h-154v-446h-61v446z" />
    <glyph glyph-name=".notdef" horiz-adv-x="885" 
d="M331 580l-64 -95v-68h-30v68l-65 95h34l46 -64l45 64h34zM618 474c0 5.33301 -0.666016 11.5 -1.99902 18.5s-5.5 13.833 -12.5 20.5s-18 12.167 -33 16.5s-36.167 6.5 -63.5 6.5c-26.667 0 -60.334 -4 -101.001 -12v-171c0 -8 -3.33301 -14.167 -10 -18.5
s-14 -7.83301 -22 -10.5s-15.333 -5.66699 -22 -9s-10 -8 -10 -14c0 -10.667 7.33301 -16 22 -16c23.333 0 46.833 2.83301 70.5 8.5s48.167 8.5 73.5 8.5c20 0 39.667 -2.16699 59 -6.5s36.333 -10.5 51 -18.5v197zM420.001 414c0 23.333 7.33301 42.5 22 57.5
s33.667 22.5 57 22.5c24 0 43.5 -7.5 58.5 -22.5s22.5 -34.167 22.5 -57.5s-7.5 -42.666 -22.5 -57.999s-34.5 -23 -58.5 -23c-23.333 0 -42.333 7.66699 -57 23s-22 34.666 -22 57.999zM552.001 414c0 15.333 -5 27.666 -15 36.999s-22.667 14 -38 14
c-14.667 0 -26.834 -4.66699 -36.501 -14s-14.5 -21.666 -14.5 -36.999s4.83301 -27.833 14.5 -37.5s21.834 -14.5 36.501 -14.5c15.333 0 28 4.83301 38 14.5s15 22.167 15 37.5zM377.001 577c0 10 -2.33398 18.5 -7.00098 25.5s-10.5 12.667 -17.5 17s-15 7.5 -24 9.5
s-17.833 3 -26.5 3c-13.333 0 -27.666 -1.5 -42.999 -4.5s-31 -6.66699 -47 -11s-31.333 -9.16602 -46 -14.499l-40 -15v-230c30 11.333 59.833 21.166 89.5 29.499s58.5 12.5 86.5 12.5c11.333 0 23.833 -1 37.5 -3s26.167 -5.66699 37.5 -11v192zM725 373v-100h-29v100h29
zM70 676c0 10.667 3.49609 19.333 10.4961 26s15.833 10 26.5 10c10 0 18.667 -3.33301 26 -10s11 -15.334 11 -26.001c0 -6.66699 -1.5 -13.167 -4.5 -19.5s-7.5 -11.166 -13.5 -14.499v-24c12 4.66699 25.333 9.5 40 14.5s29.834 9.5 45.501 13.5s31.167 7.33301 46.5 10
s30 4 44 4c12.667 0 25.167 -1.66699 37.5 -5s23.5 -8.33301 33.5 -15s18 -15.334 24 -26.001s9 -23 9 -37v-25c11.333 2.66699 26.333 5.33398 45 8.00098s37.667 4 57 4c16.667 0 33.167 -1.16699 49.5 -3.5s31 -6.66602 44 -12.999s23.667 -14.833 32 -25.5
s12.5 -24.334 12.5 -41.001v-48c12 3.33301 24.5 6.16602 37.5 8.49902s26.167 3.5 39.5 3.5c41.333 0 70.333 -7.5 87 -22.5s25 -33.833 25 -56.5v-240c-20.667 12.667 -40.167 21.167 -58.5 25.5s-36.166 6.5 -53.499 6.5c-19.333 0 -38.5 -3.33301 -57.5 -10
s-39.167 -10 -60.5 -10c-32 0 -48 15.333 -48 46v86c-15.333 3.33301 -31.666 5 -48.999 5c-23.333 0 -46.833 -3 -70.5 -9s-48.167 -9 -73.5 -9c-15.333 0 -27.166 4.16699 -35.499 12.5s-12.5 19.5 -12.5 33.5v68h-14c-14 0 -28.833 -1.5 -44.5 -4.5
s-31.5 -6.66699 -47.5 -11s-31.333 -9.16602 -46 -14.499l-38 -14v-327h-39v643c-11.333 7.33301 -17 18.333 -17 33zM375.996 351.999c0 3.33301 -3 6.5 -9 9.5s-13.667 5.16699 -23 6.5v-32c6 3.33301 12.833 5.83301 20.5 7.5s11.5 4.5 11.5 8.5zM617.996 237.999
c0 7.33301 -3.33301 12.668 -10 16.001s-14.667 6.66602 -24 9.99902v-47c7.33301 5.33301 14.833 9 22.5 11s11.5 5.33301 11.5 10zM690.996 231.001c0 12.667 6.66699 19 20 19c12.667 0 19 -6.33301 19 -19c0 -13.333 -6.33301 -20 -19 -20c-13.333 0 -20 6.66699 -20 20
zM807.996 365.001c0 20.667 -7.83398 34.333 -23.501 41s-36.167 10 -61.5 10c-19.333 0 -45 -4 -77 -12v-167c0 -9.33301 -3.16699 -16.166 -9.5 -20.499s-13.5 -8 -21.5 -11s-15.167 -6.16699 -21.5 -9.5s-9.5 -8.33301 -9.5 -15c0 -10.667 7 -16 21 -16
c19.333 0 38.833 3.5 58.5 10.5s39.834 10.5 60.501 10.5c15.333 0 30 -1.33301 44 -4s27.333 -6.33398 40 -11.001v194z" />
    <glyph glyph-name="NULL" horiz-adv-x="0" 
 />
    <glyph glyph-name="NULL" horiz-adv-x="0" 
 />
    <glyph glyph-name="space" unicode=" " horiz-adv-x="306" 
 />
    <glyph glyph-name="exclam" unicode="!" horiz-adv-x="276" 
d="M170 700v-480h-64v480h64zM138 126c17.333 0 32.166 -6.16699 44.499 -18.5s18.5 -27.166 18.5 -44.499c0 -18 -6.16699 -33 -18.5 -45s-27.166 -18 -44.499 -18c-18 0 -33 6 -45 18s-18 27 -18 45c0 17.333 6 32.166 18 44.499s27 18.5 45 18.5z" />
    <glyph glyph-name="quotedbl" unicode="&#x22;" horiz-adv-x="313" 
d="M122 700v-255h-52v255h52zM243 700v-255h-52v255h52z" />
    <glyph glyph-name="numbersign" unicode="#" horiz-adv-x="554" 
d="M360 436h-141l-24 -164h142zM330 226h-142l-33 -226h-49l33 226h-109l6 46h109l24 164h-109l7 47h109l31 217h50l-32 -217h142l31 217h50l-31 -217h107l-6 -47h-108l-24 -164h107l-7 -46h-106l-33 -226h-49z" />
    <glyph glyph-name="dollar" unicode="$" horiz-adv-x="525" 
d="M121 516c0 -18 3.16699 -33.5 9.5 -46.5s14.833 -24.167 25.5 -33.5s23.167 -17.333 37.5 -24s29.5 -13 45.5 -19v242c-36 -4 -64.667 -16.5 -86 -37.5s-32 -48.167 -32 -81.5zM404 184c0 19.333 -3.33301 35.833 -10 49.5s-15.5 25.334 -26.5 35.001
s-23.667 17.667 -38 24s-28.833 12.166 -43.5 17.499v-245c34 3.33301 62.167 15 84.5 35s33.5 48 33.5 84zM239 -79l0.00195312 79.9971c-18.667 2 -37.667 6.16699 -57 12.5s-37.5 15.5 -54.5 27.5s-32.333 27.5 -46 46.5s-24.167 42.167 -31.5 69.5l56 30
c10 -38 26.667 -66.667 50 -86s51 -31 83 -35v259c-22 7.33301 -43.833 15.833 -65.5 25.5s-41.167 21.834 -58.5 36.501s-31.333 32.5 -42 53.5s-16 46.5 -16 76.5c0 27.333 4.83301 51.833 14.5 73.5s22.667 40.167 39 55.5s35.5 27.5 57.5 36.5s45.667 14.5 71 16.5v78
h47v-78c43.333 -4 82.166 -18.833 116.499 -44.5s58.5 -63.167 72.5 -112.5l-60 -24c-10 38 -26.5 66.167 -49.5 84.5s-49.5 29.166 -79.5 32.499v-258c24 -8 47 -17 69 -27s41.333 -22.167 58 -36.5s30 -31.833 40 -52.5s15 -45.667 15 -75s-4.83301 -55.166 -14.5 -77.499
s-22.834 -41.166 -39.501 -56.499s-36 -27.166 -58 -35.499s-45.333 -13.5 -70 -15.5v-80h-47z" />
    <glyph glyph-name="percent" unicode="%" horiz-adv-x="803" 
d="M648 700l36 -29l-529 -671l-36 30zM197 700c22.667 0 43.667 -4 63 -12s36.166 -19.167 50.499 -33.5s25.5 -31.166 33.5 -50.499s12 -40.333 12 -63s-4 -43.667 -12 -63s-19.167 -36.166 -33.5 -50.499s-31.166 -25.5 -50.499 -33.5s-40.333 -12 -63 -12
s-43.667 4 -63 12s-36.166 19.167 -50.499 33.5s-25.5 31.166 -33.5 50.499s-12 40.333 -12 63s4 43.667 12 63s19.167 36.166 33.5 50.499s31.166 25.5 50.499 33.5s40.333 12 63 12zM308 541c0 32 -10.5 58.667 -31.5 80s-47.5 32 -79.5 32
c-32.667 0 -59.5 -10.667 -80.5 -32s-31.5 -48 -31.5 -80s10.5 -58.5 31.5 -79.5s47.833 -31.5 80.5 -31.5c32 0 58.5 10.5 79.5 31.5s31.5 47.5 31.5 79.5zM450 159c0 22.667 4 43.667 12 63s19.167 36.166 33.5 50.499s31.166 25.5 50.499 33.5s40.333 12 63 12
s43.667 -4 63 -12s36.166 -19.167 50.499 -33.5s25.5 -31.166 33.5 -50.499s12 -40.333 12 -63s-4 -43.667 -12 -63s-19.167 -36.166 -33.5 -50.499s-31.166 -25.5 -50.499 -33.5s-40.333 -12 -63 -12s-43.667 4 -63 12s-36.166 19.167 -50.499 33.5
s-25.5 31.166 -33.5 50.499s-12 40.333 -12 63zM609 270c-32 0 -58.667 -10.5 -80 -31.5s-32 -47.5 -32 -79.5c0 -16 2.83301 -30.833 8.5 -44.5s13.5 -25.5 23.5 -35.5s21.833 -17.833 35.5 -23.5s28.5 -8.5 44.5 -8.5c32 0 58.5 10.667 79.5 32s31.5 48 31.5 80
s-10.5 58.5 -31.5 79.5s-47.5 31.5 -79.5 31.5z" />
    <glyph glyph-name="ampersand" unicode="&#x26;" horiz-adv-x="692" 
d="M282 427c14 8.66699 27.167 17.668 39.5 27.001s23.333 19.333 33 30s17.167 22.167 22.5 34.5s8 26.166 8 41.499c0 28.667 -9 51.167 -27 67.5s-39.667 24.5 -65 24.5c-26 0 -47.833 -8.5 -65.5 -25.5s-26.5 -38.167 -26.5 -63.5c0 -18.667 4.33301 -35.667 13 -51
s19 -30 31 -44zM291 48.001c40 0 73.333 8.33301 100 25s48.667 38.667 66 66l-189 211c-19.333 -12 -37 -23.833 -53 -35.5s-29.667 -24 -41 -37s-20 -27 -26 -42s-9 -31.833 -9 -50.5s3.16699 -36.334 9.5 -53.001s15.833 -31.167 28.5 -43.5s28.5 -22.166 47.5 -29.499
s41.167 -11 66.5 -11zM498 93.001c-22.667 -32 -50.8301 -57.5029 -84.4971 -76.5029s-74.834 -28.5 -123.501 -28.5c-35.333 0 -66.333 5 -93 15s-49 23.833 -67 41.5s-31.667 38.5 -41 62.5s-14 49.667 -14 77c0 26.667 4.33301 50.334 13 71.001s20 39.334 34 56.001
s30.167 31.667 48.5 45s37.5 26.333 57.5 39l-33 37c-15.333 17.333 -28.833 36.5 -40.5 57.5s-17.5 45.5 -17.5 73.5c0 20.667 3.66699 40 11 58s17.666 33.667 30.999 47s29.666 24 48.999 32s41 12 65 12s45.5 -4 64.5 -12s35.167 -18.667 48.5 -32
s23.666 -29.333 30.999 -48s11 -38.334 11 -59.001c0 -21.333 -3.5 -40.666 -10.5 -57.999s-16.5 -33.166 -28.5 -47.499s-25.667 -27.333 -41 -39s-31 -22.834 -47 -33.501l167 -185c8.66699 22.667 15.834 45.834 21.501 69.501s10.5 46.834 14.5 69.501l57 -11
c-4.66699 -31.333 -11 -61.833 -19 -91.5s-18.333 -57.834 -31 -84.501l96 -107l-47 -42z" />
    <glyph glyph-name="quotesingle" unicode="'" horiz-adv-x="192" 
d="M122 700v-255h-52v255h52z" />
    <glyph glyph-name="parenleft" unicode="(" horiz-adv-x="306" 
d="M40 317c0 98 17.334 186.33 52.001 264.997s80.667 148 138 208l40 -37c-26 -29.333 -49.5 -59.833 -70.5 -91.5s-38.833 -65.167 -53.5 -100.5s-26 -73.166 -34 -113.499s-12 -83.833 -12 -130.5c0 -92.667 15.167 -175 45.5 -247s72.166 -137.667 125.499 -197l-41 -37
c-56.667 60.667 -102.5 131.334 -137.5 212.001s-52.5 170.334 -52.5 269.001z" />
    <glyph glyph-name="parenright" unicode=")" horiz-adv-x="301" 
d="M76 790c28.667 -30 54.666 -62.3311 77.999 -96.998s43.333 -71.667 60 -111s29.5 -81.166 38.5 -125.499s13.5 -90.833 13.5 -139.5c0 -98.667 -17.5 -188.334 -52.5 -269.001s-80.833 -151.334 -137.5 -212.001l-41 37c52.667 59.333 94.334 125 125.001 197
s46 154.333 46 247c0 46.667 -4 90.167 -12 130.5s-19.333 78.166 -34 113.499s-32.5 68.833 -53.5 100.5s-44.5 62.167 -70.5 91.5l40 37v0z" />
    <glyph glyph-name="asterisk" unicode="*" horiz-adv-x="424" 
d="M235 700v-128l123 40l16 -46l-124 -39l76 -104l-37 -29l-77 104l-77 -105l-37 29l76 104l-124 40l16 45l122 -40v129h47z" />
    <glyph glyph-name="plus" unicode="+" 
d="M352 566v-216h216v-64h-216v-216h-64v216h-216v64h216v216h64z" />
    <glyph glyph-name="comma" unicode="," horiz-adv-x="257" 
d="M184 137l50 -29l-171 -301l-50 27z" />
    <glyph glyph-name="hyphen" unicode="-" horiz-adv-x="628" 
d="M548 352v-64h-468v64h468z" />
    <glyph glyph-name="period" unicode="." horiz-adv-x="276" 
d="M138 126c17.333 0 32.166 -6.16699 44.499 -18.5s18.5 -27.166 18.5 -44.499c0 -18 -6.16699 -33 -18.5 -45s-27.166 -18 -44.499 -18c-18 0 -33 6 -45 18s-18 27 -18 45c0 17.333 6 32.166 18 44.499s27 18.5 45 18.5z" />
    <glyph glyph-name="slash" unicode="/" horiz-adv-x="708" 
d="M632 735l42 -36l-611 -735l-43 36z" />
    <glyph glyph-name="zero" unicode="0" horiz-adv-x="767" 
d="M60 350c0 52 8.5 99.5 25.5 142.5s40 79.833 69 110.5s63.167 54.5 102.5 71.5s81.333 25.5 126 25.5s86.834 -8.5 126.501 -25.5s74 -40.833 103 -71.5s52 -67.5 69 -110.5s25.5 -90.5 25.5 -142.5s-8.5 -99.5 -25.5 -142.5s-40 -79.833 -69 -110.5
s-63.333 -54.5 -103 -71.5s-81.834 -25.5 -126.501 -25.5s-86.667 8.5 -126 25.5s-73.5 40.833 -102.5 71.5s-52 67.5 -69 110.5s-25.5 90.5 -25.5 142.5zM643 350c0 42 -6.66699 80.667 -20 116s-31.666 65.5 -54.999 90.5s-50.833 44.5 -82.5 58.5s-65.834 21 -102.501 21
s-70.667 -7 -102 -21s-58.666 -33.5 -81.999 -58.5s-41.666 -55.167 -54.999 -90.5s-20 -74 -20 -116c0 -42.667 6.66699 -81.5 20 -116.5s31.666 -65 54.999 -90s50.666 -44.5 81.999 -58.5s65.333 -21 102 -21s70.834 7 102.501 21s59.167 33.5 82.5 58.5
s41.666 55 54.999 90s20 73.833 20 116.5zM314 350c0 20 6.66699 36.667 20 50s29.666 20 48.999 20c20 0 36.667 -6.66699 50 -20s20 -30 20 -50s-6.66699 -36.667 -20 -50s-30 -20 -50 -20c-19.333 0 -35.666 6.66699 -48.999 20s-20 30 -20 50z" />
    <glyph glyph-name="one" unicode="1" horiz-adv-x="441" 
d="M331 700v-700h-64v606l-183 -179l-44 45l232 228h59z" />
    <glyph glyph-name="two" unicode="2" horiz-adv-x="532" 
d="M35 550c10 20.667 22 40.1709 36 58.5039s30.167 34.166 48.5 47.499s38.833 24 61.5 32s47.334 12 74.001 12c31.333 0 60.333 -5.5 87 -16.5s49.667 -26 69 -45s34.333 -41.5 45 -67.5s16 -53.667 16 -83c0 -38.667 -7.83301 -72.834 -23.5 -102.501
s-32.834 -54.167 -51.501 -73.5l-245 -248h320v-64h-416v56l296 302c17.333 17.333 31 36.666 41 57.999s15 44.333 15 69c0 22 -3.83301 42.167 -11.5 60.5s-18.334 34.166 -32.001 47.499s-29.667 23.833 -48 31.5s-38.166 11.5 -59.499 11.5
c-38 0 -71.833 -11.667 -101.5 -35s-52.5 -55.333 -68.5 -96l-52 45v0z" />
    <glyph glyph-name="three" unicode="3" horiz-adv-x="517" 
d="M51 550c7.33301 20.667 17.335 40.167 30.002 58.5s27.667 34.166 45 47.499s37.166 24 59.499 32s46.833 12 73.5 12c28 0 54 -4.66699 78 -14s44.833 -22.333 62.5 -39s31.667 -36.667 42 -60s15.5 -49 15.5 -77c0 -38 -9.16699 -70.833 -27.5 -98.5
s-43.5 -47.834 -75.5 -60.501c33.333 -13.333 58.833 -34.166 76.5 -62.499s26.5 -61.5 26.5 -99.5c0 -29.333 -5 -55.5 -15 -78.5s-23.833 -42.833 -41.5 -59.5s-38.5 -29.334 -62.5 -38.001s-49.667 -13 -77 -13s-52.166 3.83301 -74.499 11.5s-42.5 18.334 -60.5 32.001
s-33.333 30 -46 49s-22.667 39.833 -30 62.5l55 42c11.333 -40 30.166 -72.167 56.499 -96.5s59.5 -36.5 99.5 -36.5c38 0 69.5 11.5 94.5 34.5s37.5 53.5 37.5 91.5c0 39.333 -12.333 70.333 -37 93s-55.667 34.667 -93 36h-31v64h31c37.333 1.33301 68.333 13.333 93 36
s37 53 37 91c0 18.667 -3.33301 35.834 -10 51.501s-16 29 -28 40s-26 19.5 -42 25.5s-33.333 9 -52 9c-38.667 0 -71.334 -12.167 -98.001 -36.5s-46 -55.5 -58 -93.5l-54 44v0z" />
    <glyph glyph-name="four" unicode="4" horiz-adv-x="684" 
d="M497 700v-481h142v-64h-142v-155h-64v155h-403v59l412 486h55zM433 589l-313 -370h313v370z" />
    <glyph glyph-name="five" unicode="5" horiz-adv-x="543" 
d="M488 700l0.00488281 -63.999h-325v-185c11.333 4 25 7.5 41 10.5s33.667 4.5 53 4.5c34.667 0 66.167 -5.5 94.5 -16.5s52.666 -26.667 72.999 -47s36 -45 47 -74s16.5 -61.167 16.5 -96.5c0 -39.333 -6.66699 -73.5 -20 -102.5s-31 -53 -53 -72s-47.333 -33.333 -76 -43
s-58.334 -14.5 -89.001 -14.5c-32.667 0 -65.667 5.33301 -99 16s-63.666 26.667 -90.999 48l33 57c25.333 -20 51.666 -34.5 78.999 -43.5s53.666 -13.5 78.999 -13.5c24 0 46.5 3.5 67.5 10.5s39.333 17.667 55 32s28 32.166 37 53.499s13.5 46 13.5 74
c0 27.333 -4.33301 51.5 -13 72.5s-20.5 38.5 -35.5 52.5s-32.833 24.667 -53.5 32s-43.334 11 -68.001 11s-50.334 -3.5 -77.001 -10.5s-52.667 -16.167 -78 -27.5v336h389z" />
    <glyph glyph-name="six" unicode="6" horiz-adv-x="580" 
d="M302 0c-42.667 0 -80.667 9.16797 -114 27.501s-59.333 44.5 -78 78.5c-14 24 -24.167 52 -30.5 84s-9.5 71.333 -9.5 118c0 46 4.16699 92.333 12.5 139s22.666 88.667 42.999 126s47.333 67.833 81 91.5s76.167 35.5 127.5 35.5c38 0 69.167 -5.16699 93.5 -15.5
s44.5 -21.166 60.5 -32.499l-34 -53c-15.333 10 -32.833 18.667 -52.5 26s-42.5 11 -68.5 11c-30.667 0 -57.667 -6.33301 -81 -19s-43 -30.167 -59 -52.5s-28 -48.833 -36 -79.5s-12.333 -64 -13 -100v-8.5c0 -3 0.333008 -6.16699 1 -9.5c16 25.333 37.5 46.5 64.5 63.5
s58.833 25.5 95.5 25.5c32.667 0 62.667 -5.33301 90 -16s51 -25.834 71 -45.501s35.667 -43.334 47 -71.001s17 -58.5 17 -92.5s-5.66699 -65 -17 -93s-27.166 -52.333 -47.499 -73s-44.5 -36.667 -72.5 -48s-58.333 -17 -91 -17zM305 392.001c-24 0 -46.167 -4 -66.5 -12
s-37.833 -19.333 -52.5 -34s-26 -32 -34 -52s-12 -42 -12 -66c0 -25.333 4.16699 -48.166 12.5 -68.499s19.833 -37.5 34.5 -51.5s31.834 -24.833 51.501 -32.5s41.167 -11.5 64.5 -11.5s45 4 65 12s37.167 19.333 51.5 34s25.666 32.167 33.999 52.5
s12.5 43.166 12.5 68.499c0 24 -4 46 -12 66s-19 37 -33 51s-30.833 24.833 -50.5 32.5s-41.5 11.5 -65.5 11.5z" />
    <glyph glyph-name="seven" unicode="7" horiz-adv-x="538" 
d="M498 700v-61l-322 -639h-72l320 636h-384v64h458z" />
    <glyph glyph-name="eight" unicode="8" horiz-adv-x="531" 
d="M60 511c0 28.667 5.16797 54.665 15.501 77.998s24.5 43.166 42.5 59.499s39.667 29 65 38s53 13.5 83 13.5s57.5 -4.5 82.5 -13.5s46.5 -21.667 64.5 -38s32.167 -36.166 42.5 -59.499s15.5 -49 15.5 -77c0 -34.667 -8.16699 -66 -24.5 -94s-43.166 -50.667 -80.499 -68
c37.333 -17.333 64.166 -40 80.499 -68s24.5 -59.333 24.5 -94c0 -28 -5.16699 -53.667 -15.5 -77s-24.5 -43.166 -42.5 -59.499s-39.5 -29 -64.5 -38s-52.5 -13.5 -82.5 -13.5s-57.667 4.5 -83 13.5s-47 21.667 -65 38s-32.167 36.166 -42.5 59.499s-15.5 49.333 -15.5 78
c0 35.333 8 66.833 24 94.5s42 49.834 78 66.501c-34.667 15.333 -60.334 36.833 -77.001 64.5s-25 59.834 -25 96.501zM407.001 509.998c0 38 -13 68.5 -39 91.5s-60 34.5 -102 34.5s-76.167 -11.5 -102.5 -34.5s-39.5 -53.5 -39.5 -91.5c0 -20.667 4 -38.834 12 -54.501
s18.5 -29 31.5 -40s28.167 -19.333 45.5 -25s35 -8.5 53 -8.5s35.5 2.83301 52.5 8.5s32 14 45 25s23.5 24.333 31.5 40s12 33.834 12 54.501zM407.001 189.998c0 20.667 -4 38.834 -12 54.501s-18.5 29 -31.5 40s-28 19.333 -45 25s-34.5 8.5 -52.5 8.5
s-35.667 -2.83301 -53 -8.5s-32.5 -14 -45.5 -25s-23.5 -24.333 -31.5 -40s-12 -33.834 -12 -54.501c0 -38 13.167 -68.5 39.5 -91.5s60.5 -34.5 102.5 -34.5s76 11.5 102 34.5s39 53.5 39 91.5z" />
    <glyph glyph-name="nine" unicode="9" horiz-adv-x="564" 
d="M440 472c0 25.333 -4.16699 48.1689 -12.5 68.502s-19.833 37.5 -34.5 51.5s-32 24.833 -52 32.5s-41.333 11.5 -64 11.5c-23.333 0 -45 -4 -65 -12s-37.333 -19.333 -52 -34s-26 -32.334 -34 -53.001s-12 -43.334 -12 -68.001c0 -24 4 -46 12 -66s19 -37 33 -51
s30.833 -24.833 50.5 -32.5s41.5 -11.5 65.5 -11.5s46.167 4 66.5 12s37.833 19.333 52.5 34s26 32 34 52s12 42 12 66zM50 469.003c0 34 5.66699 64.9961 17 92.9961s27.166 52.333 47.499 73s44.5 36.667 72.5 48s58.333 17 91 17c42 0 79.5 -9.16699 112.5 -27.5
s59.167 -44.5 78.5 -78.5c14.667 -25.333 25 -54.5 31 -87.5s9 -72.833 9 -119.5c0 -46 -3.5 -92.167 -10.5 -138.5s-20.167 -87.833 -39.5 -124.5s-46.166 -66.5 -80.499 -89.5s-79.166 -34.5 -134.499 -34.5c-34 0 -63.333 3.83301 -88 11.5s-47.667 17.167 -69 28.5
l27 59c20.667 -11.333 42.167 -20 64.5 -26s44.833 -9 67.5 -9c32.667 0 61 6.5 85 19.5s43.833 30.833 59.5 53.5s27 49.334 34 80.001s10.167 63.334 9.5 98.001v17c-16 -25.333 -37.333 -46.333 -64 -63s-58 -25 -94 -25c-32.667 0 -62.834 5.33301 -90.501 16
s-51.5 25.834 -71.5 45.501s-35.667 43.334 -47 71.001s-17 58.5 -17 92.5z" />
    <glyph glyph-name="colon" unicode=":" horiz-adv-x="270" 
d="M135 512c17.333 0 32.166 -6.16699 44.499 -18.5s18.5 -27.166 18.5 -44.499c0 -18 -6.16699 -33 -18.5 -45s-27.166 -18 -44.499 -18c-18 0 -33 6 -45 18s-18 27 -18 45c0 17.333 6 32.166 18 44.499s27 18.5 45 18.5zM135 126c17.333 0 32.166 -6.16699 44.499 -18.5
s18.5 -27.166 18.5 -44.499c0 -18 -6.16699 -33 -18.5 -45s-27.166 -18 -44.499 -18c-18 0 -33 6 -45 18s-18 27 -18 45c0 17.333 6 32.166 18 44.499s27 18.5 45 18.5z" />
    <glyph glyph-name="semicolon" unicode=";" horiz-adv-x="333" 
d="M129 449c0 17.333 6 32.166 18 44.499s27 18.5 45 18.5c17.333 0 32.166 -6.16699 44.499 -18.5s18.5 -27.166 18.5 -44.499c0 -18 -6.16699 -33 -18.5 -45s-27.166 -18 -44.499 -18c-18 0 -33 6 -45 18s-18 27 -18 45zM184 137l50 -29l-171 -301l-50 27z" />
    <glyph glyph-name="less" unicode="&#x3c;" 
d="M526 503l26 -57l-377 -164l377 -164l-26 -56l-438 192v57z" />
    <glyph glyph-name="equal" unicode="=" 
d="M563 432v-64h-486v64h486zM563 223v-64h-486v64h486z" />
    <glyph glyph-name="greater" unicode="&#x3e;" 
d="M552 311v-57l-438 -192l-26 56l377 164l-377 164l26 57z" />
    <glyph glyph-name="question" unicode="?" horiz-adv-x="539" 
d="M50 482c0 30 4.66797 58.165 14.001 84.498s23 49.5 41 69.5s40 35.667 66 47s56 17 90 17c29.333 0 56.166 -4.5 80.499 -13.5s45.166 -21.667 62.499 -38s30.833 -35.833 40.5 -58.5s14.5 -48 14.5 -76c0 -20.667 -2.66699 -39.167 -8 -55.5
s-12.333 -31.166 -21 -44.499s-18.667 -25.833 -30 -37.5l-35 -34.5l-27.5 -25.5c-9 -8.33301 -17 -17.333 -24 -27s-12.667 -20 -17 -31s-6.5 -23.833 -6.5 -38.5v-21h-64v21c0 21.333 3 40.333 9 57s13.833 31.834 23.5 45.501s20.167 26 31.5 37l34 31.5l25 23
c8.66699 8 16.334 16.667 23.001 26s12.167 19.833 16.5 31.5s6.5 25.167 6.5 40.5c0 16.667 -2.83301 32.5 -8.5 47.5s-14.167 28.167 -25.5 39.5s-25.333 20.333 -42 27s-36 10 -58 10c-47.333 0 -83.833 -14.5 -109.5 -43.5s-38.5 -65.833 -38.5 -110.5h-63z
M259.001 125.998c17.333 0 32.166 -6.16699 44.499 -18.5s18.5 -27.166 18.5 -44.499c0 -18 -6.16699 -33 -18.5 -45s-27.166 -18 -44.499 -18c-18 0 -33 6 -45 18s-18 27 -18 45c0 17.333 6 32.166 18 44.499s27 18.5 45 18.5z" />
    <glyph glyph-name="at" unicode="@" horiz-adv-x="952" 
d="M882 351c0 -38.667 -3.66797 -73.6689 -11.001 -105.002s-18.333 -58.166 -33 -80.499s-32.834 -39.666 -54.501 -51.999s-46.834 -18.5 -75.501 -18.5c-30.667 0 -54.5 7.16699 -71.5 21.5s-28.833 35.5 -35.5 63.5c-14 -26.667 -33 -48.167 -57 -64.5
s-54.667 -24.5 -92 -24.5c-44.667 0 -79.667 11.833 -105 35.5s-38 53.834 -38 90.501c0 19.333 3.5 36.5 10.5 51.5s16.167 27.5 27.5 37.5s24.666 18 39.999 24s31.333 9.66699 48 11l153 14c0 42 -8.33301 70.667 -25 86s-42 23 -76 23c-28 0 -53 -5.66699 -75 -17
s-36.667 -29.666 -44 -54.999l-48 24c9.33301 30.667 27.166 55.167 53.499 73.5s62.833 27.5 109.5 27.5c54.667 0 95.334 -13.667 122.001 -41s40 -67.333 40 -120v-125c0 -25.333 5.5 -45.666 16.5 -60.999s27.833 -23 50.5 -23c33.333 0 60 16.5 80 49.5
s30 84.167 30 153.5c0 48.667 -8.83301 92 -26.5 130s-41.5 70 -71.5 96s-65.333 45.667 -106 59s-84 20 -130 20c-50.667 0 -97.834 -8.5 -141.501 -25.5s-81.5 -41 -113.5 -72s-57.167 -68.167 -75.5 -111.5s-27.5 -91.333 -27.5 -144c0 -51.333 8.5 -98.5 25.5 -141.5
s41 -80.333 72 -112s68 -56.334 111 -74.001s90.167 -26.5 141.5 -26.5c48 0 91.833 4.5 131.5 13.5s72.5 19.5 98.5 31.5l12 -55c-31.333 -13.333 -66.333 -24.5 -105 -33.5s-84 -13.5 -136 -13.5c-60.667 0 -116.167 10.167 -166.5 30.5s-93.666 48.833 -129.999 85.5
s-64.5 80.167 -84.5 130.5s-30 105.166 -30 164.499c0 61.333 10.833 117.166 32.5 167.499s51.334 93.5 89.001 129.5s81.834 63.833 132.501 83.5s105.334 29.5 164.001 29.5c54 0 105 -8 153 -24s89.833 -39.167 125.5 -69.5s63.834 -68 84.501 -113s31 -96.5 31 -154.5z
M456.999 143.998c21.333 0 40.167 3.66504 56.5 10.998s30 17 41 29s19.333 25.5 25 40.5s8.5 30.167 8.5 45.5v34l-147 -16c-27.333 -3.33301 -46.333 -12.166 -57 -26.499s-16 -29.166 -16 -44.499c0 -20 7.33301 -37.167 22 -51.5s37 -21.5 67 -21.5z" />
    <glyph glyph-name="A" unicode="A" horiz-adv-x="739" 
d="M169 192h400l-200 431zM599 128h-460l-59 -128h-70l326 700h67l326 -700h-71z" />
    <glyph glyph-name="B" unicode="B" horiz-adv-x="597" 
d="M361 700c28 0 54 -4.34082 78 -13.0078s44.667 -21.167 62 -37.5s31 -36.166 41 -59.499s15 -49.666 15 -78.999c0 -37.333 -9.5 -70.166 -28.5 -98.499s-44.833 -49.166 -77.5 -62.499c32.667 -13.333 58.5 -34.166 77.5 -62.499s28.5 -61.166 28.5 -98.499
c0 -29.333 -5 -55.666 -15 -78.999s-23.667 -43.166 -41 -59.499s-38 -28.833 -62 -37.5s-50 -13 -78 -13h-281v700h281zM493 510.992c0 38 -11.832 68.333 -35.499 91s-55.834 34 -96.501 34h-217v-254h225c36 0 65.667 12 89 36s35 55 35 93zM493.001 188.992
c0 38 -11.668 69 -35.001 93s-53 36 -89 36h-225v-254h217c40.667 0 72.834 11.333 96.501 34s35.5 53 35.5 91z" />
    <glyph glyph-name="C" unicode="C" horiz-adv-x="653" 
d="M50 350c0 50 8.83203 96.333 26.499 139s42.167 79.667 73.5 111s68.333 55.833 111 73.5s88.667 26.5 138 26.5c48.667 0 92.667 -8.5 132 -25.5s75 -39.5 107 -67.5l-28 -61c-27.333 26 -58.333 47.5 -93 64.5s-75 25.5 -121 25.5c-40 0 -77.333 -7 -112 -21
s-64.5 -33.667 -89.5 -59s-44.667 -55.5 -59 -90.5s-21.5 -73.5 -21.5 -115.5s7.16699 -80.5 21.5 -115.5s34 -65.167 59 -90.5s54.833 -45 89.5 -59s72 -21 112 -21c20.667 0 40.834 2 60.501 6s41.167 10.667 64.5 20l11 -64c-28 -9.33301 -52.667 -16 -74 -20
s-42 -6 -62 -6c-48.667 -0 -94 8.83301 -136 26.5s-78.5 42.167 -109.5 73.5s-55.5 68.333 -73.5 111s-27 89 -27 139z" />
    <glyph glyph-name="D" unicode="D" horiz-adv-x="714" 
d="M314 700c50 0 96.333 -8.83105 139 -26.498s79.667 -42 111 -73s55.833 -67.833 73.5 -110.5s26.5 -89.334 26.5 -140.001s-8.83301 -97.334 -26.5 -140.001s-42.167 -79.5 -73.5 -110.5s-68.333 -55.333 -111 -73s-89 -26.5 -139 -26.5h-234v700h234zM600 350.002
c0 41.333 -7.16699 79.502 -21.5 114.502s-34.166 65.167 -59.499 90.5s-55.5 45.166 -90.5 59.499s-73.167 21.5 -114.5 21.5h-170v-572h170c41.333 0 79.5 7.16699 114.5 21.5s65.167 34.166 90.5 59.499s45.166 55.5 59.499 90.5s21.5 73.167 21.5 114.5z" />
    <glyph glyph-name="E" unicode="E" horiz-adv-x="550" 
d="M498 700v-64h-354v-254h354v-64h-354v-254h354v-64h-418v700h418z" />
    <glyph glyph-name="F" unicode="F" horiz-adv-x="538" 
d="M498 700v-64h-354v-254h354v-64h-354v-318h-64v700h418z" />
    <glyph glyph-name="G" unicode="G" horiz-adv-x="653" 
d="M50 351c0 50 8.83203 96.168 26.499 138.501s42.167 79.166 73.5 110.499s68.333 55.833 111 73.5s88.667 26.5 138 26.5c48.667 0 92.667 -8.5 132 -25.5s75 -39.833 107 -68.5l-28 -60c-27.333 26 -58.333 47.5 -93 64.5s-75 25.5 -121 25.5c-40 0 -77.333 -7 -112 -21
s-64.5 -33.667 -89.5 -59s-44.667 -55.5 -59 -90.5s-21.5 -73.5 -21.5 -115.5s7.16699 -80.5 21.5 -115.5s34 -65.167 59 -90.5s54.833 -45 89.5 -59s72.334 -21 113.001 -21c14.667 0 28.334 1 41.001 3s25.667 4.66699 39 8v215h-167v64h231v-326
c-22.667 -8.66699 -46.334 -15.5 -71.001 -20.5s-49.667 -7.5 -75 -7.5c-48 -0 -93 8.83301 -135 26.5s-78.5 42.167 -109.5 73.5s-55.5 68.5 -73.5 111.5s-27 89.5 -27 139.5z" />
    <glyph glyph-name="H" unicode="H" horiz-adv-x="736" 
d="M656 700v-700h-64v318h-448v-318h-64v700h64v-318h448v318h64z" />
    <glyph glyph-name="I" unicode="I" horiz-adv-x="224" 
d="M144 700v-700h-64v700h64z" />
    <glyph glyph-name="J" unicode="J" horiz-adv-x="478" 
d="M408 700l0.000976562 -482.002c0 -69.333 -17.5 -123 -52.5 -161s-83.167 -57 -144.5 -57c-34 0 -63.167 5.5 -87.5 16.5s-44.5 25.333 -60.5 43s-27.833 37.5 -35.5 59.5s-11.834 43.667 -12.501 65l59 30c0.666992 -21.333 4.16699 -41.166 10.5 -59.499
s15.166 -34.166 26.499 -47.499s25.333 -23.833 42 -31.5s36 -11.5 58 -11.5c24 0 44.333 4 61 12s30.334 19 41.001 33s18.5 30.333 23.5 49s7.5 38.667 7.5 60v482h64z" />
    <glyph glyph-name="K" unicode="K" horiz-adv-x="625" 
d="M270 351l-126 -128v-223h-64v700h64v-386l380 386h90l-298 -302l304 -398h-81z" />
    <glyph glyph-name="L" unicode="L" horiz-adv-x="521" 
d="M144 700v-636h362v-64h-426v700h64z" />
    <glyph glyph-name="M" unicode="M" horiz-adv-x="1008" 
d="M144 0h-64v700h65l359 -618l359 618h65v-700h-64v570l-332 -570h-57l-331 570v-570z" />
    <glyph glyph-name="N" unicode="N" horiz-adv-x="771" 
d="M698 700v-700h-64l-497 597v-597h-64v700h64l497 -598v598h64z" />
    <glyph glyph-name="O" unicode="O" horiz-adv-x="800" 
d="M50 350c0 50 8.83301 96.333 26.5 139s42.167 79.667 73.5 111s68.333 55.833 111 73.5s89 26.5 139 26.5s96.5 -8.83301 139.5 -26.5s80 -42.167 111 -73.5s55.333 -68.333 73 -111s26.5 -89 26.5 -139s-8.83301 -96.333 -26.5 -139s-42 -79.667 -73 -111
s-68 -55.833 -111 -73.5s-89.5 -26.5 -139.5 -26.5s-96.333 8.83301 -139 26.5s-79.667 42.167 -111 73.5s-55.833 68.333 -73.5 111s-26.5 89 -26.5 139zM686 350c0 41.333 -7.16699 79.5 -21.5 114.5s-34.166 65.167 -59.499 90.5s-55.5 45.166 -90.5 59.499
s-73.167 21.5 -114.5 21.5s-79.5 -7.16699 -114.5 -21.5s-65.167 -34.166 -90.5 -59.499s-45.166 -55.5 -59.499 -90.5s-21.5 -73.167 -21.5 -114.5s7.16699 -79.5 21.5 -114.5s34.166 -65.167 59.499 -90.5s55.5 -45.166 90.5 -59.499s73.167 -21.5 114.5 -21.5
s79.5 7.16699 114.5 21.5s65.167 34.166 90.5 59.499s45.166 55.5 59.499 90.5s21.5 73.167 21.5 114.5z" />
    <glyph glyph-name="P" unicode="P" horiz-adv-x="585" 
d="M318 700c35.333 0 67.666 -5.66699 96.999 -17s54.333 -27.333 75 -48s36.667 -45.167 48 -73.5s17 -59.5 17 -93.5s-5.66699 -65 -17 -93s-27.333 -52.333 -48 -73s-45.667 -36.667 -75 -48s-61.666 -17 -96.999 -17h-174v-237h-64v700h238zM491 468
c0 24.667 -4.16699 47.166 -12.5 67.499s-20 38 -35 53s-33.167 26.667 -54.5 35s-45 12.5 -71 12.5h-174v-335h174c26 0 49.667 4.16699 71 12.5s39.5 19.833 54.5 34.5s26.667 32.334 35 53.001s12.5 43 12.5 67z" />
    <glyph glyph-name="Q" unicode="Q" horiz-adv-x="834" 
d="M624 76c-30 -24 -63.834 -42.667 -101.501 -56s-78.5 -20 -122.5 -20c-50 -0 -96.333 8.83301 -139 26.5s-79.667 42.167 -111 73.5s-55.833 68.333 -73.5 111s-26.5 89 -26.5 139s8.83301 96.333 26.5 139s42.167 79.667 73.5 111s68.333 55.833 111 73.5
s89 26.5 139 26.5s96.5 -8.83301 139.5 -26.5s80 -42.167 111 -73.5s55.333 -68.333 73 -111s26.5 -89 26.5 -139c0 -44.667 -7.16699 -86.5 -21.5 -125.5s-34.166 -73.5 -59.499 -103.5l185 -185l-45 -45zM399.999 64c34.667 0 66.999 4.99902 96.999 14.999
s57 24.333 81 43l-206 206l45 45l207 -207c19.333 24.667 34.5 52.5 45.5 83.5s16.5 64.5 16.5 100.5c0 41.333 -7.16699 79.5 -21.5 114.5s-34.166 65.167 -59.499 90.5s-55.5 45.166 -90.5 59.499s-73.167 21.5 -114.5 21.5s-79.5 -7.16699 -114.5 -21.5
s-65.167 -34.166 -90.5 -59.499s-45.166 -55.5 -59.499 -90.5s-21.5 -73.167 -21.5 -114.5s7.16699 -79.5 21.5 -114.5s34.166 -65.167 59.499 -90.5s55.5 -45.166 90.5 -59.499s73.167 -21.5 114.5 -21.5z" />
    <glyph glyph-name="R" unicode="R" horiz-adv-x="651" 
d="M319 302l-53.002 66.001l50 39l79 -97c36 10 64.5 29.167 85.5 57.5s31.5 62.166 31.5 101.499c0 24.667 -4.16699 47.167 -12.5 67.5s-20.166 37.833 -35.499 52.5s-33.666 26.167 -54.999 34.5s-45 12.5 -71 12.5h-194v-334h175zM143.998 0.000976562h-63.999v700h258
c36 0 68.5 -5.66699 97.5 -17s54 -27.333 75 -48s37.167 -45 48.5 -73s17 -59 17 -93c0 -50.667 -12.333 -94.5 -37 -131.5s-58.334 -64.167 -101.001 -81.5l208 -256h-84l-193 240c-5.33301 -0.666992 -10.5 -1.16699 -15.5 -1.5s-10.167 -0.5 -15.5 -0.5h-194v-238z" />
    <glyph glyph-name="S" unicode="S" horiz-adv-x="505" 
d="M47 517c0 29.333 5.50195 55.334 16.502 78.001s25.833 41.834 44.5 57.501s40.5 27.5 65.5 35.5s51.167 12 78.5 12c24 0 47.167 -3.16699 69.5 -9.5s42.833 -16 61.5 -29s35 -29.5 49 -49.5s25 -43.333 33 -70l-60 -24c-11.333 42.667 -30.833 73 -58.5 91
s-59.167 27 -94.5 27c-42 0 -76 -10.833 -102 -32.5s-39 -50.834 -39 -87.501c0 -21.333 4.16699 -39 12.5 -53s19.666 -26 33.999 -36s30.666 -18.5 48.999 -25.5s37.5 -13.833 57.5 -20.5c25.333 -8 49.666 -17 72.999 -27s44 -22.333 62 -37s32.333 -32.5 43 -53.5
s16 -46.833 16 -77.5c0 -31.333 -5.5 -58.666 -16.5 -81.999s-25.833 -42.666 -44.5 -57.999s-40.167 -26.833 -64.5 -34.5s-49.833 -11.5 -76.5 -11.5c-20 0 -41 2.5 -63 7.5s-43 13.5 -63 25.5s-38 28 -54 48s-28 45.333 -36 76l56 30
c11.333 -42.667 31.166 -73.834 59.499 -93.501s61.5 -29.5 99.5 -29.5c20 0 38.333 2.5 55 7.5s31.334 12.5 44.001 22.5s22.5 22.5 29.5 37.5s10.5 32.5 10.5 52.5c0 22 -4.33301 40.5 -13 55.5s-19.834 27.5 -33.501 37.5s-29.167 18.167 -46.5 24.5
s-34.666 12.166 -51.999 17.499c-23.333 7.33301 -47 15.666 -71 24.999s-45.667 21.5 -65 36.5s-35.166 33.5 -47.499 55.5s-18.5 49 -18.5 81z" />
    <glyph glyph-name="T" unicode="T" horiz-adv-x="647" 
d="M355 636v-636h-64v636h-286v64h637v-64h-287z" />
    <glyph glyph-name="U" unicode="U" horiz-adv-x="778" 
d="M708 700v-383c0 -45.333 -8.16699 -87.333 -24.5 -126s-38.666 -72.167 -66.999 -100.5s-62 -50.5 -101 -66.5s-81.167 -24 -126.5 -24s-87.333 8 -126 24s-72.334 38.167 -101.001 66.5s-51.167 61.833 -67.5 100.5s-24.5 80.667 -24.5 126v383h64v-383
c0 -36 6.5 -69.333 19.5 -100s30.833 -57.334 53.5 -80.001s49.667 -40.5 81 -53.5s65 -19.5 101 -19.5c36.667 0 70.5 6.5 101.5 19.5s57.833 30.833 80.5 53.5s40.5 49.334 53.5 80.001s19.5 64 19.5 100v383h64z" />
    <glyph glyph-name="V" unicode="V" horiz-adv-x="726" 
d="M339 0l-334 700h71l288 -604l286 604h71l-334 -700h-48z" />
    <glyph glyph-name="W" unicode="W" horiz-adv-x="1221" 
d="M293 0l-283 700h69l239 -591l262 591h61l262 -591l239 591h69l-282 -700h-48l-270 610l-271 -610h-47z" />
    <glyph glyph-name="X" unicode="X" horiz-adv-x="679" 
d="M15 0l283 350l-283 350h82l243 -299l242 299h82l-283 -350l283 -350h-83l-241 299l-242 -299h-83z" />
    <glyph glyph-name="Y" unicode="Y" horiz-adv-x="633" 
d="M284 0v299l-279 401h78l233 -336l233 336h79l-280 -401v-299h-64z" />
    <glyph glyph-name="Z" unicode="Z" horiz-adv-x="656" 
d="M606 700v-49l-461 -587h461v-64h-556v49l461 587h-461v64h556z" />
    <glyph glyph-name="bracketleft" unicode="[" horiz-adv-x="326" 
d="M296 761v-53h-129v-789h129v-53h-186v895h186z" />
    <glyph glyph-name="backslash" unicode="\" horiz-adv-x="702" 
d="M63 735l605 -735l-43 -36l-605 735z" />
    <glyph glyph-name="bracketright" unicode="]" horiz-adv-x="326" 
d="M216 761v-895h-186v53h129v789h-129v53h186z" />
    <glyph glyph-name="asciicircum" unicode="^" horiz-adv-x="357" 
d="M206 738l131 -236l-47 -25l-111 205l-112 -205l-47 25l131 236h55z" />
    <glyph glyph-name="underscore" unicode="_" horiz-adv-x="598" 
d="M568 5v-64h-538v64h538z" />
    <glyph glyph-name="grave" unicode="`" horiz-adv-x="341" 
d="M79 767l212 -136l-27 -43l-214 134z" />
    <glyph glyph-name="a" unicode="a" horiz-adv-x="508" 
d="M396 255l-182 -20.001c-38 -4 -65 -14.833 -81 -32.5s-24 -38.167 -24 -61.5c0 -28.667 9.5 -51.5 28.5 -68.5s46.833 -25.5 83.5 -25.5c28 0 52.833 4.83301 74.5 14.5s40 22.334 55 38.001s26.333 33.5 34 53.5s11.5 40.333 11.5 61v41zM63 391.999
c4.66699 16.667 11.667 32.3311 21 46.998s22 27.5 38 38.5s35.333 19.5 58 25.5s49.667 9 81 9c66.667 0 116 -15.333 148 -46s48 -76.667 48 -138v-328h-61v107c-15.333 -38 -39.166 -67 -71.499 -87s-69.5 -30 -111.5 -30c-27.333 0 -51.5 3.83301 -72.5 11.5
s-38.5 18.167 -52.5 31.5s-24.667 29.333 -32 48s-11 38.667 -11 60c0 46.667 15.167 82.334 45.5 107.001s68.5 39.334 114.5 44.001l166 16c16.667 2 25 9 25 21v18c0 34 -10.333 60.833 -31 80.5s-54.334 29.5 -101.001 29.5c-84.667 0 -133.667 -31.333 -147 -94z" />
    <glyph glyph-name="b" unicode="b" horiz-adv-x="605" 
d="M134 700v-309.002c8 15.333 18 30.333 30 45s26 27.667 42 39s34.333 20.333 55 27s44 10 70 10c36.667 0 70 -6.66699 100 -20s55.5 -31.666 76.5 -54.999s37.167 -51 48.5 -83s17 -66.667 17 -104s-5.66699 -72 -17 -104s-27.5 -59.667 -48.5 -83
s-46.5 -41.666 -76.5 -54.999s-63.333 -20 -100 -20c-26 0 -49.5 3.33301 -70.5 10s-39.667 15.667 -56 27s-30.333 24.333 -42 39s-21.167 29.667 -28.5 45v-109h-61v700h61zM510 249.998c0 28.667 -4.33301 55.499 -13 80.499s-21.167 46.833 -37.5 65.5
s-36.166 33.167 -59.499 43.5s-50 15.5 -80 15.5c-29.333 0 -55.666 -5 -78.999 -15s-43.166 -24 -59.499 -42s-29 -39.5 -38 -64.5s-13.5 -52.833 -13.5 -83.5s4.5 -58.5 13.5 -83.5s21.667 -46.5 38 -64.5s36.166 -32 59.499 -42s49.666 -15 78.999 -15
c30 0 56.667 5.16699 80 15.5s43.166 24.833 59.499 43.5s28.833 40.334 37.5 65.001s13 51.667 13 81z" />
    <glyph glyph-name="c" unicode="c" horiz-adv-x="491" 
d="M32 249c0 38 6.16895 73 18.502 105s30 59.833 53 83.5s50.667 42 83 55s68.166 19.5 107.499 19.5c36 0 68.5 -5.66699 97.5 -17s54.5 -27.666 76.5 -48.999l-39 -48c-19.333 17.333 -40.5 30.833 -63.5 40.5s-47.833 14.5 -74.5 14.5c-28.667 0 -55 -4.83301 -79 -14.5
s-44.667 -23.167 -62 -40.5s-30.833 -38.666 -40.5 -63.999s-14.5 -53.333 -14.5 -84s4.83301 -58.5 14.5 -83.5s23.167 -46.333 40.5 -64s38 -31.334 62 -41.001s50 -14.5 78 -14.5s54.167 5.16699 78.5 15.5s46.166 24.166 65.499 41.499l37 -48
c-21.333 -20 -47 -36.333 -77 -49s-64.333 -19 -103 -19c-39.333 0 -75 6.5 -107 19.5s-59.333 31 -82 54s-40 50.5 -52 82.5s-18 67 -18 105z" />
    <glyph glyph-name="d" unicode="d" horiz-adv-x="605" 
d="M285 455c-30 0 -56.667 -5.16602 -80 -15.499s-43.166 -24.833 -59.499 -43.5s-28.833 -40.5 -37.5 -65.5s-13 -51.833 -13 -80.5c0 -29.333 4.33301 -56.333 13 -81s21.167 -46.334 37.5 -65.001s36.166 -33.167 59.499 -43.5s50 -15.5 80 -15.5
c28.667 0 54.834 5 78.501 15s43.667 24 60 42s29 39.5 38 64.5s13.5 52.833 13.5 83.5s-4.5 58.5 -13.5 83.5s-21.667 46.5 -38 64.5s-36.333 32 -60 42s-49.834 15 -78.501 15zM532 700.001v-699.998h-61v109c-7.33301 -15.333 -16.833 -30.333 -28.5 -45
s-25.667 -27.667 -42 -39s-35 -20.333 -56 -27s-44.5 -10 -70.5 -10c-36.667 0 -70 6.66699 -100 20s-55.5 31.666 -76.5 54.999s-37.167 51 -48.5 83s-17 66.667 -17 104s5.66699 72 17 104s27.5 59.667 48.5 83s46.5 41.666 76.5 54.999s63.333 20 100 20
c26 0 49.333 -3.33301 70 -10s39 -15.667 55 -27s30 -24.333 42 -39s22 -29.667 30 -45v309h61z" />
    <glyph glyph-name="e" unicode="e" horiz-adv-x="542" 
d="M32 247c0 37.333 5.83301 72.167 17.5 104.5s28.167 60.333 49.5 84s47.166 42.334 77.499 56.001s64.166 20.5 101.499 20.5c39.333 0 73.833 -6.83301 103.5 -20.5s54.334 -32.167 74.001 -55.5s34.334 -50.5 44.001 -81.5s14.5 -63.833 14.5 -98.5v-18h-420l-1 -7
c0.666992 -30 6.16699 -56.5 16.5 -79.5s24 -42.333 41 -58s36.833 -27.667 59.5 -36s47 -12.5 73 -12.5c38 0 70.667 7.5 98 22.5s50.666 33.167 69.999 54.5l32 -48c-21.333 -22 -48 -41.833 -80 -59.5s-71 -26.5 -117 -26.5c-38 0 -72.5 6.16699 -103.5 18.5
s-57.667 29.666 -80 51.999s-39.666 49.5 -51.999 81.5s-18.5 67.667 -18.5 107zM447 287.001c-1.33301 24 -5.83301 46.167 -13.5 66.5s-18.5 38 -32.5 53s-31.167 26.833 -51.5 35.5s-43.833 13 -70.5 13c-54 0 -96.5 -15.5 -127.5 -46.5s-49.5 -71.5 -55.5 -121.5h351z
" />
    <glyph glyph-name="f" unicode="f" horiz-adv-x="348" 
d="M173 446l-0.000976562 -445.999h-61v446h-97v54h97v35c0 32.667 3.66699 60.167 11 82.5s17.833 40.166 31.5 53.499s29.834 23 48.501 29s39 9 61 9c12 0 23.667 -0.666992 35 -2l34 -4v-57c-11.333 2 -22 3.66699 -32 5s-20 2 -30 2
c-32.667 0 -57.167 -8.5 -73.5 -25.5s-24.5 -47.833 -24.5 -92.5v-35h154v-54h-154z" />
    <glyph glyph-name="g" unicode="g" horiz-adv-x="607" 
d="M482 250c0 30.667 -4.33301 58.501 -13 83.501s-21.334 46.5 -38.001 64.5s-36.667 32 -60 42s-49.333 15 -78 15c-29.333 0 -55.833 -5.16699 -79.5 -15.5s-43.834 -24.833 -60.501 -43.5s-29.334 -40.5 -38.001 -65.5s-13 -51.833 -13 -80.5
c0 -29.333 4.33301 -56.333 13 -81s21.334 -46.334 38.001 -65.001s36.834 -33.167 60.501 -43.5s50.167 -15.5 79.5 -15.5c28.667 0 54.667 5 78 15s43.333 24 60 42s29.334 39.5 38.001 64.5s13 52.833 13 83.5zM38 250.001c0 37.333 5.83691 72.001 17.5039 104.001
s28.167 59.667 49.5 83s47 41.666 77 54.999s63.667 20 101 20c26.667 0 50.667 -3.5 72 -10.5s40 -16 56 -27s29.5 -23.5 40.5 -37.5s19.5 -28.333 25.5 -43v106h62v-473c0 -30 -3.5 -59.5 -10.5 -88.5s-19.667 -54.667 -38 -77s-43 -40.333 -74 -54
s-70.5 -20.5 -118.5 -20.5c-30.667 0 -57.834 2.83301 -81.501 8.5s-44.5 13.5 -62.5 23.5s-33.333 22 -46 36s-23.667 29.333 -33 46l47 39c17.333 -32 40.166 -56.5 68.499 -73.5s65.5 -25.5 111.5 -25.5c34.667 0 63.5 5 86.5 15s41.333 23.5 55 40.5
s23.167 36.833 28.5 59.5s8 46.334 8 71.001v79c-6.66699 -15.333 -15.834 -30 -27.501 -44s-25.667 -26.5 -42 -37.5s-35 -19.833 -56 -26.5s-44.5 -10 -70.5 -10c-38.667 0 -73.334 6.66699 -104.001 20s-56.5 31.666 -77.5 54.999s-37 51 -48 83s-16.5 66.667 -16.5 104z
" />
    <glyph glyph-name="h" unicode="h" horiz-adv-x="565" 
d="M134 700v-310c15.333 36 37.833 65.333 67.5 88s67.5 34 113.5 34c64 0 111.5 -20.167 142.5 -60.5s46.5 -93.5 46.5 -159.5v-292h-63v296c0 48 -11.5 86.5 -34.5 115.5s-57.167 43.5 -102.5 43.5c-32 0 -59 -6 -81 -18s-39.5 -28.333 -52.5 -49s-22.333 -44.5 -28 -71.5
s-8.5 -55.5 -8.5 -85.5v-231h-61v700h61z" />
    <glyph glyph-name="i" unicode="i" horiz-adv-x="211" 
d="M50 652c0 16 5.33301 29.333 16 40s24 16 40 16c15.333 0 28.5 -5.33301 39.5 -16s16.5 -24 16.5 -40c0 -15.333 -5.5 -28.5 -16.5 -39.5s-24.167 -16.5 -39.5 -16.5c-16 0 -29.333 5.5 -40 16.5s-16 24.167 -16 39.5zM136 500v-500h-61v500h61z" />
    <glyph glyph-name="j" unicode="j" horiz-adv-x="237" 
d="M70 652c0 16 5.33301 29.333 16 40s24 16 40 16c15.333 0 28.5 -5.33301 39.5 -16s16.5 -24 16.5 -40c0 -15.333 -5.5 -28.5 -16.5 -39.5s-24.167 -16.5 -39.5 -16.5c-16 0 -29.333 5.5 -40 16.5s-16 24.167 -16 39.5zM157 500v-534c0 -59.333 -13.5 -102.5 -40.5 -129.5
s-72.5 -40.5 -136.5 -40.5h-10v59h10c23.333 0 42.5 2.5 57.5 7.5s26.833 12.167 35.5 21.5s14.667 20.833 18 34.5s5 29.5 5 47.5v534h61z" />
    <glyph glyph-name="k" unicode="k" horiz-adv-x="498" 
d="M225 240l-91 -91v-149h-61v700h61v-473l263 273h86l-217 -218l222 -282h-80z" />
    <glyph glyph-name="l" unicode="l" horiz-adv-x="209" 
d="M136 700v-700h-63v700h63z" />
    <glyph glyph-name="m" unicode="m" horiz-adv-x="935" 
d="M477 377c34.667 90 99.9971 135.001 195.997 135.001c66 0 114.667 -19.667 146 -59s47 -93.333 47 -162v-291h-62v299c0 49.333 -11.5 87.666 -34.5 114.999s-57.5 41 -103.5 41c-31.333 0 -57.666 -5.83301 -78.999 -17.5s-38.666 -27.5 -51.999 -47.5
s-22.833 -43.333 -28.5 -70s-8.5 -55 -8.5 -85v-235h-62v297c0 50 -11.667 88.833 -35 116.5s-58 41.5 -104 41.5c-31.333 0 -57.666 -6 -78.999 -18s-38.5 -28.333 -51.5 -49s-22.167 -44.5 -27.5 -71.5s-8 -55.5 -8 -85.5v-231h-61v500h59v-113
c13.333 40 35 70.833 65 92.5s67 32.5 111 32.5c46 0 83.667 -11.5 113 -34.5s49 -56.5 59 -100.5z" />
    <glyph glyph-name="n" unicode="n" horiz-adv-x="569" 
d="M129 389c16 36.667 39.332 66.333 69.999 89s68.334 34 113.001 34c64 0 111.5 -20.167 142.5 -60.5s46.5 -93.5 46.5 -159.5v-292h-63v296c0 50 -12 89 -36 117s-58 42 -102 42c-32 0 -58.833 -6 -80.5 -18s-39 -28.333 -52 -49s-22.333 -44.5 -28 -71.5
s-8.5 -55.5 -8.5 -85.5v-231h-61v500h59v-111v0z" />
    <glyph glyph-name="o" unicode="o" horiz-adv-x="587" 
d="M32 250c0 38 6.5 73 19.5 105s31.167 59.667 54.5 83s51 41.5 83 54.5s67 19.5 105 19.5s73 -6.5 105 -19.5s59.667 -31.167 83 -54.5s41.5 -51 54.5 -83s19.5 -67 19.5 -105s-6.5 -73 -19.5 -105s-31.167 -59.667 -54.5 -83s-51 -41.5 -83 -54.5s-67 -19.5 -105 -19.5
s-73 6.5 -105 19.5s-59.667 31.167 -83 54.5s-41.5 51 -54.5 83s-19.5 67 -19.5 105zM492 250c0 30 -4.66699 57.333 -14 82s-22.666 46 -39.999 64s-38.166 32 -62.499 42s-51.5 15 -81.5 15s-57.167 -5 -81.5 -15s-45.333 -24 -63 -42s-31.167 -39.333 -40.5 -64
s-14 -52 -14 -82s4.66699 -57.333 14 -82s22.833 -46 40.5 -64s38.667 -32 63 -42s51.5 -15 81.5 -15s57.167 5 81.5 15s45.166 24 62.499 42s30.666 39.333 39.999 64s14 52 14 82z" />
    <glyph glyph-name="p" unicode="p" horiz-adv-x="605" 
d="M320 45c30 0 56.667 5.16602 80 15.499s43.166 24.833 59.499 43.5s28.833 40.334 37.5 65.001s13 51.667 13 81c0 28.667 -4.33301 55.5 -13 80.5s-21.167 46.833 -37.5 65.5s-36.166 33.167 -59.499 43.5s-50 15.5 -80 15.5c-29.333 0 -55.666 -5 -78.999 -15
s-43.166 -24 -59.499 -42s-29 -39.5 -38 -64.5s-13.5 -52.833 -13.5 -83.5s4.5 -58.5 13.5 -83.5s21.667 -46.5 38 -64.5s36.166 -32 59.499 -42s49.666 -15 78.999 -15zM73 -200.001v699.998h61v-109c7.33301 15.333 16.833 30.333 28.5 45s25.667 27.667 42 39
s35 20.333 56 27s44.5 10 70.5 10c36.667 0 70 -6.66699 100 -20s55.5 -31.666 76.5 -54.999s37.167 -51 48.5 -83s17 -66.667 17 -104s-5.66699 -72 -17 -104s-27.5 -59.667 -48.5 -83s-46.5 -41.666 -76.5 -54.999s-63.333 -20 -100 -20c-26 0 -49.333 3.33301 -70 10
s-39 15.667 -55 27s-30 24.333 -42 39s-22 29.667 -30 45v-309h-61z" />
    <glyph glyph-name="q" unicode="q" horiz-adv-x="605" 
d="M471 -200v309.002c-8 -15.333 -18 -30.333 -30 -45s-26 -27.667 -42 -39s-34.333 -20.333 -55 -27s-44 -10 -70 -10c-36.667 0 -70 6.66699 -100 20s-55.5 31.666 -76.5 54.999s-37.167 51 -48.5 83s-17 66.667 -17 104s5.66699 72 17 104s27.5 59.667 48.5 83
s46.5 41.666 76.5 54.999s63.333 20 100 20c26 0 49.5 -3.33301 70.5 -10s39.667 -15.667 56 -27s30.333 -24.333 42 -39s21.167 -29.667 28.5 -45v109h61v-700h-61zM95 250.002c0 -29.333 4.33301 -56.332 13 -80.999s21.167 -46.334 37.5 -65.001
s36.166 -33.167 59.499 -43.5s50 -15.5 80 -15.5c28.667 0 54.834 5 78.501 15s43.667 24 60 42s29 39.5 38 64.5s13.5 52.833 13.5 83.5s-4.5 58.5 -13.5 83.5s-21.667 46.5 -38 64.5s-36.333 32 -60 42s-49.834 15 -78.501 15c-30 0 -56.667 -5.16699 -80 -15.5
s-43.166 -24.833 -59.499 -43.5s-28.833 -40.5 -37.5 -65.5s-13 -51.833 -13 -80.5z" />
    <glyph glyph-name="r" unicode="r" horiz-adv-x="355" 
d="M129 386c13.333 42.667 33.333 74.332 60 94.999s59 31 97 31c14 0 30.333 -1.66699 49 -5v-64c-9.33301 2 -18 3.33301 -26 4s-16 1 -24 1c-29.333 0 -53.833 -5.66699 -73.5 -17s-35.5 -26.666 -47.5 -45.999s-20.5 -42.333 -25.5 -69s-7.5 -55 -7.5 -85v-231h-61v500
h59v-114v0z" />
    <glyph glyph-name="s" unicode="s" horiz-adv-x="454" 
d="M50 370c0 42 15.998 76.1699 47.998 102.503s77.333 39.5 136 39.5c42.667 0 80.334 -8.33301 113.001 -25s58.334 -42.334 77.001 -77.001l-51 -33c-11.333 23.333 -28.333 42.166 -51 56.499s-52.334 21.5 -89.001 21.5c-38.667 0 -68.667 -7.66699 -90 -23
s-32 -34.666 -32 -57.999c0 -16 3.83301 -29.167 11.5 -39.5s17.834 -18.833 30.501 -25.5s27.334 -12 44.001 -16l52 -12c20.667 -4 41.5 -8.66699 62.5 -14s40 -13 57 -23s31 -23.667 42 -41s16.5 -40.333 16.5 -69c0 -24.667 -4.66699 -46.167 -14 -64.5
s-22.333 -33.5 -39 -45.5s-36.5 -21 -59.5 -27s-48.5 -9 -76.5 -9c-21.333 0 -42.5 2 -63.5 6s-40.833 10.333 -59.5 19s-35.667 20.167 -51 34.5s-27.666 32.166 -36.999 53.499l50 33c7.33301 -17.333 17 -31.833 29 -43.5s25.333 -20.834 40 -27.501
s30 -11.334 46 -14.001s32 -4 48 -4c37.333 0 67.666 6.66699 90.999 20s35 35 35 65c0 16.667 -3.5 30.334 -10.5 41.001s-16.5 19.167 -28.5 25.5s-25.833 11.5 -41.5 15.5s-31.834 7.66699 -48.501 11c-22 4 -44 9 -66 15s-42 14.333 -60 25s-32.667 24.5 -44 41.5
s-17 38.833 -17 65.5z" />
    <glyph glyph-name="t" unicode="t" horiz-adv-x="354" 
d="M329 5c-12.667 -3.33301 -25.165 -5.83301 -37.498 -7.5s-25.5 -2.5 -39.5 -2.5c-44 0 -77 10.333 -99 31s-33 56.667 -33 108v312h-105v54h105v134h61v-134h145v-54h-145v-315c0 -26.667 5.33301 -46.5 16 -59.5s30 -19.5 58 -19.5c15.333 0 28.666 0.666992 39.999 2
s22.666 3 33.999 5v-54v0z" />
    <glyph glyph-name="u" unicode="u" horiz-adv-x="564" 
d="M494 500v-500h-59v114c-33.333 -84 -92 -126 -176 -126c-34.667 0 -64 5.33301 -88 16s-43.5 25.667 -58.5 45s-25.833 42.333 -32.5 69s-10 56 -10 88v294h63v-294c0 -23.333 2.16699 -44.833 6.5 -64.5s11.833 -36.667 22.5 -51s24.667 -25.5 42 -33.5s39 -12 65 -12
c30.667 0 56.5 6.16699 77.5 18.5s38 29 51 50s22.167 44.833 27.5 71.5s8 54.667 8 84v231h61z" />
    <glyph glyph-name="v" unicode="v" horiz-adv-x="510" 
d="M230 0l-220 500h72l173 -416l173 416h71l-220 -500h-49z" />
    <glyph glyph-name="w" unicode="w" horiz-adv-x="872" 
d="M216 0l-206 500h70l161 -409l173 409h44l173 -409l161 409h70l-206 -500h-47l-173 401l-172 -401h-48z" />
    <glyph glyph-name="x" unicode="x" horiz-adv-x="494" 
d="M247 205l-161 -205h-76l199 253l-194 247h76l156 -198l156 198h76l-194 -247l199 -253h-76z" />
    <glyph glyph-name="y" unicode="y" horiz-adv-x="506" 
d="M109 -200l120 258l-219 442h74l178 -371l173 371h65l-324 -700h-67z" />
    <glyph glyph-name="z" unicode="z" horiz-adv-x="452" 
d="M416 500v-55l-312 -388h320v-57h-396v55l312 388h-297v57h373z" />
    <glyph glyph-name="braceleft" unicode="{" horiz-adv-x="367" 
d="M347 761v-53.999h-26c-29.333 0 -52.5 -7 -69.5 -21s-25.5 -36.333 -25.5 -67v-173c0 -36 -6.83301 -64.167 -20.5 -84.5s-35.834 -34.833 -66.501 -43.5c30.667 -9.33301 52.834 -24 66.501 -44s20.5 -48 20.5 -84v-181c0 -31.333 8.5 -54 25.5 -68s40.167 -21 69.5 -21
h26v-54h-23c-49.333 0 -87.333 11.5 -114 34.5s-40 60.167 -40 111.5v172c0 33.333 -9.5 58.5 -28.5 75.5s-46.167 26.5 -81.5 28.5v54c35.333 2 62.5 11.667 81.5 29s28.5 42.666 28.5 75.999v169c0 51.333 13.333 88.333 40 111s64.667 34 114 34h23z" />
    <glyph glyph-name="bar" unicode="|" horiz-adv-x="254" 
d="M154 761v-895h-54v895h54z" />
    <glyph glyph-name="braceright" unicode="}" horiz-adv-x="367" 
d="M43 761c49.333 0 87.333 -11.334 114 -34.001s40 -59.667 40 -111v-169c0 -33.333 9.5 -58.666 28.5 -75.999s46.167 -27 81.5 -29v-54c-35.333 -2 -62.5 -11.5 -81.5 -28.5s-28.5 -42.167 -28.5 -75.5v-172c0 -51.333 -13.333 -88.5 -40 -111.5
s-64.667 -34.5 -114 -34.5h-23v54h26c29.333 0 52.5 7 69.5 21s25.5 36.667 25.5 68v181c0 36 6.83301 64 20.5 84s35.834 34.667 66.501 44c-30.667 8.66699 -52.834 23.167 -66.501 43.5s-20.5 48.5 -20.5 84.5v173c0 30.667 -8.5 53 -25.5 67s-40.167 21 -69.5 21h-26v54
h23z" />
    <glyph glyph-name="asciitilde" unicode="~" horiz-adv-x="667" 
d="M70 302c20.667 21.333 43.499 39.499 68.499 54.499s52.833 22.5 83.5 22.5c22 0 43 -4.16699 63 -12.5s39 -17.666 57 -27.999s35.667 -19.666 53 -27.999s34.666 -12.5 51.999 -12.5c21.333 0 41.666 6 60.999 18s36.666 26.333 51.999 43l37 -39
c-21.333 -22 -44.5 -40.667 -69.5 -56s-52.5 -23 -82.5 -23c-22 0 -42.833 4.16699 -62.5 12.5s-38.667 17.5 -57 27.5s-36.166 19.167 -53.499 27.5s-34.666 12.5 -51.999 12.5c-21.333 0 -41.666 -5.83301 -60.999 -17.5s-36.666 -25.834 -51.999 -42.501l-37 41v0z" />
    <glyph glyph-name="exclamdown" unicode="&#xa1;" horiz-adv-x="276" 
d="M201 437c0 -17.333 -6.16699 -32.166 -18.5 -44.499s-27.166 -18.5 -44.499 -18.5c-18 0 -33 6.16699 -45 18.5s-18 27.166 -18 44.499c0 18 6 33 18 45s27 18 45 18c17.333 0 32.166 -6 44.499 -18s18.5 -27 18.5 -45zM106 -200v480h64v-480h-64z" />
    <glyph glyph-name="cent" unicode="&#xa2;" horiz-adv-x="489" 
d="M471 56c-19.333 -19.333 -43.001 -35.167 -71.001 -47.5s-59.667 -19.166 -95 -20.499v-85h-46v87c-35.333 3.33301 -67 12 -95 26s-51.667 32.5 -71 55.5s-34.333 49.5 -45 79.5s-16 62.667 -16 98c0 34.667 5.33301 67.167 16 97.5s25.834 57 45.501 80
s43.5 41.667 71.5 56s59.333 23.5 94 27.5v89h46v-87c34 -1.33301 64.333 -7.66602 91 -18.999s50.667 -27 72 -47l-39 -48c-17.333 15.333 -36.5 27.833 -57.5 37.5s-43.167 15.167 -66.5 16.5v-404c24.667 1.33301 48 7.16602 70 17.499s41.667 23.166 59 38.499z
M94.999 249.999c0 -56 15.167 -101.668 45.5 -137.001s69.833 -56.666 118.5 -63.999v402c-49.333 -7.33301 -89 -28.5 -119 -63.5s-45 -80.833 -45 -137.5z" />
    <glyph glyph-name="sterling" unicode="&#xa3;" horiz-adv-x="595" 
d="M572 86c-9.33301 -12.667 -19.665 -24.166 -30.998 -34.499s-24.666 -19.333 -39.999 -27s-32.833 -13.667 -52.5 -18s-42.167 -6.5 -67.5 -6.5h-314v58c30 3.33301 52.833 14.666 68.5 33.999s23.5 46.666 23.5 81.999v162h-98v54h98v112c0 28 3.66699 54 11 78
s18.666 45 33.999 63s34.666 32 57.999 42s50.666 15 81.999 15c22 0 42 -3 60 -9s33.833 -13.833 47.5 -23.5s25.5 -20.667 35.5 -33s18.333 -24.833 25 -37.5l-54 -39c-10.667 24.667 -25.667 44.334 -45 59.001s-42.333 22 -69 22c-38 0 -67.667 -11.667 -89 -35
s-32 -57.333 -32 -102v-112h210v-54h-210v-161c0 -33.333 -5.83301 -59.333 -17.5 -78s-25.167 -30.667 -40.5 -36h216c36 -0.666992 67.167 6.33301 93.5 21s47.5 35 63.5 61l34 -57v0z" />
    <glyph glyph-name="currency" unicode="&#xa4;" horiz-adv-x="532" 
d="M399 187c-18 -14.667 -38.333 -26.001 -61 -34.001s-46.667 -12 -72 -12s-49.333 4 -72 12s-43 19.333 -61 34l-81 -80l-32 32l81 81c-30 36 -45 79.667 -45 131s15 95 45 131l-76 76l34 32l74 -75c18 14.667 38.333 26 61 34s46.667 12 72 12s49.333 -4 72 -12
s43 -19.333 61 -34l74 75l33 -32l-75 -75c14 -18 24.833 -38.167 32.5 -60.5s11.5 -46.166 11.5 -71.499s-3.83301 -49 -11.5 -71s-18.167 -42 -31.5 -60l80 -81l-32 -32zM266 499.999c-21.333 0 -41 -3.83301 -59 -11.5s-33.833 -18.167 -47.5 -31.5
s-24.167 -29.166 -31.5 -47.499s-11 -37.833 -11 -58.5c0 -21.333 3.66699 -41 11 -59s17.833 -33.667 31.5 -47s29.5 -23.833 47.5 -31.5s37.667 -11.5 59 -11.5c20.667 0 40.167 3.83301 58.5 11.5s34.166 18.167 47.499 31.5s23.833 29 31.5 47s11.5 37.667 11.5 59
c0 20.667 -3.83301 40.167 -11.5 58.5s-18.167 34.166 -31.5 47.499s-29.166 23.833 -47.499 31.5s-37.833 11.5 -58.5 11.5z" />
    <glyph glyph-name="yen" unicode="&#xa5;" horiz-adv-x="633" 
d="M348 170v-170h-64v170h-193v50h193v78h-193v50h159l-245 352h78l233 -336l233 336h79l-246 -352h160v-50h-194v-78h194v-50h-194z" />
    <glyph glyph-name="brokenbar" unicode="&#xa6;" horiz-adv-x="254" 
d="M154 761v-388h-54v388h54zM154 284v-418h-54v418h54z" />
    <glyph glyph-name="section" unicode="&#xa7;" horiz-adv-x="504" 
d="M198 404c-24 -11.333 -44.4971 -26.1689 -61.4971 -44.502s-25.5 -41.166 -25.5 -68.499c0 -22 6.16699 -40.333 18.5 -55s28.166 -27.5 47.499 -38.5s40.666 -21 63.999 -30s45.666 -18.833 66.999 -29.5c23.333 11.333 43.333 26.333 60 45s25 41.334 25 68.001
c0 22 -6.16699 40.333 -18.5 55s-28 27.5 -47 38.5s-40 21 -63 30s-45.167 18.833 -66.5 29.5zM260.003 711.997c37.333 0 70.332 -8.00195 98.999 -24.002s52 -39.667 70 -71l-50 -33c-12 22 -28.333 39.333 -49 52s-45 19 -73 19c-36 0 -63.667 -9.33301 -83 -28
s-29 -41.334 -29 -68.001c0 -24 7.66699 -43.667 23 -59s34.333 -28.666 57 -39.999s47.5 -22 74.5 -32s51.833 -22.167 74.5 -36.5s41.667 -32.166 57 -53.499s23 -48.666 23 -81.999c0 -34.667 -8.5 -64.667 -25.5 -90s-39.5 -45 -67.5 -59
c17.333 -13.333 31.5 -29.333 42.5 -48s16.5 -42 16.5 -70c0 -22.667 -4 -43.667 -12 -63s-19.5 -36.166 -34.5 -50.499s-33.333 -25.5 -55 -33.5s-46.167 -12 -73.5 -12c-76.667 0 -133.334 31.667 -170.001 95l50 33c12 -22 28.333 -39.333 49 -52s44.667 -19 72 -19
c36 0 63.833 9.5 83.5 28.5s29.5 42.5 29.5 70.5c0 24 -7.66699 43.667 -23 59s-34.333 28.5 -57 39.5s-47.5 21.5 -74.5 31.5s-51.833 22.167 -74.5 36.5s-41.667 31.833 -57 52.5s-23 47.667 -23 81c0 36 9 66.667 27 92s40.333 44.666 67 57.999
c-18 13.333 -32.667 29.5 -44 48.5s-17 42.5 -17 70.5c0 24 4.33301 45.667 13 65s20.834 35.833 36.501 49.5s34.334 24.167 56.001 31.5s45.5 11 71.5 11z" />
    <glyph glyph-name="dieresis" unicode="&#xa8;" horiz-adv-x="410" 
d="M50 652c0 16 5.33301 29.333 16 40s24 16 40 16c15.333 0 28.5 -5.33301 39.5 -16s16.5 -24 16.5 -40c0 -15.333 -5.5 -28.5 -16.5 -39.5s-24.167 -16.5 -39.5 -16.5c-16 0 -29.333 5.5 -40 16.5s-16 24.167 -16 39.5zM248 652c0 16 5.5 29.333 16.5 40
s24.167 16 39.5 16c16 0 29.333 -5.33301 40 -16s16 -24 16 -40c0 -15.333 -5.33301 -28.5 -16 -39.5s-24 -16.5 -40 -16.5c-15.333 0 -28.5 5.5 -39.5 16.5s-16.5 24.167 -16.5 39.5z" />
    <glyph glyph-name="copyright" unicode="&#xa9;" horiz-adv-x="824" 
d="M50 350c0 52 9 100.167 27 144.5s43 82.5 75 114.5s70.167 57.167 114.5 75.5s92.833 27.5 145.5 27.5s101.167 -9.16699 145.5 -27.5s82.5 -43.5 114.5 -75.5s57 -70.167 75 -114.5s27 -92.5 27 -144.5s-9 -100.167 -27 -144.5s-43 -82.5 -75 -114.5
s-70.167 -57.167 -114.5 -75.5s-92.833 -27.5 -145.5 -27.5s-101.167 9.16699 -145.5 27.5s-82.5 43.5 -114.5 75.5s-57 70.167 -75 114.5s-27 92.5 -27 144.5zM724 350c0 44.667 -7.83301 86.167 -23.5 124.5s-37.334 71.333 -65.001 99s-60.5 49.334 -98.5 65.001
s-79.667 23.5 -125 23.5s-87 -7.83301 -125 -23.5s-70.833 -37.334 -98.5 -65.001s-49.334 -60.667 -65.001 -99s-23.5 -79.833 -23.5 -124.5c0 -45.333 7.83301 -87 23.5 -125s37.334 -70.833 65.001 -98.5s60.5 -49.334 98.5 -65.001s79.667 -23.5 125 -23.5
s87 7.83301 125 23.5s70.833 37.334 98.5 65.001s49.334 60.5 65.001 98.5s23.5 79.667 23.5 125zM216 354c0 28.667 5.00195 55 15.002 79s23.833 44.667 41.5 62s38.5 30.833 62.5 40.5s50 14.5 78 14.5c27.333 0 51.666 -4.5 72.999 -13.5s41.666 -22.167 60.999 -39.5
l-20 -45c-32.667 32.667 -71 49 -115 49c-21.333 0 -40.833 -3.5 -58.5 -10.5s-33.167 -16.833 -46.5 -29.5s-23.666 -28.167 -30.999 -46.5s-11 -38.5 -11 -60.5s3.83301 -42.167 11.5 -60.5s18 -34 31 -47s28.5 -23 46.5 -30s37.667 -10.5 59 -10.5c42 0 80 15.333 114 46
l20 -45c-19.333 -16 -39.833 -28.167 -61.5 -36.5s-45.834 -12.5 -72.501 -12.5c-28 0 -54 4.83301 -78 14.5s-44.833 23.167 -62.5 40.5s-31.5 38 -41.5 62s-15 50.333 -15 79z" />
    <glyph glyph-name="ordfeminine" unicode="&#xaa;" horiz-adv-x="433" 
d="M108 443c0 -20 7.16797 -36.333 21.501 -49s35.166 -19 62.499 -19c20 0 38 3.5 54 10.5s29.667 16.167 41 27.5s20 24 26 38s9 28.333 9 43v32l-141 -14c-22.667 -2.66699 -40.5 -10 -53.5 -22s-19.5 -27.667 -19.5 -47zM378.001 330l-56 0.000976562v74
c-13.333 -28 -32 -48.667 -56 -62s-51 -20 -81 -20c-42 0 -74.833 11.5 -98.5 34.5s-35.5 52.167 -35.5 87.5c0 18.667 3.33301 35.167 10 49.5s15.667 26.333 27 36s24.333 17.167 39 22.5s30 8.66602 46 9.99902l149 13c0 36 -7.5 62.333 -22.5 79s-40.5 25 -76.5 25
c-60.667 0 -97.334 -23 -110.001 -69l-50 27c8.66699 27.333 25.167 49.5 49.5 66.5s59.833 25.5 106.5 25.5c54.667 0 94.834 -13.333 120.501 -40s38.5 -65 38.5 -115v-244z" />
    <glyph glyph-name="guillemotleft" unicode="&#xab;" horiz-adv-x="522" 
d="M40 264l183 207l40 -38l-152 -169l152 -170l-40 -37zM219 264l183 207l40 -38l-152 -169l152 -170l-40 -37z" />
    <glyph glyph-name="logicalnot" unicode="&#xac;" 
d="M545 372v-239h-65v175h-385v64h450z" />
    <glyph glyph-name="softhyphen" unicode="&#xad;" horiz-adv-x="528" 
d="M448 352v-64h-368v64h368z" />
    <glyph glyph-name="registered" unicode="&#xae;" horiz-adv-x="824" 
d="M50 350c0 52 9 100.167 27 144.5s43 82.5 75 114.5s70.167 57.167 114.5 75.5s92.833 27.5 145.5 27.5s101.167 -9.16699 145.5 -27.5s82.5 -43.5 114.5 -75.5s57 -70.167 75 -114.5s27 -92.5 27 -144.5s-9 -100.167 -27 -144.5s-43 -82.5 -75 -114.5
s-70.167 -57.167 -114.5 -75.5s-92.833 -27.5 -145.5 -27.5s-101.167 9.16699 -145.5 27.5s-82.5 43.5 -114.5 75.5s-57 70.167 -75 114.5s-27 92.5 -27 144.5zM724 350c0 44.667 -7.83301 86.167 -23.5 124.5s-37.334 71.333 -65.001 99s-60.5 49.334 -98.5 65.001
s-79.667 23.5 -125 23.5s-87 -7.83301 -125 -23.5s-70.833 -37.334 -98.5 -65.001s-49.334 -60.667 -65.001 -99s-23.5 -79.833 -23.5 -124.5c0 -45.333 7.83301 -87 23.5 -125s37.334 -70.833 65.001 -98.5s60.5 -49.334 98.5 -65.001s79.667 -23.5 125 -23.5
s87 7.83301 125 23.5s70.833 37.334 98.5 65.001s49.334 60.5 65.001 98.5s23.5 79.667 23.5 125zM520 429c0 21.333 -7.16699 39 -21.5 53s-35.5 21 -63.5 21h-97v-148h97c56.667 0 85 24.667 85 74zM293 166v380.999h142c39.333 0 70.833 -10.833 94.5 -32.5
s35.5 -50.167 35.5 -85.5c0 -32.667 -8.83301 -58.667 -26.5 -78s-41.5 -31.666 -71.5 -36.999l90 -148h-54l-85 145l1 1h-81v-146h-45z" />
    <glyph glyph-name="macron" unicode="&#xaf;" horiz-adv-x="400" 
d="M350 682v-50h-300v50h300z" />
    <glyph glyph-name="degree" unicode="&#xb0;" horiz-adv-x="367" 
d="M50 590c0 18.667 3.33301 35.834 10 51.501s16 29.334 28 41.001s26 20.834 42 27.501s33.667 10 53 10s37.166 -3.33301 53.499 -10s30.5 -15.834 42.5 -27.501s21.333 -25.334 28 -41.001s10 -32.834 10 -51.501s-3.33301 -35.834 -10 -51.501s-16 -29.334 -28 -41.001
s-26.167 -20.834 -42.5 -27.501s-34.166 -10 -53.499 -10s-37 3.33301 -53 10s-30 15.834 -42 27.501s-21.333 25.334 -28 41.001s-10 32.834 -10 51.501zM275 590c0 26 -8.33301 47.833 -25 65.5s-39 26.5 -67 26.5c-27.333 0 -49.333 -8.83301 -66 -26.5
s-25 -39.5 -25 -65.5s8.33301 -47.833 25 -65.5s38.667 -26.5 66 -26.5c28 0 50.333 8.83301 67 26.5s25 39.5 25 65.5z" />
    <glyph glyph-name="plusminus" unicode="&#xb1;" 
d="M351 588v-149h204v-63h-204v-149h-62v149h-204v63h204v149h62zM555 170v-62h-470v62h470z" />
    <glyph glyph-name="twosuperior" unicode="&#xb2;" horiz-adv-x="348" 
d="M30 731c5.33301 10.667 12.167 21.334 20.5 32.001s18.333 20.334 30 29.001s24.834 15.5 39.501 20.5s31 7.5 49 7.5c20 0 38.167 -3.33301 54.5 -10s30.5 -15.834 42.5 -27.501s21.167 -25.334 27.5 -41.001s9.5 -32.834 9.5 -51.501c0 -24.667 -5 -46.167 -15 -64.5
s-21.333 -33.5 -34 -45.5l-127 -126h176v-54h-262v45l172 169c11.333 10.667 20.166 22 26.499 34s9.5 25.333 9.5 40c0 22.667 -7.5 41.334 -22.5 56.001s-34.5 22 -58.5 22c-22 0 -41.333 -6.5 -58 -19.5s-29.667 -29.5 -39 -49.5l-41 34v0z" />
    <glyph glyph-name="threesuperior" unicode="&#xb3;" horiz-adv-x="341" 
d="M34 743c10.667 21.333 27.165 39.5 49.498 54.5s49.833 22.5 82.5 22.5c39.333 0 70.666 -10.5 93.999 -31.5s35 -48.167 35 -81.5c0 -25.333 -6.66699 -46.333 -20 -63s-29.666 -28 -48.999 -34c20.667 -6 37.334 -17.333 50.001 -34s19 -37.667 19 -63
c0 -34 -11.667 -61.333 -35 -82s-54.666 -31 -93.999 -31c-33.333 0 -61 7.66699 -83 23s-38.333 34 -49 56l40 39c8.66699 -20.667 21 -36.5 37 -47.5s34.667 -16.5 56 -16.5c22 0 39.833 5.83301 53.5 17.5s20.5 27.167 20.5 46.5s-6.83301 35 -20.5 47
s-31.5 18.333 -53.5 19h-22v53h22c22 0.666992 39.833 7 53.5 19s20.5 27.667 20.5 47s-7 34.666 -21 45.999s-31.667 17 -53 17s-39.833 -5.66699 -55.5 -17s-28.167 -26.666 -37.5 -45.999l-40 40v0z" />
    <glyph glyph-name="acute" unicode="&#xb4;" horiz-adv-x="341" 
d="M262 767l29 -45l-213 -134l-28 43z" />
    <glyph glyph-name="uni00B5" unicode="&#xb5;" 
d="M297 -12c-28.667 0 -53.5 3.66797 -74.5 11.001s-39.167 17.666 -54.5 30.999v-230h-60v700h63v-294c0 -23.333 2.16699 -44.833 6.5 -64.5s11.833 -36.667 22.5 -51s24.667 -25.5 42 -33.5s39 -12 65 -12c30.667 0 56.5 6.16699 77.5 18.5s38 29 51 50
s22.167 44.833 27.5 71.5s8 54.667 8 84v231h61v-500h-59v114c-33.333 -84 -92 -126 -176 -126z" />
    <glyph glyph-name="paragraph" unicode="&#xb6;" horiz-adv-x="474" 
d="M444 700l0.000976562 -834.002h-55v780h-115v-780h-56v463c-26.667 0 -51.334 4.66699 -74.001 14s-42.5 22.333 -59.5 39s-30.333 36.334 -40 59.001s-14.5 47.334 -14.5 74.001c0 26 4.66699 50.333 14 73s22.5 42.167 39.5 58.5s36.833 29.333 59.5 39
s47.667 14.5 75 14.5h226z" />
    <glyph glyph-name="periodcentered" unicode="&#xb7;" horiz-adv-x="310" 
d="M155 398c17.333 0 32.166 -6.16699 44.499 -18.5s18.5 -27.166 18.5 -44.499c0 -18 -6.16699 -33 -18.5 -45s-27.166 -18 -44.499 -18c-18 0 -33 6 -45 18s-18 27 -18 45c0 17.333 6 32.166 18 44.499s27 18.5 45 18.5z" />
    <glyph glyph-name="cedilla" unicode="&#xb8;" horiz-adv-x="227" 
d="M121 22c19.333 -20.667 33.5 -40.1689 42.5 -58.502s13.5 -35.833 13.5 -52.5c0 -26 -8 -45.167 -24 -57.5s-35.333 -18.5 -58 -18.5c-6.66699 0 -14 0.5 -22 1.5s-15.667 2.83301 -23 5.5v42c6.66699 -1.33301 13 -2.66602 19 -3.99902s11.667 -2 17 -2
c28 0 42 13 42 39c0 14 -4.5 29.833 -13.5 47.5s-23.167 36.834 -42.5 57.501h49z" />
    <glyph glyph-name="onesuperior" unicode="&#xb9;" horiz-adv-x="292" 
d="M219 820v-420h-53v337l-100 -96l-38 39l144 140h47z" />
    <glyph glyph-name="ordmasculine" unicode="&#xba;" horiz-adv-x="508" 
d="M47 525c0 28.667 5.33301 55.5 16 80.5s25.167 46.667 43.5 65s40.166 32.666 65.499 42.999s52.666 15.5 81.999 15.5s56.666 -5.16699 81.999 -15.5s47.166 -24.666 65.499 -42.999s32.833 -40 43.5 -65s16 -51.833 16 -80.5s-5.33301 -55.5 -16 -80.5
s-25.167 -46.667 -43.5 -65s-40.166 -32.666 -65.499 -42.999s-52.666 -15.5 -81.999 -15.5s-56.666 5.16699 -81.999 15.5s-47.166 24.666 -65.499 42.999s-32.833 40 -43.5 65s-16 51.833 -16 80.5zM402 525c0 20.667 -3.66699 40.167 -11 58.5s-17.5 34 -30.5 47
s-28.667 23.333 -47 31s-38.166 11.5 -59.499 11.5s-41 -3.83301 -59 -11.5s-33.5 -18 -46.5 -31s-23.167 -28.667 -30.5 -47s-11 -37.833 -11 -58.5c0 -21.333 3.66699 -41 11 -59s17.5 -33.5 30.5 -46.5s28.5 -23.333 46.5 -31s37.667 -11.5 59 -11.5
s41.166 3.83301 59.499 11.5s34 18 47 31s23.167 28.5 30.5 46.5s11 37.667 11 59z" />
    <glyph glyph-name="guillemotright" unicode="&#xbb;" horiz-adv-x="522" 
d="M300 57l-41 37l153 170l-153 169l41 38l182 -207zM121 57l-41 37l152 170l-152 169l41 38l182 -207z" />
    <glyph glyph-name="onequarter" unicode="&#xbc;" horiz-adv-x="818" 
d="M241 700v-420h-53v337l-100 -96l-38 39l144 140h47zM653 700l36 -29l-529 -671l-36 30zM694 420v-283h75v-54h-75v-83h-55v83h-234v48l243 289h46zM639 325l-157 -188h157v188z" />
    <glyph glyph-name="onehalf" unicode="&#xbd;" horiz-adv-x="801" 
d="M241 700v-420h-53v337l-100 -96l-38 39l144 140h47zM635 700l36 -29l-529 -671l-36 30zM478 331c5.33301 10.667 12.167 21.334 20.5 32.001s18.333 20.334 30 29.001s24.834 15.5 39.501 20.5s31 7.5 49 7.5c20 0 38.167 -3.33301 54.5 -10s30.5 -15.834 42.5 -27.501
s21.167 -25.334 27.5 -41.001s9.5 -32.834 9.5 -51.501c0 -24.667 -5 -46.167 -15 -64.5s-21.333 -33.5 -34 -45.5l-127 -126h176v-54h-262v45l172 169c11.333 10.667 20.166 22 26.499 34s9.5 25.333 9.5 40c0 22.667 -7.5 41.334 -22.5 56.001s-34.5 22 -58.5 22
c-22 0 -41.333 -6.5 -58 -19.5s-29.667 -29.5 -39 -49.5z" />
    <glyph glyph-name="threequarters" unicode="&#xbe;" horiz-adv-x="831" 
d="M683 700l36 -29l-529 -671l-36 30zM706 420v-283h75v-54h-75v-83h-55v83h-234v48l243 289h46zM182 700c39.333 0 70.6641 -10.5 93.9971 -31.5s35 -48.167 35 -81.5c0 -25.333 -6.66699 -46.333 -20 -63s-29.666 -28 -48.999 -34c20.667 -6 37.334 -17.333 50.001 -34
s19 -37.667 19 -63c0 -34 -11.667 -61.333 -35 -82s-54.666 -31 -93.999 -31c-33.333 0 -61 7.66699 -83 23s-38.333 34 -49 56l40 39c8.66699 -20.667 21 -36.5 37 -47.5s34.667 -16.5 56 -16.5c22 0 39.833 5.83301 53.5 17.5s20.5 27.167 20.5 46.5s-6.83301 35 -20.5 47
s-31.5 18.333 -53.5 19h-22v53h22c22 0.666992 39.833 7 53.5 19s20.5 27.667 20.5 47s-7 34.666 -21 45.999s-31.667 17 -53 17s-39.833 -5.66699 -55.5 -17s-28.167 -26.666 -37.5 -45.999l-40 40c10.667 21.333 27.167 39.5 49.5 54.5s49.833 22.5 82.5 22.5z
M650.998 325l-157 -188h157v188z" />
    <glyph glyph-name="questiondown" unicode="&#xbf;" horiz-adv-x="539" 
d="M280 375c-17.333 0 -32.166 6.16699 -44.499 18.5s-18.5 27.166 -18.5 44.499c0 18 6.16699 33 18.5 45s27.166 18 44.499 18c18 0 33 -6 45 -18s18 -27 18 -45c0 -17.333 -6 -32.166 -18 -44.499s-27 -18.5 -45 -18.5zM489 19c0 -30 -4.66699 -58.165 -14 -84.498
s-23 -49.5 -41 -69.5s-40 -35.667 -66 -47s-56 -17 -90 -17c-29.333 0 -56.166 4.5 -80.499 13.5s-45.166 21.667 -62.499 38s-30.833 35.833 -40.5 58.5s-14.5 48 -14.5 76c0 20.667 2.66699 39.167 8 55.5s12.333 31.166 21 44.499s18.667 25.833 30 37.5l35 34.5
l27.5 25.5c9 8.33301 17 17.333 24 27s12.667 20 17 31s6.5 23.833 6.5 38.5v21h64v-21c0 -21.333 -3 -40.333 -9 -57s-13.833 -31.834 -23.5 -45.501s-20.334 -26 -32.001 -37l-33.5 -31.5l-25 -23c-8.66699 -8 -16.334 -16.667 -23.001 -26s-12.167 -20 -16.5 -32
s-6.5 -25.333 -6.5 -40c0 -16.667 2.83301 -32.5 8.5 -47.5s14.167 -28.167 25.5 -39.5s25.333 -20.333 42 -27s36 -10 58 -10c47.333 0 83.833 14.5 109.5 43.5s38.5 65.833 38.5 110.5h63z" />
    <glyph glyph-name="Agrave" unicode="&#xc0;" horiz-adv-x="739" 
d="M268 892l212 -136l-27 -43l-214 134zM169 192h400l-200 431zM599 128h-460l-59 -128h-70l326 700h67l326 -700h-71z" />
    <glyph glyph-name="Aacute" unicode="&#xc1;" horiz-adv-x="739" 
d="M481 892l29 -45l-213 -134l-28 43zM169 192h400l-200 431zM599 128h-460l-59 -128h-70l326 700h67l326 -700h-71z" />
    <glyph glyph-name="Acircumflex" unicode="&#xc2;" horiz-adv-x="739" 
d="M369 894l169 -145l-34 -38l-135 117l-134 -117l-34 38zM169 192h400l-200 431zM599 128h-460l-59 -128h-70l326 700h67l326 -700h-71z" />
    <glyph glyph-name="Atilde" unicode="&#xc3;" horiz-adv-x="739" 
d="M434 739c-12.667 0 -24.835 2.66797 -36.502 8.00098s-22.834 11.333 -33.501 18s-21 12.667 -31 18s-19.333 8 -28 8c-12.667 0 -24 -4.66699 -34 -14s-20 -19.666 -30 -30.999l-35 33c13.333 16 28.166 31 44.499 45s35.166 21 56.499 21
c12.667 0 24.834 -2.66699 36.501 -8s22.834 -11.333 33.501 -18s20.834 -12.667 30.501 -18s18.834 -8 27.501 -8c13.333 0 25 4.66699 35 14s20 19.666 30 30.999l34 -33c-13.333 -16.667 -28.166 -31.834 -44.499 -45.501s-34.833 -20.5 -55.5 -20.5zM168.999 192.001
h400l-200 431zM598.999 128.001h-460l-59 -128h-70l326 700h67l326 -700h-71z" />
    <glyph glyph-name="Adieresis" unicode="&#xc4;" horiz-adv-x="739" 
d="M214 798c0 16 5.33301 29.333 16 40s24 16 40 16c15.333 0 28.5 -5.33301 39.5 -16s16.5 -24 16.5 -40c0 -15.333 -5.5 -28.5 -16.5 -39.5s-24.167 -16.5 -39.5 -16.5c-16 0 -29.333 5.5 -40 16.5s-16 24.167 -16 39.5zM412 798c0 16 5.5 29.333 16.5 40
s24.167 16 39.5 16c16 0 29.333 -5.33301 40 -16s16 -24 16 -40c0 -15.333 -5.33301 -28.5 -16 -39.5s-24 -16.5 -40 -16.5c-15.333 0 -28.5 5.5 -39.5 16.5s-16.5 24.167 -16.5 39.5zM169 192h400l-200 431zM599 128h-460l-59 -128h-70l326 700h67l326 -700h-71z" />
    <glyph glyph-name="Aring" unicode="&#xc5;" horiz-adv-x="739" 
d="M432 765c0 19.333 -5.66699 34.833 -17 46.5s-26.666 17.5 -45.999 17.5c-18.667 0 -33.834 -5.83301 -45.501 -17.5s-17.5 -27.167 -17.5 -46.5s5.83301 -34.833 17.5 -46.5s26.834 -17.5 45.501 -17.5c19.333 0 34.666 5.83301 45.999 17.5s17 27.167 17 46.5zM169 192
h400l-200 431zM599 128h-460.002l-59 -128h-70l312 671c-17.333 8 -31.166 20.167 -41.499 36.5s-15.5 35.5 -15.5 57.5c0 30.667 9.83301 55.667 29.5 75s44.5 29 74.5 29c30.667 0 55.667 -9.66699 75 -29s29 -44.333 29 -75c0 -21.333 -5.16699 -40.333 -15.5 -57
s-24.166 -29 -41.499 -37l313 -671h-71z" />
    <glyph glyph-name="AE" unicode="&#xc6;" horiz-adv-x="968" 
d="M499 132h-331l-87 -132h-76l459 700h35v-63l-289 -441h289v504h417v-64h-353v-254h353v-64h-353v-254h353v-64h-417v132z" />
    <glyph glyph-name="Ccedilla" unicode="&#xc7;" horiz-adv-x="653" 
d="M382 -165c-6.66699 0 -14.001 0.498047 -22.001 1.49805s-15.667 2.83301 -23 5.5v42c6.66699 -1.33301 13 -2.66602 19 -3.99902s11.667 -2 17 -2c28 0 42 13 42 39c0 11.333 -2.83301 24 -8.5 38s-15.167 29 -28.5 45c-46 2 -89 12.333 -129 31
s-74.833 43.5 -104.5 74.5s-52.834 67.333 -69.501 109s-25 86.834 -25 135.501c0 50 8.83301 96.333 26.5 139s42.167 79.667 73.5 111s68.333 55.833 111 73.5s88.667 26.5 138 26.5c48.667 0 92.667 -8.5 132 -25.5s75 -39.5 107 -67.5l-28 -61
c-27.333 26 -58.333 47.5 -93 64.5s-75 25.5 -121 25.5c-40 0 -77.333 -7 -112 -21s-64.5 -33.667 -89.5 -59s-44.667 -55.5 -59 -90.5s-21.5 -73.5 -21.5 -115.5s7.16699 -80.5 21.5 -115.5s34 -65.167 59 -90.5s54.833 -45 89.5 -59s72 -21 112 -21
c20.667 0 40.834 2 60.501 6s41.167 10.667 64.5 20l11 -64c-41.333 -14 -76.666 -22.333 -105.999 -25c25.333 -31.333 38 -61.333 38 -90c0 -26 -8 -45.167 -24 -57.5s-35.333 -18.5 -58 -18.5z" />
    <glyph glyph-name="Egrave" unicode="&#xc8;" horiz-adv-x="550" 
d="M195 892l212 -136l-27 -43l-214 134zM498 700v-64h-354v-254h354v-64h-354v-254h354v-64h-418v700h418z" />
    <glyph glyph-name="Eacute" unicode="&#xc9;" horiz-adv-x="550" 
d="M407 892l29 -45l-213 -134l-28 43zM498 700v-64h-354v-254h354v-64h-354v-254h354v-64h-418v700h418z" />
    <glyph glyph-name="Ecircumflex" unicode="&#xca;" horiz-adv-x="550" 
d="M296 902l169 -145l-34 -38l-135 117l-134 -117l-34 38zM498 700v-64h-354v-254h354v-64h-354v-254h354v-64h-418v700h418z" />
    <glyph glyph-name="Edieresis" unicode="&#xcb;" horiz-adv-x="550" 
d="M141 798c0 16 5.33301 29.333 16 40s24 16 40 16c15.333 0 28.5 -5.33301 39.5 -16s16.5 -24 16.5 -40c0 -15.333 -5.5 -28.5 -16.5 -39.5s-24.167 -16.5 -39.5 -16.5c-16 0 -29.333 5.5 -40 16.5s-16 24.167 -16 39.5zM339 798c0 16 5.5 29.333 16.5 40
s24.167 16 39.5 16c16 0 29.333 -5.33301 40 -16s16 -24 16 -40c0 -15.333 -5.33301 -28.5 -16 -39.5s-24 -16.5 -40 -16.5c-15.333 0 -28.5 5.5 -39.5 16.5s-16.5 24.167 -16.5 39.5zM498 700v-64h-354v-254h354v-64h-354v-254h354v-64h-418v700h418z" />
    <glyph glyph-name="Igrave" unicode="&#xcc;" horiz-adv-x="224" 
d="M11 892l212 -136l-27 -43l-214 134zM144 700v-700h-64v700h64z" />
    <glyph glyph-name="Iacute" unicode="&#xcd;" horiz-adv-x="224" 
d="M223 892l29 -45l-213 -134l-28 43zM144 700v-700h-64v700h64z" />
    <glyph glyph-name="Icircumflex" unicode="&#xce;" horiz-adv-x="224" 
d="M112 902l169 -145l-34 -38l-135 117l-134 -117l-34 38zM144 700v-700h-64v700h64z" />
    <glyph glyph-name="Idieresis" unicode="&#xcf;" horiz-adv-x="224" 
d="M-43 798c0 16 5.33301 29.333 16 40s24 16 40 16c15.333 0 28.5 -5.33301 39.5 -16s16.5 -24 16.5 -40c0 -15.333 -5.5 -28.5 -16.5 -39.5s-24.167 -16.5 -39.5 -16.5c-16 0 -29.333 5.5 -40 16.5s-16 24.167 -16 39.5zM155 798c0 16 5.5 29.333 16.5 40
s24.167 16 39.5 16c16 0 29.333 -5.33301 40 -16s16 -24 16 -40c0 -15.333 -5.33301 -28.5 -16 -39.5s-24 -16.5 -40 -16.5c-15.333 0 -28.5 5.5 -39.5 16.5s-16.5 24.167 -16.5 39.5zM144 700v-700h-64v700h64z" />
    <glyph glyph-name="Eth" unicode="&#xd0;" horiz-adv-x="714" 
d="M80 0v323.002h-80v64h80v313h234c50 0 96.333 -8.83301 139 -26.5s79.667 -42 111 -73s55.833 -67.833 73.5 -110.5s26.5 -89.334 26.5 -140.001s-8.83301 -97.334 -26.5 -140.001s-42.167 -79.5 -73.5 -110.5s-68.333 -55.333 -111 -73s-89 -26.5 -139 -26.5h-234z
M314 64.002c41.333 0 79.5 7.16895 114.5 21.502s65.167 34.166 90.5 59.499s45.166 55.5 59.499 90.5s21.5 73.167 21.5 114.5s-7.16699 79.5 -21.5 114.5s-34.166 65.167 -59.499 90.5s-55.5 45.166 -90.5 59.499s-73.167 21.5 -114.5 21.5h-170v-249h185v-64h-185v-259
h170z" />
    <glyph glyph-name="Ntilde" unicode="&#xd1;" horiz-adv-x="771" 
d="M463 739c-12.667 0 -24.835 2.66797 -36.502 8.00098s-22.834 11.333 -33.501 18s-21 12.667 -31 18s-19.333 8 -28 8c-12.667 0 -24 -4.66699 -34 -14s-20 -19.666 -30 -30.999l-35 33c13.333 16 28.166 31 44.499 45s35.166 21 56.499 21
c12.667 0 24.834 -2.66699 36.501 -8s22.834 -11.333 33.501 -18s20.834 -12.667 30.501 -18s18.834 -8 27.501 -8c13.333 0 25 4.66699 35 14s20 19.666 30 30.999l34 -33c-13.333 -16.667 -28.166 -31.834 -44.499 -45.501s-34.833 -20.5 -55.5 -20.5zM697.999 700.001
v-700h-64l-497 597v-597h-64v700h64l497 -598v598h64z" />
    <glyph glyph-name="Ograve" unicode="&#xd2;" horiz-adv-x="800" 
d="M298 892l212 -136l-27 -43l-214 134zM50 350c0 50 8.83301 96.333 26.5 139s42.167 79.667 73.5 111s68.333 55.833 111 73.5s89 26.5 139 26.5s96.5 -8.83301 139.5 -26.5s80 -42.167 111 -73.5s55.333 -68.333 73 -111s26.5 -89 26.5 -139s-8.83301 -96.333 -26.5 -139
s-42 -79.667 -73 -111s-68 -55.833 -111 -73.5s-89.5 -26.5 -139.5 -26.5s-96.333 8.83301 -139 26.5s-79.667 42.167 -111 73.5s-55.833 68.333 -73.5 111s-26.5 89 -26.5 139zM686 350c0 41.333 -7.16699 79.5 -21.5 114.5s-34.166 65.167 -59.499 90.5
s-55.5 45.166 -90.5 59.499s-73.167 21.5 -114.5 21.5s-79.5 -7.16699 -114.5 -21.5s-65.167 -34.166 -90.5 -59.499s-45.166 -55.5 -59.499 -90.5s-21.5 -73.167 -21.5 -114.5s7.16699 -79.5 21.5 -114.5s34.166 -65.167 59.499 -90.5s55.5 -45.166 90.5 -59.499
s73.167 -21.5 114.5 -21.5s79.5 7.16699 114.5 21.5s65.167 34.166 90.5 59.499s45.166 55.5 59.499 90.5s21.5 73.167 21.5 114.5z" />
    <glyph glyph-name="Oacute" unicode="&#xd3;" horiz-adv-x="800" 
d="M511 892l29 -45l-213 -134l-28 43zM50 350c0 50 8.83301 96.333 26.5 139s42.167 79.667 73.5 111s68.333 55.833 111 73.5s89 26.5 139 26.5s96.5 -8.83301 139.5 -26.5s80 -42.167 111 -73.5s55.333 -68.333 73 -111s26.5 -89 26.5 -139s-8.83301 -96.333 -26.5 -139
s-42 -79.667 -73 -111s-68 -55.833 -111 -73.5s-89.5 -26.5 -139.5 -26.5s-96.333 8.83301 -139 26.5s-79.667 42.167 -111 73.5s-55.833 68.333 -73.5 111s-26.5 89 -26.5 139zM686 350c0 41.333 -7.16699 79.5 -21.5 114.5s-34.166 65.167 -59.499 90.5
s-55.5 45.166 -90.5 59.499s-73.167 21.5 -114.5 21.5s-79.5 -7.16699 -114.5 -21.5s-65.167 -34.166 -90.5 -59.499s-45.166 -55.5 -59.499 -90.5s-21.5 -73.167 -21.5 -114.5s7.16699 -79.5 21.5 -114.5s34.166 -65.167 59.499 -90.5s55.5 -45.166 90.5 -59.499
s73.167 -21.5 114.5 -21.5s79.5 7.16699 114.5 21.5s65.167 34.166 90.5 59.499s45.166 55.5 59.499 90.5s21.5 73.167 21.5 114.5z" />
    <glyph glyph-name="Ocircumflex" unicode="&#xd4;" horiz-adv-x="800" 
d="M399 902l169 -145l-34 -38l-135 117l-134 -117l-34 38zM50 350c0 50 8.83301 96.333 26.5 139s42.167 79.667 73.5 111s68.333 55.833 111 73.5s89 26.5 139 26.5s96.5 -8.83301 139.5 -26.5s80 -42.167 111 -73.5s55.333 -68.333 73 -111s26.5 -89 26.5 -139
s-8.83301 -96.333 -26.5 -139s-42 -79.667 -73 -111s-68 -55.833 -111 -73.5s-89.5 -26.5 -139.5 -26.5s-96.333 8.83301 -139 26.5s-79.667 42.167 -111 73.5s-55.833 68.333 -73.5 111s-26.5 89 -26.5 139zM686 350c0 41.333 -7.16699 79.5 -21.5 114.5
s-34.166 65.167 -59.499 90.5s-55.5 45.166 -90.5 59.499s-73.167 21.5 -114.5 21.5s-79.5 -7.16699 -114.5 -21.5s-65.167 -34.166 -90.5 -59.499s-45.166 -55.5 -59.499 -90.5s-21.5 -73.167 -21.5 -114.5s7.16699 -79.5 21.5 -114.5s34.166 -65.167 59.499 -90.5
s55.5 -45.166 90.5 -59.499s73.167 -21.5 114.5 -21.5s79.5 7.16699 114.5 21.5s65.167 34.166 90.5 59.499s45.166 55.5 59.499 90.5s21.5 73.167 21.5 114.5z" />
    <glyph glyph-name="Otilde" unicode="&#xd5;" horiz-adv-x="800" 
d="M464 739c-12.667 0 -24.835 2.66797 -36.502 8.00098s-22.834 11.333 -33.501 18s-21 12.667 -31 18s-19.333 8 -28 8c-12.667 0 -24 -4.66699 -34 -14s-20 -19.666 -30 -30.999l-35 33c13.333 16 28.166 31 44.499 45s35.166 21 56.499 21
c12.667 0 24.834 -2.66699 36.501 -8s22.834 -11.333 33.501 -18s20.834 -12.667 30.501 -18s18.834 -8 27.501 -8c13.333 0 25 4.66699 35 14s20 19.666 30 30.999l34 -33c-13.333 -16.667 -28.166 -31.834 -44.499 -45.501s-34.833 -20.5 -55.5 -20.5zM49.999 350.001
c0 50 8.83301 96.333 26.5 139s42.167 79.667 73.5 111s68.333 55.833 111 73.5s89 26.5 139 26.5s96.5 -8.83301 139.5 -26.5s80 -42.167 111 -73.5s55.333 -68.333 73 -111s26.5 -89 26.5 -139s-8.83301 -96.333 -26.5 -139s-42 -79.667 -73 -111s-68 -55.833 -111 -73.5
s-89.5 -26.5 -139.5 -26.5s-96.333 8.83301 -139 26.5s-79.667 42.167 -111 73.5s-55.833 68.333 -73.5 111s-26.5 89 -26.5 139zM685.999 350.001c0 41.333 -7.16699 79.5 -21.5 114.5s-34.166 65.167 -59.499 90.5s-55.5 45.166 -90.5 59.499s-73.167 21.5 -114.5 21.5
s-79.5 -7.16699 -114.5 -21.5s-65.167 -34.166 -90.5 -59.499s-45.166 -55.5 -59.499 -90.5s-21.5 -73.167 -21.5 -114.5s7.16699 -79.5 21.5 -114.5s34.166 -65.167 59.499 -90.5s55.5 -45.166 90.5 -59.499s73.167 -21.5 114.5 -21.5s79.5 7.16699 114.5 21.5
s65.167 34.166 90.5 59.499s45.166 55.5 59.499 90.5s21.5 73.167 21.5 114.5z" />
    <glyph glyph-name="Odieresis" unicode="&#xd6;" horiz-adv-x="800" 
d="M244 798c0 16 5.33301 29.333 16 40s24 16 40 16c15.333 0 28.5 -5.33301 39.5 -16s16.5 -24 16.5 -40c0 -15.333 -5.5 -28.5 -16.5 -39.5s-24.167 -16.5 -39.5 -16.5c-16 0 -29.333 5.5 -40 16.5s-16 24.167 -16 39.5zM442 798c0 16 5.5 29.333 16.5 40
s24.167 16 39.5 16c16 0 29.333 -5.33301 40 -16s16 -24 16 -40c0 -15.333 -5.33301 -28.5 -16 -39.5s-24 -16.5 -40 -16.5c-15.333 0 -28.5 5.5 -39.5 16.5s-16.5 24.167 -16.5 39.5zM50 350c0 50 8.83301 96.333 26.5 139s42.167 79.667 73.5 111s68.333 55.833 111 73.5
s89 26.5 139 26.5s96.5 -8.83301 139.5 -26.5s80 -42.167 111 -73.5s55.333 -68.333 73 -111s26.5 -89 26.5 -139s-8.83301 -96.333 -26.5 -139s-42 -79.667 -73 -111s-68 -55.833 -111 -73.5s-89.5 -26.5 -139.5 -26.5s-96.333 8.83301 -139 26.5s-79.667 42.167 -111 73.5
s-55.833 68.333 -73.5 111s-26.5 89 -26.5 139zM686 350c0 41.333 -7.16699 79.5 -21.5 114.5s-34.166 65.167 -59.499 90.5s-55.5 45.166 -90.5 59.499s-73.167 21.5 -114.5 21.5s-79.5 -7.16699 -114.5 -21.5s-65.167 -34.166 -90.5 -59.499s-45.166 -55.5 -59.499 -90.5
s-21.5 -73.167 -21.5 -114.5s7.16699 -79.5 21.5 -114.5s34.166 -65.167 59.499 -90.5s55.5 -45.166 90.5 -59.499s73.167 -21.5 114.5 -21.5s79.5 7.16699 114.5 21.5s65.167 34.166 90.5 59.499s45.166 55.5 59.499 90.5s21.5 73.167 21.5 114.5z" />
    <glyph glyph-name="multiply" unicode="&#xd7;" 
d="M496 538l43 -44l-176 -177l176 -176l-43 -44l-177 177l-176 -176l-43 43l176 176l-176 177l43 43l176 -176z" />
    <glyph glyph-name="Oslash" unicode="&#xd8;" horiz-adv-x="800" 
d="M114 350c0 -40.667 6.83105 -78.1689 20.498 -112.502s32.834 -64.166 57.501 -89.499l374 439c-23.333 15.333 -48.833 27.333 -76.5 36s-57.5 13 -89.5 13c-41.333 0 -79.5 -7.16699 -114.5 -21.5s-65.167 -34.166 -90.5 -59.499s-45.166 -55.5 -59.499 -90.5
s-21.5 -73.167 -21.5 -114.5zM399.998 63.998c41.333 0 79.5 7.16797 114.5 21.501s65.167 34.166 90.5 59.499s45.166 55.5 59.499 90.5s21.5 73.167 21.5 114.5c0 42 -7.16699 80.333 -21.5 115s-34.5 64.667 -60.5 90l-374 -440c23.333 -16 49.333 -28.5 78 -37.5
s59.334 -13.5 92.001 -13.5zM399.998 -0.000976562c-40.667 0 -78.6689 5.83301 -114.002 17.5s-67.666 28.167 -96.999 49.5l-66 -78l-39 32l67 78c-32 32 -56.833 69.333 -74.5 112s-26.5 89 -26.5 139s8.83301 96.333 26.5 139s42.167 79.667 73.5 111
s68.333 55.833 111 73.5s89 26.5 139 26.5c40 0 77.333 -5.5 112 -16.5s66.334 -26.833 95.001 -47.5l63 74l38 -33l-62 -73c32.667 -32 58.167 -69.5 76.5 -112.5s27.5 -90.167 27.5 -141.5c0 -50 -8.83301 -96.333 -26.5 -139s-42 -79.667 -73 -111
s-68 -55.833 -111 -73.5s-89.5 -26.5 -139.5 -26.5z" />
    <glyph glyph-name="Ugrave" unicode="&#xd9;" horiz-adv-x="778" 
d="M288 892l212 -136l-27 -43l-214 134zM708 700v-383c0 -45.333 -8.16699 -87.333 -24.5 -126s-38.666 -72.167 -66.999 -100.5s-62 -50.5 -101 -66.5s-81.167 -24 -126.5 -24s-87.333 8 -126 24s-72.334 38.167 -101.001 66.5s-51.167 61.833 -67.5 100.5
s-24.5 80.667 -24.5 126v383h64v-383c0 -36 6.5 -69.333 19.5 -100s30.833 -57.334 53.5 -80.001s49.667 -40.5 81 -53.5s65 -19.5 101 -19.5c36.667 0 70.5 6.5 101.5 19.5s57.833 30.833 80.5 53.5s40.5 49.334 53.5 80.001s19.5 64 19.5 100v383h64z" />
    <glyph glyph-name="Uacute" unicode="&#xda;" horiz-adv-x="778" 
d="M501 892l29 -45l-213 -134l-28 43zM708 700v-383c0 -45.333 -8.16699 -87.333 -24.5 -126s-38.666 -72.167 -66.999 -100.5s-62 -50.5 -101 -66.5s-81.167 -24 -126.5 -24s-87.333 8 -126 24s-72.334 38.167 -101.001 66.5s-51.167 61.833 -67.5 100.5
s-24.5 80.667 -24.5 126v383h64v-383c0 -36 6.5 -69.333 19.5 -100s30.833 -57.334 53.5 -80.001s49.667 -40.5 81 -53.5s65 -19.5 101 -19.5c36.667 0 70.5 6.5 101.5 19.5s57.833 30.833 80.5 53.5s40.5 49.334 53.5 80.001s19.5 64 19.5 100v383h64z" />
    <glyph glyph-name="Ucircumflex" unicode="&#xdb;" horiz-adv-x="778" 
d="M389 902l169 -145l-34 -38l-135 117l-134 -117l-34 38zM708 700v-383c0 -45.333 -8.16699 -87.333 -24.5 -126s-38.666 -72.167 -66.999 -100.5s-62 -50.5 -101 -66.5s-81.167 -24 -126.5 -24s-87.333 8 -126 24s-72.334 38.167 -101.001 66.5
s-51.167 61.833 -67.5 100.5s-24.5 80.667 -24.5 126v383h64v-383c0 -36 6.5 -69.333 19.5 -100s30.833 -57.334 53.5 -80.001s49.667 -40.5 81 -53.5s65 -19.5 101 -19.5c36.667 0 70.5 6.5 101.5 19.5s57.833 30.833 80.5 53.5s40.5 49.334 53.5 80.001s19.5 64 19.5 100
v383h64z" />
    <glyph glyph-name="Udieresis" unicode="&#xdc;" horiz-adv-x="778" 
d="M234 798c0 16 5.33301 29.333 16 40s24 16 40 16c15.333 0 28.5 -5.33301 39.5 -16s16.5 -24 16.5 -40c0 -15.333 -5.5 -28.5 -16.5 -39.5s-24.167 -16.5 -39.5 -16.5c-16 0 -29.333 5.5 -40 16.5s-16 24.167 -16 39.5zM432 798c0 16 5.5 29.333 16.5 40
s24.167 16 39.5 16c16 0 29.333 -5.33301 40 -16s16 -24 16 -40c0 -15.333 -5.33301 -28.5 -16 -39.5s-24 -16.5 -40 -16.5c-15.333 0 -28.5 5.5 -39.5 16.5s-16.5 24.167 -16.5 39.5zM708 700v-383c0 -45.333 -8.16699 -87.333 -24.5 -126s-38.666 -72.167 -66.999 -100.5
s-62 -50.5 -101 -66.5s-81.167 -24 -126.5 -24s-87.333 8 -126 24s-72.334 38.167 -101.001 66.5s-51.167 61.833 -67.5 100.5s-24.5 80.667 -24.5 126v383h64v-383c0 -36 6.5 -69.333 19.5 -100s30.833 -57.334 53.5 -80.001s49.667 -40.5 81 -53.5s65 -19.5 101 -19.5
c36.667 0 70.5 6.5 101.5 19.5s57.833 30.833 80.5 53.5s40.5 49.334 53.5 80.001s19.5 64 19.5 100v383h64z" />
    <glyph glyph-name="Yacute" unicode="&#xdd;" horiz-adv-x="633" 
d="M428 892l29 -45l-213 -134l-28 43zM284 0v299l-279 401h78l233 -336l233 336h79l-280 -401v-299h-64z" />
    <glyph glyph-name="Thorn" unicode="&#xde;" horiz-adv-x="567" 
d="M144 513v-323h128c24.667 0 47.5 4 68.5 12s39 19 54 33s26.667 30.833 35 50.5s12.5 41.5 12.5 65.5s-4.16699 45.833 -12.5 65.5s-20 36.667 -35 51s-33 25.5 -54 33.5s-43.833 12 -68.5 12h-128zM144 126l-0.000976562 -125.998h-64v700h64v-123h128
c34.667 0 66.5 -5.66699 95.5 -17s53.833 -27 74.5 -47s36.667 -43.833 48 -71.5s17 -57.834 17 -90.501s-5.66699 -62.834 -17 -90.501s-27.166 -51.5 -47.499 -71.5s-45 -35.5 -74 -46.5s-61.167 -16.5 -96.5 -16.5h-128z" />
    <glyph glyph-name="germandbls" unicode="&#xdf;" horiz-adv-x="563" 
d="M70 485c0 32.667 4.00195 63 12.002 91s20.5 52 37.5 72s38.333 35.667 64 47s56.5 17 92.5 17c32 0 60 -4.5 84 -13.5s44 -21.167 60 -36.5s28 -33.333 36 -54s12 -42.667 12 -66c0 -37.333 -9.83301 -69.833 -29.5 -97.5s-47.5 -45.167 -83.5 -52.5
c55.333 -6 98.333 -25.5 129 -58.5s46 -77.167 46 -132.5c0 -34 -5.66699 -63.833 -17 -89.5s-27.5 -47.167 -48.5 -64.5s-46.333 -30.5 -76 -39.5s-62.834 -13.5 -99.501 -13.5c-22.667 0 -44.334 1 -65.001 3v56c3.33301 -0.666992 10.666 -1.33398 21.999 -2.00098
s23.666 -1 36.999 -1c26.667 0 51.334 3 74.001 9s42.334 15.333 59.001 28s29.5 28.334 38.5 47.001s13.5 41 13.5 67c0 52 -17.5 91.167 -52.5 117.5s-83.5 39.5 -145.5 39.5h-31v56h31c48 0 82.833 11.833 104.5 35.5s32.5 54.5 32.5 92.5
c0 34.667 -12.167 62.167 -36.5 82.5s-56.833 30.5 -97.5 30.5c-46 0 -81.167 -14.667 -105.5 -44s-36.5 -71.333 -36.5 -126v-560h-61v560v0z" />
    <glyph glyph-name="agrave" unicode="&#xe0;" horiz-adv-x="508" 
d="M166 767l212 -136l-27 -43l-214 134zM396 255l-182 -20.001c-38 -4 -65 -14.833 -81 -32.5s-24 -38.167 -24 -61.5c0 -28.667 9.5 -51.5 28.5 -68.5s46.833 -25.5 83.5 -25.5c28 0 52.833 4.83301 74.5 14.5s40 22.334 55 38.001s26.333 33.5 34 53.5
s11.5 40.333 11.5 61v41zM63 391.999c4.66699 16.667 11.667 32.3311 21 46.998s22 27.5 38 38.5s35.333 19.5 58 25.5s49.667 9 81 9c66.667 0 116 -15.333 148 -46s48 -76.667 48 -138v-328h-61v107c-15.333 -38 -39.166 -67 -71.499 -87s-69.5 -30 -111.5 -30
c-27.333 0 -51.5 3.83301 -72.5 11.5s-38.5 18.167 -52.5 31.5s-24.667 29.333 -32 48s-11 38.667 -11 60c0 46.667 15.167 82.334 45.5 107.001s68.5 39.334 114.5 44.001l166 16c16.667 2 25 9 25 21v18c0 34 -10.333 60.833 -31 80.5s-54.334 29.5 -101.001 29.5
c-84.667 0 -133.667 -31.333 -147 -94z" />
    <glyph glyph-name="aacute" unicode="&#xe1;" horiz-adv-x="508" 
d="M362 767l29 -45l-213 -134l-28 43zM396 255l-182 -20.001c-38 -4 -65 -14.833 -81 -32.5s-24 -38.167 -24 -61.5c0 -28.667 9.5 -51.5 28.5 -68.5s46.833 -25.5 83.5 -25.5c28 0 52.833 4.83301 74.5 14.5s40 22.334 55 38.001s26.333 33.5 34 53.5s11.5 40.333 11.5 61
v41zM63 391.999c4.66699 16.667 11.667 32.3311 21 46.998s22 27.5 38 38.5s35.333 19.5 58 25.5s49.667 9 81 9c66.667 0 116 -15.333 148 -46s48 -76.667 48 -138v-328h-61v107c-15.333 -38 -39.166 -67 -71.499 -87s-69.5 -30 -111.5 -30
c-27.333 0 -51.5 3.83301 -72.5 11.5s-38.5 18.167 -52.5 31.5s-24.667 29.333 -32 48s-11 38.667 -11 60c0 46.667 15.167 82.334 45.5 107.001s68.5 39.334 114.5 44.001l166 16c16.667 2 25 9 25 21v18c0 34 -10.333 60.833 -31 80.5s-54.334 29.5 -101.001 29.5
c-84.667 0 -133.667 -31.333 -147 -94z" />
    <glyph glyph-name="acircumflex" unicode="&#xe2;" horiz-adv-x="508" 
d="M264 759l169 -145l-34 -38l-135 117l-134 -117l-34 38zM396 255l-182 -20.001c-38 -4 -65 -14.833 -81 -32.5s-24 -38.167 -24 -61.5c0 -28.667 9.5 -51.5 28.5 -68.5s46.833 -25.5 83.5 -25.5c28 0 52.833 4.83301 74.5 14.5s40 22.334 55 38.001s26.333 33.5 34 53.5
s11.5 40.333 11.5 61v41zM63 391.999c4.66699 16.667 11.667 32.3311 21 46.998s22 27.5 38 38.5s35.333 19.5 58 25.5s49.667 9 81 9c66.667 0 116 -15.333 148 -46s48 -76.667 48 -138v-328h-61v107c-15.333 -38 -39.166 -67 -71.499 -87s-69.5 -30 -111.5 -30
c-27.333 0 -51.5 3.83301 -72.5 11.5s-38.5 18.167 -52.5 31.5s-24.667 29.333 -32 48s-11 38.667 -11 60c0 46.667 15.167 82.334 45.5 107.001s68.5 39.334 114.5 44.001l166 16c16.667 2 25 9 25 21v18c0 34 -10.333 60.833 -31 80.5s-54.334 29.5 -101.001 29.5
c-84.667 0 -133.667 -31.333 -147 -94z" />
    <glyph glyph-name="atilde" unicode="&#xe3;" horiz-adv-x="508" 
d="M328 594c-12.667 0 -24.835 2.66797 -36.502 8.00098s-22.834 11.333 -33.501 18s-21 12.667 -31 18s-19.333 8 -28 8c-12.667 0 -24 -4.66699 -34 -14s-20 -19.666 -30 -30.999l-35 33c13.333 16 28.166 31 44.499 45s35.166 21 56.499 21
c12.667 0 24.834 -2.66699 36.501 -8s22.834 -11.333 33.501 -18s20.834 -12.667 30.501 -18s18.834 -8 27.501 -8c13.333 0 25 4.66699 35 14s20 19.666 30 30.999l34 -33c-13.333 -16.667 -28.166 -31.834 -44.499 -45.501s-34.833 -20.5 -55.5 -20.5zM395.999 255.001
l-182 -20.001c-38 -4 -65 -14.833 -81 -32.5s-24 -38.167 -24 -61.5c0 -28.667 9.5 -51.5 28.5 -68.5s46.833 -25.5 83.5 -25.5c28 0 52.833 4.83301 74.5 14.5s40 22.334 55 38.001s26.333 33.5 34 53.5s11.5 40.333 11.5 61v41zM62.999 392
c4.66699 16.667 11.667 32.3311 21 46.998s22 27.5 38 38.5s35.333 19.5 58 25.5s49.667 9 81 9c66.667 0 116 -15.333 148 -46s48 -76.667 48 -138v-328h-61v107c-15.333 -38 -39.166 -67 -71.499 -87s-69.5 -30 -111.5 -30c-27.333 0 -51.5 3.83301 -72.5 11.5
s-38.5 18.167 -52.5 31.5s-24.667 29.333 -32 48s-11 38.667 -11 60c0 46.667 15.167 82.334 45.5 107.001s68.5 39.334 114.5 44.001l166 16c16.667 2 25 9 25 21v18c0 34 -10.333 60.833 -31 80.5s-54.334 29.5 -101.001 29.5c-84.667 0 -133.667 -31.333 -147 -94z" />
    <glyph glyph-name="adieresis" unicode="&#xe4;" horiz-adv-x="508" 
d="M111 652c0 16 5.33301 29.333 16 40s24 16 40 16c15.333 0 28.5 -5.33301 39.5 -16s16.5 -24 16.5 -40c0 -15.333 -5.5 -28.5 -16.5 -39.5s-24.167 -16.5 -39.5 -16.5c-16 0 -29.333 5.5 -40 16.5s-16 24.167 -16 39.5zM309 652c0 16 5.5 29.333 16.5 40
s24.167 16 39.5 16c16 0 29.333 -5.33301 40 -16s16 -24 16 -40c0 -15.333 -5.33301 -28.5 -16 -39.5s-24 -16.5 -40 -16.5c-15.333 0 -28.5 5.5 -39.5 16.5s-16.5 24.167 -16.5 39.5zM396 255l-182 -20.001c-38 -4 -65 -14.833 -81 -32.5s-24 -38.167 -24 -61.5
c0 -28.667 9.5 -51.5 28.5 -68.5s46.833 -25.5 83.5 -25.5c28 0 52.833 4.83301 74.5 14.5s40 22.334 55 38.001s26.333 33.5 34 53.5s11.5 40.333 11.5 61v41zM63 391.999c4.66699 16.667 11.667 32.3311 21 46.998s22 27.5 38 38.5s35.333 19.5 58 25.5s49.667 9 81 9
c66.667 0 116 -15.333 148 -46s48 -76.667 48 -138v-328h-61v107c-15.333 -38 -39.166 -67 -71.499 -87s-69.5 -30 -111.5 -30c-27.333 0 -51.5 3.83301 -72.5 11.5s-38.5 18.167 -52.5 31.5s-24.667 29.333 -32 48s-11 38.667 -11 60c0 46.667 15.167 82.334 45.5 107.001
s68.5 39.334 114.5 44.001l166 16c16.667 2 25 9 25 21v18c0 34 -10.333 60.833 -31 80.5s-54.334 29.5 -101.001 29.5c-84.667 0 -133.667 -31.333 -147 -94z" />
    <glyph glyph-name="aring" unicode="&#xe5;" horiz-adv-x="508" 
d="M160 683c0 30.667 9.83301 55.667 29.5 75s44.5 29 74.5 29c30.667 0 55.667 -9.66699 75 -29s29 -44.333 29 -75s-9.66699 -55.667 -29 -75s-44.333 -29 -75 -29c-30 0 -54.833 9.66699 -74.5 29s-29.5 44.333 -29.5 75zM327 683c0 19.333 -5.66699 34.833 -17 46.5
s-26.666 17.5 -45.999 17.5c-18.667 0 -33.834 -5.83301 -45.501 -17.5s-17.5 -27.167 -17.5 -46.5s5.83301 -34.833 17.5 -46.5s26.834 -17.5 45.501 -17.5c19.333 0 34.666 5.83301 45.999 17.5s17 27.167 17 46.5zM396 255l-182 -20.001c-38 -4 -65 -14.833 -81 -32.5
s-24 -38.167 -24 -61.5c0 -28.667 9.5 -51.5 28.5 -68.5s46.833 -25.5 83.5 -25.5c28 0 52.833 4.83301 74.5 14.5s40 22.334 55 38.001s26.333 33.5 34 53.5s11.5 40.333 11.5 61v41zM63 391.999c4.66699 16.667 11.667 32.3311 21 46.998s22 27.5 38 38.5
s35.333 19.5 58 25.5s49.667 9 81 9c66.667 0 116 -15.333 148 -46s48 -76.667 48 -138v-328h-61v107c-15.333 -38 -39.166 -67 -71.499 -87s-69.5 -30 -111.5 -30c-27.333 0 -51.5 3.83301 -72.5 11.5s-38.5 18.167 -52.5 31.5s-24.667 29.333 -32 48s-11 38.667 -11 60
c0 46.667 15.167 82.334 45.5 107.001s68.5 39.334 114.5 44.001l166 16c16.667 2 25 9 25 21v18c0 34 -10.333 60.833 -31 80.5s-54.334 29.5 -101.001 29.5c-84.667 0 -133.667 -31.333 -147 -94z" />
    <glyph glyph-name="ae" unicode="&#xe6;" horiz-adv-x="906" 
d="M649 -12c-52.667 0 -97.835 11.4961 -135.502 34.4961s-66.167 55.167 -85.5 96.5c-20 -39.333 -48.833 -70.666 -86.5 -93.999s-80.834 -35 -129.501 -35c-27.333 0 -51.333 3.83301 -72 11.5s-38 18.167 -52 31.5s-24.667 29.333 -32 48s-11 38.667 -11 60
c0 46.667 15.167 82.334 45.5 107.001s68.5 39.334 114.5 44.001l166 16c16.667 2 25 9 25 21v18c0 34 -10.333 60.833 -31 80.5s-54.667 29.5 -102 29.5c-84 0 -132.667 -31.333 -146 -94l-54 29c4 16.667 10.667 32.167 20 46.5s21.833 27 37.5 38
s34.834 19.667 57.501 26s49.334 9.5 80.001 9.5c98 0 159.333 -35.667 184 -107c20 32.667 46.833 58.667 80.5 78s73.834 29 120.501 29c39.333 0 73.666 -6.83301 102.999 -20.5s53.833 -32.167 73.5 -55.5s34.334 -50.5 44.001 -81.5s14.5 -63.833 14.5 -98.5v-18h-420
v-7c0.666992 -30 6.16699 -56.5 16.5 -79.5s24 -42.333 41 -58s36.833 -27.667 59.5 -36s47 -12.5 73 -12.5c38 0 70.5 7.66699 97.5 23s50.167 33.333 69.5 54l32 -48c-10.667 -11.333 -22.5 -22.166 -35.5 -32.499s-27.5 -19.5 -43.5 -27.5s-33.833 -14.333 -53.5 -19
s-41.5 -7 -65.5 -7zM811.999 286.996c-1.33301 24 -5.83398 46.167 -13.501 66.5s-18.5 38 -32.5 53s-31.333 26.833 -52 35.5s-44.667 13 -72 13c-52.667 0 -94.667 -15.5 -126 -46.5s-49.666 -71.5 -54.999 -121.5h351zM395.998 254.996l-182 -20.001
c-38 -4 -65 -15 -81 -33s-24 -38.667 -24 -62c0 -28 9.5 -50.5 28.5 -67.5s47.167 -25.5 84.5 -25.5c27.333 0 51.833 4.83301 73.5 14.5s40 22.334 55 38.001s26.333 33.5 34 53.5s11.5 40.333 11.5 61v41z" />
    <glyph glyph-name="ccedilla" unicode="&#xe7;" horiz-adv-x="491" 
d="M271 -165c-6.66699 0 -13.998 0.498047 -21.998 1.49805s-15.667 2.83301 -23 5.5v42c6.66699 -1.33301 13 -2.66602 19 -3.99902s11.667 -2 17 -2c28 0 42 13 42 39c0 20.667 -9.33301 44.334 -28 71.001c-37.333 2 -71 9.66699 -101 23s-55.667 31.5 -77 54.5
s-37.666 50.167 -48.999 81.5s-17 65.333 -17 102c0 38 6.16699 73 18.5 105s30 59.833 53 83.5s50.667 42 83 55s68.166 19.5 107.499 19.5c36 0 68.5 -5.66699 97.5 -17s54.5 -27.666 76.5 -48.999l-39 -48c-19.333 17.333 -40.5 30.833 -63.5 40.5
s-47.833 14.5 -74.5 14.5c-28.667 0 -55 -4.83301 -79 -14.5s-44.667 -23.167 -62 -40.5s-30.833 -38.666 -40.5 -63.999s-14.5 -53.333 -14.5 -84s4.83301 -58.5 14.5 -83.5s23.167 -46.333 40.5 -64s38 -31.334 62 -41.001s50 -14.5 78 -14.5s54.167 5.16699 78.5 15.5
s46.166 24.166 65.499 41.499l37 -48c-18 -17.333 -39.333 -31.833 -64 -43.5s-52.334 -19.167 -83.001 -22.5c19.333 -28 29 -54.333 29 -79c0 -26 -8 -45.167 -24 -57.5s-35.333 -18.5 -58 -18.5z" />
    <glyph glyph-name="egrave" unicode="&#xe8;" horiz-adv-x="542" 
d="M188 767l212 -136l-27 -43l-214 134zM32 247c0 37.333 5.83301 72.167 17.5 104.5s28.167 60.333 49.5 84s47.166 42.334 77.499 56.001s64.166 20.5 101.499 20.5c39.333 0 73.833 -6.83301 103.5 -20.5s54.334 -32.167 74.001 -55.5s34.334 -50.5 44.001 -81.5
s14.5 -63.833 14.5 -98.5v-18h-420l-1 -7c0.666992 -30 6.16699 -56.5 16.5 -79.5s24 -42.333 41 -58s36.833 -27.667 59.5 -36s47 -12.5 73 -12.5c38 0 70.667 7.5 98 22.5s50.666 33.167 69.999 54.5l32 -48c-21.333 -22 -48 -41.833 -80 -59.5s-71 -26.5 -117 -26.5
c-38 0 -72.5 6.16699 -103.5 18.5s-57.667 29.666 -80 51.999s-39.666 49.5 -51.999 81.5s-18.5 67.667 -18.5 107zM447 287.001c-1.33301 24 -5.83301 46.167 -13.5 66.5s-18.5 38 -32.5 53s-31.167 26.833 -51.5 35.5s-43.833 13 -70.5 13c-54 0 -96.5 -15.5 -127.5 -46.5
s-49.5 -71.5 -55.5 -121.5h351z" />
    <glyph glyph-name="eacute" unicode="&#xe9;" horiz-adv-x="542" 
d="M385 767l29 -45l-213 -134l-28 43zM32 247c0 37.333 5.83301 72.167 17.5 104.5s28.167 60.333 49.5 84s47.166 42.334 77.499 56.001s64.166 20.5 101.499 20.5c39.333 0 73.833 -6.83301 103.5 -20.5s54.334 -32.167 74.001 -55.5s34.334 -50.5 44.001 -81.5
s14.5 -63.833 14.5 -98.5v-18h-420l-1 -7c0.666992 -30 6.16699 -56.5 16.5 -79.5s24 -42.333 41 -58s36.833 -27.667 59.5 -36s47 -12.5 73 -12.5c38 0 70.667 7.5 98 22.5s50.666 33.167 69.999 54.5l32 -48c-21.333 -22 -48 -41.833 -80 -59.5s-71 -26.5 -117 -26.5
c-38 0 -72.5 6.16699 -103.5 18.5s-57.667 29.666 -80 51.999s-39.666 49.5 -51.999 81.5s-18.5 67.667 -18.5 107zM447 287.001c-1.33301 24 -5.83301 46.167 -13.5 66.5s-18.5 38 -32.5 53s-31.167 26.833 -51.5 35.5s-43.833 13 -70.5 13c-54 0 -96.5 -15.5 -127.5 -46.5
s-49.5 -71.5 -55.5 -121.5h351z" />
    <glyph glyph-name="ecircumflex" unicode="&#xea;" horiz-adv-x="542" 
d="M287 759l169 -145l-34 -38l-135 117l-134 -117l-34 38zM32 247c0 37.333 5.83301 72.167 17.5 104.5s28.167 60.333 49.5 84s47.166 42.334 77.499 56.001s64.166 20.5 101.499 20.5c39.333 0 73.833 -6.83301 103.5 -20.5s54.334 -32.167 74.001 -55.5
s34.334 -50.5 44.001 -81.5s14.5 -63.833 14.5 -98.5v-18h-420l-1 -7c0.666992 -30 6.16699 -56.5 16.5 -79.5s24 -42.333 41 -58s36.833 -27.667 59.5 -36s47 -12.5 73 -12.5c38 0 70.667 7.5 98 22.5s50.666 33.167 69.999 54.5l32 -48c-21.333 -22 -48 -41.833 -80 -59.5
s-71 -26.5 -117 -26.5c-38 0 -72.5 6.16699 -103.5 18.5s-57.667 29.666 -80 51.999s-39.666 49.5 -51.999 81.5s-18.5 67.667 -18.5 107zM447 287.001c-1.33301 24 -5.83301 46.167 -13.5 66.5s-18.5 38 -32.5 53s-31.167 26.833 -51.5 35.5s-43.833 13 -70.5 13
c-54 0 -96.5 -15.5 -127.5 -46.5s-49.5 -71.5 -55.5 -121.5h351z" />
    <glyph glyph-name="edieresis" unicode="&#xeb;" horiz-adv-x="542" 
d="M134 652c0 16 5.33301 29.333 16 40s24 16 40 16c15.333 0 28.5 -5.33301 39.5 -16s16.5 -24 16.5 -40c0 -15.333 -5.5 -28.5 -16.5 -39.5s-24.167 -16.5 -39.5 -16.5c-16 0 -29.333 5.5 -40 16.5s-16 24.167 -16 39.5zM332 652c0 16 5.5 29.333 16.5 40
s24.167 16 39.5 16c16 0 29.333 -5.33301 40 -16s16 -24 16 -40c0 -15.333 -5.33301 -28.5 -16 -39.5s-24 -16.5 -40 -16.5c-15.333 0 -28.5 5.5 -39.5 16.5s-16.5 24.167 -16.5 39.5zM32 247c0 37.333 5.83301 72.167 17.5 104.5s28.167 60.333 49.5 84
s47.166 42.334 77.499 56.001s64.166 20.5 101.499 20.5c39.333 0 73.833 -6.83301 103.5 -20.5s54.334 -32.167 74.001 -55.5s34.334 -50.5 44.001 -81.5s14.5 -63.833 14.5 -98.5v-18h-420l-1 -7c0.666992 -30 6.16699 -56.5 16.5 -79.5s24 -42.333 41 -58
s36.833 -27.667 59.5 -36s47 -12.5 73 -12.5c38 0 70.667 7.5 98 22.5s50.666 33.167 69.999 54.5l32 -48c-21.333 -22 -48 -41.833 -80 -59.5s-71 -26.5 -117 -26.5c-38 0 -72.5 6.16699 -103.5 18.5s-57.667 29.666 -80 51.999s-39.666 49.5 -51.999 81.5
s-18.5 67.667 -18.5 107zM447 287.001c-1.33301 24 -5.83301 46.167 -13.5 66.5s-18.5 38 -32.5 53s-31.167 26.833 -51.5 35.5s-43.833 13 -70.5 13c-54 0 -96.5 -15.5 -127.5 -46.5s-49.5 -71.5 -55.5 -121.5h351z" />
    <glyph glyph-name="igrave" unicode="&#xec;" horiz-adv-x="211" 
d="M7 767l212 -136l-27 -43l-214 134zM136 500v-500h-61v500h61z" />
    <glyph glyph-name="iacute" unicode="&#xed;" horiz-adv-x="211" 
d="M204 767l29 -45l-213 -134l-28 43zM136 500v-500h-61v500h61z" />
    <glyph glyph-name="icircumflex" unicode="&#xee;" horiz-adv-x="211" 
d="M106 754l169 -145l-34 -38l-135 117l-134 -117l-34 38zM136 500v-500h-61v500h61z" />
    <glyph glyph-name="idieresis" unicode="&#xef;" horiz-adv-x="211" 
d="M-47 652c0 16 5.33301 29.333 16 40s24 16 40 16c15.333 0 28.5 -5.33301 39.5 -16s16.5 -24 16.5 -40c0 -15.333 -5.5 -28.5 -16.5 -39.5s-24.167 -16.5 -39.5 -16.5c-16 0 -29.333 5.5 -40 16.5s-16 24.167 -16 39.5zM151 652c0 16 5.5 29.333 16.5 40
s24.167 16 39.5 16c16 0 29.333 -5.33301 40 -16s16 -24 16 -40c0 -15.333 -5.33301 -28.5 -16 -39.5s-24 -16.5 -40 -16.5c-15.333 0 -28.5 5.5 -39.5 16.5s-16.5 24.167 -16.5 39.5zM136 500v-500h-61v500h61z" />
    <glyph glyph-name="eth" unicode="&#xf0;" horiz-adv-x="585" 
d="M284 -12c-37.333 0 -71.6689 6.50195 -103.002 19.502s-58.166 31 -80.499 54s-39.666 50.5 -51.999 82.5s-18.5 67 -18.5 105c0 38.667 6.33301 74.167 19 106.5s30.167 60 52.5 83s48.666 41 78.999 54s63.166 19.5 98.499 19.5c44.667 0 86.334 -11.5 125.001 -34.5
s67.334 -59.833 86.001 -110.5c0.666992 3.33301 1 6.16602 1 8.49902v8.5c-12 118.667 -65 212.334 -159 281.001l-119 -81l-28 40l102 69c-36 20.667 -76.667 37.667 -122 51l21 49c28.667 -8.66699 55.667 -18.334 81 -29.001s49.333 -22.667 72 -36l82 56l28 -40
l-67 -45c25.333 -19.333 48 -40.833 68 -64.5s37 -50.167 51 -79.5c32.667 -68 49 -149.667 49 -245c0 -56.667 -6.66699 -104.834 -20 -144.501s-32.333 -73.167 -57 -100.5c-47.333 -51.333 -110.333 -77 -189 -77zM477.997 250.002c0 29.333 -4.50293 56.333 -13.5029 81
s-22 46 -39 64s-37.5 32.167 -61.5 42.5s-50.667 15.5 -80 15.5s-55.666 -5 -78.999 -15s-43.333 -24 -60 -42s-29.5 -39.333 -38.5 -64s-13.5 -51.667 -13.5 -81c0 -30 4.83301 -57.5 14.5 -82.5s23.167 -46.5 40.5 -64.5s37.833 -32 61.5 -42s49.5 -15 77.5 -15
c28.667 0 54.834 5.16699 78.501 15.5s43.834 24.5 60.501 42.5s29.5 39.333 38.5 64s13.5 51.667 13.5 81z" />
    <glyph glyph-name="ntilde" unicode="&#xf1;" horiz-adv-x="569" 
d="M356 594c-12.667 0 -24.835 2.66797 -36.502 8.00098s-22.834 11.333 -33.501 18s-21 12.667 -31 18s-19.333 8 -28 8c-12.667 0 -24 -4.66699 -34 -14s-20 -19.666 -30 -30.999l-35 33c13.333 16 28.166 31 44.499 45s35.166 21 56.499 21
c12.667 0 24.834 -2.66699 36.501 -8s22.834 -11.333 33.501 -18s20.834 -12.667 30.501 -18s18.834 -8 27.501 -8c13.333 0 25 4.66699 35 14s20 19.666 30 30.999l34 -33c-13.333 -16.667 -28.166 -31.834 -44.499 -45.501s-34.833 -20.5 -55.5 -20.5zM128.999 389.001
c16 36.667 39.332 66.333 69.999 89s68.334 34 113.001 34c64 0 111.5 -20.167 142.5 -60.5s46.5 -93.5 46.5 -159.5v-292h-63v296c0 50 -12 89 -36 117s-58 42 -102 42c-32 0 -58.833 -6 -80.5 -18s-39 -28.333 -52 -49s-22.333 -44.5 -28 -71.5s-8.5 -55.5 -8.5 -85.5
v-231h-61v500h59v-111z" />
    <glyph glyph-name="ograve" unicode="&#xf2;" horiz-adv-x="587" 
d="M195 767l212 -136l-27 -43l-214 134zM32 250c0 38 6.5 73 19.5 105s31.167 59.667 54.5 83s51 41.5 83 54.5s67 19.5 105 19.5s73 -6.5 105 -19.5s59.667 -31.167 83 -54.5s41.5 -51 54.5 -83s19.5 -67 19.5 -105s-6.5 -73 -19.5 -105s-31.167 -59.667 -54.5 -83
s-51 -41.5 -83 -54.5s-67 -19.5 -105 -19.5s-73 6.5 -105 19.5s-59.667 31.167 -83 54.5s-41.5 51 -54.5 83s-19.5 67 -19.5 105zM492 250c0 30 -4.66699 57.333 -14 82s-22.666 46 -39.999 64s-38.166 32 -62.499 42s-51.5 15 -81.5 15s-57.167 -5 -81.5 -15
s-45.333 -24 -63 -42s-31.167 -39.333 -40.5 -64s-14 -52 -14 -82s4.66699 -57.333 14 -82s22.833 -46 40.5 -64s38.667 -32 63 -42s51.5 -15 81.5 -15s57.167 5 81.5 15s45.166 24 62.499 42s30.666 39.333 39.999 64s14 52 14 82z" />
    <glyph glyph-name="oacute" unicode="&#xf3;" horiz-adv-x="587" 
d="M392 767l29 -45l-213 -134l-28 43zM32 250c0 38 6.5 73 19.5 105s31.167 59.667 54.5 83s51 41.5 83 54.5s67 19.5 105 19.5s73 -6.5 105 -19.5s59.667 -31.167 83 -54.5s41.5 -51 54.5 -83s19.5 -67 19.5 -105s-6.5 -73 -19.5 -105s-31.167 -59.667 -54.5 -83
s-51 -41.5 -83 -54.5s-67 -19.5 -105 -19.5s-73 6.5 -105 19.5s-59.667 31.167 -83 54.5s-41.5 51 -54.5 83s-19.5 67 -19.5 105zM492 250c0 30 -4.66699 57.333 -14 82s-22.666 46 -39.999 64s-38.166 32 -62.499 42s-51.5 15 -81.5 15s-57.167 -5 -81.5 -15
s-45.333 -24 -63 -42s-31.167 -39.333 -40.5 -64s-14 -52 -14 -82s4.66699 -57.333 14 -82s22.833 -46 40.5 -64s38.667 -32 63 -42s51.5 -15 81.5 -15s57.167 5 81.5 15s45.166 24 62.499 42s30.666 39.333 39.999 64s14 52 14 82z" />
    <glyph glyph-name="ocircumflex" unicode="&#xf4;" horiz-adv-x="587" 
d="M290 759l169 -145l-34 -38l-135 117l-134 -117l-34 38zM32 250c0 38 6.5 73 19.5 105s31.167 59.667 54.5 83s51 41.5 83 54.5s67 19.5 105 19.5s73 -6.5 105 -19.5s59.667 -31.167 83 -54.5s41.5 -51 54.5 -83s19.5 -67 19.5 -105s-6.5 -73 -19.5 -105
s-31.167 -59.667 -54.5 -83s-51 -41.5 -83 -54.5s-67 -19.5 -105 -19.5s-73 6.5 -105 19.5s-59.667 31.167 -83 54.5s-41.5 51 -54.5 83s-19.5 67 -19.5 105zM492 250c0 30 -4.66699 57.333 -14 82s-22.666 46 -39.999 64s-38.166 32 -62.499 42s-51.5 15 -81.5 15
s-57.167 -5 -81.5 -15s-45.333 -24 -63 -42s-31.167 -39.333 -40.5 -64s-14 -52 -14 -82s4.66699 -57.333 14 -82s22.833 -46 40.5 -64s38.667 -32 63 -42s51.5 -15 81.5 -15s57.167 5 81.5 15s45.166 24 62.499 42s30.666 39.333 39.999 64s14 52 14 82z" />
    <glyph glyph-name="otilde" unicode="&#xf5;" horiz-adv-x="587" 
d="M357 594c-12.667 0 -24.835 2.66797 -36.502 8.00098s-22.834 11.333 -33.501 18s-21 12.667 -31 18s-19.333 8 -28 8c-12.667 0 -24 -4.66699 -34 -14s-20 -19.666 -30 -30.999l-35 33c13.333 16 28.166 31 44.499 45s35.166 21 56.499 21
c12.667 0 24.834 -2.66699 36.501 -8s22.834 -11.333 33.501 -18s20.834 -12.667 30.501 -18s18.834 -8 27.501 -8c13.333 0 25 4.66699 35 14s20 19.666 30 30.999l34 -33c-13.333 -16.667 -28.166 -31.834 -44.499 -45.501s-34.833 -20.5 -55.5 -20.5zM31.999 250.001
c0 38 6.5 73 19.5 105s31.167 59.667 54.5 83s51 41.5 83 54.5s67 19.5 105 19.5s73 -6.5 105 -19.5s59.667 -31.167 83 -54.5s41.5 -51 54.5 -83s19.5 -67 19.5 -105s-6.5 -73 -19.5 -105s-31.167 -59.667 -54.5 -83s-51 -41.5 -83 -54.5s-67 -19.5 -105 -19.5
s-73 6.5 -105 19.5s-59.667 31.167 -83 54.5s-41.5 51 -54.5 83s-19.5 67 -19.5 105zM491.999 250.001c0 30 -4.66699 57.333 -14 82s-22.666 46 -39.999 64s-38.166 32 -62.499 42s-51.5 15 -81.5 15s-57.167 -5 -81.5 -15s-45.333 -24 -63 -42s-31.167 -39.333 -40.5 -64
s-14 -52 -14 -82s4.66699 -57.333 14 -82s22.833 -46 40.5 -64s38.667 -32 63 -42s51.5 -15 81.5 -15s57.167 5 81.5 15s45.166 24 62.499 42s30.666 39.333 39.999 64s14 52 14 82z" />
    <glyph glyph-name="odieresis" unicode="&#xf6;" horiz-adv-x="587" 
d="M141 652c0 16 5.33301 29.333 16 40s24 16 40 16c15.333 0 28.5 -5.33301 39.5 -16s16.5 -24 16.5 -40c0 -15.333 -5.5 -28.5 -16.5 -39.5s-24.167 -16.5 -39.5 -16.5c-16 0 -29.333 5.5 -40 16.5s-16 24.167 -16 39.5zM339 652c0 16 5.5 29.333 16.5 40
s24.167 16 39.5 16c16 0 29.333 -5.33301 40 -16s16 -24 16 -40c0 -15.333 -5.33301 -28.5 -16 -39.5s-24 -16.5 -40 -16.5c-15.333 0 -28.5 5.5 -39.5 16.5s-16.5 24.167 -16.5 39.5zM32 250c0 38 6.5 73 19.5 105s31.167 59.667 54.5 83s51 41.5 83 54.5s67 19.5 105 19.5
s73 -6.5 105 -19.5s59.667 -31.167 83 -54.5s41.5 -51 54.5 -83s19.5 -67 19.5 -105s-6.5 -73 -19.5 -105s-31.167 -59.667 -54.5 -83s-51 -41.5 -83 -54.5s-67 -19.5 -105 -19.5s-73 6.5 -105 19.5s-59.667 31.167 -83 54.5s-41.5 51 -54.5 83s-19.5 67 -19.5 105zM492 250
c0 30 -4.66699 57.333 -14 82s-22.666 46 -39.999 64s-38.166 32 -62.499 42s-51.5 15 -81.5 15s-57.167 -5 -81.5 -15s-45.333 -24 -63 -42s-31.167 -39.333 -40.5 -64s-14 -52 -14 -82s4.66699 -57.333 14 -82s22.833 -46 40.5 -64s38.667 -32 63 -42s51.5 -15 81.5 -15
s57.167 5 81.5 15s45.166 24 62.499 42s30.666 39.333 39.999 64s14 52 14 82z" />
    <glyph glyph-name="divide" unicode="&#xf7;" 
d="M314 553c17.333 0 32.166 -6 44.499 -18s18.5 -27 18.5 -45s-6.16699 -33 -18.5 -45s-27.166 -18 -44.499 -18c-18 0 -33 6 -45 18s-18 27 -18 45s6 33 18 45s27 18 45 18zM585 347v-64h-530v64h530zM314 199c17.333 0 32.166 -6 44.499 -18s18.5 -27 18.5 -45
s-6.16699 -33 -18.5 -45s-27.166 -18 -44.499 -18c-18 0 -33 6 -45 18s-18 27 -18 45s6 33 18 45s27 18 45 18z" />
    <glyph glyph-name="oslash" unicode="&#xf8;" horiz-adv-x="587" 
d="M95 250c0 -28 4 -53.668 12 -77.001s19.667 -43.666 35 -60.999l261 312c-30.667 19.333 -67 29 -109 29c-30 0 -57.167 -5 -81.5 -15s-45.333 -24 -63 -42s-31.167 -39.333 -40.5 -64s-14 -52 -14 -82zM294 46.999c30 0 57.1689 5 81.502 15s45.166 24 62.499 42
s30.666 39.333 39.999 64s14 52 14 82c0 28.667 -4.33301 55 -13 79s-21 45 -37 63l-263 -313c16 -10 33.5 -17.833 52.5 -23.5s39.833 -8.5 62.5 -8.5zM294.002 -12.001c-58.667 0 -109.666 15.001 -152.999 45.001l-40 -47l-38 32l40 47
c-22.667 23.333 -40.167 50.666 -52.5 81.999s-18.5 65.666 -18.5 102.999c0 38 6.5 73 19.5 105s31.167 59.667 54.5 83s51 41.5 83 54.5s67 19.5 105 19.5c28 0 54.5 -3.66699 79.5 -11s47.833 -17.666 68.5 -30.999l37 44l38 -33l-36 -43
c23.333 -23.333 41.666 -51 54.999 -83s20 -67 20 -105s-6.5 -73 -19.5 -105s-31.167 -59.667 -54.5 -83s-51 -41.5 -83 -54.5s-67 -19.5 -105 -19.5z" />
    <glyph glyph-name="ugrave" unicode="&#xf9;" horiz-adv-x="564" 
d="M184 767l212 -136l-27 -43l-214 134zM494 500v-500h-59v114c-33.333 -84 -92 -126 -176 -126c-34.667 0 -64 5.33301 -88 16s-43.5 25.667 -58.5 45s-25.833 42.333 -32.5 69s-10 56 -10 88v294h63v-294c0 -23.333 2.16699 -44.833 6.5 -64.5s11.833 -36.667 22.5 -51
s24.667 -25.5 42 -33.5s39 -12 65 -12c30.667 0 56.5 6.16699 77.5 18.5s38 29 51 50s22.167 44.833 27.5 71.5s8 54.667 8 84v231h61z" />
    <glyph glyph-name="uacute" unicode="&#xfa;" horiz-adv-x="564" 
d="M380 767l29 -45l-213 -134l-28 43zM494 500v-500h-59v114c-33.333 -84 -92 -126 -176 -126c-34.667 0 -64 5.33301 -88 16s-43.5 25.667 -58.5 45s-25.833 42.333 -32.5 69s-10 56 -10 88v294h63v-294c0 -23.333 2.16699 -44.833 6.5 -64.5s11.833 -36.667 22.5 -51
s24.667 -25.5 42 -33.5s39 -12 65 -12c30.667 0 56.5 6.16699 77.5 18.5s38 29 51 50s22.167 44.833 27.5 71.5s8 54.667 8 84v231h61z" />
    <glyph glyph-name="ucircumflex" unicode="&#xfb;" horiz-adv-x="564" 
d="M282 759l169 -145l-34 -38l-135 117l-134 -117l-34 38zM494 500v-500h-59v114c-33.333 -84 -92 -126 -176 -126c-34.667 0 -64 5.33301 -88 16s-43.5 25.667 -58.5 45s-25.833 42.333 -32.5 69s-10 56 -10 88v294h63v-294c0 -23.333 2.16699 -44.833 6.5 -64.5
s11.833 -36.667 22.5 -51s24.667 -25.5 42 -33.5s39 -12 65 -12c30.667 0 56.5 6.16699 77.5 18.5s38 29 51 50s22.167 44.833 27.5 71.5s8 54.667 8 84v231h61z" />
    <glyph glyph-name="udieresis" unicode="&#xfc;" horiz-adv-x="564" 
d="M129 652c0 16 5.33301 29.333 16 40s24 16 40 16c15.333 0 28.5 -5.33301 39.5 -16s16.5 -24 16.5 -40c0 -15.333 -5.5 -28.5 -16.5 -39.5s-24.167 -16.5 -39.5 -16.5c-16 0 -29.333 5.5 -40 16.5s-16 24.167 -16 39.5zM327 652c0 16 5.5 29.333 16.5 40
s24.167 16 39.5 16c16 0 29.333 -5.33301 40 -16s16 -24 16 -40c0 -15.333 -5.33301 -28.5 -16 -39.5s-24 -16.5 -40 -16.5c-15.333 0 -28.5 5.5 -39.5 16.5s-16.5 24.167 -16.5 39.5zM494 500v-500h-59v114c-33.333 -84 -92 -126 -176 -126c-34.667 0 -64 5.33301 -88 16
s-43.5 25.667 -58.5 45s-25.833 42.333 -32.5 69s-10 56 -10 88v294h63v-294c0 -23.333 2.16699 -44.833 6.5 -64.5s11.833 -36.667 22.5 -51s24.667 -25.5 42 -33.5s39 -12 65 -12c30.667 0 56.5 6.16699 77.5 18.5s38 29 51 50s22.167 44.833 27.5 71.5s8 54.667 8 84v231
h61z" />
    <glyph glyph-name="yacute" unicode="&#xfd;" horiz-adv-x="506" 
d="M351 767l29 -45l-213 -134l-28 43zM109 -200l120 258l-219 442h74l178 -371l173 371h65l-324 -700h-67z" />
    <glyph glyph-name="thorn" unicode="&#xfe;" horiz-adv-x="605" 
d="M320 45c30 0 56.667 5.16602 80 15.499s43.166 24.833 59.499 43.5s28.833 40.334 37.5 65.001s13 51.667 13 81c0 28.667 -4.33301 55.5 -13 80.5s-21.167 46.833 -37.5 65.5s-36.166 33.167 -59.499 43.5s-50 15.5 -80 15.5c-29.333 0 -55.666 -5 -78.999 -15
s-43.166 -24 -59.499 -42s-29 -39.5 -38 -64.5s-13.5 -52.833 -13.5 -83.5s4.5 -58.5 13.5 -83.5s21.667 -46.5 38 -64.5s36.166 -32 59.499 -42s49.666 -15 78.999 -15zM73 -200.001v899.998h61v-309c7.33301 15.333 16.833 30.333 28.5 45s25.667 27.667 42 39
s35 20.333 56 27s44.5 10 70.5 10c36.667 0 70 -6.66699 100 -20s55.5 -31.666 76.5 -54.999s37.167 -51 48.5 -83s17 -66.667 17 -104s-5.66699 -72 -17 -104s-27.5 -59.667 -48.5 -83s-46.5 -41.666 -76.5 -54.999s-63.333 -20 -100 -20c-26 0 -49.333 3.33301 -70 10
s-39 15.667 -55 27s-30 24.333 -42 39s-22 29.667 -30 45v-309h-61z" />
    <glyph glyph-name="ydieresis" unicode="&#xff;" horiz-adv-x="506" 
d="M100 652c0 16 5.33301 29.333 16 40s24 16 40 16c15.333 0 28.5 -5.33301 39.5 -16s16.5 -24 16.5 -40c0 -15.333 -5.5 -28.5 -16.5 -39.5s-24.167 -16.5 -39.5 -16.5c-16 0 -29.333 5.5 -40 16.5s-16 24.167 -16 39.5zM298 652c0 16 5.5 29.333 16.5 40
s24.167 16 39.5 16c16 0 29.333 -5.33301 40 -16s16 -24 16 -40c0 -15.333 -5.33301 -28.5 -16 -39.5s-24 -16.5 -40 -16.5c-15.333 0 -28.5 5.5 -39.5 16.5s-16.5 24.167 -16.5 39.5zM109 -200l120 258l-219 442h74l178 -371l173 371h65l-324 -700h-67z" />
    <glyph glyph-name="Amacron" unicode="&#x100;" horiz-adv-x="739" 
d="M525 810v-50h-300v50h300zM169 192h400l-200 431zM599 128h-460l-59 -128h-70l326 700h67l326 -700h-71z" />
    <glyph glyph-name="amacron" unicode="&#x101;" horiz-adv-x="508" 
d="M420 682v-50h-300v50h300zM396 255l-182 -20.001c-38 -4 -65 -14.833 -81 -32.5s-24 -38.167 -24 -61.5c0 -28.667 9.5 -51.5 28.5 -68.5s46.833 -25.5 83.5 -25.5c28 0 52.833 4.83301 74.5 14.5s40 22.334 55 38.001s26.333 33.5 34 53.5s11.5 40.333 11.5 61v41z
M63 391.999c4.66699 16.667 11.667 32.3311 21 46.998s22 27.5 38 38.5s35.333 19.5 58 25.5s49.667 9 81 9c66.667 0 116 -15.333 148 -46s48 -76.667 48 -138v-328h-61v107c-15.333 -38 -39.166 -67 -71.499 -87s-69.5 -30 -111.5 -30c-27.333 0 -51.5 3.83301 -72.5 11.5
s-38.5 18.167 -52.5 31.5s-24.667 29.333 -32 48s-11 38.667 -11 60c0 46.667 15.167 82.334 45.5 107.001s68.5 39.334 114.5 44.001l166 16c16.667 2 25 9 25 21v18c0 34 -10.333 60.833 -31 80.5s-54.334 29.5 -101.001 29.5c-84.667 0 -133.667 -31.333 -147 -94z" />
    <glyph glyph-name="Abreve" unicode="&#x102;" horiz-adv-x="739" 
d="M507 872c-0.666992 -44 -13.1689 -79.167 -37.502 -105.5s-57.833 -39.5 -100.5 -39.5s-76.167 13.167 -100.5 39.5s-36.833 61.5 -37.5 105.5h52c0.666992 -30.667 8.83398 -53.834 24.501 -69.501s36.167 -23.5 61.5 -23.5s45.833 7.83301 61.5 23.5
s23.834 38.834 24.501 69.501h52zM168.998 192h400l-200 431zM598.998 128h-460l-59 -128h-70l326 700h67l326 -700h-71z" />
    <glyph glyph-name="abreve" unicode="&#x103;" horiz-adv-x="508" 
d="M402 731c-0.666992 -44 -13.1689 -79.167 -37.502 -105.5s-57.833 -39.5 -100.5 -39.5s-76.167 13.167 -100.5 39.5s-36.833 61.5 -37.5 105.5h52c0.666992 -30.667 8.83398 -53.834 24.501 -69.501s36.167 -23.5 61.5 -23.5s45.833 7.83301 61.5 23.5
s23.834 38.834 24.501 69.501h52zM395.998 255l-182 -20.001c-38 -4 -65 -14.833 -81 -32.5s-24 -38.167 -24 -61.5c0 -28.667 9.5 -51.5 28.5 -68.5s46.833 -25.5 83.5 -25.5c28 0 52.833 4.83301 74.5 14.5s40 22.334 55 38.001s26.333 33.5 34 53.5s11.5 40.333 11.5 61
v41zM62.998 391.999c4.66699 16.667 11.667 32.3311 21 46.998s22 27.5 38 38.5s35.333 19.5 58 25.5s49.667 9 81 9c66.667 0 116 -15.333 148 -46s48 -76.667 48 -138v-328h-61v107c-15.333 -38 -39.166 -67 -71.499 -87s-69.5 -30 -111.5 -30
c-27.333 0 -51.5 3.83301 -72.5 11.5s-38.5 18.167 -52.5 31.5s-24.667 29.333 -32 48s-11 38.667 -11 60c0 46.667 15.167 82.334 45.5 107.001s68.5 39.334 114.5 44.001l166 16c16.667 2 25 9 25 21v18c0 34 -10.333 60.833 -31 80.5s-54.334 29.5 -101.001 29.5
c-84.667 0 -133.667 -31.333 -147 -94z" />
    <glyph glyph-name="Aogonek" unicode="&#x104;" horiz-adv-x="739" 
d="M169 192h400l-200 431zM700 -165c-7.33301 -2 -15.001 -3.66699 -23.001 -5s-15.333 -2 -22 -2c-21.333 0 -40 6.33301 -56 19s-24 31 -24 55c0 20 6.5 38.833 19.5 56.5s31.833 36.5 56.5 56.5l-52 113h-460l-59 -128h-70l326 700h67l326 -700h-48
c-19.333 -17.333 -34.166 -33.833 -44.499 -49.5s-15.5 -30.167 -15.5 -43.5c0 -23.333 14.333 -35 43 -35c5.33301 0 11 0.5 17 1.5s12.333 2.16699 19 3.5v-42z" />
    <glyph glyph-name="aogonek" unicode="&#x105;" horiz-adv-x="508" 
d="M396 255l-182 -20.001c-38 -4 -65 -14.833 -81 -32.5s-24 -38.167 -24 -61.5c0 -28.667 9.5 -51.5 28.5 -68.5s46.833 -25.5 83.5 -25.5c28 0 52.833 4.83301 74.5 14.5s40 22.334 55 38.001s26.333 33.5 34 53.5s11.5 40.333 11.5 61v41zM454 -164.001
c-7.33301 -2 -15 -3.66992 -23 -5.00293s-15.333 -2 -22 -2c-21.333 0 -40 6.33301 -56 19s-24 31 -24 55c0 18.667 5.83301 36.167 17.5 52.5s28.167 33.833 49.5 52.5v99c-15.333 -38 -39.166 -67 -71.499 -87s-69.5 -30 -111.5 -30c-27.333 0 -51.5 3.83301 -72.5 11.5
s-38.5 18.167 -52.5 31.5s-24.667 29.333 -32 48s-11 38.667 -11 60c0 46.667 15.167 82.334 45.5 107.001s68.5 39.334 114.5 44.001l166 16c16.667 2 25 9 25 21v18c0 34 -10.333 60.833 -31 80.5s-54.334 29.5 -101.001 29.5c-84.667 0 -133.667 -31.333 -147 -94l-54 29
c4.66699 16.667 11.667 32.334 21 47.001s22 27.5 38 38.5s35.333 19.5 58 25.5s49.667 9 81 9c66.667 0 116 -15.333 148 -46s48 -76.667 48 -138v-306h2l-2 -2v-20h-23c-39.333 -36 -59 -66.667 -59 -92c0 -23.333 14.333 -35 43 -35c5.33301 0 11 0.5 17 1.5
s12.333 2.16699 19 3.5v-42z" />
    <glyph glyph-name="Cacute" unicode="&#x106;" horiz-adv-x="653" 
d="M503 892l29 -45l-213 -134l-28 43zM50 350c0 50 8.83203 96.333 26.499 139s42.167 79.667 73.5 111s68.333 55.833 111 73.5s88.667 26.5 138 26.5c48.667 0 92.667 -8.5 132 -25.5s75 -39.5 107 -67.5l-28 -61c-27.333 26 -58.333 47.5 -93 64.5s-75 25.5 -121 25.5
c-40 0 -77.333 -7 -112 -21s-64.5 -33.667 -89.5 -59s-44.667 -55.5 -59 -90.5s-21.5 -73.5 -21.5 -115.5s7.16699 -80.5 21.5 -115.5s34 -65.167 59 -90.5s54.833 -45 89.5 -59s72 -21 112 -21c20.667 0 40.834 2 60.501 6s41.167 10.667 64.5 20l11 -64
c-28 -9.33301 -52.667 -16 -74 -20s-42 -6 -62 -6c-48.667 -0 -94 8.83301 -136 26.5s-78.5 42.167 -109.5 73.5s-55.5 68.333 -73.5 111s-27 89 -27 139z" />
    <glyph glyph-name="cacute" unicode="&#x107;" horiz-adv-x="491" 
d="M388 767l29 -45l-213 -134l-28 43zM32 249c0 38 6.16895 73 18.502 105s30 59.833 53 83.5s50.667 42 83 55s68.166 19.5 107.499 19.5c36 0 68.5 -5.66699 97.5 -17s54.5 -27.666 76.5 -48.999l-39 -48c-19.333 17.333 -40.5 30.833 -63.5 40.5s-47.833 14.5 -74.5 14.5
c-28.667 0 -55 -4.83301 -79 -14.5s-44.667 -23.167 -62 -40.5s-30.833 -38.666 -40.5 -63.999s-14.5 -53.333 -14.5 -84s4.83301 -58.5 14.5 -83.5s23.167 -46.333 40.5 -64s38 -31.334 62 -41.001s50 -14.5 78 -14.5s54.167 5.16699 78.5 15.5
s46.166 24.166 65.499 41.499l37 -48c-21.333 -20 -47 -36.333 -77 -49s-64.333 -19 -103 -19c-39.333 0 -75 6.5 -107 19.5s-59.333 31 -82 54s-40 50.5 -52 82.5s-18 67 -18 105z" />
    <glyph glyph-name="Ccircumflex" unicode="&#x108;" horiz-adv-x="653" 
d="M391 902l169 -145l-34 -38l-135 117l-134 -117l-34 38zM50 350c0 50 8.83203 96.333 26.499 139s42.167 79.667 73.5 111s68.333 55.833 111 73.5s88.667 26.5 138 26.5c48.667 0 92.667 -8.5 132 -25.5s75 -39.5 107 -67.5l-28 -61c-27.333 26 -58.333 47.5 -93 64.5
s-75 25.5 -121 25.5c-40 0 -77.333 -7 -112 -21s-64.5 -33.667 -89.5 -59s-44.667 -55.5 -59 -90.5s-21.5 -73.5 -21.5 -115.5s7.16699 -80.5 21.5 -115.5s34 -65.167 59 -90.5s54.833 -45 89.5 -59s72 -21 112 -21c20.667 0 40.834 2 60.501 6s41.167 10.667 64.5 20
l11 -64c-28 -9.33301 -52.667 -16 -74 -20s-42 -6 -62 -6c-48.667 -0 -94 8.83301 -136 26.5s-78.5 42.167 -109.5 73.5s-55.5 68.333 -73.5 111s-27 89 -27 139z" />
    <glyph glyph-name="ccircumflex" unicode="&#x109;" horiz-adv-x="491" 
d="M290 759l169 -145l-34 -38l-135 117l-134 -117l-34 38zM32 249c0 38 6.16895 73 18.502 105s30 59.833 53 83.5s50.667 42 83 55s68.166 19.5 107.499 19.5c36 0 68.5 -5.66699 97.5 -17s54.5 -27.666 76.5 -48.999l-39 -48c-19.333 17.333 -40.5 30.833 -63.5 40.5
s-47.833 14.5 -74.5 14.5c-28.667 0 -55 -4.83301 -79 -14.5s-44.667 -23.167 -62 -40.5s-30.833 -38.666 -40.5 -63.999s-14.5 -53.333 -14.5 -84s4.83301 -58.5 14.5 -83.5s23.167 -46.333 40.5 -64s38 -31.334 62 -41.001s50 -14.5 78 -14.5s54.167 5.16699 78.5 15.5
s46.166 24.166 65.499 41.499l37 -48c-21.333 -20 -47 -36.333 -77 -49s-64.333 -19 -103 -19c-39.333 0 -75 6.5 -107 19.5s-59.333 31 -82 54s-40 50.5 -52 82.5s-18 67 -18 105z" />
    <glyph glyph-name="Cdotaccent" unicode="&#x10a;" horiz-adv-x="653" 
d="M336 793c0 16 5.33301 29.333 16 40s24 16 40 16c15.333 0 28.5 -5.33301 39.5 -16s16.5 -24 16.5 -40c0 -15.333 -5.5 -28.5 -16.5 -39.5s-24.167 -16.5 -39.5 -16.5c-16 0 -29.333 5.5 -40 16.5s-16 24.167 -16 39.5zM50 350c0 50 8.83203 96.333 26.499 139
s42.167 79.667 73.5 111s68.333 55.833 111 73.5s88.667 26.5 138 26.5c48.667 0 92.667 -8.5 132 -25.5s75 -39.5 107 -67.5l-28 -61c-27.333 26 -58.333 47.5 -93 64.5s-75 25.5 -121 25.5c-40 0 -77.333 -7 -112 -21s-64.5 -33.667 -89.5 -59s-44.667 -55.5 -59 -90.5
s-21.5 -73.5 -21.5 -115.5s7.16699 -80.5 21.5 -115.5s34 -65.167 59 -90.5s54.833 -45 89.5 -59s72 -21 112 -21c20.667 0 40.834 2 60.501 6s41.167 10.667 64.5 20l11 -64c-28 -9.33301 -52.667 -16 -74 -20s-42 -6 -62 -6c-48.667 -0 -94 8.83301 -136 26.5
s-78.5 42.167 -109.5 73.5s-55.5 68.333 -73.5 111s-27 89 -27 139z" />
    <glyph glyph-name="cdotaccent" unicode="&#x10b;" horiz-adv-x="491" 
d="M234 652c0 16 5.33301 29.333 16 40s24 16 40 16c15.333 0 28.5 -5.33301 39.5 -16s16.5 -24 16.5 -40c0 -15.333 -5.5 -28.5 -16.5 -39.5s-24.167 -16.5 -39.5 -16.5c-16 0 -29.333 5.5 -40 16.5s-16 24.167 -16 39.5zM32 249c0 38 6.16895 73 18.502 105
s30 59.833 53 83.5s50.667 42 83 55s68.166 19.5 107.499 19.5c36 0 68.5 -5.66699 97.5 -17s54.5 -27.666 76.5 -48.999l-39 -48c-19.333 17.333 -40.5 30.833 -63.5 40.5s-47.833 14.5 -74.5 14.5c-28.667 0 -55 -4.83301 -79 -14.5s-44.667 -23.167 -62 -40.5
s-30.833 -38.666 -40.5 -63.999s-14.5 -53.333 -14.5 -84s4.83301 -58.5 14.5 -83.5s23.167 -46.333 40.5 -64s38 -31.334 62 -41.001s50 -14.5 78 -14.5s54.167 5.16699 78.5 15.5s46.166 24.166 65.499 41.499l37 -48c-21.333 -20 -47 -36.333 -77 -49
s-64.333 -19 -103 -19c-39.333 0 -75 6.5 -107 19.5s-59.333 31 -82 54s-40 50.5 -52 82.5s-18 67 -18 105z" />
    <glyph glyph-name="Ccaron" unicode="&#x10c;" horiz-adv-x="653" 
d="M526 908l34 -38l-169 -145l-168 145l34 38l134 -118zM50 350c0 50 8.83203 96.333 26.499 139s42.167 79.667 73.5 111s68.333 55.833 111 73.5s88.667 26.5 138 26.5c48.667 0 92.667 -8.5 132 -25.5s75 -39.5 107 -67.5l-28 -61c-27.333 26 -58.333 47.5 -93 64.5
s-75 25.5 -121 25.5c-40 0 -77.333 -7 -112 -21s-64.5 -33.667 -89.5 -59s-44.667 -55.5 -59 -90.5s-21.5 -73.5 -21.5 -115.5s7.16699 -80.5 21.5 -115.5s34 -65.167 59 -90.5s54.833 -45 89.5 -59s72 -21 112 -21c20.667 0 40.834 2 60.501 6s41.167 10.667 64.5 20
l11 -64c-28 -9.33301 -52.667 -16 -74 -20s-42 -6 -62 -6c-48.667 -0 -94 8.83301 -136 26.5s-78.5 42.167 -109.5 73.5s-55.5 68.333 -73.5 111s-27 89 -27 139z" />
    <glyph glyph-name="ccaron" unicode="&#x10d;" horiz-adv-x="491" 
d="M425 738l34 -38l-169 -145l-168 145l34 38l134 -118zM32 249c0 38 6.16895 73 18.502 105s30 59.833 53 83.5s50.667 42 83 55s68.166 19.5 107.499 19.5c36 0 68.5 -5.66699 97.5 -17s54.5 -27.666 76.5 -48.999l-39 -48c-19.333 17.333 -40.5 30.833 -63.5 40.5
s-47.833 14.5 -74.5 14.5c-28.667 0 -55 -4.83301 -79 -14.5s-44.667 -23.167 -62 -40.5s-30.833 -38.666 -40.5 -63.999s-14.5 -53.333 -14.5 -84s4.83301 -58.5 14.5 -83.5s23.167 -46.333 40.5 -64s38 -31.334 62 -41.001s50 -14.5 78 -14.5s54.167 5.16699 78.5 15.5
s46.166 24.166 65.499 41.499l37 -48c-21.333 -20 -47 -36.333 -77 -49s-64.333 -19 -103 -19c-39.333 0 -75 6.5 -107 19.5s-59.333 31 -82 54s-40 50.5 -52 82.5s-18 67 -18 105z" />
    <glyph glyph-name="Dcaron" unicode="&#x10e;" horiz-adv-x="714" 
d="M418 908l34 -38l-169 -145l-168 145l34 38l134 -118zM314 700c50 0 96.333 -8.83105 139 -26.498s79.667 -42 111 -73s55.833 -67.833 73.5 -110.5s26.5 -89.334 26.5 -140.001s-8.83301 -97.334 -26.5 -140.001s-42.167 -79.5 -73.5 -110.5s-68.333 -55.333 -111 -73
s-89 -26.5 -139 -26.5h-234v700h234zM600 350.002c0 41.333 -7.16699 79.502 -21.5 114.502s-34.166 65.167 -59.499 90.5s-55.5 45.166 -90.5 59.499s-73.167 21.5 -114.5 21.5h-170v-572h170c41.333 0 79.5 7.16699 114.5 21.5s65.167 34.166 90.5 59.499
s45.166 55.5 59.499 90.5s21.5 73.167 21.5 114.5z" />
    <glyph glyph-name="dcaron" unicode="&#x10f;" horiz-adv-x="723" 
d="M582 477l66.002 115.999c-14.667 2.66699 -26.667 9.5 -36 20.5s-14 23.833 -14 38.5c0 16 5.66699 30 17 42s25.666 18 42.999 18s31.666 -6 42.999 -18s17 -26 17 -42c0 -9.33301 -2.33301 -18.666 -7 -27.999l-93 -168zM285.002 454.999
c-30 0 -56.667 -5.16602 -80 -15.499s-43.166 -24.833 -59.499 -43.5s-28.833 -40.5 -37.5 -65.5s-13 -51.833 -13 -80.5c0 -29.333 4.33301 -56.333 13 -81s21.167 -46.334 37.5 -65.001s36.166 -33.167 59.499 -43.5s50 -15.5 80 -15.5c28.667 0 54.834 5 78.501 15
s43.667 24 60 42s29 39.5 38 64.5s13.5 52.833 13.5 83.5s-4.5 58.5 -13.5 83.5s-21.667 46.5 -38 64.5s-36.333 32 -60 42s-49.834 15 -78.501 15zM532.002 700v-699.998h-61v109c-7.33301 -15.333 -16.833 -30.333 -28.5 -45s-25.667 -27.667 -42 -39s-35 -20.333 -56 -27
s-44.5 -10 -70.5 -10c-36.667 0 -70 6.66699 -100 20s-55.5 31.666 -76.5 54.999s-37.167 51 -48.5 83s-17 66.667 -17 104s5.66699 72 17 104s27.5 59.667 48.5 83s46.5 41.666 76.5 54.999s63.333 20 100 20c26 0 49.333 -3.33301 70 -10s39 -15.667 55 -27
s30 -24.333 42 -39s22 -29.667 30 -45v309h61z" />
    <glyph glyph-name="Dcroat" unicode="&#x110;" horiz-adv-x="714" 
d="M80 0v323.002h-80v64h80v313h234c50 0 96.333 -8.83301 139 -26.5s79.667 -42 111 -73s55.833 -67.833 73.5 -110.5s26.5 -89.334 26.5 -140.001s-8.83301 -97.334 -26.5 -140.001s-42.167 -79.5 -73.5 -110.5s-68.333 -55.333 -111 -73s-89 -26.5 -139 -26.5h-234z
M314 64.002c41.333 0 79.5 7.16895 114.5 21.502s65.167 34.166 90.5 59.499s45.166 55.5 59.499 90.5s21.5 73.167 21.5 114.5s-7.16699 79.5 -21.5 114.5s-34.166 65.167 -59.499 90.5s-55.5 45.166 -90.5 59.499s-73.167 21.5 -114.5 21.5h-170v-249h185v-64h-185v-259
h170z" />
    <glyph glyph-name="dcroat" unicode="&#x111;" horiz-adv-x="604" 
d="M285 455c-30 0 -56.667 -5.16602 -80 -15.499s-43.166 -24.833 -59.499 -43.5s-28.833 -40.5 -37.5 -65.5s-13 -51.833 -13 -80.5c0 -29.333 4.33301 -56.333 13 -81s21.167 -46.334 37.5 -65.001s36.166 -33.167 59.499 -43.5s50 -15.5 80 -15.5
c28.667 0 54.834 5 78.501 15s43.667 24 60 42s29 39.5 38 64.5s13.5 52.833 13.5 83.5s-4.5 58.5 -13.5 83.5s-21.667 46.5 -38 64.5s-36.333 32 -60 42s-49.834 15 -78.501 15zM471 109.001c-7.33301 -15.333 -16.833 -30.3311 -28.5 -44.998s-25.667 -27.667 -42 -39
s-35 -20.333 -56 -27s-44.5 -10 -70.5 -10c-36.667 0 -70 6.66699 -100 20s-55.5 31.666 -76.5 54.999s-37.167 51 -48.5 83s-17 66.667 -17 104s5.66699 72 17 104s27.5 59.667 48.5 83s46.5 41.666 76.5 54.999s63.333 20 100 20c26 0 49.333 -3.33301 70 -10
s39 -15.667 55 -27s30 -24.333 42 -39s22 -29.667 30 -45v203h-135v48h135v58h61v-58h64v-48h-64v-594h-61v109z" />
    <glyph glyph-name="Emacron" unicode="&#x112;" horiz-adv-x="550" 
d="M451 810v-50h-300v50h300zM498 700v-64h-354v-254h354v-64h-354v-254h354v-64h-418v700h418z" />
    <glyph glyph-name="emacron" unicode="&#x113;" horiz-adv-x="542" 
d="M442 682v-50h-300v50h300zM32 247c0 37.333 5.83301 72.167 17.5 104.5s28.167 60.333 49.5 84s47.166 42.334 77.499 56.001s64.166 20.5 101.499 20.5c39.333 0 73.833 -6.83301 103.5 -20.5s54.334 -32.167 74.001 -55.5s34.334 -50.5 44.001 -81.5
s14.5 -63.833 14.5 -98.5v-18h-420l-1 -7c0.666992 -30 6.16699 -56.5 16.5 -79.5s24 -42.333 41 -58s36.833 -27.667 59.5 -36s47 -12.5 73 -12.5c38 0 70.667 7.5 98 22.5s50.666 33.167 69.999 54.5l32 -48c-21.333 -22 -48 -41.833 -80 -59.5s-71 -26.5 -117 -26.5
c-38 0 -72.5 6.16699 -103.5 18.5s-57.667 29.666 -80 51.999s-39.666 49.5 -51.999 81.5s-18.5 67.667 -18.5 107zM447 287.001c-1.33301 24 -5.83301 46.167 -13.5 66.5s-18.5 38 -32.5 53s-31.167 26.833 -51.5 35.5s-43.833 13 -70.5 13c-54 0 -96.5 -15.5 -127.5 -46.5
s-49.5 -71.5 -55.5 -121.5h351z" />
    <glyph glyph-name="Ebreve" unicode="&#x114;" horiz-adv-x="550" 
d="M434 872c-0.666992 -44 -13.1689 -79.167 -37.502 -105.5s-57.833 -39.5 -100.5 -39.5s-76.167 13.167 -100.5 39.5s-36.833 61.5 -37.5 105.5h52c0.666992 -30.667 8.83398 -53.834 24.501 -69.501s36.167 -23.5 61.5 -23.5s45.833 7.83301 61.5 23.5
s23.834 38.834 24.501 69.501h52zM497.998 700v-64h-354v-254h354v-64h-354v-254h354v-64h-418v700h418z" />
    <glyph glyph-name="ebreve" unicode="&#x115;" horiz-adv-x="542" 
d="M425 731c-0.666992 -44 -13.1689 -79.167 -37.502 -105.5s-57.833 -39.5 -100.5 -39.5s-76.167 13.167 -100.5 39.5s-36.833 61.5 -37.5 105.5h52c0.666992 -30.667 8.83398 -53.834 24.501 -69.501s36.167 -23.5 61.5 -23.5s45.833 7.83301 61.5 23.5
s23.834 38.834 24.501 69.501h52zM31.998 247c0 37.333 5.83301 72.167 17.5 104.5s28.167 60.333 49.5 84s47.166 42.334 77.499 56.001s64.166 20.5 101.499 20.5c39.333 0 73.833 -6.83301 103.5 -20.5s54.334 -32.167 74.001 -55.5s34.334 -50.5 44.001 -81.5
s14.5 -63.833 14.5 -98.5v-18h-420l-1 -7c0.666992 -30 6.16699 -56.5 16.5 -79.5s24 -42.333 41 -58s36.833 -27.667 59.5 -36s47 -12.5 73 -12.5c38 0 70.667 7.5 98 22.5s50.666 33.167 69.999 54.5l32 -48c-21.333 -22 -48 -41.833 -80 -59.5s-71 -26.5 -117 -26.5
c-38 0 -72.5 6.16699 -103.5 18.5s-57.667 29.666 -80 51.999s-39.666 49.5 -51.999 81.5s-18.5 67.667 -18.5 107zM446.998 287.001c-1.33301 24 -5.83301 46.167 -13.5 66.5s-18.5 38 -32.5 53s-31.167 26.833 -51.5 35.5s-43.833 13 -70.5 13
c-54 0 -96.5 -15.5 -127.5 -46.5s-49.5 -71.5 -55.5 -121.5h351z" />
    <glyph glyph-name="Edotaccent" unicode="&#x116;" horiz-adv-x="550" 
d="M240 793c0 16 5.33301 29.333 16 40s24 16 40 16c15.333 0 28.5 -5.33301 39.5 -16s16.5 -24 16.5 -40c0 -15.333 -5.5 -28.5 -16.5 -39.5s-24.167 -16.5 -39.5 -16.5c-16 0 -29.333 5.5 -40 16.5s-16 24.167 -16 39.5zM498 700v-64h-354v-254h354v-64h-354v-254h354v-64
h-418v700h418z" />
    <glyph glyph-name="edotaccent" unicode="&#x117;" horiz-adv-x="542" 
d="M231 652c0 16 5.33301 29.333 16 40s24 16 40 16c15.333 0 28.5 -5.33301 39.5 -16s16.5 -24 16.5 -40c0 -15.333 -5.5 -28.5 -16.5 -39.5s-24.167 -16.5 -39.5 -16.5c-16 0 -29.333 5.5 -40 16.5s-16 24.167 -16 39.5zM32 247c0 37.333 5.83301 72.167 17.5 104.5
s28.167 60.333 49.5 84s47.166 42.334 77.499 56.001s64.166 20.5 101.499 20.5c39.333 0 73.833 -6.83301 103.5 -20.5s54.334 -32.167 74.001 -55.5s34.334 -50.5 44.001 -81.5s14.5 -63.833 14.5 -98.5v-18h-420l-1 -7c0.666992 -30 6.16699 -56.5 16.5 -79.5
s24 -42.333 41 -58s36.833 -27.667 59.5 -36s47 -12.5 73 -12.5c38 0 70.667 7.5 98 22.5s50.666 33.167 69.999 54.5l32 -48c-21.333 -22 -48 -41.833 -80 -59.5s-71 -26.5 -117 -26.5c-38 0 -72.5 6.16699 -103.5 18.5s-57.667 29.666 -80 51.999
s-39.666 49.5 -51.999 81.5s-18.5 67.667 -18.5 107zM447 287.001c-1.33301 24 -5.83301 46.167 -13.5 66.5s-18.5 38 -32.5 53s-31.167 26.833 -51.5 35.5s-43.833 13 -70.5 13c-54 0 -96.5 -15.5 -127.5 -46.5s-49.5 -71.5 -55.5 -121.5h351z" />
    <glyph glyph-name="Eogonek" unicode="&#x118;" horiz-adv-x="550" 
d="M486 -164c-7.33301 -2 -15 -3.66602 -23 -4.99902s-15.333 -2 -22 -2c-21.333 0 -40 6.33301 -56 19s-24 31 -24 55c0 17.333 4.83301 33.666 14.5 48.999s24.167 31.333 43.5 48h-339v700h418v-64h-354v-254h354v-64h-354v-254h354v-64h-32
c-39.333 -36 -59 -66.667 -59 -92c0 -23.333 14.333 -35 43 -35c5.33301 0 11 0.5 17 1.5s12.333 2.16699 19 3.5v-42v0z" />
    <glyph glyph-name="eogonek" unicode="&#x119;" horiz-adv-x="542" 
d="M384 -160c-21.333 0 -40.001 6.33203 -56.001 18.999s-24 31 -24 55c0 14.667 3.33301 28.334 10 41.001s16.667 25.667 30 39c-18 -4 -37.333 -6 -58 -6c-38 0 -72.5 6.16699 -103.5 18.5s-57.667 29.666 -80 51.999s-39.666 49.5 -51.999 81.5s-18.5 67.667 -18.5 107
c0 37.333 5.83301 72.166 17.5 104.499s28.167 60.333 49.5 84s47.166 42.334 77.499 56.001s64.166 20.5 101.499 20.5c39.333 0 73.833 -6.83301 103.5 -20.5s54.334 -32.167 74.001 -55.5s34.334 -50.5 44.001 -81.5s14.5 -63.833 14.5 -98.5v-18h-420l-1 -7
c0.666992 -30 6.16699 -56.5 16.5 -79.5s24 -42.333 41 -58s36.833 -27.667 59.5 -36s47 -12.5 73 -12.5c38 0 70.667 7.5 98 22.5s50.666 33.167 69.999 54.5l32 -48c-7.33301 -7.33301 -15.333 -14.666 -24 -21.999s-18 -14.333 -28 -21
c-25.333 -21.333 -45.166 -41.5 -59.499 -60.5s-21.5 -36.167 -21.5 -51.5c0 -23.333 14.333 -35 43 -35c5.33301 0 11 0.5 17 1.5s12.333 2.16699 19 3.5v-42c-7.33301 -2 -15 -3.66699 -23 -5s-15.333 -2 -22 -2zM446.999 286.999c-1.33301 24 -5.83301 46.167 -13.5 66.5
s-18.5 38 -32.5 53s-31.167 26.833 -51.5 35.5s-43.833 13 -70.5 13c-54 0 -96.5 -15.5 -127.5 -46.5s-49.5 -71.5 -55.5 -121.5h351z" />
    <glyph glyph-name="Ecaron" unicode="&#x11a;" horiz-adv-x="550" 
d="M431 908l34 -38l-169 -145l-168 145l34 38l134 -118zM498 700v-64h-354v-254h354v-64h-354v-254h354v-64h-418v700h418z" />
    <glyph glyph-name="ecaron" unicode="&#x11b;" horiz-adv-x="542" 
d="M422 738l34 -38l-169 -145l-168 145l34 38l134 -118zM32 247c0 37.333 5.83301 72.167 17.5 104.5s28.167 60.333 49.5 84s47.166 42.334 77.499 56.001s64.166 20.5 101.499 20.5c39.333 0 73.833 -6.83301 103.5 -20.5s54.334 -32.167 74.001 -55.5
s34.334 -50.5 44.001 -81.5s14.5 -63.833 14.5 -98.5v-18h-420l-1 -7c0.666992 -30 6.16699 -56.5 16.5 -79.5s24 -42.333 41 -58s36.833 -27.667 59.5 -36s47 -12.5 73 -12.5c38 0 70.667 7.5 98 22.5s50.666 33.167 69.999 54.5l32 -48c-21.333 -22 -48 -41.833 -80 -59.5
s-71 -26.5 -117 -26.5c-38 0 -72.5 6.16699 -103.5 18.5s-57.667 29.666 -80 51.999s-39.666 49.5 -51.999 81.5s-18.5 67.667 -18.5 107zM447 287.001c-1.33301 24 -5.83301 46.167 -13.5 66.5s-18.5 38 -32.5 53s-31.167 26.833 -51.5 35.5s-43.833 13 -70.5 13
c-54 0 -96.5 -15.5 -127.5 -46.5s-49.5 -71.5 -55.5 -121.5h351z" />
    <glyph glyph-name="Gcircumflex" unicode="&#x11c;" horiz-adv-x="653" 
d="M389 902l169 -145l-34 -38l-135 117l-134 -117l-34 38zM50 351c0 50 8.83203 96.168 26.499 138.501s42.167 79.166 73.5 110.499s68.333 55.833 111 73.5s88.667 26.5 138 26.5c48.667 0 92.667 -8.5 132 -25.5s75 -39.833 107 -68.5l-28 -60
c-27.333 26 -58.333 47.5 -93 64.5s-75 25.5 -121 25.5c-40 0 -77.333 -7 -112 -21s-64.5 -33.667 -89.5 -59s-44.667 -55.5 -59 -90.5s-21.5 -73.5 -21.5 -115.5s7.16699 -80.5 21.5 -115.5s34 -65.167 59 -90.5s54.833 -45 89.5 -59s72.334 -21 113.001 -21
c14.667 0 28.334 1 41.001 3s25.667 4.66699 39 8v215h-167v64h231v-326c-22.667 -8.66699 -46.334 -15.5 -71.001 -20.5s-49.667 -7.5 -75 -7.5c-48 -0 -93 8.83301 -135 26.5s-78.5 42.167 -109.5 73.5s-55.5 68.5 -73.5 111.5s-27 89.5 -27 139.5z" />
    <glyph glyph-name="gcircumflex" unicode="&#x11d;" horiz-adv-x="607" 
d="M304 759l169 -145l-34 -38l-135 117l-134 -117l-34 38zM482 250c0 30.667 -4.33301 58.501 -13 83.501s-21.334 46.5 -38.001 64.5s-36.667 32 -60 42s-49.333 15 -78 15c-29.333 0 -55.833 -5.16699 -79.5 -15.5s-43.834 -24.833 -60.501 -43.5
s-29.334 -40.5 -38.001 -65.5s-13 -51.833 -13 -80.5c0 -29.333 4.33301 -56.333 13 -81s21.334 -46.334 38.001 -65.001s36.834 -33.167 60.501 -43.5s50.167 -15.5 79.5 -15.5c28.667 0 54.667 5 78 15s43.333 24 60 42s29.334 39.5 38.001 64.5s13 52.833 13 83.5z
M38 250.001c0 37.333 5.83691 72.001 17.5039 104.001s28.167 59.667 49.5 83s47 41.666 77 54.999s63.667 20 101 20c26.667 0 50.667 -3.5 72 -10.5s40 -16 56 -27s29.5 -23.5 40.5 -37.5s19.5 -28.333 25.5 -43v106h62v-473c0 -30 -3.5 -59.5 -10.5 -88.5
s-19.667 -54.667 -38 -77s-43 -40.333 -74 -54s-70.5 -20.5 -118.5 -20.5c-30.667 0 -57.834 2.83301 -81.501 8.5s-44.5 13.5 -62.5 23.5s-33.333 22 -46 36s-23.667 29.333 -33 46l47 39c17.333 -32 40.166 -56.5 68.499 -73.5s65.5 -25.5 111.5 -25.5
c34.667 0 63.5 5 86.5 15s41.333 23.5 55 40.5s23.167 36.833 28.5 59.5s8 46.334 8 71.001v79c-6.66699 -15.333 -15.834 -30 -27.501 -44s-25.667 -26.5 -42 -37.5s-35 -19.833 -56 -26.5s-44.5 -10 -70.5 -10c-38.667 0 -73.334 6.66699 -104.001 20
s-56.5 31.666 -77.5 54.999s-37 51 -48 83s-16.5 66.667 -16.5 104z" />
    <glyph glyph-name="Gbreve" unicode="&#x11e;" horiz-adv-x="653" 
d="M527 872c-0.666992 -44 -13.1689 -79.167 -37.502 -105.5s-57.833 -39.5 -100.5 -39.5s-76.167 13.167 -100.5 39.5s-36.833 61.5 -37.5 105.5h52c0.666992 -30.667 8.83398 -53.834 24.501 -69.501s36.167 -23.5 61.5 -23.5s45.833 7.83301 61.5 23.5
s23.834 38.834 24.501 69.501h52zM49.998 351c0 50 8.83203 96.168 26.499 138.501s42.167 79.166 73.5 110.499s68.333 55.833 111 73.5s88.667 26.5 138 26.5c48.667 0 92.667 -8.5 132 -25.5s75 -39.833 107 -68.5l-28 -60c-27.333 26 -58.333 47.5 -93 64.5
s-75 25.5 -121 25.5c-40 0 -77.333 -7 -112 -21s-64.5 -33.667 -89.5 -59s-44.667 -55.5 -59 -90.5s-21.5 -73.5 -21.5 -115.5s7.16699 -80.5 21.5 -115.5s34 -65.167 59 -90.5s54.833 -45 89.5 -59s72.334 -21 113.001 -21c14.667 0 28.334 1 41.001 3s25.667 4.66699 39 8
v215h-167v64h231v-326c-22.667 -8.66699 -46.334 -15.5 -71.001 -20.5s-49.667 -7.5 -75 -7.5c-48 -0 -93 8.83301 -135 26.5s-78.5 42.167 -109.5 73.5s-55.5 68.5 -73.5 111.5s-27 89.5 -27 139.5z" />
    <glyph glyph-name="gbreve" unicode="&#x11f;" horiz-adv-x="607" 
d="M442 731c-0.666992 -44 -13.1689 -79.167 -37.502 -105.5s-57.833 -39.5 -100.5 -39.5s-76.167 13.167 -100.5 39.5s-36.833 61.5 -37.5 105.5h52c0.666992 -30.667 8.83398 -53.834 24.501 -69.501s36.167 -23.5 61.5 -23.5s45.833 7.83301 61.5 23.5
s23.834 38.834 24.501 69.501h52zM481.998 250c0 30.667 -4.33301 58.501 -13 83.501s-21.334 46.5 -38.001 64.5s-36.667 32 -60 42s-49.333 15 -78 15c-29.333 0 -55.833 -5.16699 -79.5 -15.5s-43.834 -24.833 -60.501 -43.5s-29.334 -40.5 -38.001 -65.5
s-13 -51.833 -13 -80.5c0 -29.333 4.33301 -56.333 13 -81s21.334 -46.334 38.001 -65.001s36.834 -33.167 60.501 -43.5s50.167 -15.5 79.5 -15.5c28.667 0 54.667 5 78 15s43.333 24 60 42s29.334 39.5 38.001 64.5s13 52.833 13 83.5zM37.998 250.001
c0 37.333 5.83691 72.001 17.5039 104.001s28.167 59.667 49.5 83s47 41.666 77 54.999s63.667 20 101 20c26.667 0 50.667 -3.5 72 -10.5s40 -16 56 -27s29.5 -23.5 40.5 -37.5s19.5 -28.333 25.5 -43v106h62v-473c0 -30 -3.5 -59.5 -10.5 -88.5s-19.667 -54.667 -38 -77
s-43 -40.333 -74 -54s-70.5 -20.5 -118.5 -20.5c-30.667 0 -57.834 2.83301 -81.501 8.5s-44.5 13.5 -62.5 23.5s-33.333 22 -46 36s-23.667 29.333 -33 46l47 39c17.333 -32 40.166 -56.5 68.499 -73.5s65.5 -25.5 111.5 -25.5c34.667 0 63.5 5 86.5 15
s41.333 23.5 55 40.5s23.167 36.833 28.5 59.5s8 46.334 8 71.001v79c-6.66699 -15.333 -15.834 -30 -27.501 -44s-25.667 -26.5 -42 -37.5s-35 -19.833 -56 -26.5s-44.5 -10 -70.5 -10c-38.667 0 -73.334 6.66699 -104.001 20s-56.5 31.666 -77.5 54.999s-37 51 -48 83
s-16.5 66.667 -16.5 104z" />
    <glyph glyph-name="Gdotaccent" unicode="&#x120;" horiz-adv-x="653" 
d="M333 793c0 16 5.33301 29.333 16 40s24 16 40 16c15.333 0 28.5 -5.33301 39.5 -16s16.5 -24 16.5 -40c0 -15.333 -5.5 -28.5 -16.5 -39.5s-24.167 -16.5 -39.5 -16.5c-16 0 -29.333 5.5 -40 16.5s-16 24.167 -16 39.5zM50 351c0 50 8.83203 96.168 26.499 138.501
s42.167 79.166 73.5 110.499s68.333 55.833 111 73.5s88.667 26.5 138 26.5c48.667 0 92.667 -8.5 132 -25.5s75 -39.833 107 -68.5l-28 -60c-27.333 26 -58.333 47.5 -93 64.5s-75 25.5 -121 25.5c-40 0 -77.333 -7 -112 -21s-64.5 -33.667 -89.5 -59
s-44.667 -55.5 -59 -90.5s-21.5 -73.5 -21.5 -115.5s7.16699 -80.5 21.5 -115.5s34 -65.167 59 -90.5s54.833 -45 89.5 -59s72.334 -21 113.001 -21c14.667 0 28.334 1 41.001 3s25.667 4.66699 39 8v215h-167v64h231v-326c-22.667 -8.66699 -46.334 -15.5 -71.001 -20.5
s-49.667 -7.5 -75 -7.5c-48 -0 -93 8.83301 -135 26.5s-78.5 42.167 -109.5 73.5s-55.5 68.5 -73.5 111.5s-27 89.5 -27 139.5z" />
    <glyph glyph-name="gdotaccent" unicode="&#x121;" horiz-adv-x="607" 
d="M248 652c0 16 5.33301 29.333 16 40s24 16 40 16c15.333 0 28.5 -5.33301 39.5 -16s16.5 -24 16.5 -40c0 -15.333 -5.5 -28.5 -16.5 -39.5s-24.167 -16.5 -39.5 -16.5c-16 0 -29.333 5.5 -40 16.5s-16 24.167 -16 39.5zM482 250c0 30.667 -4.33301 58.501 -13 83.501
s-21.334 46.5 -38.001 64.5s-36.667 32 -60 42s-49.333 15 -78 15c-29.333 0 -55.833 -5.16699 -79.5 -15.5s-43.834 -24.833 -60.501 -43.5s-29.334 -40.5 -38.001 -65.5s-13 -51.833 -13 -80.5c0 -29.333 4.33301 -56.333 13 -81s21.334 -46.334 38.001 -65.001
s36.834 -33.167 60.501 -43.5s50.167 -15.5 79.5 -15.5c28.667 0 54.667 5 78 15s43.333 24 60 42s29.334 39.5 38.001 64.5s13 52.833 13 83.5zM38 250.001c0 37.333 5.83691 72.001 17.5039 104.001s28.167 59.667 49.5 83s47 41.666 77 54.999s63.667 20 101 20
c26.667 0 50.667 -3.5 72 -10.5s40 -16 56 -27s29.5 -23.5 40.5 -37.5s19.5 -28.333 25.5 -43v106h62v-473c0 -30 -3.5 -59.5 -10.5 -88.5s-19.667 -54.667 -38 -77s-43 -40.333 -74 -54s-70.5 -20.5 -118.5 -20.5c-30.667 0 -57.834 2.83301 -81.501 8.5
s-44.5 13.5 -62.5 23.5s-33.333 22 -46 36s-23.667 29.333 -33 46l47 39c17.333 -32 40.166 -56.5 68.499 -73.5s65.5 -25.5 111.5 -25.5c34.667 0 63.5 5 86.5 15s41.333 23.5 55 40.5s23.167 36.833 28.5 59.5s8 46.334 8 71.001v79
c-6.66699 -15.333 -15.834 -30 -27.501 -44s-25.667 -26.5 -42 -37.5s-35 -19.833 -56 -26.5s-44.5 -10 -70.5 -10c-38.667 0 -73.334 6.66699 -104.001 20s-56.5 31.666 -77.5 54.999s-37 51 -48 83s-16.5 66.667 -16.5 104z" />
    <glyph glyph-name="Gcommaaccent" unicode="&#x122;" horiz-adv-x="653" 
d="M50 351c0 50 8.83203 96.168 26.499 138.501s42.167 79.166 73.5 110.499s68.333 55.833 111 73.5s88.667 26.5 138 26.5c48.667 0 92.667 -8.5 132 -25.5s75 -39.833 107 -68.5l-28 -60c-27.333 26 -58.333 47.5 -93 64.5s-75 25.5 -121 25.5c-40 0 -77.333 -7 -112 -21
s-64.5 -33.667 -89.5 -59s-44.667 -55.5 -59 -90.5s-21.5 -73.5 -21.5 -115.5s7.16699 -80.5 21.5 -115.5s34 -65.167 59 -90.5s54.833 -45 89.5 -59s72.334 -21 113.001 -21c14.667 0 28.334 1 41.001 3s25.667 4.66699 39 8v215h-167v64h231v-326
c-22.667 -8.66699 -46.334 -15.5 -71.001 -20.5s-49.667 -7.5 -75 -7.5c-48 -0 -93 8.83301 -135 26.5s-78.5 42.167 -109.5 73.5s-55.5 68.5 -73.5 111.5s-27 89.5 -27 139.5zM338.999 -219.999l49 85c-12.667 1.33301 -23.167 6.83301 -31.5 16.5s-12.5 21.167 -12.5 34.5
c0 14.667 5 27 15 37s22 15 36 15c14.667 0 27 -5 37 -15s15 -22.333 15 -37c0 -8.66699 -2.33301 -17 -7 -25l-71 -128z" />
    <glyph glyph-name="gcommaaccent" unicode="&#x123;" horiz-adv-x="607" 
d="M289 570c-14.667 0 -27.001 5.00098 -37.001 15.001s-15 22.333 -15 37c0 8.66699 2.33301 17 7 25l72 128l29 -17l-49 -86c12.667 -1.33301 23.334 -6.83301 32.001 -16.5s13 -20.834 13 -33.501c0 -14.667 -5.16699 -27 -15.5 -37s-22.5 -15 -36.5 -15z
M481.999 250.001c0 30.667 -4.33301 58.501 -13 83.501s-21.334 46.5 -38.001 64.5s-36.667 32 -60 42s-49.333 15 -78 15c-29.333 0 -55.833 -5.16699 -79.5 -15.5s-43.834 -24.833 -60.501 -43.5s-29.334 -40.5 -38.001 -65.5s-13 -51.833 -13 -80.5
c0 -29.333 4.33301 -56.333 13 -81s21.334 -46.334 38.001 -65.001s36.834 -33.167 60.501 -43.5s50.167 -15.5 79.5 -15.5c28.667 0 54.667 5 78 15s43.333 24 60 42s29.334 39.5 38.001 64.5s13 52.833 13 83.5zM37.999 250.002c0 37.333 5.83691 72.001 17.5039 104.001
s28.167 59.667 49.5 83s47 41.666 77 54.999s63.667 20 101 20c26.667 0 50.667 -3.5 72 -10.5s40 -16 56 -27s29.5 -23.5 40.5 -37.5s19.5 -28.333 25.5 -43v106h62v-473c0 -30 -3.5 -59.5 -10.5 -88.5s-19.667 -54.667 -38 -77s-43 -40.333 -74 -54
s-70.5 -20.5 -118.5 -20.5c-30.667 0 -57.834 2.83301 -81.501 8.5s-44.5 13.5 -62.5 23.5s-33.333 22 -46 36s-23.667 29.333 -33 46l47 39c17.333 -32 40.166 -56.5 68.499 -73.5s65.5 -25.5 111.5 -25.5c34.667 0 63.5 5 86.5 15s41.333 23.5 55 40.5
s23.167 36.833 28.5 59.5s8 46.334 8 71.001v79c-6.66699 -15.333 -15.834 -30 -27.501 -44s-25.667 -26.5 -42 -37.5s-35 -19.833 -56 -26.5s-44.5 -10 -70.5 -10c-38.667 0 -73.334 6.66699 -104.001 20s-56.5 31.666 -77.5 54.999s-37 51 -48 83s-16.5 66.667 -16.5 104z
" />
    <glyph glyph-name="Hcircumflex" unicode="&#x124;" horiz-adv-x="736" 
d="M368 902l169 -145l-34 -38l-135 117l-134 -117l-34 38zM656 700v-700h-64v318h-448v-318h-64v700h64v-318h448v318h64z" />
    <glyph glyph-name="hcircumflex" unicode="&#x125;" horiz-adv-x="565" 
d="M106 894l169 -145l-34 -38l-135 117l-134 -117l-34 38zM134 700v-310c15.333 36 37.833 65.333 67.5 88s67.5 34 113.5 34c64 0 111.5 -20.167 142.5 -60.5s46.5 -93.5 46.5 -159.5v-292h-63v296c0 48 -11.5 86.5 -34.5 115.5s-57.167 43.5 -102.5 43.5
c-32 0 -59 -6 -81 -18s-39.5 -28.333 -52.5 -49s-22.333 -44.5 -28 -71.5s-8.5 -55.5 -8.5 -85.5v-231h-61v700h61z" />
    <glyph glyph-name="Hbar" unicode="&#x126;" horiz-adv-x="739" 
d="M594 382v124h-448v-124h448zM146 0h-64v506h-52v64h52v130h64v-130h448v130h64v-130h51v-64h-51v-506h-64v318h-448v-318z" />
    <glyph glyph-name="hbar" unicode="&#x127;" horiz-adv-x="565" 
d="M134 0h-61v594h-71v48h71v58h61v-58h123v-48h-123v-204c15.333 36 37.833 65.333 67.5 88s67.5 34 113.5 34c64 0 111.5 -20.167 142.5 -60.5s46.5 -93.5 46.5 -159.5v-292h-63v296c0 48 -11.5 86.5 -34.5 115.5s-57.167 43.5 -102.5 43.5c-32 0 -59 -6 -81 -18
s-39.5 -28.333 -52.5 -49s-22.333 -44.5 -28 -71.5s-8.5 -55.5 -8.5 -85.5v-231z" />
    <glyph glyph-name="Itilde" unicode="&#x128;" horiz-adv-x="224" 
d="M177 739c-12.667 0 -24.835 2.66797 -36.502 8.00098s-22.834 11.333 -33.501 18s-21 12.667 -31 18s-19.333 8 -28 8c-12.667 0 -24 -4.66699 -34 -14s-20 -19.666 -30 -30.999l-35 33c13.333 16 28.166 31 44.499 45s35.166 21 56.499 21
c12.667 0 24.834 -2.66699 36.501 -8s22.834 -11.333 33.501 -18s20.834 -12.667 30.501 -18s18.834 -8 27.501 -8c13.333 0 25 4.66699 35 14s20 19.666 30 30.999l34 -33c-13.333 -16.667 -28.166 -31.834 -44.499 -45.501s-34.833 -20.5 -55.5 -20.5zM143.999 700.001
v-700h-64v700h64z" />
    <glyph glyph-name="itilde" unicode="&#x129;" horiz-adv-x="211" 
d="M169 594c-12.667 0 -24.835 2.66797 -36.502 8.00098s-22.834 11.333 -33.501 18s-21 12.667 -31 18s-19.333 8 -28 8c-12.667 0 -24 -4.66699 -34 -14s-20 -19.666 -30 -30.999l-35 33c13.333 16 28.166 31 44.499 45s35.166 21 56.499 21
c12.667 0 24.834 -2.66699 36.501 -8s22.834 -11.333 33.501 -18s20.834 -12.667 30.501 -18s18.834 -8 27.501 -8c13.333 0 25 4.66699 35 14s20 19.666 30 30.999l34 -33c-13.333 -16.667 -28.166 -31.834 -44.499 -45.501s-34.833 -20.5 -55.5 -20.5zM135.999 500.001
v-500h-61v500h61z" />
    <glyph glyph-name="Imacron" unicode="&#x12a;" horiz-adv-x="224" 
d="M262 810v-50h-300v50h300zM144 700v-700h-64v700h64z" />
    <glyph glyph-name="imacron" unicode="&#x12b;" horiz-adv-x="211" 
d="M255 682v-50h-300v50h300zM136 500v-500h-61v500h61z" />
    <glyph glyph-name="Ibreve" unicode="&#x12c;" horiz-adv-x="224" 
d="M250 872c-0.666992 -44 -13.1689 -79.167 -37.502 -105.5s-57.833 -39.5 -100.5 -39.5s-76.167 13.167 -100.5 39.5s-36.833 61.5 -37.5 105.5h52c0.666992 -30.667 8.83398 -53.834 24.501 -69.501s36.167 -23.5 61.5 -23.5s45.833 7.83301 61.5 23.5
s23.834 38.834 24.501 69.501h52zM143.998 700v-700h-64v700h64z" />
    <glyph glyph-name="ibreve" unicode="&#x12d;" horiz-adv-x="211" 
d="M244 731c-0.666992 -44 -13.1689 -79.167 -37.502 -105.5s-57.833 -39.5 -100.5 -39.5s-76.167 13.167 -100.5 39.5s-36.833 61.5 -37.5 105.5h52c0.666992 -30.667 8.83398 -53.834 24.501 -69.501s36.167 -23.5 61.5 -23.5s45.833 7.83301 61.5 23.5
s23.834 38.834 24.501 69.501h52zM135.998 500v-500h-61v500h61z" />
    <glyph glyph-name="Iogonek" unicode="&#x12e;" horiz-adv-x="224" 
d="M136 -164c-7.33301 -2 -15.001 -3.66504 -23.001 -4.99805s-15.333 -2 -22 -2c-21.333 0 -40 6.33301 -56 19s-24 31 -24 55c0 19.333 5.83301 37.166 17.5 53.499s28.834 34.166 51.501 53.499v690h64v-700h-28c-39.333 -36 -59 -66.667 -59 -92
c0 -23.333 14.333 -35 43 -35c5.33301 0 11 0.5 17 1.5s12.333 2.16699 19 3.5v-42v0z" />
    <glyph glyph-name="iogonek" unicode="&#x12f;" horiz-adv-x="211" 
d="M50 652c0 16 5.33301 29.333 16 40s24 16 40 16c15.333 0 28.5 -5.33301 39.5 -16s16.5 -24 16.5 -40c0 -15.333 -5.5 -28.5 -16.5 -39.5s-24.167 -16.5 -39.5 -16.5c-16 0 -29.333 5.5 -40 16.5s-16 24.167 -16 39.5zM131 -164
c-7.33301 -2 -15.001 -3.66504 -23.001 -4.99805s-15.333 -2 -22 -2c-21.333 0 -40 6.33301 -56 19s-24 31 -24 55c0 19.333 5.83301 37.166 17.5 53.499s28.834 34.166 51.501 53.499v490h61v-500h-25c-39.333 -36 -59 -66.667 -59 -92c0 -23.333 14.333 -35 43 -35
c5.33301 0 11 0.5 17 1.5s12.333 2.16699 19 3.5v-42z" />
    <glyph glyph-name="Idotaccent" unicode="&#x130;" horiz-adv-x="224" 
d="M56 793c0 16 5.33301 29.333 16 40s24 16 40 16c15.333 0 28.5 -5.33301 39.5 -16s16.5 -24 16.5 -40c0 -15.333 -5.5 -28.5 -16.5 -39.5s-24.167 -16.5 -39.5 -16.5c-16 0 -29.333 5.5 -40 16.5s-16 24.167 -16 39.5zM144 700v-700h-64v700h64z" />
    <glyph glyph-name="dotlessi" unicode="&#x131;" horiz-adv-x="211" 
d="M136 500v-500h-61v500h61z" />
    <glyph glyph-name="Jcircumflex" unicode="&#x134;" horiz-adv-x="478" 
d="M376 902l169 -145l-34 -38l-135 117l-134 -117l-34 38zM408 700l0.000976562 -482.002c0 -69.333 -17.5 -123 -52.5 -161s-83.167 -57 -144.5 -57c-34 0 -63.167 5.5 -87.5 16.5s-44.5 25.333 -60.5 43s-27.833 37.5 -35.5 59.5s-11.834 43.667 -12.501 65l59 30
c0.666992 -21.333 4.16699 -41.166 10.5 -59.499s15.166 -34.166 26.499 -47.499s25.333 -23.833 42 -31.5s36 -11.5 58 -11.5c24 0 44.333 4 61 12s30.334 19 41.001 33s18.5 30.333 23.5 49s7.5 38.667 7.5 60v482h64z" />
    <glyph glyph-name="jcircumflex" unicode="&#x135;" horiz-adv-x="237" 
d="M124 747l169 -145l-34 -38l-135 117l-134 -117l-34 38zM157 500v-534c0 -59.333 -13.5 -102.5 -40.5 -129.5s-72.5 -40.5 -136.5 -40.5h-10v59h10c23.333 0 42.5 2.5 57.5 7.5s26.833 12.167 35.5 21.5s14.667 20.833 18 34.5s5 29.5 5 47.5v534h61z" />
    <glyph glyph-name="Kcommaaccent" unicode="&#x136;" horiz-adv-x="625" 
d="M270 351l-126 -128v-223h-64v700h64v-386l380 386h90l-298 -302l304 -398h-81zM258 -220l49 85c-12.667 1.33301 -23.167 6.83301 -31.5 16.5s-12.5 21.167 -12.5 34.5c0 14.667 5 27 15 37s22 15 36 15c14.667 0 27 -5 37 -15s15 -22.333 15 -37
c0 -8.66699 -2.33301 -17 -7 -25l-71 -128z" />
    <glyph glyph-name="kcommaaccent" unicode="&#x137;" horiz-adv-x="498" 
d="M225 240l-91 -91v-149h-61v700h61v-473l263 273h86l-217 -218l222 -282h-80zM197 -220l49 85c-12.667 1.33301 -23.167 6.83301 -31.5 16.5s-12.5 21.167 -12.5 34.5c0 14.667 5 27 15 37s22 15 36 15c14.667 0 27 -5 37 -15s15 -22.333 15 -37
c0 -8.66699 -2.33301 -17 -7 -25l-71 -128z" />
    <glyph glyph-name="kgreenlandic" unicode="&#x138;" horiz-adv-x="498" 
d="M225 240l-91 -91v-149h-61v500h61v-273l263 273h86l-217 -218l222 -282h-80z" />
    <glyph glyph-name="Lacute" unicode="&#x139;" horiz-adv-x="521" 
d="M300 892l29 -45l-213 -134l-28 43zM144 700v-636h362v-64h-426v700h64z" />
    <glyph glyph-name="lacute" unicode="&#x13a;" horiz-adv-x="209" 
d="M216 892l29 -45l-213 -134l-28 43zM136 700v-700h-63v700h63z" />
    <glyph glyph-name="Lcommaaccent" unicode="&#x13b;" horiz-adv-x="521" 
d="M144 700v-636h362v-64h-426v700h64zM206 -220l49 85c-12.667 1.33301 -23.167 6.83301 -31.5 16.5s-12.5 21.167 -12.5 34.5c0 14.667 5 27 15 37s22 15 36 15c14.667 0 27 -5 37 -15s15 -22.333 15 -37c0 -8.66699 -2.33301 -17 -7 -25l-71 -128z" />
    <glyph glyph-name="lcommaaccent" unicode="&#x13c;" horiz-adv-x="209" 
d="M136 700v-700h-63v700h63zM48 -220l49 85c-12.667 1.33301 -23.167 6.83301 -31.5 16.5s-12.5 21.167 -12.5 34.5c0 14.667 5 27 15 37s22 15 36 15c14.667 0 27 -5 37 -15s15 -22.333 15 -37c0 -8.66699 -2.33301 -17 -7 -25l-71 -128z" />
    <glyph glyph-name="Lcaron" unicode="&#x13d;" horiz-adv-x="521" 
d="M314 478l66.002 115.999c-14.667 2.66699 -26.667 9.5 -36 20.5s-14 23.833 -14 38.5c0 16 5.66699 30 17 42s25.666 18 42.999 18s31.666 -6 42.999 -18s17 -26 17 -42c0 -11.333 -2.33301 -20.666 -7 -27.999l-93 -168zM144.002 699.999v-636h362v-64h-426v700h64z" />
    <glyph glyph-name="lcaron" unicode="&#x13e;" horiz-adv-x="322" 
d="M181 477l66.002 115.999c-14.667 2.66699 -26.667 9.5 -36 20.5s-14 23.833 -14 38.5c0 16 5.66699 30 17 42s25.666 18 42.999 18s31.666 -6 42.999 -18s17 -26 17 -42c0 -9.33301 -2.33301 -18.666 -7 -27.999l-93 -168zM136.002 699.999v-700h-63v700h63z" />
    <glyph glyph-name="Ldot" unicode="&#x13f;" horiz-adv-x="521" 
d="M144 700v-636h362v-64h-426v700h64zM375 489c17.333 0 32.166 -6.16699 44.499 -18.5s18.5 -27.166 18.5 -44.499c0 -18 -6.16699 -33 -18.5 -45s-27.166 -18 -44.499 -18c-18 0 -33 6 -45 18s-18 27 -18 45c0 17.333 6 32.166 18 44.499s27 18.5 45 18.5z" />
    <glyph glyph-name="ldot" unicode="&#x140;" horiz-adv-x="306" 
d="M136 700v-700h-63v700h63zM186 396c0 15.333 5.33301 28.5 16 39.5s24 16.5 40 16.5c15.333 0 28.5 -5.5 39.5 -16.5s16.5 -24.167 16.5 -39.5s-5.5 -28.5 -16.5 -39.5s-24.167 -16.5 -39.5 -16.5c-16 0 -29.333 5.5 -40 16.5s-16 24.167 -16 39.5z" />
    <glyph glyph-name="Lslash" unicode="&#x141;" horiz-adv-x="521" 
d="M80 0v271l-66 -28l-22 53l88 37v367h64v-341l193 81l22 -53l-215 -90v-233h362v-64h-426z" />
    <glyph glyph-name="lslash" unicode="&#x142;" horiz-adv-x="209" 
d="M73 0v352l-91 -41l-20 45l111 49v295h63v-267l92 41l21 -44l-113 -50v-380h-63z" />
    <glyph glyph-name="Nacute" unicode="&#x143;" horiz-adv-x="771" 
d="M510 892l29 -45l-213 -134l-28 43zM698 700v-700h-64l-497 597v-597h-64v700h64l497 -598v598h64z" />
    <glyph glyph-name="nacute" unicode="&#x144;" horiz-adv-x="569" 
d="M391 767l29 -45l-213 -134l-28 43zM129 389c16 36.667 39.332 66.333 69.999 89s68.334 34 113.001 34c64 0 111.5 -20.167 142.5 -60.5s46.5 -93.5 46.5 -159.5v-292h-63v296c0 50 -12 89 -36 117s-58 42 -102 42c-32 0 -58.833 -6 -80.5 -18s-39 -28.333 -52 -49
s-22.333 -44.5 -28 -71.5s-8.5 -55.5 -8.5 -85.5v-231h-61v500h59v-111z" />
    <glyph glyph-name="Ncommaaccent" unicode="&#x145;" horiz-adv-x="771" 
d="M698 700v-700h-64l-497 597v-597h-64v700h64l497 -598v598h64zM308 -220l49 85c-12.667 1.33301 -23.167 6.83301 -31.5 16.5s-12.5 21.167 -12.5 34.5c0 14.667 5 27 15 37s22 15 36 15c14.667 0 27 -5 37 -15s15 -22.333 15 -37c0 -8.66699 -2.33301 -17 -7 -25
l-71 -128z" />
    <glyph glyph-name="ncommaaccent" unicode="&#x146;" horiz-adv-x="569" 
d="M129 389c16 36.667 39.332 66.333 69.999 89s68.334 34 113.001 34c64 0 111.5 -20.167 142.5 -60.5s46.5 -93.5 46.5 -159.5v-292h-63v296c0 50 -12 89 -36 117s-58 42 -102 42c-32 0 -58.833 -6 -80.5 -18s-39 -28.333 -52 -49s-22.333 -44.5 -28 -71.5
s-8.5 -55.5 -8.5 -85.5v-231h-61v500h59v-111zM230.999 -220.001l49 85c-12.667 1.33301 -23.167 6.83301 -31.5 16.5s-12.5 21.167 -12.5 34.5c0 14.667 5 27 15 37s22 15 36 15c14.667 0 27 -5 37 -15s15 -22.333 15 -37c0 -8.66699 -2.33301 -17 -7 -25l-71 -128z" />
    <glyph glyph-name="Ncaron" unicode="&#x147;" horiz-adv-x="771" 
d="M533 908l34 -38l-169 -145l-168 145l34 38l134 -118zM698 700v-700h-64l-497 597v-597h-64v700h64l497 -598v598h64z" />
    <glyph glyph-name="ncaron" unicode="&#x148;" horiz-adv-x="569" 
d="M427 738l34 -38l-169 -145l-168 145l34 38l134 -118zM129 389c16 36.667 39.332 66.333 69.999 89s68.334 34 113.001 34c64 0 111.5 -20.167 142.5 -60.5s46.5 -93.5 46.5 -159.5v-292h-63v296c0 50 -12 89 -36 117s-58 42 -102 42c-32 0 -58.833 -6 -80.5 -18
s-39 -28.333 -52 -49s-22.333 -44.5 -28 -71.5s-8.5 -55.5 -8.5 -85.5v-231h-61v500h59v-111z" />
    <glyph glyph-name="napostrophe" unicode="&#x149;" horiz-adv-x="618" 
d="M5 477l66.002 115.999c-14.667 2.66699 -26.667 9.5 -36 20.5s-14 23.833 -14 38.5c0 16 5.66699 30 17 42s25.666 18 42.999 18s31.666 -6 42.999 -18s17 -26 17 -42c0 -11.333 -2.33301 -20.666 -7 -27.999l-93 -168zM178.002 388.999
c16 36.667 39.332 66.333 69.999 89s68.334 34 113.001 34c64 0 111.5 -20.167 142.5 -60.5s46.5 -93.5 46.5 -159.5v-292h-63v296c0 50 -12 89 -36 117s-58 42 -102 42c-32 0 -58.833 -6 -80.5 -18s-39 -28.333 -52 -49s-22.333 -44.5 -28 -71.5s-8.5 -55.5 -8.5 -85.5
v-231h-61v500h59v-111z" />
    <glyph glyph-name="Eng" unicode="&#x14a;" horiz-adv-x="771" 
d="M552 -203c-9.33301 0 -18.499 0.330078 -27.499 0.99707s-18.833 1.66699 -29.5 3v56c11.333 -1.33301 20.333 -2.16602 27 -2.49902s14.334 -0.5 23.001 -0.5c14.667 0 27.667 1.66699 39 5s20.666 9.33301 27.999 18s13 20.334 17 35.001s6 33.334 6 56.001v32h-1
l-497 597v-597h-64v700h64l497 -598v598h64v-732c0 -32 -3.33301 -59 -10 -81s-16.334 -39.667 -29.001 -53s-28 -22.833 -46 -28.5s-38.333 -8.5 -61 -8.5z" />
    <glyph glyph-name="eng" unicode="&#x14b;" horiz-adv-x="566" 
d="M361 -203c-9.33301 0 -18.334 0.331055 -27.001 0.998047s-18.334 1.66699 -29.001 3v56c11.333 -1.33301 20.333 -2.16602 27 -2.49902s14 -0.5 22 -0.5c28 0 49 8.16699 63 24.5s21 45.166 21 86.499v331c0 50 -12 89 -36 117s-58 42 -102 42
c-32 0 -58.833 -6 -80.5 -18s-39 -28.333 -52 -49s-22.333 -44.5 -28 -71.5s-8.5 -55.5 -8.5 -85.5v-231h-61v500h59v-111c16 36.667 39.333 66.334 70 89.001s68.334 34 113.001 34c64 0 111.5 -20.167 142.5 -60.5s46.5 -93.5 46.5 -159.5v-327
c0 -30.667 -3.33301 -56.667 -10 -78s-16 -38.666 -28 -51.999s-26.667 -23 -44 -29s-36.666 -9 -57.999 -9z" />
    <glyph glyph-name="Omacron" unicode="&#x14c;" horiz-adv-x="800" 
d="M555 810v-50h-300v50h300zM50 350c0 50 8.83301 96.333 26.5 139s42.167 79.667 73.5 111s68.333 55.833 111 73.5s89 26.5 139 26.5s96.5 -8.83301 139.5 -26.5s80 -42.167 111 -73.5s55.333 -68.333 73 -111s26.5 -89 26.5 -139s-8.83301 -96.333 -26.5 -139
s-42 -79.667 -73 -111s-68 -55.833 -111 -73.5s-89.5 -26.5 -139.5 -26.5s-96.333 8.83301 -139 26.5s-79.667 42.167 -111 73.5s-55.833 68.333 -73.5 111s-26.5 89 -26.5 139zM686 350c0 41.333 -7.16699 79.5 -21.5 114.5s-34.166 65.167 -59.499 90.5
s-55.5 45.166 -90.5 59.499s-73.167 21.5 -114.5 21.5s-79.5 -7.16699 -114.5 -21.5s-65.167 -34.166 -90.5 -59.499s-45.166 -55.5 -59.499 -90.5s-21.5 -73.167 -21.5 -114.5s7.16699 -79.5 21.5 -114.5s34.166 -65.167 59.499 -90.5s55.5 -45.166 90.5 -59.499
s73.167 -21.5 114.5 -21.5s79.5 7.16699 114.5 21.5s65.167 34.166 90.5 59.499s45.166 55.5 59.499 90.5s21.5 73.167 21.5 114.5z" />
    <glyph glyph-name="omacron" unicode="&#x14d;" horiz-adv-x="587" 
d="M445 682v-50h-300v50h300zM32 250c0 38 6.5 73 19.5 105s31.167 59.667 54.5 83s51 41.5 83 54.5s67 19.5 105 19.5s73 -6.5 105 -19.5s59.667 -31.167 83 -54.5s41.5 -51 54.5 -83s19.5 -67 19.5 -105s-6.5 -73 -19.5 -105s-31.167 -59.667 -54.5 -83
s-51 -41.5 -83 -54.5s-67 -19.5 -105 -19.5s-73 6.5 -105 19.5s-59.667 31.167 -83 54.5s-41.5 51 -54.5 83s-19.5 67 -19.5 105zM492 250c0 30 -4.66699 57.333 -14 82s-22.666 46 -39.999 64s-38.166 32 -62.499 42s-51.5 15 -81.5 15s-57.167 -5 -81.5 -15
s-45.333 -24 -63 -42s-31.167 -39.333 -40.5 -64s-14 -52 -14 -82s4.66699 -57.333 14 -82s22.833 -46 40.5 -64s38.667 -32 63 -42s51.5 -15 81.5 -15s57.167 5 81.5 15s45.166 24 62.499 42s30.666 39.333 39.999 64s14 52 14 82z" />
    <glyph glyph-name="Obreve" unicode="&#x14e;" horiz-adv-x="800" 
d="M537 872c-0.666992 -44 -13.1689 -79.167 -37.502 -105.5s-57.833 -39.5 -100.5 -39.5s-76.167 13.167 -100.5 39.5s-36.833 61.5 -37.5 105.5h52c0.666992 -30.667 8.83398 -53.834 24.501 -69.501s36.167 -23.5 61.5 -23.5s45.833 7.83301 61.5 23.5
s23.834 38.834 24.501 69.501h52zM49.998 350c0 50 8.83301 96.333 26.5 139s42.167 79.667 73.5 111s68.333 55.833 111 73.5s89 26.5 139 26.5s96.5 -8.83301 139.5 -26.5s80 -42.167 111 -73.5s55.333 -68.333 73 -111s26.5 -89 26.5 -139s-8.83301 -96.333 -26.5 -139
s-42 -79.667 -73 -111s-68 -55.833 -111 -73.5s-89.5 -26.5 -139.5 -26.5s-96.333 8.83301 -139 26.5s-79.667 42.167 -111 73.5s-55.833 68.333 -73.5 111s-26.5 89 -26.5 139zM685.998 350c0 41.333 -7.16699 79.5 -21.5 114.5s-34.166 65.167 -59.499 90.5
s-55.5 45.166 -90.5 59.499s-73.167 21.5 -114.5 21.5s-79.5 -7.16699 -114.5 -21.5s-65.167 -34.166 -90.5 -59.499s-45.166 -55.5 -59.499 -90.5s-21.5 -73.167 -21.5 -114.5s7.16699 -79.5 21.5 -114.5s34.166 -65.167 59.499 -90.5s55.5 -45.166 90.5 -59.499
s73.167 -21.5 114.5 -21.5s79.5 7.16699 114.5 21.5s65.167 34.166 90.5 59.499s45.166 55.5 59.499 90.5s21.5 73.167 21.5 114.5z" />
    <glyph glyph-name="obreve" unicode="&#x14f;" horiz-adv-x="587" 
d="M432 731c-0.666992 -44 -13.1689 -79.167 -37.502 -105.5s-57.833 -39.5 -100.5 -39.5s-76.167 13.167 -100.5 39.5s-36.833 61.5 -37.5 105.5h52c0.666992 -30.667 8.83398 -53.834 24.501 -69.501s36.167 -23.5 61.5 -23.5s45.833 7.83301 61.5 23.5
s23.834 38.834 24.501 69.501h52zM31.998 250c0 38 6.5 73 19.5 105s31.167 59.667 54.5 83s51 41.5 83 54.5s67 19.5 105 19.5s73 -6.5 105 -19.5s59.667 -31.167 83 -54.5s41.5 -51 54.5 -83s19.5 -67 19.5 -105s-6.5 -73 -19.5 -105s-31.167 -59.667 -54.5 -83
s-51 -41.5 -83 -54.5s-67 -19.5 -105 -19.5s-73 6.5 -105 19.5s-59.667 31.167 -83 54.5s-41.5 51 -54.5 83s-19.5 67 -19.5 105zM491.998 250c0 30 -4.66699 57.333 -14 82s-22.666 46 -39.999 64s-38.166 32 -62.499 42s-51.5 15 -81.5 15s-57.167 -5 -81.5 -15
s-45.333 -24 -63 -42s-31.167 -39.333 -40.5 -64s-14 -52 -14 -82s4.66699 -57.333 14 -82s22.833 -46 40.5 -64s38.667 -32 63 -42s51.5 -15 81.5 -15s57.167 5 81.5 15s45.166 24 62.499 42s30.666 39.333 39.999 64s14 52 14 82z" />
    <glyph glyph-name="Ohungarumlaut" unicode="&#x150;" horiz-adv-x="800" 
d="M402 911l43 -29l-107 -156l-42 27zM538 905l43 -30l-107 -156l-42 28zM50 350c0 50 8.83301 96.333 26.5 139s42.167 79.667 73.5 111s68.333 55.833 111 73.5s89 26.5 139 26.5s96.5 -8.83301 139.5 -26.5s80 -42.167 111 -73.5s55.333 -68.333 73 -111
s26.5 -89 26.5 -139s-8.83301 -96.333 -26.5 -139s-42 -79.667 -73 -111s-68 -55.833 -111 -73.5s-89.5 -26.5 -139.5 -26.5s-96.333 8.83301 -139 26.5s-79.667 42.167 -111 73.5s-55.833 68.333 -73.5 111s-26.5 89 -26.5 139zM686 350
c0 41.333 -7.16699 79.5 -21.5 114.5s-34.166 65.167 -59.499 90.5s-55.5 45.166 -90.5 59.499s-73.167 21.5 -114.5 21.5s-79.5 -7.16699 -114.5 -21.5s-65.167 -34.166 -90.5 -59.499s-45.166 -55.5 -59.499 -90.5s-21.5 -73.167 -21.5 -114.5s7.16699 -79.5 21.5 -114.5
s34.166 -65.167 59.499 -90.5s55.5 -45.166 90.5 -59.499s73.167 -21.5 114.5 -21.5s79.5 7.16699 114.5 21.5s65.167 34.166 90.5 59.499s45.166 55.5 59.499 90.5s21.5 73.167 21.5 114.5z" />
    <glyph glyph-name="ohungarumlaut" unicode="&#x151;" horiz-adv-x="587" 
d="M277 770l43 -29l-107 -156l-42 27zM413 764l43 -30l-107 -156l-42 28zM32 250c0 38 6.5 73 19.5 105s31.167 59.667 54.5 83s51 41.5 83 54.5s67 19.5 105 19.5s73 -6.5 105 -19.5s59.667 -31.167 83 -54.5s41.5 -51 54.5 -83s19.5 -67 19.5 -105s-6.5 -73 -19.5 -105
s-31.167 -59.667 -54.5 -83s-51 -41.5 -83 -54.5s-67 -19.5 -105 -19.5s-73 6.5 -105 19.5s-59.667 31.167 -83 54.5s-41.5 51 -54.5 83s-19.5 67 -19.5 105zM492 250c0 30 -4.66699 57.333 -14 82s-22.666 46 -39.999 64s-38.166 32 -62.499 42s-51.5 15 -81.5 15
s-57.167 -5 -81.5 -15s-45.333 -24 -63 -42s-31.167 -39.333 -40.5 -64s-14 -52 -14 -82s4.66699 -57.333 14 -82s22.833 -46 40.5 -64s38.667 -32 63 -42s51.5 -15 81.5 -15s57.167 5 81.5 15s45.166 24 62.499 42s30.666 39.333 39.999 64s14 52 14 82z" />
    <glyph glyph-name="OE" unicode="&#x152;" horiz-adv-x="870" 
d="M400 700l418 -0.00195312v-64h-354v-254h354v-64h-354v-254h354v-64h-418c-50 0 -96.333 8.83301 -139 26.5s-79.667 42.167 -111 73.5s-55.833 68.333 -73.5 111s-26.5 89 -26.5 139s8.83301 96.333 26.5 139s42.167 79.667 73.5 111s68.333 55.833 111 73.5
s89 26.5 139 26.5v-64c-41.333 0 -79.5 -7.16699 -114.5 -21.5s-65.167 -34.166 -90.5 -59.499s-45.166 -55.5 -59.499 -90.5s-21.5 -73.167 -21.5 -114.5s7.16699 -79.5 21.5 -114.5s34.166 -65.167 59.499 -90.5s55.5 -45.166 90.5 -59.499s73.167 -21.5 114.5 -21.5v636z
" />
    <glyph glyph-name="oe" unicode="&#x153;" horiz-adv-x="1003" 
d="M747 -12c-54.667 0 -101.167 12 -139.5 36s-66.833 57.333 -85.5 100c-19.333 -42 -48.666 -75.167 -87.999 -99.5s-86 -36.5 -140 -36.5c-38 0 -73 6.5 -105 19.5s-59.667 31.167 -83 54.5s-41.5 51 -54.5 83s-19.5 67 -19.5 105s6.5 73 19.5 105s31.167 59.667 54.5 83
s51 41.5 83 54.5s67 19.5 105 19.5c54.667 0 101.667 -12.5 141 -37.5s68.666 -58.833 87.999 -101.5c18 42 45.167 75.667 81.5 101s81.166 38 134.499 38c39.333 0 73.833 -6.83301 103.5 -20.5s54.334 -32.167 74.001 -55.5s34.334 -50.5 44.001 -81.5
s14.5 -63.833 14.5 -98.5v-18h-421v-7c0.666992 -30 6.16699 -56.5 16.5 -79.5s24 -42.333 41 -58s36.833 -27.667 59.5 -36s47 -12.5 73 -12.5c38 0 70.667 7.5 98 22.5s50.666 33.167 69.999 54.5l31 -48c-20.667 -22 -47 -41.833 -79 -59.5s-71 -26.5 -117 -26.5z
M908 287c-1.33301 24 -6.00195 46.167 -14.002 66.5s-19 38 -33 53s-31.167 26.833 -51.5 35.5s-43.833 13 -70.5 13c-53.333 0 -95.666 -15.5 -126.999 -46.5s-49.666 -71.5 -54.999 -121.5h351zM491.998 250c0 30 -4.66699 57.333 -14 82s-22.666 46 -39.999 64
s-38.166 32 -62.499 42s-51.5 15 -81.5 15s-57.167 -5 -81.5 -15s-45.333 -24 -63 -42s-31.167 -39.333 -40.5 -64s-14 -52 -14 -82s4.66699 -57.333 14 -82s22.833 -46 40.5 -64s38.667 -32 63 -42s51.5 -15 81.5 -15s57.167 5 81.5 15s45.166 24 62.499 42
s30.666 39.333 39.999 64s14 52 14 82z" />
    <glyph glyph-name="Racute" unicode="&#x154;" horiz-adv-x="651" 
d="M419 892l29 -45l-213 -134l-28 43zM319 302l-53.002 66.001l50 39l79 -97c36 10 64.5 29.167 85.5 57.5s31.5 62.166 31.5 101.499c0 24.667 -4.16699 47.167 -12.5 67.5s-20.166 37.833 -35.499 52.5s-33.666 26.167 -54.999 34.5s-45 12.5 -71 12.5h-194v-334h175z
M143.998 0.000976562h-63.999v700h258c36 0 68.5 -5.66699 97.5 -17s54 -27.333 75 -48s37.167 -45 48.5 -73s17 -59 17 -93c0 -50.667 -12.333 -94.5 -37 -131.5s-58.334 -64.167 -101.001 -81.5l208 -256h-84l-193 240c-5.33301 -0.666992 -10.5 -1.16699 -15.5 -1.5
s-10.167 -0.5 -15.5 -0.5h-194v-238z" />
    <glyph glyph-name="racute" unicode="&#x155;" horiz-adv-x="355" 
d="M282 767l29 -45l-213 -134l-28 43zM129 386c13.333 42.667 33.333 74.332 60 94.999s59 31 97 31c14 0 30.333 -1.66699 49 -5v-64c-9.33301 2 -18 3.33301 -26 4s-16 1 -24 1c-29.333 0 -53.833 -5.66699 -73.5 -17s-35.5 -26.666 -47.5 -45.999
s-20.5 -42.333 -25.5 -69s-7.5 -55 -7.5 -85v-231h-61v500h59v-114z" />
    <glyph glyph-name="Rcommaaccent" unicode="&#x156;" horiz-adv-x="651" 
d="M319 302l-53.002 66.001l50 39l79 -97c36 10 64.5 29.167 85.5 57.5s31.5 62.166 31.5 101.499c0 24.667 -4.16699 47.167 -12.5 67.5s-20.166 37.833 -35.499 52.5s-33.666 26.167 -54.999 34.5s-45 12.5 -71 12.5h-194v-334h175zM143.998 0.000976562h-63.999v700h258
c36 0 68.5 -5.66699 97.5 -17s54 -27.333 75 -48s37.167 -45 48.5 -73s17 -59 17 -93c0 -50.667 -12.333 -94.5 -37 -131.5s-58.334 -64.167 -101.001 -81.5l208 -256h-84l-193 240c-5.33301 -0.666992 -10.5 -1.16699 -15.5 -1.5s-10.167 -0.5 -15.5 -0.5h-194v-238z
M270.999 -219.999l49 85c-12.667 1.33301 -23.167 6.83301 -31.5 16.5s-12.5 21.167 -12.5 34.5c0 14.667 5 27 15 37s22 15 36 15c14.667 0 27 -5 37 -15s15 -22.333 15 -37c0 -8.66699 -2.33301 -17 -7 -25l-71 -128z" />
    <glyph glyph-name="rcommaaccent" unicode="&#x157;" horiz-adv-x="355" 
d="M129 386c13.333 42.667 33.333 74.332 60 94.999s59 31 97 31c14 0 30.333 -1.66699 49 -5v-64c-9.33301 2 -18 3.33301 -26 4s-16 1 -24 1c-29.333 0 -53.833 -5.66699 -73.5 -17s-35.5 -26.666 -47.5 -45.999s-20.5 -42.333 -25.5 -69s-7.5 -55 -7.5 -85v-231h-61v500
h59v-114zM41 -220.002l49 85c-12.667 1.33301 -23.167 6.83301 -31.5 16.5s-12.5 21.167 -12.5 34.5c0 14.667 5 27 15 37s22 15 36 15c14.667 0 27 -5 37 -15s15 -22.333 15 -37c0 -8.66699 -2.33301 -17 -7 -25l-71 -128z" />
    <glyph glyph-name="Rcaron" unicode="&#x158;" horiz-adv-x="651" 
d="M442 908l34 -38l-169 -145l-168 145l34 38l134 -118zM319 302l-53.002 66.001l50 39l79 -97c36 10 64.5 29.167 85.5 57.5s31.5 62.166 31.5 101.499c0 24.667 -4.16699 47.167 -12.5 67.5s-20.166 37.833 -35.499 52.5s-33.666 26.167 -54.999 34.5s-45 12.5 -71 12.5
h-194v-334h175zM143.998 0.000976562h-63.999v700h258c36 0 68.5 -5.66699 97.5 -17s54 -27.333 75 -48s37.167 -45 48.5 -73s17 -59 17 -93c0 -50.667 -12.333 -94.5 -37 -131.5s-58.334 -64.167 -101.001 -81.5l208 -256h-84l-193 240
c-5.33301 -0.666992 -10.5 -1.16699 -15.5 -1.5s-10.167 -0.5 -15.5 -0.5h-194v-238z" />
    <glyph glyph-name="rcaron" unicode="&#x159;" horiz-adv-x="355" 
d="M317 738l34 -38l-169 -145l-168 145l34 38l134 -118zM129 386c13.333 42.667 33.333 74.332 60 94.999s59 31 97 31c14 0 30.333 -1.66699 49 -5v-64c-9.33301 2 -18 3.33301 -26 4s-16 1 -24 1c-29.333 0 -53.833 -5.66699 -73.5 -17s-35.5 -26.666 -47.5 -45.999
s-20.5 -42.333 -25.5 -69s-7.5 -55 -7.5 -85v-231h-61v500h59v-114z" />
    <glyph glyph-name="Sacute" unicode="&#x15a;" horiz-adv-x="505" 
d="M368 892l29 -45l-213 -134l-28 43zM47 517c0 29.333 5.50195 55.334 16.502 78.001s25.833 41.834 44.5 57.501s40.5 27.5 65.5 35.5s51.167 12 78.5 12c24 0 47.167 -3.16699 69.5 -9.5s42.833 -16 61.5 -29s35 -29.5 49 -49.5s25 -43.333 33 -70l-60 -24
c-11.333 42.667 -30.833 73 -58.5 91s-59.167 27 -94.5 27c-42 0 -76 -10.833 -102 -32.5s-39 -50.834 -39 -87.501c0 -21.333 4.16699 -39 12.5 -53s19.666 -26 33.999 -36s30.666 -18.5 48.999 -25.5s37.5 -13.833 57.5 -20.5c25.333 -8 49.666 -17 72.999 -27
s44 -22.333 62 -37s32.333 -32.5 43 -53.5s16 -46.833 16 -77.5c0 -31.333 -5.5 -58.666 -16.5 -81.999s-25.833 -42.666 -44.5 -57.999s-40.167 -26.833 -64.5 -34.5s-49.833 -11.5 -76.5 -11.5c-20 0 -41 2.5 -63 7.5s-43 13.5 -63 25.5s-38 28 -54 48s-28 45.333 -36 76
l56 30c11.333 -42.667 31.166 -73.834 59.499 -93.501s61.5 -29.5 99.5 -29.5c20 0 38.333 2.5 55 7.5s31.334 12.5 44.001 22.5s22.5 22.5 29.5 37.5s10.5 32.5 10.5 52.5c0 22 -4.33301 40.5 -13 55.5s-19.834 27.5 -33.501 37.5s-29.167 18.167 -46.5 24.5
s-34.666 12.166 -51.999 17.499c-23.333 7.33301 -47 15.666 -71 24.999s-45.667 21.5 -65 36.5s-35.166 33.5 -47.499 55.5s-18.5 49 -18.5 81z" />
    <glyph glyph-name="sacute" unicode="&#x15b;" horiz-adv-x="454" 
d="M332 767l29 -45l-213 -134l-28 43zM50 370c0 42 15.998 76.1699 47.998 102.503s77.333 39.5 136 39.5c42.667 0 80.334 -8.33301 113.001 -25s58.334 -42.334 77.001 -77.001l-51 -33c-11.333 23.333 -28.333 42.166 -51 56.499s-52.334 21.5 -89.001 21.5
c-38.667 0 -68.667 -7.66699 -90 -23s-32 -34.666 -32 -57.999c0 -16 3.83301 -29.167 11.5 -39.5s17.834 -18.833 30.501 -25.5s27.334 -12 44.001 -16l52 -12c20.667 -4 41.5 -8.66699 62.5 -14s40 -13 57 -23s31 -23.667 42 -41s16.5 -40.333 16.5 -69
c0 -24.667 -4.66699 -46.167 -14 -64.5s-22.333 -33.5 -39 -45.5s-36.5 -21 -59.5 -27s-48.5 -9 -76.5 -9c-21.333 0 -42.5 2 -63.5 6s-40.833 10.333 -59.5 19s-35.667 20.167 -51 34.5s-27.666 32.166 -36.999 53.499l50 33c7.33301 -17.333 17 -31.833 29 -43.5
s25.333 -20.834 40 -27.501s30 -11.334 46 -14.001s32 -4 48 -4c37.333 0 67.666 6.66699 90.999 20s35 35 35 65c0 16.667 -3.5 30.334 -10.5 41.001s-16.5 19.167 -28.5 25.5s-25.833 11.5 -41.5 15.5s-31.834 7.66699 -48.501 11c-22 4 -44 9 -66 15s-42 14.333 -60 25
s-32.667 24.5 -44 41.5s-17 38.833 -17 65.5z" />
    <glyph glyph-name="Scircumflex" unicode="&#x15c;" horiz-adv-x="505" 
d="M256 902l169 -145l-34 -38l-135 117l-134 -117l-34 38zM47 517c0 29.333 5.50195 55.334 16.502 78.001s25.833 41.834 44.5 57.501s40.5 27.5 65.5 35.5s51.167 12 78.5 12c24 0 47.167 -3.16699 69.5 -9.5s42.833 -16 61.5 -29s35 -29.5 49 -49.5s25 -43.333 33 -70
l-60 -24c-11.333 42.667 -30.833 73 -58.5 91s-59.167 27 -94.5 27c-42 0 -76 -10.833 -102 -32.5s-39 -50.834 -39 -87.501c0 -21.333 4.16699 -39 12.5 -53s19.666 -26 33.999 -36s30.666 -18.5 48.999 -25.5s37.5 -13.833 57.5 -20.5c25.333 -8 49.666 -17 72.999 -27
s44 -22.333 62 -37s32.333 -32.5 43 -53.5s16 -46.833 16 -77.5c0 -31.333 -5.5 -58.666 -16.5 -81.999s-25.833 -42.666 -44.5 -57.999s-40.167 -26.833 -64.5 -34.5s-49.833 -11.5 -76.5 -11.5c-20 0 -41 2.5 -63 7.5s-43 13.5 -63 25.5s-38 28 -54 48s-28 45.333 -36 76
l56 30c11.333 -42.667 31.166 -73.834 59.499 -93.501s61.5 -29.5 99.5 -29.5c20 0 38.333 2.5 55 7.5s31.334 12.5 44.001 22.5s22.5 22.5 29.5 37.5s10.5 32.5 10.5 52.5c0 22 -4.33301 40.5 -13 55.5s-19.834 27.5 -33.501 37.5s-29.167 18.167 -46.5 24.5
s-34.666 12.166 -51.999 17.499c-23.333 7.33301 -47 15.666 -71 24.999s-45.667 21.5 -65 36.5s-35.166 33.5 -47.499 55.5s-18.5 49 -18.5 81z" />
    <glyph glyph-name="scircumflex" unicode="&#x15d;" horiz-adv-x="454" 
d="M233 759l169 -145l-34 -38l-135 117l-134 -117l-34 38zM50 370c0 42 15.998 76.1699 47.998 102.503s77.333 39.5 136 39.5c42.667 0 80.334 -8.33301 113.001 -25s58.334 -42.334 77.001 -77.001l-51 -33c-11.333 23.333 -28.333 42.166 -51 56.499
s-52.334 21.5 -89.001 21.5c-38.667 0 -68.667 -7.66699 -90 -23s-32 -34.666 -32 -57.999c0 -16 3.83301 -29.167 11.5 -39.5s17.834 -18.833 30.501 -25.5s27.334 -12 44.001 -16l52 -12c20.667 -4 41.5 -8.66699 62.5 -14s40 -13 57 -23s31 -23.667 42 -41
s16.5 -40.333 16.5 -69c0 -24.667 -4.66699 -46.167 -14 -64.5s-22.333 -33.5 -39 -45.5s-36.5 -21 -59.5 -27s-48.5 -9 -76.5 -9c-21.333 0 -42.5 2 -63.5 6s-40.833 10.333 -59.5 19s-35.667 20.167 -51 34.5s-27.666 32.166 -36.999 53.499l50 33
c7.33301 -17.333 17 -31.833 29 -43.5s25.333 -20.834 40 -27.501s30 -11.334 46 -14.001s32 -4 48 -4c37.333 0 67.666 6.66699 90.999 20s35 35 35 65c0 16.667 -3.5 30.334 -10.5 41.001s-16.5 19.167 -28.5 25.5s-25.833 11.5 -41.5 15.5s-31.834 7.66699 -48.501 11
c-22 4 -44 9 -66 15s-42 14.333 -60 25s-32.667 24.5 -44 41.5s-17 38.833 -17 65.5z" />
    <glyph glyph-name="Scedilla" unicode="&#x15e;" horiz-adv-x="505" 
d="M235 -165c-6.66699 0 -13.999 0.501953 -21.999 1.50195s-15.667 2.83301 -23 5.5v42c6.66699 -1.33301 13 -2.66602 19 -3.99902s11.667 -2 17 -2c28 0 42 13 42 39c0 24.667 -12.667 52.667 -38 84c-19.333 2 -38.666 6 -57.999 12s-37.5 15.167 -54.5 27.5
s-32.333 28 -46 47s-24.167 42.167 -31.5 69.5l56 30c11.333 -42.667 31.166 -73.834 59.499 -93.501s61.5 -29.5 99.5 -29.5c20 0 38.333 2.5 55 7.5s31.334 12.5 44.001 22.5s22.5 22.5 29.5 37.5s10.5 32.5 10.5 52.5c0 22 -4.33301 40.5 -13 55.5
s-19.834 27.5 -33.501 37.5s-29.167 18.167 -46.5 24.5s-34.666 12.166 -51.999 17.499c-23.333 7.33301 -47 15.666 -71 24.999s-45.667 21.5 -65 36.5s-35.166 33.5 -47.499 55.5s-18.5 49 -18.5 81c0 29.333 5.5 55.333 16.5 78s25.833 41.834 44.5 57.501
s40.5 27.5 65.5 35.5s51.167 12 78.5 12c24 0 47.167 -3.16699 69.5 -9.5s42.833 -16 61.5 -29s35 -29.5 49 -49.5s25 -43.333 33 -70l-60 -24c-11.333 42.667 -30.833 73 -58.5 91s-59.167 27 -94.5 27c-42 0 -76 -10.833 -102 -32.5s-39 -50.834 -39 -87.501
c0 -21.333 4.16699 -39 12.5 -53s19.666 -26 33.999 -36s30.666 -18.5 48.999 -25.5s37.5 -13.833 57.5 -20.5c25.333 -8 49.666 -17 72.999 -27s44 -22.333 62 -37s32.333 -32.5 43 -53.5s16 -46.833 16 -77.5c0 -29.333 -4.83301 -55 -14.5 -77s-22.667 -40.667 -39 -56
s-35.333 -27.333 -57 -36s-44.5 -14 -68.5 -16c25.333 -32 38 -62 38 -90c0 -26 -8 -45.167 -24 -57.5s-35.333 -18.5 -58 -18.5z" />
    <glyph glyph-name="scedilla" unicode="&#x15f;" horiz-adv-x="454" 
d="M211 -165c-6.66699 0 -14 0.5 -22 1.5s-15.667 2.83301 -23 5.5v42c6.66699 -1.33301 13 -2.66602 19 -3.99902s11.667 -2 17 -2c28 0 42 13 42 39c0 20.667 -9.33301 44.667 -28 72c-19.333 0.666992 -38.5 3.33398 -57.5 8.00098s-36.667 11.5 -53 20.5
s-31.333 20.333 -45 34s-24.834 30.167 -33.501 49.5l50 33c7.33301 -17.333 17 -31.833 29 -43.5s25.333 -20.834 40 -27.501s30 -11.334 46 -14.001s32 -4 48 -4c37.333 0 67.666 6.66699 90.999 20s35 35 35 65c0 16.667 -3.5 30.334 -10.5 41.001
s-16.5 19.167 -28.5 25.5s-25.833 11.5 -41.5 15.5s-31.834 7.66699 -48.501 11c-22 4 -44 9 -66 15s-42 14.333 -60 25s-32.667 24.5 -44 41.5s-17 38.833 -17 65.5c0 42 16 76.167 48 102.5s77.333 39.5 136 39.5c42.667 0 80.334 -8.33301 113.001 -25
s58.334 -42.334 77.001 -77.001l-51 -33c-11.333 23.333 -28.333 42.166 -51 56.499s-52.334 21.5 -89.001 21.5c-38.667 0 -68.667 -7.66699 -90 -23s-32 -34.666 -32 -57.999c0 -16 3.83301 -29.167 11.5 -39.5s17.834 -18.833 30.501 -25.5s27.334 -12 44.001 -16l52 -12
c20.667 -4 41.5 -8.66699 62.5 -14s40 -13 57 -23s31 -23.667 42 -41s16.5 -40.333 16.5 -69c0 -45.333 -15 -80 -45 -104s-69.333 -37.667 -118 -41c19.333 -27.333 29 -53.333 29 -78c0 -26 -8 -45.167 -24 -57.5s-35.333 -18.5 -58 -18.5z" />
    <glyph glyph-name="Scaron" unicode="&#x160;" horiz-adv-x="505" 
d="M391 908l34 -38l-169 -145l-168 145l34 38l134 -118zM47 517c0 29.333 5.50195 55.334 16.502 78.001s25.833 41.834 44.5 57.501s40.5 27.5 65.5 35.5s51.167 12 78.5 12c24 0 47.167 -3.16699 69.5 -9.5s42.833 -16 61.5 -29s35 -29.5 49 -49.5s25 -43.333 33 -70
l-60 -24c-11.333 42.667 -30.833 73 -58.5 91s-59.167 27 -94.5 27c-42 0 -76 -10.833 -102 -32.5s-39 -50.834 -39 -87.501c0 -21.333 4.16699 -39 12.5 -53s19.666 -26 33.999 -36s30.666 -18.5 48.999 -25.5s37.5 -13.833 57.5 -20.5c25.333 -8 49.666 -17 72.999 -27
s44 -22.333 62 -37s32.333 -32.5 43 -53.5s16 -46.833 16 -77.5c0 -31.333 -5.5 -58.666 -16.5 -81.999s-25.833 -42.666 -44.5 -57.999s-40.167 -26.833 -64.5 -34.5s-49.833 -11.5 -76.5 -11.5c-20 0 -41 2.5 -63 7.5s-43 13.5 -63 25.5s-38 28 -54 48s-28 45.333 -36 76
l56 30c11.333 -42.667 31.166 -73.834 59.499 -93.501s61.5 -29.5 99.5 -29.5c20 0 38.333 2.5 55 7.5s31.334 12.5 44.001 22.5s22.5 22.5 29.5 37.5s10.5 32.5 10.5 52.5c0 22 -4.33301 40.5 -13 55.5s-19.834 27.5 -33.501 37.5s-29.167 18.167 -46.5 24.5
s-34.666 12.166 -51.999 17.499c-23.333 7.33301 -47 15.666 -71 24.999s-45.667 21.5 -65 36.5s-35.166 33.5 -47.499 55.5s-18.5 49 -18.5 81z" />
    <glyph glyph-name="scaron" unicode="&#x161;" horiz-adv-x="454" 
d="M368 738l34 -38l-169 -145l-168 145l34 38l134 -118zM50 370c0 42 15.998 76.1699 47.998 102.503s77.333 39.5 136 39.5c42.667 0 80.334 -8.33301 113.001 -25s58.334 -42.334 77.001 -77.001l-51 -33c-11.333 23.333 -28.333 42.166 -51 56.499
s-52.334 21.5 -89.001 21.5c-38.667 0 -68.667 -7.66699 -90 -23s-32 -34.666 -32 -57.999c0 -16 3.83301 -29.167 11.5 -39.5s17.834 -18.833 30.501 -25.5s27.334 -12 44.001 -16l52 -12c20.667 -4 41.5 -8.66699 62.5 -14s40 -13 57 -23s31 -23.667 42 -41
s16.5 -40.333 16.5 -69c0 -24.667 -4.66699 -46.167 -14 -64.5s-22.333 -33.5 -39 -45.5s-36.5 -21 -59.5 -27s-48.5 -9 -76.5 -9c-21.333 0 -42.5 2 -63.5 6s-40.833 10.333 -59.5 19s-35.667 20.167 -51 34.5s-27.666 32.166 -36.999 53.499l50 33
c7.33301 -17.333 17 -31.833 29 -43.5s25.333 -20.834 40 -27.501s30 -11.334 46 -14.001s32 -4 48 -4c37.333 0 67.666 6.66699 90.999 20s35 35 35 65c0 16.667 -3.5 30.334 -10.5 41.001s-16.5 19.167 -28.5 25.5s-25.833 11.5 -41.5 15.5s-31.834 7.66699 -48.501 11
c-22 4 -44 9 -66 15s-42 14.333 -60 25s-32.667 24.5 -44 41.5s-17 38.833 -17 65.5z" />
    <glyph glyph-name="Tcommaaccent" unicode="&#x162;" horiz-adv-x="647" 
d="M355 636v-636h-64v636h-286v64h637v-64h-287zM268 -220l49 85c-12.667 1.33301 -23.167 6.83301 -31.5 16.5s-12.5 21.167 -12.5 34.5c0 14.667 5 27 15 37s22 15 36 15c14.667 0 27 -5 37 -15s15 -22.333 15 -37c0 -8.66699 -2.33301 -17 -7 -25l-71 -128z" />
    <glyph glyph-name="tcommaaccent" unicode="&#x163;" horiz-adv-x="354" 
d="M329 5c-12.667 -3.33301 -25.165 -5.83301 -37.498 -7.5s-25.5 -2.5 -39.5 -2.5c-44 0 -77 10.333 -99 31s-33 56.667 -33 108v312h-105v54h105v134h61v-134h145v-54h-145v-315c0 -26.667 5.33301 -46.5 16 -59.5s30 -19.5 58 -19.5c15.333 0 28.666 0.666992 39.999 2
s22.666 3 33.999 5v-54zM173.002 -220l49 85c-12.667 1.33301 -23.167 6.83301 -31.5 16.5s-12.5 21.167 -12.5 34.5c0 14.667 5 27 15 37s22 15 36 15c14.667 0 27 -5 37 -15s15 -22.333 15 -37c0 -8.66699 -2.33301 -17 -7 -25l-71 -128z" />
    <glyph glyph-name="Tcaron" unicode="&#x164;" horiz-adv-x="647" 
d="M459 908l34 -38l-169 -145l-168 145l34 38l134 -118zM355 636v-636h-64v636h-286v64h637v-64h-287z" />
    <glyph glyph-name="tcaron" unicode="&#x165;" horiz-adv-x="490" 
d="M349 477l66.002 115.999c-14.667 2.66699 -26.667 9.5 -36 20.5s-14 23.833 -14 38.5c0 16 5.66699 30 17 42s25.666 18 42.999 18s31.666 -6 42.999 -18s17 -26 17 -42c0 -11.333 -2.33301 -20.666 -7 -27.999c0 -0.666992 -0.166992 -1 -0.5 -1s-0.5 -0.333008 -0.5 -1
l-92 -166zM329.002 4.99902c-12.667 -3.33301 -25.165 -5.83301 -37.498 -7.5s-25.5 -2.5 -39.5 -2.5c-44 0 -77 10.333 -99 31s-33 56.667 -33 108v312h-105v54h105v134h61v-134h145v-54h-145v-315c0 -26.667 5.33301 -46.5 16 -59.5s30 -19.5 58 -19.5
c15.333 0 28.666 0.666992 39.999 2s22.666 3 33.999 5v-54z" />
    <glyph glyph-name="Tbar" unicode="&#x166;" horiz-adv-x="647" 
d="M355 345v-345h-64v345h-134v64h134v227h-286v64h637v-64h-287v-227h135v-64h-135z" />
    <glyph glyph-name="tbar" unicode="&#x167;" horiz-adv-x="354" 
d="M329 5c-12.667 -3.33301 -25.165 -5.83301 -37.498 -7.5s-25.5 -2.5 -39.5 -2.5c-44 0 -77 10.333 -99 31s-33 56.667 -33 108v136h-87v55h87v121h-105v54h105v134h61v-134h145v-54h-145v-121h127v-55h-127v-139c0 -26.667 5.33301 -46.5 16 -59.5s30 -19.5 58 -19.5
c15.333 0 28.666 0.666992 39.999 2s22.666 3 33.999 5v-54v0z" />
    <glyph glyph-name="Utilde" unicode="&#x168;" horiz-adv-x="778" 
d="M454 739c-12.667 0 -24.835 2.66797 -36.502 8.00098s-22.834 11.333 -33.501 18s-21 12.667 -31 18s-19.333 8 -28 8c-12.667 0 -24 -4.66699 -34 -14s-20 -19.666 -30 -30.999l-35 33c13.333 16 28.166 31 44.499 45s35.166 21 56.499 21
c12.667 0 24.834 -2.66699 36.501 -8s22.834 -11.333 33.501 -18s20.834 -12.667 30.501 -18s18.834 -8 27.501 -8c13.333 0 25 4.66699 35 14s20 19.666 30 30.999l34 -33c-13.333 -16.667 -28.166 -31.834 -44.499 -45.501s-34.833 -20.5 -55.5 -20.5zM707.999 700.001
v-383c0 -45.333 -8.16699 -87.333 -24.5 -126s-38.666 -72.167 -66.999 -100.5s-62 -50.5 -101 -66.5s-81.167 -24 -126.5 -24s-87.333 8 -126 24s-72.334 38.167 -101.001 66.5s-51.167 61.833 -67.5 100.5s-24.5 80.667 -24.5 126v383h64v-383
c0 -36 6.5 -69.333 19.5 -100s30.833 -57.334 53.5 -80.001s49.667 -40.5 81 -53.5s65 -19.5 101 -19.5c36.667 0 70.5 6.5 101.5 19.5s57.833 30.833 80.5 53.5s40.5 49.334 53.5 80.001s19.5 64 19.5 100v383h64z" />
    <glyph glyph-name="utilde" unicode="&#x169;" horiz-adv-x="564" 
d="M346 594c-12.667 0 -24.835 2.66797 -36.502 8.00098s-22.834 11.333 -33.501 18s-21 12.667 -31 18s-19.333 8 -28 8c-12.667 0 -24 -4.66699 -34 -14s-20 -19.666 -30 -30.999l-35 33c13.333 16 28.166 31 44.499 45s35.166 21 56.499 21
c12.667 0 24.834 -2.66699 36.501 -8s22.834 -11.333 33.501 -18s20.834 -12.667 30.501 -18s18.834 -8 27.501 -8c13.333 0 25 4.66699 35 14s20 19.666 30 30.999l34 -33c-13.333 -16.667 -28.166 -31.834 -44.499 -45.501s-34.833 -20.5 -55.5 -20.5zM493.999 500.001
v-500h-59v114c-33.333 -84 -92 -126 -176 -126c-34.667 0 -64 5.33301 -88 16s-43.5 25.667 -58.5 45s-25.833 42.333 -32.5 69s-10 56 -10 88v294h63v-294c0 -23.333 2.16699 -44.833 6.5 -64.5s11.833 -36.667 22.5 -51s24.667 -25.5 42 -33.5s39 -12 65 -12
c30.667 0 56.5 6.16699 77.5 18.5s38 29 51 50s22.167 44.833 27.5 71.5s8 54.667 8 84v231h61z" />
    <glyph glyph-name="Umacron" unicode="&#x16a;" horiz-adv-x="778" 
d="M545 810v-50h-300v50h300zM708 700v-383c0 -45.333 -8.16699 -87.333 -24.5 -126s-38.666 -72.167 -66.999 -100.5s-62 -50.5 -101 -66.5s-81.167 -24 -126.5 -24s-87.333 8 -126 24s-72.334 38.167 -101.001 66.5s-51.167 61.833 -67.5 100.5s-24.5 80.667 -24.5 126
v383h64v-383c0 -36 6.5 -69.333 19.5 -100s30.833 -57.334 53.5 -80.001s49.667 -40.5 81 -53.5s65 -19.5 101 -19.5c36.667 0 70.5 6.5 101.5 19.5s57.833 30.833 80.5 53.5s40.5 49.334 53.5 80.001s19.5 64 19.5 100v383h64z" />
    <glyph glyph-name="umacron" unicode="&#x16b;" horiz-adv-x="564" 
d="M437 682v-50h-300v50h300zM494 500v-500h-59v114c-33.333 -84 -92 -126 -176 -126c-34.667 0 -64 5.33301 -88 16s-43.5 25.667 -58.5 45s-25.833 42.333 -32.5 69s-10 56 -10 88v294h63v-294c0 -23.333 2.16699 -44.833 6.5 -64.5s11.833 -36.667 22.5 -51
s24.667 -25.5 42 -33.5s39 -12 65 -12c30.667 0 56.5 6.16699 77.5 18.5s38 29 51 50s22.167 44.833 27.5 71.5s8 54.667 8 84v231h61z" />
    <glyph glyph-name="Ubreve" unicode="&#x16c;" horiz-adv-x="778" 
d="M527 872c-0.666992 -44 -13.1689 -79.167 -37.502 -105.5s-57.833 -39.5 -100.5 -39.5s-76.167 13.167 -100.5 39.5s-36.833 61.5 -37.5 105.5h52c0.666992 -30.667 8.83398 -53.834 24.501 -69.501s36.167 -23.5 61.5 -23.5s45.833 7.83301 61.5 23.5
s23.834 38.834 24.501 69.501h52zM707.998 700v-383c0 -45.333 -8.16699 -87.333 -24.5 -126s-38.666 -72.167 -66.999 -100.5s-62 -50.5 -101 -66.5s-81.167 -24 -126.5 -24s-87.333 8 -126 24s-72.334 38.167 -101.001 66.5s-51.167 61.833 -67.5 100.5
s-24.5 80.667 -24.5 126v383h64v-383c0 -36 6.5 -69.333 19.5 -100s30.833 -57.334 53.5 -80.001s49.667 -40.5 81 -53.5s65 -19.5 101 -19.5c36.667 0 70.5 6.5 101.5 19.5s57.833 30.833 80.5 53.5s40.5 49.334 53.5 80.001s19.5 64 19.5 100v383h64z" />
    <glyph glyph-name="ubreve" unicode="&#x16d;" horiz-adv-x="564" 
d="M420 731c-0.666992 -44 -13.1689 -79.167 -37.502 -105.5s-57.833 -39.5 -100.5 -39.5s-76.167 13.167 -100.5 39.5s-36.833 61.5 -37.5 105.5h52c0.666992 -30.667 8.83398 -53.834 24.501 -69.501s36.167 -23.5 61.5 -23.5s45.833 7.83301 61.5 23.5
s23.834 38.834 24.501 69.501h52zM493.998 500v-500h-59v114c-33.333 -84 -92 -126 -176 -126c-34.667 0 -64 5.33301 -88 16s-43.5 25.667 -58.5 45s-25.833 42.333 -32.5 69s-10 56 -10 88v294h63v-294c0 -23.333 2.16699 -44.833 6.5 -64.5s11.833 -36.667 22.5 -51
s24.667 -25.5 42 -33.5s39 -12 65 -12c30.667 0 56.5 6.16699 77.5 18.5s38 29 51 50s22.167 44.833 27.5 71.5s8 54.667 8 84v231h61z" />
    <glyph glyph-name="Uring" unicode="&#x16e;" horiz-adv-x="778" 
d="M285 765c0 30.667 9.83301 55.667 29.5 75s44.5 29 74.5 29c30.667 0 55.667 -9.66699 75 -29s29 -44.333 29 -75s-9.66699 -55.667 -29 -75s-44.333 -29 -75 -29c-30 0 -54.833 9.66699 -74.5 29s-29.5 44.333 -29.5 75zM452 765c0 19.333 -5.66699 34.833 -17 46.5
s-26.666 17.5 -45.999 17.5c-18.667 0 -33.834 -5.83301 -45.501 -17.5s-17.5 -27.167 -17.5 -46.5s5.83301 -34.833 17.5 -46.5s26.834 -17.5 45.501 -17.5c19.333 0 34.666 5.83301 45.999 17.5s17 27.167 17 46.5zM708 700v-383c0 -45.333 -8.16699 -87.333 -24.5 -126
s-38.666 -72.167 -66.999 -100.5s-62 -50.5 -101 -66.5s-81.167 -24 -126.5 -24s-87.333 8 -126 24s-72.334 38.167 -101.001 66.5s-51.167 61.833 -67.5 100.5s-24.5 80.667 -24.5 126v383h64v-383c0 -36 6.5 -69.333 19.5 -100s30.833 -57.334 53.5 -80.001
s49.667 -40.5 81 -53.5s65 -19.5 101 -19.5c36.667 0 70.5 6.5 101.5 19.5s57.833 30.833 80.5 53.5s40.5 49.334 53.5 80.001s19.5 64 19.5 100v383h64z" />
    <glyph glyph-name="uring" unicode="&#x16f;" horiz-adv-x="564" 
d="M178 683c0 30.667 9.83301 55.667 29.5 75s44.5 29 74.5 29c30.667 0 55.667 -9.66699 75 -29s29 -44.333 29 -75s-9.66699 -55.667 -29 -75s-44.333 -29 -75 -29c-30 0 -54.833 9.66699 -74.5 29s-29.5 44.333 -29.5 75zM345 683c0 19.333 -5.66699 34.833 -17 46.5
s-26.666 17.5 -45.999 17.5c-18.667 0 -33.834 -5.83301 -45.501 -17.5s-17.5 -27.167 -17.5 -46.5s5.83301 -34.833 17.5 -46.5s26.834 -17.5 45.501 -17.5c19.333 0 34.666 5.83301 45.999 17.5s17 27.167 17 46.5zM494 500v-500h-59v114c-33.333 -84 -92 -126 -176 -126
c-34.667 0 -64 5.33301 -88 16s-43.5 25.667 -58.5 45s-25.833 42.333 -32.5 69s-10 56 -10 88v294h63v-294c0 -23.333 2.16699 -44.833 6.5 -64.5s11.833 -36.667 22.5 -51s24.667 -25.5 42 -33.5s39 -12 65 -12c30.667 0 56.5 6.16699 77.5 18.5s38 29 51 50
s22.167 44.833 27.5 71.5s8 54.667 8 84v231h61z" />
    <glyph glyph-name="Uhungarumlaut" unicode="&#x170;" horiz-adv-x="778" 
d="M376 911l43 -29l-107 -156l-42 27zM512 905l43 -30l-107 -156l-42 28zM708 700v-383c0 -45.333 -8.16699 -87.333 -24.5 -126s-38.666 -72.167 -66.999 -100.5s-62 -50.5 -101 -66.5s-81.167 -24 -126.5 -24s-87.333 8 -126 24s-72.334 38.167 -101.001 66.5
s-51.167 61.833 -67.5 100.5s-24.5 80.667 -24.5 126v383h64v-383c0 -36 6.5 -69.333 19.5 -100s30.833 -57.334 53.5 -80.001s49.667 -40.5 81 -53.5s65 -19.5 101 -19.5c36.667 0 70.5 6.5 101.5 19.5s57.833 30.833 80.5 53.5s40.5 49.334 53.5 80.001s19.5 64 19.5 100
v383h64z" />
    <glyph glyph-name="uhungarumlaut" unicode="&#x171;" horiz-adv-x="564" 
d="M268 770l43 -29l-107 -156l-42 27zM404 764l43 -30l-107 -156l-42 28zM494 500v-500h-59v114c-33.333 -84 -92 -126 -176 -126c-34.667 0 -64 5.33301 -88 16s-43.5 25.667 -58.5 45s-25.833 42.333 -32.5 69s-10 56 -10 88v294h63v-294
c0 -23.333 2.16699 -44.833 6.5 -64.5s11.833 -36.667 22.5 -51s24.667 -25.5 42 -33.5s39 -12 65 -12c30.667 0 56.5 6.16699 77.5 18.5s38 29 51 50s22.167 44.833 27.5 71.5s8 54.667 8 84v231h61z" />
    <glyph glyph-name="Uogonek" unicode="&#x172;" horiz-adv-x="778" 
d="M398 -171c-21.333 0 -40.001 6.33398 -56.001 19.001s-24 31 -24 55c0 17.333 4.83301 33.666 14.5 48.999s24.167 31.333 43.5 48c-43.333 2 -83.666 11.333 -120.999 28s-69.666 39 -96.999 67s-48.833 61 -64.5 99s-23.5 79 -23.5 123v383h64v-383
c0 -36 6.5 -69.333 19.5 -100s30.833 -57.334 53.5 -80.001s49.667 -40.5 81 -53.5s65 -19.5 101 -19.5c36.667 0 70.5 6.5 101.5 19.5s57.833 30.833 80.5 53.5s40.5 49.334 53.5 80.001s19.5 64 19.5 100v383h64v-383c0 -42 -7.16699 -81.333 -21.5 -118s-34 -69 -59 -97
s-54.833 -50.667 -89.5 -68s-72.334 -28 -113.001 -32c-19.333 -18 -34.333 -34.833 -45 -50.5s-16 -30.167 -16 -43.5c0 -23.333 14.333 -35 43 -35c5.33301 0 11 0.5 17 1.5s12.333 2.16699 19 3.5v-42c-7.33301 -2 -15 -3.66699 -23 -5s-15.333 -2 -22 -2z" />
    <glyph glyph-name="uogonek" unicode="&#x173;" horiz-adv-x="564" 
d="M487 -164c-7.33301 -2 -15 -3.66504 -23 -4.99805s-15.333 -2 -22 -2c-21.333 0 -40 6.33301 -56 19s-24 31 -24 55c0 19.333 6.33301 37.666 19 54.999s30.667 35.666 54 54.999v101c-33.333 -84 -92 -126 -176 -126c-34.667 0 -64 5.33301 -88 16
s-43.5 25.667 -58.5 45s-25.833 42.333 -32.5 69s-10 56 -10 88v294h63v-294c0 -23.333 2.16699 -44.833 6.5 -64.5s11.833 -36.667 22.5 -51s24.667 -25.5 42 -33.5s39 -12 65 -12c30.667 0 56.5 6.16699 77.5 18.5s38 29 51 50s22.167 44.833 27.5 71.5s8 54.667 8 84v231
h61v-500h-27c-39.333 -36 -59 -66.667 -59 -92c0 -23.333 14.333 -35 43 -35c5.33301 0 11 0.5 17 1.5s12.333 2.16699 19 3.5v-42v0z" />
    <glyph glyph-name="Wcircumflex" unicode="&#x174;" horiz-adv-x="1221" 
d="M610 894l169 -145l-34 -38l-135 117l-134 -117l-34 38zM293 0l-283 700h69l239 -591l262 591h61l262 -591l239 591h69l-282 -700h-48l-270 610l-271 -610h-47z" />
    <glyph glyph-name="wcircumflex" unicode="&#x175;" horiz-adv-x="872" 
d="M436 759l169 -145l-34 -38l-135 117l-134 -117l-34 38zM216 0l-206 500h70l161 -409l173 409h44l173 -409l161 409h70l-206 -500h-47l-173 401l-172 -401h-48z" />
    <glyph glyph-name="Ycircumflex" unicode="&#x176;" horiz-adv-x="633" 
d="M316 902l169 -145l-34 -38l-135 117l-134 -117l-34 38zM284 0v299l-279 401h78l233 -336l233 336h79l-280 -401v-299h-64z" />
    <glyph glyph-name="ycircumflex" unicode="&#x177;" horiz-adv-x="506" 
d="M253 759l169 -145l-34 -38l-135 117l-134 -117l-34 38zM109 -200l120 258l-219 442h74l178 -371l173 371h65l-324 -700h-67z" />
    <glyph glyph-name="Ydieresis" unicode="&#x178;" horiz-adv-x="633" 
d="M161 798c0 16 5.33301 29.333 16 40s24 16 40 16c15.333 0 28.5 -5.33301 39.5 -16s16.5 -24 16.5 -40c0 -15.333 -5.5 -28.5 -16.5 -39.5s-24.167 -16.5 -39.5 -16.5c-16 0 -29.333 5.5 -40 16.5s-16 24.167 -16 39.5zM359 798c0 16 5.5 29.333 16.5 40
s24.167 16 39.5 16c16 0 29.333 -5.33301 40 -16s16 -24 16 -40c0 -15.333 -5.33301 -28.5 -16 -39.5s-24 -16.5 -40 -16.5c-15.333 0 -28.5 5.5 -39.5 16.5s-16.5 24.167 -16.5 39.5zM284 0v299l-279 401h78l233 -336l233 336h79l-280 -401v-299h-64z" />
    <glyph glyph-name="Zacute" unicode="&#x179;" horiz-adv-x="656" 
d="M443 892l29 -45l-213 -134l-28 43zM606 700v-49l-461 -587h461v-64h-556v49l461 587h-461v64h556z" />
    <glyph glyph-name="zacute" unicode="&#x17a;" horiz-adv-x="452" 
d="M325 767l29 -45l-213 -134l-28 43zM416 500v-55l-312 -388h320v-57h-396v55l312 388h-297v57h373z" />
    <glyph glyph-name="Zdotaccent" unicode="&#x17b;" horiz-adv-x="656" 
d="M275 793c0 16 5.33301 29.333 16 40s24 16 40 16c15.333 0 28.5 -5.33301 39.5 -16s16.5 -24 16.5 -40c0 -15.333 -5.5 -28.5 -16.5 -39.5s-24.167 -16.5 -39.5 -16.5c-16 0 -29.333 5.5 -40 16.5s-16 24.167 -16 39.5zM606 700v-49l-461 -587h461v-64h-556v49l461 587
h-461v64h556z" />
    <glyph glyph-name="zdotaccent" unicode="&#x17c;" horiz-adv-x="452" 
d="M170 652c0 16 5.33301 29.333 16 40s24 16 40 16c15.333 0 28.5 -5.33301 39.5 -16s16.5 -24 16.5 -40c0 -15.333 -5.5 -28.5 -16.5 -39.5s-24.167 -16.5 -39.5 -16.5c-16 0 -29.333 5.5 -40 16.5s-16 24.167 -16 39.5zM416 500v-55l-312 -388h320v-57h-396v55l312 388
h-297v57h373z" />
    <glyph glyph-name="Zcaron" unicode="&#x17d;" horiz-adv-x="656" 
d="M466 908l34 -38l-169 -145l-168 145l34 38l134 -118zM606 700v-49l-461 -587h461v-64h-556v49l461 587h-461v64h556z" />
    <glyph glyph-name="zcaron" unicode="&#x17e;" horiz-adv-x="452" 
d="M361 738l34 -38l-169 -145l-168 145l34 38l134 -118zM416 500v-55l-312 -388h320v-57h-396v55l312 388h-297v57h373z" />
    <glyph glyph-name="longs" unicode="&#x17f;" horiz-adv-x="338" 
d="M112 0v447h-97v53h97v35c0 32 3.66699 59.167 11 81.5s17.666 40.333 30.999 54s29.333 23.5 48 29.5s39.334 9 62.001 9c9.33301 0 20.333 -0.666992 33 -2s24.667 -2.66602 36 -3.99902v-56c-12 2 -22.833 3.33301 -32.5 4s-19.5 1 -29.5 1
c-31.333 0 -55.5 -8.33301 -72.5 -25s-25.5 -47.334 -25.5 -92.001v-535h-61z" />
    <glyph glyph-name="florin" unicode="&#x192;" horiz-adv-x="397" 
d="M74 -203c-9.33301 0 -18.667 0.5 -28 1.5s-19.666 2.16699 -30.999 3.5v56c11.333 -1.33301 20.5 -2.33301 27.5 -3s15.167 -1 24.5 -1c28 0 47.833 7.83301 59.5 23.5s17.5 44.5 17.5 86.5v482h-97v54h97v35c0 32 3.66699 59.167 11 81.5s17.666 40.333 30.999 54
s29.333 23.5 48 29.5s39.334 9 62.001 9c9.33301 0 20.333 -0.666992 33 -2s24.667 -2.66602 36 -3.99902v-56c-12 2 -22.833 3.33301 -32.5 4s-19.5 1 -29.5 1c-31.333 0 -55.333 -8.33301 -72 -25s-25 -47.334 -25 -92.001v-35h153v-54h-153v-482
c0 -62 -11.333 -105.333 -34 -130s-55.334 -37 -98.001 -37z" />
    <glyph glyph-name="AEacute" unicode="&#x1fc;" horiz-adv-x="968" 
d="M833 892l29 -45l-213 -134l-28 43zM499 132h-331l-87 -132h-76l459 700h35v-63l-289 -441h289v504h417v-64h-353v-254h353v-64h-353v-254h353v-64h-417v132z" />
    <glyph glyph-name="aeacute" unicode="&#x1fd;" horiz-adv-x="906" 
d="M562 767l29 -45l-213 -134l-28 43zM649 -12c-52.667 0 -97.835 11.4961 -135.502 34.4961s-66.167 55.167 -85.5 96.5c-20 -39.333 -48.833 -70.666 -86.5 -93.999s-80.834 -35 -129.501 -35c-27.333 0 -51.333 3.83301 -72 11.5s-38 18.167 -52 31.5
s-24.667 29.333 -32 48s-11 38.667 -11 60c0 46.667 15.167 82.334 45.5 107.001s68.5 39.334 114.5 44.001l166 16c16.667 2 25 9 25 21v18c0 34 -10.333 60.833 -31 80.5s-54.667 29.5 -102 29.5c-84 0 -132.667 -31.333 -146 -94l-54 29c4 16.667 10.667 32.167 20 46.5
s21.833 27 37.5 38s34.834 19.667 57.501 26s49.334 9.5 80.001 9.5c98 0 159.333 -35.667 184 -107c20 32.667 46.833 58.667 80.5 78s73.834 29 120.501 29c39.333 0 73.666 -6.83301 102.999 -20.5s53.833 -32.167 73.5 -55.5s34.334 -50.5 44.001 -81.5
s14.5 -63.833 14.5 -98.5v-18h-420v-7c0.666992 -30 6.16699 -56.5 16.5 -79.5s24 -42.333 41 -58s36.833 -27.667 59.5 -36s47 -12.5 73 -12.5c38 0 70.5 7.66699 97.5 23s50.167 33.333 69.5 54l32 -48c-10.667 -11.333 -22.5 -22.166 -35.5 -32.499
s-27.5 -19.5 -43.5 -27.5s-33.833 -14.333 -53.5 -19s-41.5 -7 -65.5 -7zM811.999 286.996c-1.33301 24 -5.83398 46.167 -13.501 66.5s-18.5 38 -32.5 53s-31.333 26.833 -52 35.5s-44.667 13 -72 13c-52.667 0 -94.667 -15.5 -126 -46.5s-49.666 -71.5 -54.999 -121.5h351
zM395.998 254.996l-182 -20.001c-38 -4 -65 -15 -81 -33s-24 -38.667 -24 -62c0 -28 9.5 -50.5 28.5 -67.5s47.167 -25.5 84.5 -25.5c27.333 0 51.833 4.83301 73.5 14.5s40 22.334 55 38.001s26.333 33.5 34 53.5s11.5 40.333 11.5 61v41z" />
    <glyph glyph-name="Oslashacute" unicode="&#x1fe;" horiz-adv-x="800" 
d="M511 892l29 -45l-213 -134l-28 43zM114 350c0 -40.667 6.83105 -78.1689 20.498 -112.502s32.834 -64.166 57.501 -89.499l374 439c-23.333 15.333 -48.833 27.333 -76.5 36s-57.5 13 -89.5 13c-41.333 0 -79.5 -7.16699 -114.5 -21.5s-65.167 -34.166 -90.5 -59.499
s-45.166 -55.5 -59.499 -90.5s-21.5 -73.167 -21.5 -114.5zM399.998 63.998c41.333 0 79.5 7.16797 114.5 21.501s65.167 34.166 90.5 59.499s45.166 55.5 59.499 90.5s21.5 73.167 21.5 114.5c0 42 -7.16699 80.333 -21.5 115s-34.5 64.667 -60.5 90l-374 -440
c23.333 -16 49.333 -28.5 78 -37.5s59.334 -13.5 92.001 -13.5zM399.998 -0.000976562c-40.667 0 -78.6689 5.83301 -114.002 17.5s-67.666 28.167 -96.999 49.5l-66 -78l-39 32l67 78c-32 32 -56.833 69.333 -74.5 112s-26.5 89 -26.5 139s8.83301 96.333 26.5 139
s42.167 79.667 73.5 111s68.333 55.833 111 73.5s89 26.5 139 26.5c40 0 77.333 -5.5 112 -16.5s66.334 -26.833 95.001 -47.5l63 74l38 -33l-62 -73c32.667 -32 58.167 -69.5 76.5 -112.5s27.5 -90.167 27.5 -141.5c0 -50 -8.83301 -96.333 -26.5 -139
s-42 -79.667 -73 -111s-68 -55.833 -111 -73.5s-89.5 -26.5 -139.5 -26.5z" />
    <glyph glyph-name="oslashacute" unicode="&#x1ff;" horiz-adv-x="587" 
d="M392 767l29 -45l-213 -134l-28 43zM95 250c0 -28 4 -53.668 12 -77.001s19.667 -43.666 35 -60.999l261 312c-30.667 19.333 -67 29 -109 29c-30 0 -57.167 -5 -81.5 -15s-45.333 -24 -63 -42s-31.167 -39.333 -40.5 -64s-14 -52 -14 -82zM294 46.999
c30 0 57.1689 5 81.502 15s45.166 24 62.499 42s30.666 39.333 39.999 64s14 52 14 82c0 28.667 -4.33301 55 -13 79s-21 45 -37 63l-263 -313c16 -10 33.5 -17.833 52.5 -23.5s39.833 -8.5 62.5 -8.5zM294.002 -12.001c-58.667 0 -109.666 15.001 -152.999 45.001l-40 -47
l-38 32l40 47c-22.667 23.333 -40.167 50.666 -52.5 81.999s-18.5 65.666 -18.5 102.999c0 38 6.5 73 19.5 105s31.167 59.667 54.5 83s51 41.5 83 54.5s67 19.5 105 19.5c28 0 54.5 -3.66699 79.5 -11s47.833 -17.666 68.5 -30.999l37 44l38 -33l-36 -43
c23.333 -23.333 41.666 -51 54.999 -83s20 -67 20 -105s-6.5 -73 -19.5 -105s-31.167 -59.667 -54.5 -83s-51 -41.5 -83 -54.5s-67 -19.5 -105 -19.5z" />
    <glyph glyph-name="Scommaaccent" unicode="&#x218;" horiz-adv-x="505" 
d="M47 517c0 29.333 5.50195 55.334 16.502 78.001s25.833 41.834 44.5 57.501s40.5 27.5 65.5 35.5s51.167 12 78.5 12c24 0 47.167 -3.16699 69.5 -9.5s42.833 -16 61.5 -29s35 -29.5 49 -49.5s25 -43.333 33 -70l-60 -24c-11.333 42.667 -30.833 73 -58.5 91
s-59.167 27 -94.5 27c-42 0 -76 -10.833 -102 -32.5s-39 -50.834 -39 -87.501c0 -21.333 4.16699 -39 12.5 -53s19.666 -26 33.999 -36s30.666 -18.5 48.999 -25.5s37.5 -13.833 57.5 -20.5c25.333 -8 49.666 -17 72.999 -27s44 -22.333 62 -37s32.333 -32.5 43 -53.5
s16 -46.833 16 -77.5c0 -31.333 -5.5 -58.666 -16.5 -81.999s-25.833 -42.666 -44.5 -57.999s-40.167 -26.833 -64.5 -34.5s-49.833 -11.5 -76.5 -11.5c-20 0 -41 2.5 -63 7.5s-43 13.5 -63 25.5s-38 28 -54 48s-28 45.333 -36 76l56 30
c11.333 -42.667 31.166 -73.834 59.499 -93.501s61.5 -29.5 99.5 -29.5c20 0 38.333 2.5 55 7.5s31.334 12.5 44.001 22.5s22.5 22.5 29.5 37.5s10.5 32.5 10.5 52.5c0 22 -4.33301 40.5 -13 55.5s-19.834 27.5 -33.501 37.5s-29.167 18.167 -46.5 24.5
s-34.666 12.166 -51.999 17.499c-23.333 7.33301 -47 15.666 -71 24.999s-45.667 21.5 -65 36.5s-35.166 33.5 -47.499 55.5s-18.5 49 -18.5 81zM199.002 -219.999l49 85c-12.667 1.33301 -23.167 6.83301 -31.5 16.5s-12.5 21.167 -12.5 34.5c0 14.667 5 27 15 37
s22 15 36 15c14.667 0 27 -5 37 -15s15 -22.333 15 -37c0 -8.66699 -2.33301 -17 -7 -25l-71 -128z" />
    <glyph glyph-name="scommaaccent" unicode="&#x219;" horiz-adv-x="454" 
d="M50 370c0 42 15.998 76.1699 47.998 102.503s77.333 39.5 136 39.5c42.667 0 80.334 -8.33301 113.001 -25s58.334 -42.334 77.001 -77.001l-51 -33c-11.333 23.333 -28.333 42.166 -51 56.499s-52.334 21.5 -89.001 21.5c-38.667 0 -68.667 -7.66699 -90 -23
s-32 -34.666 -32 -57.999c0 -16 3.83301 -29.167 11.5 -39.5s17.834 -18.833 30.501 -25.5s27.334 -12 44.001 -16l52 -12c20.667 -4 41.5 -8.66699 62.5 -14s40 -13 57 -23s31 -23.667 42 -41s16.5 -40.333 16.5 -69c0 -24.667 -4.66699 -46.167 -14 -64.5
s-22.333 -33.5 -39 -45.5s-36.5 -21 -59.5 -27s-48.5 -9 -76.5 -9c-21.333 0 -42.5 2 -63.5 6s-40.833 10.333 -59.5 19s-35.667 20.167 -51 34.5s-27.666 32.166 -36.999 53.499l50 33c7.33301 -17.333 17 -31.833 29 -43.5s25.333 -20.834 40 -27.501
s30 -11.334 46 -14.001s32 -4 48 -4c37.333 0 67.666 6.66699 90.999 20s35 35 35 65c0 16.667 -3.5 30.334 -10.5 41.001s-16.5 19.167 -28.5 25.5s-25.833 11.5 -41.5 15.5s-31.834 7.66699 -48.501 11c-22 4 -44 9 -66 15s-42 14.333 -60 25s-32.667 24.5 -44 41.5
s-17 38.833 -17 65.5zM174.998 -219.997l49 85c-12.667 1.33301 -23.167 6.83301 -31.5 16.5s-12.5 21.167 -12.5 34.5c0 14.667 5 27 15 37s22 15 36 15c14.667 0 27 -5 37 -15s15 -22.333 15 -37c0 -8.66699 -2.33301 -17 -7 -25l-71 -128z" />
    <glyph glyph-name="uni021A" unicode="&#x21a;" horiz-adv-x="647" 
d="M355 636v-636h-64v636h-286v64h637v-64h-287zM268 -220l49 85c-12.667 1.33301 -23.167 6.83301 -31.5 16.5s-12.5 21.167 -12.5 34.5c0 14.667 5 27 15 37s22 15 36 15c14.667 0 27 -5 37 -15s15 -22.333 15 -37c0 -8.66699 -2.33301 -17 -7 -25l-71 -128z" />
    <glyph glyph-name="uni021B" unicode="&#x21b;" horiz-adv-x="354" 
d="M329 5c-12.667 -3.33301 -25.165 -5.83301 -37.498 -7.5s-25.5 -2.5 -39.5 -2.5c-44 0 -77 10.333 -99 31s-33 56.667 -33 108v312h-105v54h105v134h61v-134h145v-54h-145v-315c0 -26.667 5.33301 -46.5 16 -59.5s30 -19.5 58 -19.5c15.333 0 28.666 0.666992 39.999 2
s22.666 3 33.999 5v-54zM173.002 -220l49 85c-12.667 1.33301 -23.167 6.83301 -31.5 16.5s-12.5 21.167 -12.5 34.5c0 14.667 5 27 15 37s22 15 36 15c14.667 0 27 -5 37 -15s15 -22.333 15 -37c0 -8.66699 -2.33301 -17 -7 -25l-71 -128z" />
    <glyph glyph-name="apostrophemod" unicode="&#x2bc;" horiz-adv-x="216" 
d="M31 477l66.002 115.999c-14.667 2.66699 -26.667 9.5 -36 20.5s-14 23.833 -14 38.5c0 16 5.66699 30 17 42s25.666 18 42.999 18s31.666 -6 42.999 -18s17 -26 17 -42c0 -11.333 -2.33301 -20.666 -7 -27.999l-93 -168z" />
    <glyph glyph-name="circumflex" unicode="&#x2c6;" horiz-adv-x="437" 
d="M218 759l169 -145l-34 -38l-135 117l-134 -117l-34 38z" />
    <glyph glyph-name="caron" unicode="&#x2c7;" horiz-adv-x="437" 
d="M353 738l34 -38l-169 -145l-168 145l34 38l134 -118z" />
    <glyph glyph-name="breve" unicode="&#x2d8;" horiz-adv-x="376" 
d="M326 731c-0.666992 -44 -13.1689 -79.167 -37.502 -105.5s-57.833 -39.5 -100.5 -39.5s-76.167 13.167 -100.5 39.5s-36.833 61.5 -37.5 105.5h52c0.666992 -30.667 8.83398 -53.834 24.501 -69.501s36.167 -23.5 61.5 -23.5s45.833 7.83301 61.5 23.5
s23.834 38.834 24.501 69.501h52z" />
    <glyph glyph-name="dotaccent" unicode="&#x2d9;" horiz-adv-x="212" 
d="M50 652c0 16 5.33301 29.333 16 40s24 16 40 16c15.333 0 28.5 -5.33301 39.5 -16s16.5 -24 16.5 -40c0 -15.333 -5.5 -28.5 -16.5 -39.5s-24.167 -16.5 -39.5 -16.5c-16 0 -29.333 5.5 -40 16.5s-16 24.167 -16 39.5z" />
    <glyph glyph-name="ring" unicode="&#x2da;" horiz-adv-x="308" 
d="M50 683c0 30.667 9.83301 55.667 29.5 75s44.5 29 74.5 29c30.667 0 55.667 -9.66699 75 -29s29 -44.333 29 -75s-9.66699 -55.667 -29 -75s-44.333 -29 -75 -29c-30 0 -54.833 9.66699 -74.5 29s-29.5 44.333 -29.5 75zM217 683c0 19.333 -5.66699 34.833 -17 46.5
s-26.666 17.5 -45.999 17.5c-18.667 0 -33.834 -5.83301 -45.501 -17.5s-17.5 -27.167 -17.5 -46.5s5.83301 -34.833 17.5 -46.5s26.834 -17.5 45.501 -17.5c19.333 0 34.666 5.83301 45.999 17.5s17 27.167 17 46.5z" />
    <glyph glyph-name="ogonek" unicode="&#x2db;" horiz-adv-x="230" 
d="M180 27c-26.667 -22 -47.332 -42.498 -61.999 -61.498s-22 -36.5 -22 -52.5c0 -23.333 14.333 -35 43 -35c5.33301 0 11 0.5 17 1.5s12.333 2.16699 19 3.5v-42c-7.33301 -2 -15 -3.66699 -23 -5s-15.333 -2 -22 -2c-21.333 0 -40 6.33301 -56 19s-24 31 -24 55
c0 21.333 7.16699 41.166 21.5 59.499s35.166 38.166 62.499 59.499h46z" />
    <glyph glyph-name="tilde" unicode="&#x2dc;" horiz-adv-x="428" 
d="M278 594c-12.667 0 -24.835 2.66797 -36.502 8.00098s-22.834 11.333 -33.501 18s-21 12.667 -31 18s-19.333 8 -28 8c-12.667 0 -24 -4.66699 -34 -14s-20 -19.666 -30 -30.999l-35 33c13.333 16 28.166 31 44.499 45s35.166 21 56.499 21
c12.667 0 24.834 -2.66699 36.501 -8s22.834 -11.333 33.501 -18s20.834 -12.667 30.501 -18s18.834 -8 27.501 -8c13.333 0 25 4.66699 35 14s20 19.666 30 30.999l34 -33c-13.333 -16.667 -28.166 -31.834 -44.499 -45.501s-34.833 -20.5 -55.5 -20.5z" />
    <glyph glyph-name="hungarumlaut" unicode="&#x2dd;" horiz-adv-x="385" 
d="M156 770l43 -29l-107 -156l-42 27zM292 764l43 -30l-107 -156l-42 28z" />
    <glyph glyph-name="Delta" unicode="&#x394;" horiz-adv-x="680" 
d="M358 745l302 -745h-640l302 745h36zM341 630l-231 -584h462z" />
    <glyph glyph-name="Omega" unicode="&#x3a9;" horiz-adv-x="741" 
d="M37 0l0.00195312 57h158c-24.667 16 -47.667 34.167 -69 54.5s-39.833 43.166 -55.5 68.499s-28 53.5 -37 84.5s-13.5 65.167 -13.5 102.5c0 50.667 8.83301 97 26.5 139s42 78.333 73 109s68 54.5 111 71.5s89.5 25.5 139.5 25.5s96.5 -8.5 139.5 -25.5
s80.167 -40.833 111.5 -71.5s55.833 -67 73.5 -109s26.5 -88.333 26.5 -139c0 -37.333 -4.5 -71.5 -13.5 -102.5s-21.333 -59.167 -37 -84.5s-34.167 -48.166 -55.5 -68.499s-44.333 -38.5 -69 -54.5h157v-57h-274v57c31.333 16 60.666 34 87.999 54s51 42.667 71 68
s35.833 53.5 47.5 84.5s17.5 65.5 17.5 103.5c0 40.667 -7 78.167 -21 112.5s-33.667 64 -59 89s-55.333 44.5 -90 58.5s-72.334 21 -113.001 21c-41.333 0 -79.166 -7 -113.499 -21s-64.166 -33.5 -89.499 -58.5s-45 -54.667 -59 -89s-21 -71.833 -21 -112.5
c0 -38 5.83301 -72.5 17.5 -103.5s27.667 -59.167 48 -84.5s44.166 -48 71.499 -68s56.666 -38 87.999 -54v-57h-275z" />
    <glyph glyph-name="mu" unicode="&#x3bc;" 
d="M297 -12c-28.667 0 -53.5 3.66797 -74.5 11.001s-39.167 17.666 -54.5 30.999v-230h-60v700h63v-294c0 -23.333 2.16699 -44.833 6.5 -64.5s11.833 -36.667 22.5 -51s24.667 -25.5 42 -33.5s39 -12 65 -12c30.667 0 56.5 6.16699 77.5 18.5s38 29 51 50
s22.167 44.833 27.5 71.5s8 54.667 8 84v231h61v-500h-59v114c-33.333 -84 -92 -126 -176 -126z" />
    <glyph glyph-name="pi" unicode="&#x3c0;" 
d="M590 500l-0.00195312 -64h-92v-436h-62v436h-184l-89 -436h-66l90 436c-30.667 0 -57.167 -1.5 -79.5 -4.5s-42.166 -6.5 -59.499 -10.5v53c17.333 6 37.833 11.833 61.5 17.5s51.834 8.5 84.501 8.5h396z" />
    </font>
</defs>
</svg>
