<svg xmlns="http://www.w3.org/2000/svg">
<defs>
<font id="GTHaptikRegular" horiz-adv-x="640" >
  <font-face 
    font-family="GT Haptik Regular"
    font-weight="550"
    font-stretch="normal"
    units-per-em="1000"
    panose-1="2 0 5 5 0 0 0 2 0 3"
    ascent="800"
    descent="-200"
    x-height="500"
    cap-height="700"
    bbox="-220 -254.002 1308 928"
    underline-thickness="0"
    underline-position="0"
    unicode-range="U+0020-U+FB04"
  />
<missing-glyph horiz-adv-x="885" 
d="M331 580l-64 -95v-68h-30v68l-65 95h34l46 -64l45 64h34zM618 474c0 5.33301 -0.666016 11.5 -1.99902 18.5s-5.5 13.833 -12.5 20.5s-18 12.167 -33 16.5s-36.167 6.5 -63.5 6.5c-26.667 0 -60.334 -4 -101.001 -12v-171c0 -8 -3.33301 -14.167 -10 -18.5
s-14 -7.83301 -22 -10.5s-15.333 -5.66699 -22 -9s-10 -8 -10 -14c0 -10.667 7.33301 -16 22 -16c23.333 0 46.833 2.83301 70.5 8.5s48.167 8.5 73.5 8.5c20 0 39.667 -2.16699 59 -6.5s36.333 -10.5 51 -18.5v197zM420.001 414c0 23.333 7.33301 42.5 22 57.5
s33.667 22.5 57 22.5c24 0 43.5 -7.5 58.5 -22.5s22.5 -34.167 22.5 -57.5s-7.5 -42.666 -22.5 -57.999s-34.5 -23 -58.5 -23c-23.333 0 -42.333 7.66699 -57 23s-22 34.666 -22 57.999zM552.001 414c0 15.333 -5 27.666 -15 36.999s-22.667 14 -38 14
c-14.667 0 -26.834 -4.66699 -36.501 -14s-14.5 -21.666 -14.5 -36.999s4.83301 -27.833 14.5 -37.5s21.834 -14.5 36.501 -14.5c15.333 0 28 4.83301 38 14.5s15 22.167 15 37.5zM377.001 577c0 10 -2.33398 18.5 -7.00098 25.5s-10.5 12.667 -17.5 17s-15 7.5 -24 9.5
s-17.833 3 -26.5 3c-13.333 0 -27.666 -1.5 -42.999 -4.5s-31 -6.66699 -47 -11s-31.333 -9.16602 -46 -14.499l-40 -15v-230c30 11.333 59.833 21.166 89.5 29.499s58.5 12.5 86.5 12.5c11.333 0 23.833 -1 37.5 -3s26.167 -5.66699 37.5 -11v192zM725 373v-100h-29v100h29
zM70 676c0 10.667 3.49609 19.333 10.4961 26s15.833 10 26.5 10c10 0 18.667 -3.33301 26 -10s11 -15.334 11 -26.001c0 -6.66699 -1.5 -13.167 -4.5 -19.5s-7.5 -11.166 -13.5 -14.499v-24c12 4.66699 25.333 9.5 40 14.5s29.834 9.5 45.501 13.5s31.167 7.33301 46.5 10

<glyph glyph-name="IJ" unicode="IJ" horiz-adv-x="498" 
d="M170 700v-700h-90v700h90zM428 700l-0.000976562 -478.999c0 -32.667 -4.66699 -62.5 -14 -89.5s-22.666 -50.333 -39.999 -70s-38.5 -34.834 -63.5 -45.501s-53.167 -16 -84.5 -16v90c18 0 34 3.5 48 10.5s25.667 16.5 35 28.5s16.5 25.833 21.5 41.5s7.5 32.5 7.5 50.5
v479h90z" />
    <glyph glyph-name="ij" unicode="ij" horiz-adv-x="471" 
d="M280 644c0 19.333 6.5 35.5 19.5 48.5s29.167 19.5 48.5 19.5s35.5 -6.5 48.5 -19.5s19.5 -29.167 19.5 -48.5s-6.5 -35.5 -19.5 -48.5s-29.167 -19.5 -48.5 -19.5s-35.5 6.5 -48.5 19.5s-19.5 29.167 -19.5 48.5zM50 644c0 19.333 6.5 35.5 19.5 48.5
s29.167 19.5 48.5 19.5s35.5 -6.5 48.5 -19.5s19.5 -29.167 19.5 -48.5s-6.5 -35.5 -19.5 -48.5s-29.167 -19.5 -48.5 -19.5s-35.5 6.5 -48.5 19.5s-19.5 29.167 -19.5 48.5zM391 500l0.000976562 -524.001c0 -30 -3.5 -56.333 -10.5 -79s-18.333 -41.5 -34 -56.5
s-36.334 -26.167 -62.001 -33.5s-57.167 -11 -94.5 -11h-4v83h4c24 0 43.5 2.16699 58.5 6.5s26.667 10.833 35 19.5s14 18.834 17 30.501s4.5 25.167 4.5 40.5v524h86zM161.001 499.999v-500h-86v500h86z" />
    <glyph glyph-name="ff" unicode="ff" horiz-adv-x="720" 
d="M467 425l-273.998 0.00390625v-425h-86v425h-92v75h92v28c0 33.333 4 61.5 12 84.5s19 41.667 33 56s30.833 24.666 50.5 30.999s41.5 9.5 65.5 9.5c14 0 27 -0.666992 39 -2s24.667 -3 38 -5v-79c-12.667 2 -24.334 3.66699 -35.001 5s-21 2 -31 2
c-30.667 0 -52.667 -7.33301 -66 -22s-20 -41.334 -20 -80.001v-28h274v28c0 33.333 4 61.5 12 84.5s19 41.667 33 56s30.833 24.666 50.5 30.999s41.5 9.5 65.5 9.5c14 0 27 -0.666992 39 -2s24.667 -3 38 -5v-79c-12.667 2 -24.334 3.66699 -35.001 5s-21 2 -31 2
c-30.667 0 -52.667 -7.33301 -66 -22s-20 -41.334 -20 -80.001v-28h145v-75h-145v-425h-86v425z" />
    <glyph glyph-name="fi" unicode="fi" horiz-adv-x="596" 
d="M410 644c0 19.333 6.5 35.5 19.5 48.5s29.167 19.5 48.5 19.5s35.5 -6.5 48.5 -19.5s19.5 -29.167 19.5 -48.5s-6.5 -35.5 -19.5 -48.5s-29.167 -19.5 -48.5 -19.5s-35.5 6.5 -48.5 19.5s-19.5 29.167 -19.5 48.5zM521 500v-500h-86v500h86zM193 425
l0.000976562 -424.998h-86v425h-92v75h92v28c0 33.333 4 61.5 12 84.5s19 41.667 33 56s30.833 24.666 50.5 30.999s41.5 9.5 65.5 9.5c14 0 27 -0.666992 39 -2s24.667 -3 38 -5v-79c-12.667 2 -24.334 3.66699 -35.001 5s-21 2 -31 2c-30.667 0 -52.667 -7.33301 -66 -22
s-20 -41.334 -20 -80.001v-28h145v-75h-145z" />
    <glyph glyph-name="fl" unicode="fl" horiz-adv-x="588" 
d="M518 700v-700h-88v700h88zM193 425l0.000976562 -424.998h-86v425h-92v75h92v28c0 33.333 4 61.5 12 84.5s19 41.667 33 56s30.833 24.666 50.5 30.999s41.5 9.5 65.5 9.5c14 0 27 -0.666992 39 -2s24.667 -3 38 -5v-79c-12.667 2 -24.334 3.66699 -35.001 5s-21 2 -31 2
c-30.667 0 -52.667 -7.33301 -66 -22s-20 -41.334 -20 -80.001v-28h145v-75h-145z" />
    <glyph glyph-name="ffi" unicode="ffi" horiz-adv-x="956" 
d="M770 644c0 19.333 6.5 35.5 19.5 48.5s29.167 19.5 48.5 19.5s35.5 -6.5 48.5 -19.5s19.5 -29.167 19.5 -48.5s-6.5 -35.5 -19.5 -48.5s-29.167 -19.5 -48.5 -19.5s-35.5 6.5 -48.5 19.5s-19.5 29.167 -19.5 48.5zM881 500v-500h-86v500h86zM467 425l-273.998 0.00390625
v-425h-86v425h-92v75h92v28c0 33.333 4 61.5 12 84.5s19 41.667 33 56s30.833 24.666 50.5 30.999s41.5 9.5 65.5 9.5c14 0 27 -0.666992 39 -2s24.667 -3 38 -5v-79c-12.667 2 -24.334 3.66699 -35.001 5s-21 2 -31 2c-30.667 0 -52.667 -7.33301 -66 -22
s-20 -41.334 -20 -80.001v-28h274v28c0 33.333 4 61.5 12 84.5s19 41.667 33 56s30.833 24.666 50.5 30.999s41.5 9.5 65.5 9.5c14 0 27 -0.666992 39 -2s24.667 -3 38 -5v-79c-12.667 2 -24.334 3.66699 -35.001 5s-21 2 -31 2c-30.667 0 -52.667 -7.33301 -66 -22
s-20 -41.334 -20 -80.001v-28h145v-75h-145v-425h-86v425z" />
    <glyph glyph-name="ffl" unicode="ffl" horiz-adv-x="948" 
d="M878 700v-700h-88v700h88zM467 425l-273.998 0.00390625v-425h-86v425h-92v75h92v28c0 33.333 4 61.5 12 84.5s19 41.667 33 56s30.833 24.666 50.5 30.999s41.5 9.5 65.5 9.5c14 0 27 -0.666992 39 -2s24.667 -3 38 -5v-79c-12.667 2 -24.334 3.66699 -35.001 5
s-21 2 -31 2c-30.667 0 -52.667 -7.33301 -66 -22s-20 -41.334 -20 -80.001v-28h274v28c0 33.333 4 61.5 12 84.5s19 41.667 33 56s30.833 24.666 50.5 30.999s41.5 9.5 65.5 9.5c14 0 27 -0.666992 39 -2s24.667 -3 38 -5v-79c-12.667 2 -24.334 3.66699 -35.001 5
s-21 2 -31 2c-30.667 0 -52.667 -7.33301 -66 -22s-20 -41.334 -20 -80.001v-28h145v-75h-145v-425h-86v425z" />
    <glyph glyph-name=".notdef" horiz-adv-x="885" 
d="M331 580l-64 -95v-68h-30v68l-65 95h34l46 -64l45 64h34zM618 474c0 5.33301 -0.666016 11.5 -1.99902 18.5s-5.5 13.833 -12.5 20.5s-18 12.167 -33 16.5s-36.167 6.5 -63.5 6.5c-26.667 0 -60.334 -4 -101.001 -12v-171c0 -8 -3.33301 -14.167 -10 -18.5
s-14 -7.83301 -22 -10.5s-15.333 -5.66699 -22 -9s-10 -8 -10 -14c0 -10.667 7.33301 -16 22 -16c23.333 0 46.833 2.83301 70.5 8.5s48.167 8.5 73.5 8.5c20 0 39.667 -2.16699 59 -6.5s36.333 -10.5 51 -18.5v197zM420.001 414c0 23.333 7.33301 42.5 22 57.5
s33.667 22.5 57 22.5c24 0 43.5 -7.5 58.5 -22.5s22.5 -34.167 22.5 -57.5s-7.5 -42.666 -22.5 -57.999s-34.5 -23 -58.5 -23c-23.333 0 -42.333 7.66699 -57 23s-22 34.666 -22 57.999zM552.001 414c0 15.333 -5 27.666 -15 36.999s-22.667 14 -38 14
c-14.667 0 -26.834 -4.66699 -36.501 -14s-14.5 -21.666 -14.5 -36.999s4.83301 -27.833 14.5 -37.5s21.834 -14.5 36.501 -14.5c15.333 0 28 4.83301 38 14.5s15 22.167 15 37.5zM377.001 577c0 10 -2.33398 18.5 -7.00098 25.5s-10.5 12.667 -17.5 17s-15 7.5 -24 9.5
s-17.833 3 -26.5 3c-13.333 0 -27.666 -1.5 -42.999 -4.5s-31 -6.66699 -47 -11s-31.333 -9.16602 -46 -14.499l-40 -15v-230c30 11.333 59.833 21.166 89.5 29.499s58.5 12.5 86.5 12.5c11.333 0 23.833 -1 37.5 -3s26.167 -5.66699 37.5 -11v192zM725 373v-100h-29v100h29
zM70 676c0 10.667 3.49609 19.333 10.4961 26s15.833 10 26.5 10c10 0 18.667 -3.33301 26 -10s11 -15.334 11 -26.001c0 -6.66699 -1.5 -13.167 -4.5 -19.5s-7.5 -11.166 -13.5 -14.499v-24c12 4.66699 25.333 9.5 40 14.5s29.834 9.5 45.501 13.5s31.167 7.33301 46.5 10
s30 4 44 4c12.667 0 25.167 -1.66699 37.5 -5s23.5 -8.33301 33.5 -15s18 -15.334 24 -26.001s9 -23 9 -37v-25c11.333 2.66699 26.333 5.33398 45 8.00098s37.667 4 57 4c16.667 0 33.167 -1.16699 49.5 -3.5s31 -6.66602 44 -12.999s23.667 -14.833 32 -25.5
s12.5 -24.334 12.5 -41.001v-48c12 3.33301 24.5 6.16602 37.5 8.49902s26.167 3.5 39.5 3.5c41.333 0 70.333 -7.5 87 -22.5s25 -33.833 25 -56.5v-240c-20.667 12.667 -40.167 21.167 -58.5 25.5s-36.166 6.5 -53.499 6.5c-19.333 0 -38.5 -3.33301 -57.5 -10
s-39.167 -10 -60.5 -10c-32 0 -48 15.333 -48 46v86c-15.333 3.33301 -31.666 5 -48.999 5c-23.333 0 -46.833 -3 -70.5 -9s-48.167 -9 -73.5 -9c-15.333 0 -27.166 4.16699 -35.499 12.5s-12.5 19.5 -12.5 33.5v68h-14c-14 0 -28.833 -1.5 -44.5 -4.5
s-31.5 -6.66699 -47.5 -11s-31.333 -9.16602 -46 -14.499l-38 -14v-327h-39v643c-11.333 7.33301 -17 18.333 -17 33zM375.996 351.999c0 3.33301 -3 6.5 -9 9.5s-13.667 5.16699 -23 6.5v-32c6 3.33301 12.833 5.83301 20.5 7.5s11.5 4.5 11.5 8.5zM617.996 237.999
c0 7.33301 -3.33301 12.668 -10 16.001s-14.667 6.66602 -24 9.99902v-47c7.33301 5.33301 14.833 9 22.5 11s11.5 5.33301 11.5 10zM690.996 231.001c0 12.667 6.66699 19 20 19c12.667 0 19 -6.33301 19 -19c0 -13.333 -6.33301 -20 -19 -20c-13.333 0 -20 6.66699 -20 20
zM807.996 365.001c0 20.667 -7.83398 34.333 -23.501 41s-36.167 10 -61.5 10c-19.333 0 -45 -4 -77 -12v-167c0 -9.33301 -3.16699 -16.166 -9.5 -20.499s-13.5 -8 -21.5 -11s-15.167 -6.16699 -21.5 -9.5s-9.5 -8.33301 -9.5 -15c0 -10.667 7 -16 21 -16
c19.333 0 38.833 3.5 58.5 10.5s39.834 10.5 60.501 10.5c15.333 0 30 -1.33301 44 -4s27.333 -6.33398 40 -11.001v194z" />
    <glyph glyph-name="NULL" horiz-adv-x="0" 
 />
    <glyph glyph-name="NULL" horiz-adv-x="0" 
 />
    <glyph glyph-name="space" unicode=" " horiz-adv-x="290" 
 />
    <glyph glyph-name="exclam" unicode="!" horiz-adv-x="316" 
d="M203 700v-480h-90v480h90zM158 157c22 0 40.667 -7.66699 56 -23s23 -34 23 -56s-7.66699 -40.5 -23 -55.5s-34 -22.5 -56 -22.5s-40.5 7.5 -55.5 22.5s-22.5 33.5 -22.5 55.5s7.5 40.667 22.5 56s33.5 23 55.5 23z" />
    <glyph glyph-name="quotedbl" unicode="&#x22;" horiz-adv-x="355" 
d="M143 700v-255h-73v255h73zM285 700v-255h-73v255h73z" />
    <glyph glyph-name="numbersign" unicode="#" horiz-adv-x="569" 
d="M357 422h-126l-20 -144h127zM329 213h-127l-30 -213h-68l30 213h-104l8 65h105l19 144h-104l9 65h104l30 213h69l-30 -213h126l30 213h69l-30 -213h104l-8 -65h-105l-20 -144h104l-9 -65h-104l-30 -213h-68z" />
    <glyph glyph-name="dollar" unicode="$" horiz-adv-x="539" 
d="M148 510c0 -27.333 8.16699 -48.002 24.5 -62.002s37.833 -26.333 64.5 -37v197c-29.333 -5.33301 -51.5 -17.166 -66.5 -35.499s-22.5 -39.166 -22.5 -62.499zM390 190.998c0 14.667 -2.33301 27.498 -7 38.498s-11 20.5 -19 28.5s-17.333 14.833 -28 20.5
s-22 10.834 -34 15.501v-202c28 4.66699 49.667 15.334 65 32.001s23 39 23 67zM237 -80.0039l-0.00195312 82.0049c-19.333 2.66699 -38.5 7.5 -57.5 14.5s-36.833 17 -53.5 30s-31.667 29.333 -45 49s-23.666 43.5 -30.999 71.5l79 42
c16.667 -66.667 52.667 -105.334 108 -116.001v223c-21.333 7.33301 -42.666 16 -63.999 26s-40.5 22.5 -57.5 37.5s-30.833 33.167 -41.5 54.5s-16 47 -16 77c0 27.333 4.66699 51.833 14 73.5s22.166 40.5 38.499 56.5s35.333 28.667 57 38s44.834 15.666 69.501 18.999
v82h65v-82c46.667 -6 86.167 -23.5 118.5 -52.5s55.166 -66.833 68.499 -113.5l-85 -34c-8.66699 32.667 -21.667 57.667 -39 75s-38.333 28.666 -63 33.999v-218c25.333 -8.66699 48.833 -18.334 70.5 -29.001s40.5 -23.5 56.5 -38.5s28.5 -32.833 37.5 -53.5
s13.5 -45.334 13.5 -74.001c0 -30 -4.66699 -56.333 -14 -79s-22.166 -42 -38.499 -58s-35.333 -28.5 -57 -37.5s-44.5 -14.833 -68.5 -17.5v-82h-65z" />
    <glyph glyph-name="percent" unicode="%" horiz-adv-x="823" 
d="M649 700l50 -40l-523 -660l-50 41zM197 700c22.667 0 44 -4.16699 64 -12.5s37.167 -19.666 51.5 -33.999s25.666 -31.5 33.999 -51.5s12.5 -41.333 12.5 -64c0 -23.333 -4.16699 -44.833 -12.5 -64.5s-19.666 -36.667 -33.999 -51s-31.5 -25.666 -51.5 -33.999
s-41.333 -12.5 -64 -12.5c-23.333 0 -44.833 4.16699 -64.5 12.5s-36.667 19.666 -51 33.999s-25.666 31.333 -33.999 51s-12.5 41.167 -12.5 64.5c0 22.667 4.16699 44 12.5 64s19.666 37.167 33.999 51.5s31.333 25.666 51 33.999s41.167 12.5 64.5 12.5zM293 538
c0 28 -9 51 -27 69s-41 27 -69 27s-51 -9 -69 -27s-27 -41 -27 -69s9 -51 27 -69s41 -27 69 -27s51 9 69 27s27 41 27 69zM464 162c0 22.667 4.16699 44 12.5 64s19.666 37.167 33.999 51.5s31.333 25.666 51 33.999s41.167 12.5 64.5 12.5c22.667 0 44 -4.16699 64 -12.5
s37.167 -19.666 51.5 -33.999s25.666 -31.5 33.999 -51.5s12.5 -41.333 12.5 -64c0 -23.333 -4.16699 -44.833 -12.5 -64.5s-19.666 -36.667 -33.999 -51s-31.5 -25.666 -51.5 -33.999s-41.333 -12.5 -64 -12.5c-23.333 0 -44.833 4.16699 -64.5 12.5
s-36.667 19.666 -51 33.999s-25.666 31.333 -33.999 51s-12.5 41.167 -12.5 64.5zM626 258c-28 0 -51 -9 -69 -27s-27 -41 -27 -69s9 -51 27 -69s41 -27 69 -27s51 9 69 27s27 41 27 69s-9 51 -27 69s-41 27 -69 27z" />
    <glyph glyph-name="ampersand" unicode="&#x26;" horiz-adv-x="690" 
d="M287 442c22 15.333 40.5 31.666 55.5 48.999s22.5 38 22.5 62c0 23.333 -7 41.5 -21 54.5s-30.667 19.5 -50 19.5c-20.667 0 -38 -6.66699 -52 -20s-21 -30.666 -21 -51.999c0 -15.333 3.66699 -29.5 11 -42.5s16.333 -25.833 27 -38.5zM294 73
c33.333 0 61.1699 6.33203 83.5029 18.999s41.166 29.334 56.499 50.001l-164 188c-34.667 -23.333 -60.834 -45.333 -78.501 -66s-26.5 -45.667 -26.5 -75c0 -15.333 2.5 -30 7.5 -44s12.667 -26.333 23 -37s23.666 -19.167 39.999 -25.5s35.833 -9.5 58.5 -9.5z
M490.004 76.999c-22 -27.333 -49.0029 -48.999 -81.0029 -64.999s-71 -24 -117 -24c-36.667 0 -68.5 5.33301 -95.5 16s-49.5 25 -67.5 43s-31.5 39 -40.5 63s-13.5 49.667 -13.5 77c0 26 3.83301 49.167 11.5 69.5s17.834 38.666 30.501 54.999
s27.334 31.166 44.001 44.499s34.334 26 53.001 38l-25 28c-16 17.333 -29.667 36.833 -41 58.5s-17 46.5 -17 74.5c0 22 3.66699 42.5 11 61.5s18 35.5 32 49.5s31 25.167 51 33.5s42.667 12.5 68 12.5c24.667 0 47 -4.16699 67 -12.5s37 -19.666 51 -33.999
s24.833 -31 32.5 -50s11.5 -39.5 11.5 -61.5c0 -20.667 -3.16699 -39.5 -9.5 -56.5s-14.666 -32.5 -24.999 -46.5s-22.333 -27 -36 -39s-27.5 -23 -41.5 -33l132 -149c5.33301 16 9.66602 32.167 12.999 48.5s6.33301 32.166 9 47.499l81 -16
c-4 -26.667 -9.16699 -52.667 -15.5 -78s-14.5 -49.666 -24.5 -72.999l87 -98l-68 -60z" />
    <glyph glyph-name="quotesingle" unicode="'" horiz-adv-x="213" 
d="M143 700v-255h-73v255h73z" />
    <glyph glyph-name="parenleft" unicode="(" horiz-adv-x="322" 
d="M40 313c0 92 16.5 179.001 49.5 261.001s79.833 154 140.5 216l57 -52c-26.667 -30 -50.167 -60.667 -70.5 -92s-37.333 -64.333 -51 -99s-24 -71.334 -31 -110.001s-10.5 -80 -10.5 -124c0 -88 13.833 -166 41.5 -234s68.167 -131.667 121.5 -191l-57 -52
c-60.667 62 -107.5 134 -140.5 216s-49.5 169 -49.5 261z" />
    <glyph glyph-name="parenright" unicode=")" horiz-adv-x="317" 
d="M92 790c60.667 -62 107.5 -134.001 140.5 -216.001s49.5 -169 49.5 -261s-16.5 -179 -49.5 -261s-79.833 -154 -140.5 -216l-57 52c53.333 59.333 93.833 123 121.5 191s41.5 146 41.5 234c0 44 -3.5 85.333 -10.5 124s-17.333 75.334 -31 110.001s-30.667 67.667 -51 99
s-43.833 62 -70.5 92l57 52v0z" />
    <glyph glyph-name="asterisk" unicode="*" horiz-adv-x="437" 
d="M250 700v-121l115 38l22 -62l-117 -37l71 -97l-50 -39l-73 98l-72 -98l-51 39l71 97l-116 37l22 62l114 -38v121h64z" />
    <glyph glyph-name="plus" unicode="+" 
d="M365 572v-209h209v-90h-209v-209h-90v209h-209v90h209v209h90z" />
    <glyph glyph-name="comma" unicode="," horiz-adv-x="292" 
d="M191 150l71 -40l-175 -310l-70 38z" />
    <glyph glyph-name="hyphen" unicode="-" horiz-adv-x="628" 
d="M548 354v-90h-468v90h468z" />
    <glyph glyph-name="period" unicode="." horiz-adv-x="317" 
d="M158 157c22 0 40.667 -7.66699 56 -23s23 -34 23 -56s-7.66699 -40.5 -23 -55.5s-34 -22.5 -56 -22.5s-40.5 7.5 -55.5 22.5s-22.5 33.5 -22.5 55.5s7.5 40.667 22.5 56s33.5 23 55.5 23z" />
    <glyph glyph-name="slash" unicode="/" horiz-adv-x="733" 
d="M639 750l60 -50l-619 -752l-60 50z" />
    <glyph glyph-name="zero" unicode="0" horiz-adv-x="778" 
d="M60 350c0 50 8.5 96.333 25.5 139s40.333 79.667 70 111s64.5 55.833 104.5 73.5s83 26.5 129 26.5s89 -8.83301 129 -26.5s74.833 -42.167 104.5 -73.5s53 -68.333 70 -111s25.5 -89 25.5 -139s-8.5 -96.5 -25.5 -139.5s-40.333 -80 -70 -111s-64.5 -55.333 -104.5 -73
s-83 -26.5 -129 -26.5s-89 8.83301 -129 26.5s-74.833 42 -104.5 73s-53 68 -70 111s-25.5 89.5 -25.5 139.5zM628 350c0 36.667 -6.16699 70.834 -18.5 102.501s-29.166 59.167 -50.499 82.5s-46.5 41.666 -75.5 54.999s-60.5 20 -94.5 20s-65.5 -6.66699 -94.5 -20
s-54.167 -31.666 -75.5 -54.999s-38.166 -50.833 -50.499 -82.5s-18.5 -65.834 -18.5 -102.501c0 -37.333 6.16699 -71.833 18.5 -103.5s29.166 -59 50.499 -82s46.5 -41.167 75.5 -54.5s60.5 -20 94.5 -20s65.5 6.66699 94.5 20s54.167 31.5 75.5 54.5
s38.166 50.333 50.499 82s18.5 66.167 18.5 103.5zM301 350c0 25.333 8.33301 46.333 25 63s37.667 25 63 25s46.333 -8.33301 63 -25s25 -37.667 25 -63s-8.33301 -46.333 -25 -63s-37.667 -25 -63 -25s-46.333 8.33301 -63 25s-25 37.667 -25 63z" />
    <glyph glyph-name="one" unicode="1" horiz-adv-x="468" 
d="M358 700v-700h-90v567l-166 -166l-62 64l235 235h83z" />
    <glyph glyph-name="two" unicode="2" horiz-adv-x="540" 
d="M35 545c10 20.667 22.333 40.334 37 59.001s31.167 35.167 49.5 49.5s39 25.666 62 33.999s48.167 12.5 75.5 12.5c30.667 0 59.5 -5.5 86.5 -16.5s50.5 -26 70.5 -45s35.667 -41.833 47 -68.5s17 -55.334 17 -86.001c0 -35.333 -6.66699 -67.666 -20 -96.999
s-29.333 -53.666 -48 -72.999l-218 -224h286v-90h-421v79l290 298c12.667 13.333 22.667 28.833 30 46.5s11 36.5 11 56.5c0 19.333 -3.33301 37 -10 53s-15.834 29.667 -27.501 41s-25.167 20.166 -40.5 26.499s-31.666 9.5 -48.999 9.5c-35.333 0 -66.5 -12 -93.5 -36
s-47.5 -54.667 -61.5 -92l-73 63v0z" />
    <glyph glyph-name="three" unicode="3" horiz-adv-x="523" 
d="M51 544c6.66699 21.333 16.501 41.4971 29.501 60.4971s28.5 35.5 46.5 49.5s38.167 25.167 60.5 33.5s46.5 12.5 72.5 12.5c28 0 54.167 -4.83301 78.5 -14.5s45.833 -23.167 64.5 -40.5s33.334 -38.166 44.001 -62.499s16 -51.166 16 -80.499
c0 -34 -7 -63.833 -21 -89.5s-31.667 -46.167 -53 -61.5c23.333 -16.667 41.5 -38 54.5 -64s19.5 -56 19.5 -90c0 -31.333 -5.33301 -59.166 -16 -83.499s-25 -44.833 -43 -61.5s-39.167 -29.5 -63.5 -38.5s-50.5 -13.5 -78.5 -13.5c-26.667 0 -51.5 4 -74.5 12
s-43.667 19.167 -62 33.5s-33.833 31.5 -46.5 51.5s-22.334 41.667 -29.001 65l78 60c7.33301 -39.333 22.833 -71.166 46.5 -95.499s53.167 -36.5 88.5 -36.5c30.667 0 56.667 9.66699 78 29s32 46 32 80s-10.333 60 -31 78s-45 27.667 -73 29h-42v90h42
c28 1.33301 52.333 11.333 73 30s31 44 31 76c0 16.667 -3 31.667 -9 45s-14 24.666 -24 33.999s-21.667 16.5 -35 21.5s-27.333 7.5 -42 7.5c-34 0 -62.833 -12.333 -86.5 -37s-39.834 -55 -48.501 -91l-77 62v0z" />
    <glyph glyph-name="four" unicode="4" horiz-adv-x="690" 
d="M506 700v-468h139v-90h-139v-142h-90v142h-386v83l401 475h75zM416 542l-260 -310h260v310z" />
    <glyph glyph-name="five" unicode="5" horiz-adv-x="551" 
d="M496 700l-0.00292969 -89.9951h-306v-152c5.33301 1.33301 14.5 3.16602 27.5 5.49902s28.167 3.5 45.5 3.5c34.667 0 66.334 -5.66699 95.001 -17s53.334 -27.333 74.001 -48s36.5 -45.334 47.5 -74.001s16.5 -60.334 16.5 -95.001c0 -38.667 -6.66699 -72.5 -20 -101.5
s-31.333 -53.333 -54 -73s-48.5 -34.334 -77.5 -44.001s-58.833 -14.5 -89.5 -14.5c-34 0 -68.167 5.83301 -102.5 17.5s-65.166 29.167 -92.499 52.5l46 80c24 -20.667 48.833 -35.834 74.5 -45.501s51.167 -14.5 76.5 -14.5c20 0 39 3 57 9s33.833 15 47.5 27
s24.334 27.167 32.001 45.5s11.5 39.5 11.5 63.5c0 46 -13.5 81.167 -40.5 105.5s-62.5 36.5 -106.5 36.5c-24.667 0 -50.834 -3.66699 -78.501 -11s-54.167 -17.333 -79.5 -30v364h396z" />
    <glyph glyph-name="six" unicode="6" horiz-adv-x="585" 
d="M304 0c-43.333 0 -80.6641 8.83496 -111.997 26.502s-56.333 40.5 -75 68.5c-16.667 25.333 -28.667 55.166 -36 89.499s-11 74.833 -11 121.5c0 42.667 4.16699 87.167 12.5 133.5s22.5 88.833 42.5 127.5s47 70.5 81 95.5s76.667 37.5 128 37.5
c39.333 0 71.666 -5.66699 96.999 -17s46.666 -23.666 63.999 -36.999l-49 -74c-15.333 10.667 -32 19.667 -50 27s-39.667 11 -65 11c-24.667 0 -46.5 -5.33301 -65.5 -16s-35.333 -24.834 -49 -42.501s-24 -38.167 -31 -61.5s-10.833 -47.333 -11.5 -72v-2
c21.333 14.667 43.333 25.5 66 32.5s45 10.5 67 10.5c32 0 62 -5.5 90 -16.5s52.167 -26.333 72.5 -46s36.333 -43.334 48 -71.001s17.5 -58.5 17.5 -92.5s-5.83301 -65.333 -17.5 -94s-27.834 -53.167 -48.501 -73.5s-45.167 -36.333 -73.5 -48s-58.833 -17.5 -91.5 -17.5z
M306.002 369.002c-20.667 0 -39.668 -3.33203 -57.001 -9.99902s-32.166 -16.334 -44.499 -29.001s-22 -27.667 -29 -45s-10.5 -36.333 -10.5 -57c0 -22 3.83301 -41.5 11.5 -58.5s18 -31.5 31 -43.5s27.833 -21 44.5 -27s34.334 -9 53.001 -9c20 0 38.667 3.33301 56 10
s32.166 16.334 44.499 29.001s22 27.667 29 45s10.5 36.666 10.5 57.999c0 42 -12.833 75.333 -38.5 100s-59.167 37 -100.5 37z" />
    <glyph glyph-name="seven" unicode="7" horiz-adv-x="543" 
d="M503 700v-86l-317 -614h-101l314 610h-359v90h463z" />
    <glyph glyph-name="eight" unicode="8" horiz-adv-x="536" 
d="M60 504c0 30 5.16699 57 15.5 81s24.666 44.5 42.999 61.5s40.333 30.167 66 39.5s53.5 14 83.5 14s57.833 -4.66699 83.5 -14s47.667 -22.5 66 -39.5s32.666 -37.333 42.999 -61s15.5 -50.167 15.5 -79.5c0 -64.667 -27.667 -116.667 -83 -156
c55.333 -39.333 83 -91.333 83 -156c0 -29.333 -5.16699 -55.833 -15.5 -79.5s-24.666 -44 -42.999 -61s-40.333 -30.167 -66 -39.5s-53.5 -14 -83.5 -14s-57.833 4.5 -83.5 13.5s-47.667 22 -66 39s-32.666 37.667 -42.999 62s-15.5 51.5 -15.5 81.5
c0 34 6.83301 63.833 20.5 89.5s33.167 47.167 58.5 64.5c-24 16.667 -43.167 37.5 -57.5 62.5s-21.5 55.5 -21.5 91.5zM386 504c0 32 -10.667 57.667 -32 77s-49.666 29 -84.999 29s-64 -9.66699 -86 -29s-33 -45 -33 -77c0 -17.333 3.33301 -32.833 10 -46.5
s15.5 -25.167 26.5 -34.5s23.667 -16.333 38 -21s29.166 -7 44.499 -7s30 2.33301 44 7s26.5 11.667 37.5 21s19.667 20.833 26 34.5s9.5 29.167 9.5 46.5zM386 196c0 17.333 -3.16699 32.833 -9.5 46.5s-15 25.167 -26 34.5s-23.5 16.333 -37.5 21s-28.667 7 -44 7
s-30.166 -2.33301 -44.499 -7s-27 -11.667 -38 -21s-19.833 -20.833 -26.5 -34.5s-10 -29.167 -10 -46.5c0 -32 11 -57.667 33 -77s50.667 -29 86 -29s63.666 9.66699 84.999 29s32 45 32 77z" />
    <glyph glyph-name="nine" unicode="9" horiz-adv-x="568" 
d="M420 472c0 22 -3.83398 41.499 -11.501 58.499s-18 31.5 -31 43.5s-28 21 -45 27s-34.833 9 -53.5 9c-20 0 -38.5 -3.33301 -55.5 -10s-31.667 -16.334 -44 -29.001s-22 -27.667 -29 -45s-10.5 -36.666 -10.5 -57.999c0 -42 12.833 -75.333 38.5 -100
s58.834 -37 99.501 -37c20.667 0 39.667 3.33301 57 10s32.333 16.334 45 29.001s22.5 27.5 29.5 44.5s10.5 36.167 10.5 57.5zM49.999 466.999c0 34 5.83105 65.3301 17.498 93.9971s27.834 53.167 48.501 73.5s45 36.333 73 48s58.333 17.5 91 17.5
c42.667 0 79.5 -8.83301 110.5 -26.5s56.167 -40.5 75.5 -68.5c18 -27.333 30.333 -58.666 37 -93.999s10 -77 10 -125c0 -43.333 -3.16699 -87.666 -9.5 -132.999s-19 -86.833 -38 -124.5s-46.167 -68.5 -81.5 -92.5s-82.333 -36 -141 -36
c-32.667 0 -61.5 3.83301 -86.5 11.5s-49.5 18.167 -73.5 31.5l38 82c44 -23.333 85.667 -35 125 -35c28.667 0 53.5 5.66699 74.5 17s38.333 26.166 52 44.499s23.334 39 29.001 62s8.16699 45.833 7.5 68.5v1c-21.333 -15.333 -43 -26.166 -65 -32.499s-44 -9.5 -66 -9.5
c-32 0 -62 5.5 -90 16.5s-52.167 26.333 -72.5 46s-36.333 43.334 -48 71.001s-17.5 58.5 -17.5 92.5z" />
    <glyph glyph-name="colon" unicode=":" horiz-adv-x="317" 
d="M158 512c22 0 40.667 -7.66699 56 -23s23 -34 23 -56s-7.66699 -40.5 -23 -55.5s-34 -22.5 -56 -22.5s-40.5 7.5 -55.5 22.5s-22.5 33.5 -22.5 55.5s7.5 40.667 22.5 56s33.5 23 55.5 23zM158 157c22 0 40.667 -7.66699 56 -23s23 -34 23 -56s-7.66699 -40.5 -23 -55.5
s-34 -22.5 -56 -22.5s-40.5 7.5 -55.5 22.5s-22.5 33.5 -22.5 55.5s7.5 40.667 22.5 56s33.5 23 55.5 23z" />
    <glyph glyph-name="semicolon" unicode=";" horiz-adv-x="378" 
d="M141 433c0 22 7.5 40.667 22.5 56s33.5 23 55.5 23s40.667 -7.66699 56 -23s23 -34 23 -56s-7.66699 -40.5 -23 -55.5s-34 -22.5 -56 -22.5s-40.5 7.5 -55.5 22.5s-22.5 33.5 -22.5 55.5zM191 150l71 -40l-175 -310l-70 38z" />
    <glyph glyph-name="less" unicode="&#x3c;" 
d="M518 513l37 -79l-348 -154l348 -154l-37 -79l-433 193v80z" />
    <glyph glyph-name="equal" unicode="=" 
d="M563 443v-90h-486v90h486zM563 228v-90h-486v90h486z" />
    <glyph glyph-name="greater" unicode="&#x3e;" 
d="M555 320v-80l-433 -193l-37 79l348 154l-348 154l37 79z" />
    <glyph glyph-name="question" unicode="?" horiz-adv-x="551" 
d="M50 468c0 33.333 4.82715 64.1631 14.4941 92.4961s23.834 52.833 42.501 73.5s41.5 36.834 68.5 48.501s57.833 17.5 92.5 17.5c30.667 0 58.5 -4.66699 83.5 -14s46.333 -22.5 64 -39.5s31.334 -37.167 41.001 -60.5s14.5 -49.333 14.5 -78
c0 -21.333 -2.5 -40.166 -7.5 -56.499s-12 -31.5 -21 -45.5s-19.333 -27.167 -31 -39.5s-24.167 -24.5 -37.5 -36.5c-9.33301 -8 -17.666 -15.833 -24.999 -23.5s-13.666 -15.667 -18.999 -24s-9.5 -17.333 -12.5 -27s-4.5 -20.834 -4.5 -33.501v-25h-90v25
c0 22.667 3 42.834 9 60.501s13.667 33.667 23 48s19.833 27.333 31.5 39s23.167 22.5 34.5 32.5c14 12 27.5 25.833 40.5 41.5s19.5 36.167 19.5 61.5c0 14 -2.33301 27.333 -7 40s-11.667 23.834 -21 33.501s-21.166 17.334 -35.499 23.001s-31.166 8.5 -50.499 8.5
c-40 0 -71.5 -12.5 -94.5 -37.5s-34.5 -59.833 -34.5 -104.5h-88zM268.994 156.997c22 0 40.667 -7.66699 56 -23s23 -34 23 -56s-7.66699 -40.5 -23 -55.5s-34 -22.5 -56 -22.5s-40.5 7.5 -55.5 22.5s-22.5 33.5 -22.5 55.5s7.5 40.667 22.5 56s33.5 23 55.5 23z" />
    <glyph glyph-name="at" unicode="@" horiz-adv-x="939" 
d="M869 355c0 -80 -14.668 -143.665 -44.001 -190.998s-74 -71 -134 -71c-28 0 -50.5 5.16699 -67.5 15.5s-29.833 28.166 -38.5 53.499c-15.333 -22.667 -34.166 -40.167 -56.499 -52.5s-49.166 -18.5 -80.499 -18.5c-22 0 -42 3.33301 -60 10s-33.333 15.834 -46 27.501
s-22.334 25.334 -29.001 41.001s-10 32.834 -10 51.501c0 20 3.66699 37.833 11 53.5s16.833 28.667 28.5 39s25.167 18.5 40.5 24.5s31 9.66699 47 11l135 11c0 30.667 -5.66699 52.167 -17 64.5s-31.666 18.5 -60.999 18.5c-24.667 0 -47.334 -5.5 -68.001 -16.5
s-33.334 -29.167 -38.001 -54.5l-68 32c8.66699 34 26.334 61.333 53.001 82s65 31 115 31c57.333 0 99 -14.333 125 -43s39 -66.667 39 -114v-131c0 -21.333 4.66699 -37.333 14 -48s21.666 -16 36.999 -16c26.667 0 48.167 14.5 64.5 43.5s24.5 77.167 24.5 144.5
c0 41.333 -7.33301 79.166 -22 113.499s-35.5 63.666 -62.5 87.999s-59.167 43.333 -96.5 57s-79 20.5 -125 20.5c-46.667 0 -89.834 -8.16699 -129.501 -24.5s-74 -39 -103 -68s-51.667 -63.667 -68 -104s-24.5 -84.5 -24.5 -132.5s7.83301 -92.167 23.5 -132.5
s37.5 -75.333 65.5 -105s61.333 -52.834 100 -69.501s81.334 -25 128.001 -25c50 0 93.833 4.66699 131.5 14s69.834 20 96.501 32l16 -78c-33.333 -14 -69.166 -25.5 -107.499 -34.5s-83.833 -13.5 -136.5 -13.5c-58 0 -111.5 10.333 -160.5 31s-91.333 49.334 -127 86.001
s-63.5 80.167 -83.5 130.5s-30 105.166 -30 164.499s10.5 114 31.5 164s49.667 93.167 86 129.5s79.5 64.666 129.5 84.999s104 30.5 162 30.5c56.667 0 109 -8.5 157 -25.5s89.167 -41 123.5 -72s61.166 -68.5 80.499 -112.5s29 -93 29 -147zM454.999 165.002
c16.667 0 31.834 2.83301 45.501 8.5s25.167 13.334 34.5 23.001s16.666 20.5 21.999 32.5s8 24 8 36v24l-127 -14c-18 -2 -31.167 -8.33301 -39.5 -19s-12.5 -22.334 -12.5 -35.001c0 -14.667 5.5 -27.667 16.5 -39s28.5 -17 52.5 -17z" />
    <glyph glyph-name="A" unicode="A" horiz-adv-x="766" 
d="M208 213h350l-175 378zM600 123h-434l-57 -123h-99l326 700h94l326 -700h-99z" />
    <glyph glyph-name="B" unicode="B" horiz-adv-x="607" 
d="M373 700c26.667 0 51.834 -4.66895 75.501 -14.002s44.167 -22.5 61.5 -39.5s31.166 -37.5 41.499 -61.5s15.5 -50.667 15.5 -80c0 -33.333 -7.66699 -63.666 -23 -90.999s-36 -48.666 -62 -63.999c26 -15.333 46.667 -36.5 62 -63.5s23 -57.5 23 -91.5
c0 -29.333 -5.16699 -56 -15.5 -80s-24.166 -44.5 -41.499 -61.5s-37.833 -30.167 -61.5 -39.5s-48.834 -14 -75.501 -14h-293v700h293zM477 504.998c0 32 -9.83398 57.5 -29.501 76.5s-44.5 28.5 -74.5 28.5h-203v-215h208c28.667 0 52.334 10.333 71.001 31s28 47 28 79z
M476.999 194.998c0 32 -9.33203 58.333 -27.999 79s-42.334 31 -71.001 31h-208v-215h203c30 0 54.833 9.5 74.5 28.5s29.5 44.5 29.5 76.5z" />
    <glyph glyph-name="C" unicode="C" horiz-adv-x="659" 
d="M50 350c0 50 8.99902 96.335 26.999 139.002s42.5 79.667 73.5 111s67.667 55.833 110 73.5s88.166 26.5 137.499 26.5c50 0 95.333 -9 136 -27s77.334 -42 110.001 -72l-41 -85c-25.333 26.667 -55.166 49 -89.499 67s-74.166 27 -119.499 27
c-36 0 -69.5 -6.33301 -100.5 -19s-57.833 -30.334 -80.5 -53.001s-40.5 -50 -53.5 -82s-19.5 -67.333 -19.5 -106s6.5 -74 19.5 -106s30.833 -59.333 53.5 -82s49.5 -40.334 80.5 -53.001s64.5 -19 100.5 -19c21.333 0 42.166 2 62.499 6s42.5 11.667 66.5 23l16 -90
c-28 -10 -53.333 -17.333 -76 -22s-45.667 -7 -69 -7c-47.333 -0 -92 8.83301 -134 26.5s-78.5 42.167 -109.5 73.5s-55.5 68.333 -73.5 111s-27 89 -27 139z" />
    <glyph glyph-name="D" unicode="D" horiz-adv-x="719" 
d="M320 700c49.333 0 95.333 -8.83105 138 -26.498s79.667 -42 111 -73s55.833 -67.833 73.5 -110.5s26.5 -89.334 26.5 -140.001s-8.83301 -97.334 -26.5 -140.001s-42.167 -79.5 -73.5 -110.5s-68.333 -55.333 -111 -73s-88.667 -26.5 -138 -26.5h-240v700h240z
M579 350.002c0 38 -6.5 72.833 -19.5 104.5s-31 59 -54 82s-50.333 41 -82 54s-66.167 19.5 -103.5 19.5h-150v-520h150c37.333 0 71.833 6.33301 103.5 19s59 30.5 82 53.5s41 50.5 54 82.5s19.5 67 19.5 105z" />
    <glyph glyph-name="E" unicode="E" horiz-adv-x="565" 
d="M510 700v-90h-340v-215h340v-90h-340v-215h340v-90h-430v700h430z" />
    <glyph glyph-name="F" unicode="F" horiz-adv-x="550" 
d="M510 700v-90h-340v-215h340v-90h-340v-305h-90v700h430z" />
    <glyph glyph-name="G" unicode="G" horiz-adv-x="659" 
d="M50 351c0 49.333 8.99805 95.333 26.998 138s42.5 79.667 73.5 111s67.667 55.833 110 73.5s88.166 26.5 137.499 26.5c50 0 95.333 -9 136 -27s77.334 -42.333 110.001 -73l-41 -85c-25.333 27.333 -55.166 50 -89.499 68s-74.166 27 -119.499 27
c-36 0 -69.5 -6.33301 -100.5 -19s-57.833 -30.334 -80.5 -53.001s-40.5 -50 -53.5 -82s-19.5 -67.333 -19.5 -106s6.5 -74 19.5 -106s30.833 -59.333 53.5 -82s49.5 -40.334 80.5 -53.001s64.833 -19 101.5 -19c12.667 0 23.667 0.666992 33 2s19.333 3.33301 30 6v181
h-161v90h251v-337c-24 -9.33301 -48.833 -17 -74.5 -23s-52.5 -9 -80.5 -9c-47.333 0 -91.833 8.83301 -133.5 26.5s-78 42.334 -109 74.001s-55.5 68.834 -73.5 111.501s-27 89 -27 139z" />
    <glyph glyph-name="H" unicode="H" horiz-adv-x="740" 
d="M660 700v-700h-90v305h-400v-305h-90v700h90v-305h400v305h90z" />
    <glyph glyph-name="I" unicode="I" horiz-adv-x="250" 
d="M170 700v-700h-90v700h90z" />
    <glyph glyph-name="J" unicode="J" horiz-adv-x="492" 
d="M422 700l0.000976562 -479c0 -32.667 -4.33301 -62.5 -13 -89.5s-21.5 -50.333 -38.5 -70s-38.167 -34.834 -63.5 -45.501s-54.333 -16 -87 -16c-36.667 0 -68 6.16699 -94 18.5s-47.167 28 -63.5 47s-28.333 40.333 -36 64s-11.5 46.834 -11.5 69.501l83 41
c0 -20 2.33301 -39.167 7 -57.5s12 -34.333 22 -48s22.667 -24.5 38 -32.5s33.666 -12 54.999 -12c20 0 37.167 3.5 51.5 10.5s26 16.5 35 28.5s15.5 25.833 19.5 41.5s6 32.5 6 50.5v479h90z" />
    <glyph glyph-name="K" unicode="K" horiz-adv-x="647" 
d="M276 330l-106 -107v-223h-90v700h90v-349l345 349h127l-302 -305l302 -395h-114z" />
    <glyph glyph-name="L" unicode="L" horiz-adv-x="532" 
d="M170 700v-610h347v-90h-437v700h90z" />
    <glyph glyph-name="M" unicode="M" horiz-adv-x="1011" 
d="M170 0h-90v700h90l336 -584l335 584h90v-700h-90v515l-296 -515h-79l-296 515v-515z" />
    <glyph glyph-name="N" unicode="N" horiz-adv-x="767" 
d="M697 700v-700h-90l-447 555v-555h-90v700h90l447 -556v556h90z" />
    <glyph glyph-name="O" unicode="O" horiz-adv-x="800" 
d="M50 350c0 50 8.83301 96.333 26.5 139s42.167 79.667 73.5 111s68.333 55.833 111 73.5s89 26.5 139 26.5s96.5 -8.83301 139.5 -26.5s80 -42.167 111 -73.5s55.333 -68.333 73 -111s26.5 -89 26.5 -139s-8.83301 -96.333 -26.5 -139s-42 -79.667 -73 -111
s-68 -55.833 -111 -73.5s-89.5 -26.5 -139.5 -26.5s-96.333 8.83301 -139 26.5s-79.667 42.167 -111 73.5s-55.833 68.333 -73.5 111s-26.5 89 -26.5 139zM660 350c0 37.333 -6.5 72 -19.5 104s-31 59.5 -54 82.5s-50.5 41 -82.5 54s-66.667 19.5 -104 19.5
s-72 -6.5 -104 -19.5s-59.5 -31 -82.5 -54s-41 -50.5 -54 -82.5s-19.5 -66.667 -19.5 -104s6.5 -72 19.5 -104s31 -59.5 54 -82.5s50.5 -41 82.5 -54s66.667 -19.5 104 -19.5s72 6.5 104 19.5s59.5 31 82.5 54s41 50.5 54 82.5s19.5 66.667 19.5 104z" />
    <glyph glyph-name="P" unicode="P" horiz-adv-x="595" 
d="M329 700c34 0 65.333 -6 94 -18s53.5 -28.5 74.5 -49.5s37.5 -45.833 49.5 -74.5s18 -60 18 -94s-6 -65.5 -18 -94.5s-28.5 -54 -49.5 -75s-45.833 -37.333 -74.5 -49s-60 -17.5 -94 -17.5h-159v-228h-90v700h249zM475 464c0 21.333 -3.83301 40.833 -11.5 58.5
s-18 33 -31 46s-28.5 23.167 -46.5 30.5s-37 11 -57 11h-159v-292h159c20 0 39 3.66699 57 11s33.5 17.5 46.5 30.5s23.333 28.333 31 46s11.5 37.167 11.5 58.5z" />
    <glyph glyph-name="Q" unicode="Q" horiz-adv-x="835" 
d="M613 68c-29.333 -21.333 -61.833 -38 -97.5 -50s-74.167 -18 -115.5 -18c-50 -0 -96.333 8.83301 -139 26.5s-79.667 42.167 -111 73.5s-55.833 68.333 -73.5 111s-26.5 89 -26.5 139s8.83301 96.333 26.5 139s42.167 79.667 73.5 111s68.333 55.833 111 73.5
s89 26.5 139 26.5s96.5 -8.83301 139.5 -26.5s80 -42.167 111 -73.5s55.333 -68.333 73 -111s26.5 -89 26.5 -139c0 -42.667 -6.33301 -82.5 -19 -119.5s-30.667 -70.5 -54 -100.5l178 -178l-63 -63zM400 90c56.667 0 106 14.333 148 43l-196 196l63 63l197 -197
c32 43.333 48 95 48 155c0 37.333 -6.5 72 -19.5 104s-31 59.5 -54 82.5s-50.5 41 -82.5 54s-66.667 19.5 -104 19.5s-72 -6.5 -104 -19.5s-59.5 -31 -82.5 -54s-41 -50.5 -54 -82.5s-19.5 -66.667 -19.5 -104s6.5 -72 19.5 -104s31 -59.5 54 -82.5s50.5 -41 82.5 -54
s66.667 -19.5 104 -19.5z" />
    <glyph glyph-name="R" unicode="R" horiz-adv-x="673" 
d="M293 320l-40 50l70 56l78 -97c28 10 50.667 27 68 51s26 52.333 26 85c0 21.333 -3.83301 40.833 -11.5 58.5s-18.167 33 -31.5 46s-28.833 23 -46.5 30s-36.5 10.5 -56.5 10.5h-179v-290h123zM170 0h-90v700h269c34 0 65.333 -5.83301 94 -17.5s53.5 -28 74.5 -49
s37.5 -45.833 49.5 -74.5s18 -60 18 -94c0 -48 -11.167 -90 -33.5 -126s-52.5 -63.667 -90.5 -83l207 -256h-118l-185 230h-16h-179v-230z" />
    <glyph glyph-name="S" unicode="S" horiz-adv-x="519" 
d="M48 511c0 30 5.6709 56.8311 17.0039 80.498s26.666 43.5 45.999 59.5s41.833 28.167 67.5 36.5s52.5 12.5 80.5 12.5c55.333 0 102 -15 140 -45s64.667 -71 80 -123l-85 -34c-10.667 40 -27.667 68.667 -51 86s-52 26 -86 26c-39.333 0 -69 -9.66699 -89 -29
s-30 -43 -30 -71c0 -17.333 3.5 -31.833 10.5 -43.5s16.667 -21.834 29 -30.501s27 -16.167 44 -22.5l54.5 -19.5c27.333 -9.33301 52.833 -19.166 76.5 -29.499s44.167 -23 61.5 -38s31 -33.167 41 -54.5s15 -47.333 15 -78c0 -33.333 -5.66699 -62.166 -17 -86.499
s-26.5 -44.5 -45.5 -60.5s-41 -27.833 -66 -35.5s-51.167 -11.5 -78.5 -11.5c-21.333 0 -43.333 2.66699 -66 8s-44.167 14.333 -64.5 27s-38.666 29.834 -54.999 51.501s-28.833 48.5 -37.5 80.5l79 42c9.33301 -38.667 25.666 -68.167 48.999 -88.5
s54.666 -30.5 93.999 -30.5c36 0 64.667 8.66699 86 26s32 42.333 32 75c0 18.667 -3.5 34.167 -10.5 46.5s-16.333 22.833 -28 31.5s-24.834 15.667 -39.501 21l-46 16c-22.667 7.33301 -46.334 15.833 -71.001 25.5s-47.167 22.167 -67.5 37.5s-37 34.5 -50 57.5
s-19.5 51.167 -19.5 84.5z" />
    <glyph glyph-name="T" unicode="T" horiz-adv-x="651" 
d="M370 610v-610h-90v610h-275v90h641v-90h-276z" />
    <glyph glyph-name="U" unicode="U" horiz-adv-x="780" 
d="M710 700l-0.00195312 -380c0 -45.333 -8.16699 -87.5 -24.5 -126.5s-38.833 -72.833 -67.5 -101.5s-62.5 -51.167 -101.5 -67.5s-81.167 -24.5 -126.5 -24.5s-87.5 8.16699 -126.5 24.5s-72.833 38.833 -101.5 67.5s-51.167 62.5 -67.5 101.5s-24.5 81.167 -24.5 126.5
v380h90v-380c0 -32.667 5.83301 -63 17.5 -91s27.834 -52.333 48.501 -73s45 -36.834 73 -48.501s58.333 -17.5 91 -17.5s63 5.83301 91 17.5s52.333 27.834 73 48.501s36.834 45 48.501 73s17.5 58.333 17.5 91v380h90z" />
    <glyph glyph-name="V" unicode="V" horiz-adv-x="744" 
d="M338 0l-333 700h100l268 -564l266 564h100l-333 -700h-68z" />
    <glyph glyph-name="W" unicode="W" horiz-adv-x="1220" 
d="M288 0l-278 700h97l217 -546l243 546h86l243 -546l217 546h97l-278 -700h-66l-256 573l-256 -573h-66z" />
    <glyph glyph-name="X" unicode="X" horiz-adv-x="712" 
d="M15 0l283 350l-283 350h115l226 -279l226 279h115l-283 -350l283 -350h-116l-225 278l-225 -278h-116z" />
    <glyph glyph-name="Y" unicode="Y" horiz-adv-x="662" 
d="M286 0v295l-281 405h110l216 -312l216 312h110l-281 -405v-295h-90z" />
    <glyph glyph-name="Z" unicode="Z" horiz-adv-x="662" 
d="M612 700v-69l-428 -541h428v-90h-562v69l428 541h-428v90h562z" />
    <glyph glyph-name="bracketleft" unicode="[" horiz-adv-x="340" 
d="M310 761v-74h-120v-747h120v-74h-200v895h200z" />
    <glyph glyph-name="backslash" unicode="\" horiz-adv-x="733" 
d="M80 750l619 -752l-60 -50l-619 752z" />
    <glyph glyph-name="bracketright" unicode="]" horiz-adv-x="340" 
d="M230 761v-895h-200v74h120v747h-120v74h200z" />
    <glyph glyph-name="asciicircum" unicode="^" horiz-adv-x="388" 
d="M232 738l136 -237l-65 -34l-109 193l-109 -193l-65 34l136 237h76z" />
    <glyph glyph-name="underscore" unicode="_" horiz-adv-x="598" 
d="M568 10v-90h-538v90h538z" />
    <glyph glyph-name="grave" unicode="`" horiz-adv-x="352" 
d="M91 767l211 -136l-39 -60l-213 133z" />
    <glyph glyph-name="a" unicode="a" horiz-adv-x="515" 
d="M379 239l-163.001 -20.001c-28 -3.33301 -48.5 -12 -61.5 -26s-19.5 -30.333 -19.5 -49c0 -21.333 7.83301 -38.833 23.5 -52.5s38.834 -20.5 69.501 -20.5c24 0 45.333 3.83301 64 11.5s34.5 17.834 47.5 30.501s22.833 26.667 29.5 42s10 31 10 47v37zM62.999 385.999
c9.33301 37.333 30.001 67.665 62.001 90.998s78.333 35 139 35c69.333 0 120.166 -16.167 152.499 -48.5s48.5 -78.5 48.5 -138.5v-325h-86v71c-17.333 -25.333 -40 -45.166 -68 -59.499s-60 -21.5 -96 -21.5c-27.333 0 -51.5 4 -72.5 12s-38.667 18.833 -53 32.5
s-25.333 30 -33 49s-11.5 39.5 -11.5 61.5c0 23.333 4 44 12 62s19.333 33.5 34 46.5s31.667 23.333 51 31s40.666 12.5 63.999 14.5l141 14c21.333 2 32 11 32 27v13c0 24.667 -9.16699 44.5 -27.5 59.5s-46.166 22.5 -83.499 22.5c-34.667 0 -63.5 -7.16699 -86.5 -21.5
s-37.167 -37.166 -42.5 -68.499z" />
    <glyph glyph-name="b" unicode="b" horiz-adv-x="603" 
d="M156 700v-273.001c20.667 25.333 45.167 45.833 73.5 61.5s62.5 23.5 102.5 23.5c34 0 65.833 -6.16699 95.5 -18.5s55.167 -29.833 76.5 -52.5s38.166 -50.167 50.499 -82.5s18.5 -68.5 18.5 -108.5s-6.16699 -76.167 -18.5 -108.5s-29.166 -59.833 -50.499 -82.5
s-46.833 -40.167 -76.5 -52.5s-61.5 -18.5 -95.5 -18.5c-40.667 0 -75.5 7.83301 -104.5 23.5s-52.833 35.834 -71.5 60.501v-72h-86v700h86zM484 249.999c0 26.667 -3.83301 51.167 -11.5 73.5s-18.667 41.5 -33 57.5s-31.833 28.5 -52.5 37.5s-44 13.5 -70 13.5
c-51.333 0 -92 -16.5 -122 -49.5s-45 -77.167 -45 -132.5s15 -99.5 45 -132.5s70.667 -49.5 122 -49.5c26 0 49.333 4.5 70 13.5s38.167 21.5 52.5 37.5s25.333 35.167 33 57.5s11.5 46.833 11.5 73.5z" />
    <glyph glyph-name="c" unicode="c" horiz-adv-x="498" 
d="M30 249c0 37.333 6.16504 71.998 18.498 103.998s30 59.833 53 83.5s50.667 42.167 83 55.5s68.5 20 108.5 20c38.667 0 72.834 -6.33301 102.501 -19s56.167 -30.667 79.5 -54l-56 -66c-17.333 16 -36.5 29.333 -57.5 40s-45.5 16 -73.5 16
c-24 0 -46.333 -4.16699 -67 -12.5s-38.5 -20.166 -53.5 -35.499s-26.833 -34 -35.5 -56s-13 -47 -13 -75c0 -27.333 4.33301 -52 13 -74s20.5 -40.833 35.5 -56.5s32.667 -27.667 53 -36s42.5 -12.5 66.5 -12.5c30 0 56.333 5.83301 79 17.5s42.667 25.5 60 41.5l52 -67
c-21.333 -21.333 -47.666 -39.166 -78.999 -53.499s-68.333 -21.5 -111 -21.5c-39.333 0 -75 6.5 -107 19.5s-59.167 31.167 -81.5 54.5s-39.5 50.833 -51.5 82.5s-18 66.5 -18 104.5z" />
    <glyph glyph-name="d" unicode="d" horiz-adv-x="603" 
d="M286 432c-26 0 -49.333 -4.5 -70 -13.5s-38.167 -21.5 -52.5 -37.5s-25.333 -35.167 -33 -57.5s-11.5 -46.833 -11.5 -73.5s3.83301 -51.167 11.5 -73.5s18.667 -41.5 33 -57.5s31.833 -28.5 52.5 -37.5s44 -13.5 70 -13.5c51.333 0 92 16.5 122 49.5s45 77.167 45 132.5
s-15 99.5 -45 132.5s-70.667 49.5 -122 49.5zM533 700v-699.999h-86v72c-18.667 -24.667 -42.5 -44.834 -71.5 -60.501s-63.833 -23.5 -104.5 -23.5c-34 0 -65.833 6.16699 -95.5 18.5s-55.167 29.833 -76.5 52.5s-38.166 50.167 -50.499 82.5s-18.5 68.5 -18.5 108.5
s6.16699 76.167 18.5 108.5s29.166 59.833 50.499 82.5s46.833 40.167 76.5 52.5s61.5 18.5 95.5 18.5c40 0 74.167 -7.83301 102.5 -23.5s52.833 -36.167 73.5 -61.5v273h86z" />
    <glyph glyph-name="e" unicode="e" horiz-adv-x="542" 
d="M30 246c0 36.667 5.83594 71.167 17.5029 103.5s28.167 60.5 49.5 84.5s47.166 43 77.499 57s64.5 21 102.5 21c39.333 0 74 -6.66699 104 -20s55 -31.833 75 -55.5s35.167 -51.5 45.5 -83.5s15.5 -66.333 15.5 -103v-26h-400v-1
c1.33301 -25.333 6.66602 -47.666 15.999 -66.999s21.333 -35.5 36 -48.5s31.667 -22.833 51 -29.5s39.666 -10 60.999 -10c36.667 0 68 7.66699 94 23s47.667 33.333 65 54l45 -67c-10 -11.333 -21.667 -22.333 -35 -33s-28.333 -20.334 -45 -29.001s-35 -15.5 -55 -20.5
s-41.667 -7.5 -65 -7.5c-38 0 -72.5 6 -103.5 18s-57.833 29.167 -80.5 51.5s-40.167 49.5 -52.5 81.5s-18.5 67.667 -18.5 107zM423.003 293c-4 42 -17.833 75.667 -41.5 101s-58.167 38 -103.5 38c-47.333 0 -83.833 -12.667 -109.5 -38s-41.5 -59 -47.5 -101h302z" />
    <glyph glyph-name="f" unicode="f" horiz-adv-x="360" 
d="M193 425l0.000976562 -424.998h-86v425h-92v75h92v28c0 33.333 4 61.5 12 84.5s19 41.667 33 56s30.833 24.666 50.5 30.999s41.5 9.5 65.5 9.5c14 0 27 -0.666992 39 -2s24.667 -3 38 -5v-79c-12.667 2 -24.334 3.66699 -35.001 5s-21 2 -31 2
c-30.667 0 -52.667 -7.33301 -66 -22s-20 -41.334 -20 -80.001v-28h145v-75h-145z" />
    <glyph glyph-name="g" unicode="g" horiz-adv-x="613" 
d="M463 250c0 55.333 -14.5 99.5 -43.5 132.5s-69.167 49.5 -120.5 49.5c-26 0 -49.5 -4.5 -70.5 -13.5s-38.833 -21.5 -53.5 -37.5s-26 -35.167 -34 -57.5s-12 -46.833 -12 -73.5s4 -51.167 12 -73.5s19.333 -41.5 34 -57.5s32.5 -28.5 53.5 -37.5s44.5 -13.5 70.5 -13.5
c51.333 0 91.5 16.5 120.5 49.5s43.5 77.167 43.5 132.5zM40 250c0 40 6.16504 76.166 18.498 108.499s29.5 59.833 51.5 82.5s47.833 40.167 77.5 52.5s61.834 18.5 96.501 18.5c42 0 77.667 -7.83301 107 -23.5s51.333 -34.5 66 -56.5v68h86v-473
c0 -30 -3.33301 -59.333 -10 -88s-19 -54.167 -37 -76.5s-42.667 -40.5 -74 -54.5s-71.333 -21 -120 -21c-31.333 0 -59 3 -83 9s-45 14.333 -63 25s-33.667 23.667 -47 39s-24.666 32 -33.999 50l67 53c16 -32 37.333 -56.667 64 -74s61 -26 103 -26
c31.333 0 56.833 4.66699 76.5 14s35 21.833 46 37.5s18.5 33.334 22.5 53.001s6 39.5 6 59.5v41c-16 -23.333 -39.167 -42.5 -69.5 -57.5s-65.5 -22.5 -105.5 -22.5c-37.333 0 -71 6.16699 -101 18.5s-55.667 29.833 -77 52.5s-37.833 50.167 -49.5 82.5
s-17.5 68.5 -17.5 108.5z" />
    <glyph glyph-name="h" unicode="h" horiz-adv-x="567" 
d="M156 700v-266c38 52 92.333 78 163 78c32 0 59.833 -5.33301 83.5 -16s43.167 -25.5 58.5 -44.5s26.833 -42 34.5 -69s11.5 -56.5 11.5 -88.5v-294h-88v298c0 41.333 -10 74 -30 98s-49 36 -87 36c-28.667 0 -52.5 -5.16699 -71.5 -15.5s-34 -24.333 -45 -42
s-18.667 -38.667 -23 -63s-6.5 -50.5 -6.5 -78.5v-233h-86v700h86z" />
    <glyph glyph-name="i" unicode="i" horiz-adv-x="236" 
d="M50 644c0 19.333 6.5 35.5 19.5 48.5s29.167 19.5 48.5 19.5s35.5 -6.5 48.5 -19.5s19.5 -29.167 19.5 -48.5s-6.5 -35.5 -19.5 -48.5s-29.167 -19.5 -48.5 -19.5s-35.5 6.5 -48.5 19.5s-19.5 29.167 -19.5 48.5zM161 500v-500h-86v500h86z" />
    <glyph glyph-name="j" unicode="j" horiz-adv-x="255" 
d="M64 644c0 19.333 6.5 35.5 19.5 48.5s29.167 19.5 48.5 19.5s35.5 -6.5 48.5 -19.5s19.5 -29.167 19.5 -48.5s-6.5 -35.5 -19.5 -48.5s-29.167 -19.5 -48.5 -19.5s-35.5 6.5 -48.5 19.5s-19.5 29.167 -19.5 48.5zM175 500l0.000976562 -524.001
c0 -30 -3.5 -56.333 -10.5 -79s-18.333 -41.5 -34 -56.5s-36.334 -26.167 -62.001 -33.5s-57.167 -11 -94.5 -11h-4v83h4c24 0 43.5 2.16699 58.5 6.5s26.667 10.833 35 19.5s14 18.834 17 30.501s4.5 25.167 4.5 40.5v524h86z" />
    <glyph glyph-name="k" unicode="k" horiz-adv-x="515" 
d="M231 223l-75 -76v-147h-86v700h86v-442l228 242h121l-216 -218l216 -282h-112z" />
    <glyph glyph-name="l" unicode="l" horiz-adv-x="228" 
d="M158 700v-700h-88v700h88z" />
    <glyph glyph-name="m" unicode="m" horiz-adv-x="926" 
d="M476 413c19.333 29.333 43.3311 53.167 71.998 71.5s66.667 27.5 114 27.5c34.667 0 64.334 -5.33301 89.001 -16s44.834 -25.834 60.501 -45.501s27 -43.167 34 -70.5s10.5 -58 10.5 -92v-288h-87v299c0 43.333 -9.66699 76.333 -29 99s-48.333 34 -87 34
c-28.667 0 -52.5 -5.16699 -71.5 -15.5s-34.167 -24.333 -45.5 -42s-19.333 -38.667 -24 -63s-7 -50.5 -7 -78.5v-233h-86v299c0 43.333 -9.83301 76.333 -29.5 99s-49.167 34 -88.5 34c-28.667 0 -52.334 -5.16699 -71.001 -15.5s-33.5 -24.5 -44.5 -42.5
s-18.667 -39.167 -23 -63.5s-6.5 -50.166 -6.5 -77.499v-233h-86v500h83v-70c15.333 25.333 36.333 45.333 63 60s58.667 22 96 22c42.667 0 77.334 -9 104.001 -27s46.667 -42 60 -72z" />
    <glyph glyph-name="n" unicode="n" horiz-adv-x="577" 
d="M153 433c20 28 44.501 48.167 73.501 60.5s59.833 18.5 92.5 18.5c32 0 59.833 -5.33301 83.5 -16s43.167 -25.5 58.5 -44.5s26.833 -42 34.5 -69s11.5 -56.5 11.5 -88.5v-294h-88v298c0 44 -10.833 77.333 -32.5 100s-50.167 34 -85.5 34
c-28.667 0 -52.334 -5.16699 -71.001 -15.5s-33.5 -24.333 -44.5 -42s-18.667 -38.667 -23 -63s-6.5 -50.5 -6.5 -78.5v-233h-86v500h83v-67v0z" />
    <glyph glyph-name="o" unicode="o" horiz-adv-x="584" 
d="M30 250c0 37.333 6.66699 72 20 104s31.666 59.667 54.999 83s51 41.666 83 54.999s66.667 20 104 20s72 -6.66699 104 -20s59.667 -31.666 83 -54.999s41.666 -51 54.999 -83s20 -66.667 20 -104s-6.66699 -72 -20 -104s-31.666 -59.667 -54.999 -83
s-51 -41.666 -83 -54.999s-66.667 -20 -104 -20s-72 6.66699 -104 20s-59.667 31.666 -83 54.999s-41.666 51 -54.999 83s-20 66.667 -20 104zM465 250c0 26 -4.16699 50 -12.5 72s-20 40.833 -35 56.5s-33.167 28 -54.5 37s-45 13.5 -71 13.5s-49.667 -4.5 -71 -13.5
s-39.5 -21.333 -54.5 -37s-26.667 -34.5 -35 -56.5s-12.5 -46 -12.5 -72s4.16699 -50 12.5 -72s20 -40.833 35 -56.5s33.167 -28 54.5 -37s45 -13.5 71 -13.5s49.667 4.5 71 13.5s39.5 21.333 54.5 37s26.667 34.5 35 56.5s12.5 46 12.5 72z" />
    <glyph glyph-name="p" unicode="p" horiz-adv-x="603" 
d="M317 68c26 0 49.333 4.5 70 13.5s38.167 21.5 52.5 37.5s25.333 35.167 33 57.5s11.5 46.833 11.5 73.5s-3.83301 51.167 -11.5 73.5s-18.667 41.5 -33 57.5s-31.833 28.5 -52.5 37.5s-44 13.5 -70 13.5c-51.333 0 -92 -16.5 -122 -49.5s-45 -77.167 -45 -132.5
s15 -99.5 45 -132.5s70.667 -49.5 122 -49.5zM70 -200v699.999h86v-72c18.667 24.667 42.5 44.834 71.5 60.501s63.833 23.5 104.5 23.5c34 0 65.833 -6.16699 95.5 -18.5s55.167 -29.833 76.5 -52.5s38.166 -50.167 50.499 -82.5s18.5 -68.5 18.5 -108.5
s-6.16699 -76.167 -18.5 -108.5s-29.166 -59.833 -50.499 -82.5s-46.833 -40.167 -76.5 -52.5s-61.5 -18.5 -95.5 -18.5c-40 0 -74.167 7.83301 -102.5 23.5s-52.833 36.167 -73.5 61.5v-273h-86z" />
    <glyph glyph-name="q" unicode="q" horiz-adv-x="603" 
d="M447 -200v273.001c-20.667 -25.333 -45.167 -45.833 -73.5 -61.5s-62.5 -23.5 -102.5 -23.5c-34 0 -65.833 6.16699 -95.5 18.5s-55.167 29.833 -76.5 52.5s-38.166 50.167 -50.499 82.5s-18.5 68.5 -18.5 108.5s6.16699 76.167 18.5 108.5s29.166 59.833 50.499 82.5
s46.833 40.167 76.5 52.5s61.5 18.5 95.5 18.5c40.667 0 75.5 -7.83301 104.5 -23.5s52.833 -35.834 71.5 -60.501v72h86v-700h-86zM119 250.001c0 -26.667 3.83301 -51.167 11.5 -73.5s18.667 -41.5 33 -57.5s31.833 -28.5 52.5 -37.5s44 -13.5 70 -13.5
c51.333 0 92 16.5 122 49.5s45 77.167 45 132.5s-15 99.5 -45 132.5s-70.667 49.5 -122 49.5c-26 0 -49.333 -4.5 -70 -13.5s-38.167 -21.5 -52.5 -37.5s-25.333 -35.167 -33 -57.5s-11.5 -46.833 -11.5 -73.5z" />
    <glyph glyph-name="r" unicode="r" horiz-adv-x="373" 
d="M153 425c15.333 28 35.5029 49.5 60.5029 64.5s55.167 22.5 90.5 22.5c8.66699 0 17 -0.5 25 -1.5s16 -2.16699 24 -3.5v-91c-8.66699 2 -16.834 3.5 -24.501 4.5s-16.167 1.5 -25.5 1.5c-28 0 -51.333 -4.5 -70 -13.5s-33.834 -21.833 -45.501 -38.5
s-19.834 -36.667 -24.501 -60s-7 -49 -7 -77v-233h-86v500h83v-75v0z" />
    <glyph glyph-name="s" unicode="s" horiz-adv-x="463" 
d="M53 364c0 44 16.5 79.6709 49.5 107.004s78.833 41 137.5 41c50 0 90.833 -9.66699 122.5 -29s56.834 -45.666 75.501 -78.999l-71 -45c-10.667 20.667 -26.167 38 -46.5 52s-47.833 21 -82.5 21c-28 0 -51.5 -5.5 -70.5 -16.5s-28.5 -26.5 -28.5 -46.5
c0 -12 3 -21.833 9 -29.5s14.333 -14.334 25 -20.001s23.167 -10.334 37.5 -14.001s30.166 -7.5 47.499 -11.5c20.667 -4.66699 41.667 -9.66699 63 -15s40.666 -13.333 57.999 -24s31.5 -24.834 42.5 -42.501s16.5 -40.834 16.5 -69.501
c0 -26.667 -4.83301 -49.834 -14.5 -69.501s-23.167 -35.834 -40.5 -48.501s-37.666 -22 -60.999 -28s-48.666 -9 -75.999 -9c-23.333 0 -46 2.16699 -68 6.5s-42.667 11.333 -62 21s-36.833 21.834 -52.5 36.501s-28.5 32.334 -38.5 53.001l71 45
c15.333 -31.333 36.833 -52.833 64.5 -64.5s56.834 -17.5 87.501 -17.5c32.667 0 58.167 5.66699 76.5 17s27.5 28.666 27.5 51.999c0 12.667 -2.66699 23 -8 31s-12.833 14.667 -22.5 20s-21.334 9.83301 -35.001 13.5s-28.834 7.16699 -45.501 10.5
c-20.667 4 -42 9.16699 -64 15.5s-42.167 15 -60.5 26s-33.5 25.333 -45.5 43s-18 40.167 -18 67.5z" />
    <glyph glyph-name="t" unicode="t" horiz-adv-x="363" 
d="M338 7c-13.333 -3.33301 -26.998 -6.16797 -40.998 -8.50098s-29 -3.5 -45 -3.5c-46 0 -80.5 10.833 -103.5 32.5s-34.5 59.167 -34.5 112.5v285h-99v75h99v134h86v-134h137v-75h-137v-290c0 -19.333 4.16699 -34.166 12.5 -44.499s23.166 -15.5 44.499 -15.5
c16 0 30.167 0.666992 42.5 2s25.166 3.33301 38.499 6v-76v0z" />
    <glyph glyph-name="u" unicode="u" horiz-adv-x="570" 
d="M500 500l-0.000976562 -499.999h-83v72c-19.333 -28 -41.333 -49 -66 -63s-56 -21 -94 -21c-35.333 0 -64.833 5.5 -88.5 16.5s-42.834 26 -57.501 45s-25.167 41.667 -31.5 68s-9.5 55.166 -9.5 86.499v296h88v-296c0 -20 1.66699 -38.333 5 -55s9.33301 -31 18 -43
s20.334 -21.333 35.001 -28s33.334 -10 56.001 -10c28.667 0 52.167 5.5 70.5 16.5s32.833 25.667 43.5 44s18 39.5 22 63.5s6 49 6 75v233h86z" />
    <glyph glyph-name="v" unicode="v" horiz-adv-x="528" 
d="M230 0l-220 500h101l153 -382l154 382h100l-220 -500h-68z" />
    <glyph glyph-name="w" unicode="w" horiz-adv-x="866" 
d="M215 0l-205 500h98l142 -371l152 371h62l152 -371l142 371h98l-205 -500h-66l-152 359l-152 -359h-66z" />
    <glyph glyph-name="x" unicode="x" horiz-adv-x="520" 
d="M260 183l-144 -183h-106l197 250l-197 250h106l144 -183l144 183h106l-197 -250l197 -250h-106z" />
    <glyph glyph-name="y" unicode="y" horiz-adv-x="525" 
d="M104 -200l124 266l-218 434h104l160 -334l155 334h91l-323 -700h-93z" />
    <glyph glyph-name="z" unicode="z" horiz-adv-x="454" 
d="M414 500v-77l-278 -343h288v-80h-394v77l278 343h-269v80h375z" />
    <glyph glyph-name="braceleft" unicode="{" horiz-adv-x="378" 
d="M358 761v-75h-32c-22.667 0 -41.667 -6.33301 -57 -19s-23 -31.667 -23 -57v-167c0 -30 -5.83301 -55.333 -17.5 -76s-32.5 -36.667 -62.5 -48c30 -11.333 50.833 -27 62.5 -47s17.5 -45 17.5 -75v-180c0 -25.333 7.66699 -44.333 23 -57s34.333 -19 57 -19h32v-75h-27
c-49.333 0 -88.833 12 -118.5 36s-44.5 64 -44.5 120v165c0 28 -9.66699 49.667 -29 65s-45.666 24 -78.999 26v74c33.333 2 59.666 11 78.999 27s29 38 29 66v160c0 56 14.833 96 44.5 120s69.167 36 118.5 36h27z" />
    <glyph glyph-name="bar" unicode="|" horiz-adv-x="275" 
d="M175 761v-895h-75v895h75z" />
    <glyph glyph-name="braceright" unicode="}" horiz-adv-x="378" 
d="M47 761c24.667 0 47 -2.8291 67 -8.49609s37.167 -14.834 51.5 -27.501s25.333 -28.834 33 -48.501s11.5 -43.5 11.5 -71.5v-160c0 -28 9.66699 -50 29 -66s45.666 -25 78.999 -27v-74c-33.333 -2 -59.666 -10.667 -78.999 -26s-29 -37 -29 -65v-165
c0 -28 -3.83301 -51.833 -11.5 -71.5s-18.667 -35.834 -33 -48.501s-31.5 -21.834 -51.5 -27.501s-42.333 -8.5 -67 -8.5h-27v75h32c22.667 0 41.667 6.33301 57 19s23 31.667 23 57v180c0 30 5.83301 55 17.5 75s32.5 35.667 62.5 47c-30 11.333 -50.833 27.333 -62.5 48
s-17.5 46 -17.5 76v167c0 25.333 -7.66699 44.333 -23 57s-34.333 19 -57 19h-32v75h27z" />
    <glyph glyph-name="asciitilde" unicode="~" horiz-adv-x="683" 
d="M70 307c22 21.333 46.667 40.167 74 56.5s57 24.5 89 24.5c22.667 0 43.834 -4 63.501 -12s38.5 -16.833 56.5 -26.5l51.5 -26.5c16.333 -8 32.166 -12 47.499 -12c19.333 0 38.5 5.83301 57.5 17.5s36.167 25.167 51.5 40.5l52 -54c-23.333 -22 -48.5 -41.667 -75.5 -59
s-56.5 -26 -88.5 -26c-22 0 -42.667 4 -62 12s-38 16.833 -56 26.5s-35.333 18.5 -52 26.5s-32.667 12 -48 12c-19.333 0 -38.5 -5.83301 -57.5 -17.5s-36.167 -25.167 -51.5 -40.5l-52 58v0z" />
    <glyph glyph-name="exclamdown" unicode="&#xa1;" horiz-adv-x="316" 
d="M237 422c0 -22 -7.66699 -40.667 -23 -56s-34 -23 -56 -23s-40.5 7.66699 -55.5 23s-22.5 34 -22.5 56s7.5 40.5 22.5 55.5s33.5 22.5 55.5 22.5s40.667 -7.5 56 -22.5s23 -33.5 23 -55.5zM113 -200v480h90v-480h-90z" />
    <glyph glyph-name="cent" unicode="&#xa2;" horiz-adv-x="498" 
d="M478 63c-19.333 -19.333 -42.667 -35.835 -70 -49.502s-59.333 -21.834 -96 -24.501v-86h-65v88c-33.333 4 -63.5 13.333 -90.5 28s-49.833 33.334 -68.5 56.001s-33 48.834 -43 78.501s-15 61.5 -15 95.5s5 65.667 15 95s24.5 55.333 43.5 78s41.833 41.5 68.5 56.5
s56.667 25.167 90 30.5v90h65v-88c34 -2 64.333 -9.16699 91 -21.5s50.667 -29.166 72 -50.499l-56 -66c-15.333 13.333 -31.5 25 -48.5 35s-36.5 16.333 -58.5 19v-354c23.333 3.33301 44.333 10.333 63 21s35.667 22.667 51 36zM118.999 249.998
c0 -46.667 11.833 -85.332 35.5 -115.999s54.5 -50.334 92.5 -59.001v350c-38 -8.66699 -68.833 -28 -92.5 -58s-35.5 -69 -35.5 -117z" />
    <glyph glyph-name="sterling" unicode="&#xa3;" horiz-adv-x="613" 
d="M593 91c-9.33301 -12.667 -20.168 -24.5 -32.501 -35.5s-26.333 -20.667 -42 -29s-33.667 -14.833 -54 -19.5s-43.166 -7 -68.499 -7h-326v82c28 3.33301 49.667 13.5 65 30.5s23 41.167 23 72.5v135h-98v75h98v105c0 28 3.83301 54.167 11.5 78.5s19.5 45.5 35.5 63.5
s36 32.167 60 42.5s52.333 15.5 85 15.5c23.333 0 44.5 -3.33301 63.5 -10s35.833 -15.167 50.5 -25.5s27.334 -22.166 38.001 -35.499s19 -27 25 -41l-76 -54c-8 23.333 -21 42.666 -39 57.999s-38.667 23 -62 23c-32 0 -57 -9.66699 -75 -29s-27 -48 -27 -86v-105h195v-75
h-195v-135c0 -30 -5.33301 -52.833 -16 -68.5s-21 -26.167 -31 -31.5h195c35.333 0 65.666 8.33301 90.999 25s45.333 37 60 61l46 -80v0z" />
    <glyph glyph-name="currency" unicode="&#xa4;" horiz-adv-x="544" 
d="M397 182c-17.333 -13.333 -36.668 -23.498 -58.001 -30.498s-43.666 -10.5 -66.999 -10.5s-45.5 3.5 -66.5 10.5s-40.167 16.833 -57.5 29.5l-84 -82l-44 44l83 84c-13.333 17.333 -23.5 36.333 -30.5 57s-10.5 42.667 -10.5 66s3.5 45.666 10.5 66.999
s17.167 40.666 30.5 57.999l-76 75l47 44l74 -75c17.333 13.333 36.5 23.5 57.5 30.5s43.167 10.5 66.5 10.5s45.5 -3.5 66.5 -10.5s40.167 -17.167 57.5 -30.5l74 75l46 -44l-76 -75c28 -36 42 -77.667 42 -125c0 -23.333 -3.5 -45.333 -10.5 -66
s-16.833 -39.667 -29.5 -57l82 -84l-44 -44zM271.998 475.002c-17.333 0 -33.5 -3.33301 -48.5 -10s-28.167 -15.667 -39.5 -27s-20.333 -24.5 -27 -39.5s-10 -31.167 -10 -48.5s3.33301 -33.5 10 -48.5s15.667 -28 27 -39s24.5 -19.833 39.5 -26.5s31.167 -10 48.5 -10
c16.667 0 32.667 3.33301 48 10s28.666 15.5 39.999 26.5s20.333 24 27 39s10 31.167 10 48.5s-3.33301 33.5 -10 48.5s-15.667 28.167 -27 39.5s-24.666 20.333 -39.999 27s-31.333 10 -48 10z" />
    <glyph glyph-name="yen" unicode="&#xa5;" horiz-adv-x="662" 
d="M376 156v-156h-90v156h-188v70h188v69h-188v70h139l-232 335h110l216 -312l216 312h110l-232 -335h139v-70h-188v-69h188v-70h-188z" />
    <glyph glyph-name="brokenbar" unicode="&#xa6;" horiz-adv-x="275" 
d="M175 761v-388h-75v388h75zM175 284v-418h-75v418h75z" />
    <glyph glyph-name="section" unicode="&#xa7;" horiz-adv-x="516" 
d="M221 383c-23.333 -9.33301 -43.501 -22.333 -60.501 -39s-25.5 -37 -25.5 -61c0 -17.333 4.83301 -31.833 14.5 -43.5s22.167 -22 37.5 -31s32.833 -17.167 52.5 -24.5s39.167 -15.333 58.5 -24c22.667 9.33301 42.167 22.333 58.5 39s24.5 36.667 24.5 60
c0 17.333 -4.66699 32 -14 44s-21.666 22.5 -36.999 31.5s-32.5 17.167 -51.5 24.5s-38.167 15.333 -57.5 24zM269.999 712c38.667 0 73.333 -8.83008 104 -26.4971s55 -44.834 73 -81.501l-71 -45c-10.667 24 -25.834 42.167 -45.501 54.5s-41.167 18.5 -64.5 18.5
c-28.667 0 -51 -7.5 -67 -22.5s-24 -34.167 -24 -57.5c0 -21.333 7.16699 -38.5 21.5 -51.5s32.333 -24.5 54 -34.5s45 -19.833 70 -29.5s48.333 -21.5 70 -35.5s39.667 -31.5 54 -52.5s21.5 -48.167 21.5 -81.5c0 -34 -8 -63.833 -24 -89.5s-39 -46.167 -69 -61.5
c16 -13.333 29 -29.333 39 -48s15 -42 15 -70c0 -24 -4.16699 -46.167 -12.5 -66.5s-20.166 -38 -35.499 -53s-34.166 -26.833 -56.499 -35.5s-47.5 -13 -75.5 -13c-39.333 0 -74.333 8.83301 -105 26.5s-55 44.834 -73 81.501l71 45c10.667 -24 25.667 -42.167 45 -54.5
s40.666 -18.5 63.999 -18.5c29.333 0 52 7.83301 68 23.5s24 35.5 24 59.5c0 21.333 -7.16699 38.666 -21.5 51.999s-32.333 25 -54 35s-45 19.667 -70 29s-48.333 21 -70 35s-39.667 31.333 -54 52s-21.5 47.334 -21.5 80.001c0 36 8.66699 66.667 26 92s40.333 45 69 59
c-16.667 13.333 -30.167 29.666 -40.5 48.999s-15.5 43 -15.5 71c0 25.333 4.5 48.166 13.5 68.499s21.667 37.666 38 51.999s35.5 25.333 57.5 33s46 11.5 72 11.5z" />
    <glyph glyph-name="dieresis" unicode="&#xa8;" horiz-adv-x="438" 
d="M50 644c0 19.333 6.5 35.5 19.5 48.5s29.167 19.5 48.5 19.5s35.5 -6.5 48.5 -19.5s19.5 -29.167 19.5 -48.5s-6.5 -35.5 -19.5 -48.5s-29.167 -19.5 -48.5 -19.5s-35.5 6.5 -48.5 19.5s-19.5 29.167 -19.5 48.5zM252 644c0 19.333 6.5 35.5 19.5 48.5
s29.167 19.5 48.5 19.5s35.5 -6.5 48.5 -19.5s19.5 -29.167 19.5 -48.5s-6.5 -35.5 -19.5 -48.5s-29.167 -19.5 -48.5 -19.5s-35.5 6.5 -48.5 19.5s-19.5 29.167 -19.5 48.5z" />
    <glyph glyph-name="copyright" unicode="&#xa9;" horiz-adv-x="824" 
d="M50 350c0 51.333 9.16699 99.166 27.5 143.499s43.5 82.666 75.5 114.999s70.167 57.666 114.5 75.999s92.5 27.5 144.5 27.5s100.167 -9.16699 144.5 -27.5s82.5 -43.666 114.5 -75.999s57.167 -70.666 75.5 -114.999s27.5 -92.166 27.5 -143.499
s-9.16699 -99.166 -27.5 -143.499s-43.5 -82.666 -75.5 -114.999s-70.167 -57.666 -114.5 -75.999s-92.5 -27.5 -144.5 -27.5s-100.167 9.16699 -144.5 27.5s-82.5 43.666 -114.5 75.999s-57.167 70.666 -75.5 114.999s-27.5 92.166 -27.5 143.499zM704 350
c0 42 -7.33301 80.833 -22 116.5s-35 66.5 -61 92.5s-56.833 46.333 -92.5 61s-74.5 22 -116.5 22s-80.833 -7.33301 -116.5 -22s-66.5 -35 -92.5 -61s-46.333 -56.833 -61 -92.5s-22 -74.5 -22 -116.5s7.33301 -80.833 22 -116.5s35 -66.5 61 -92.5
s56.833 -46.333 92.5 -61s74.5 -22 116.5 -22s80.833 7.33301 116.5 22s66.5 35 92.5 61s46.333 56.833 61 92.5s22 74.5 22 116.5zM214 354c0 28 4.99805 54.001 14.998 78.001s23.833 44.833 41.5 62.5s38.5 31.5 62.5 41.5s50 15 78 15c28.667 0 54.667 -5.33301 78 -16
s45.333 -26.334 66 -47.001l-29 -63c-32 38.667 -70.667 58 -116 58c-36.667 0 -67.167 -11.667 -91.5 -35s-36.5 -54.666 -36.5 -93.999c0 -19.333 3.16699 -37 9.5 -53s15.333 -29.833 27 -41.5s25.334 -20.667 41.001 -27s33.167 -9.5 52.5 -9.5
c20.667 0 40.834 4.66699 60.501 14s37.5 22.666 53.5 39.999l29 -63c-20.667 -19.333 -42.667 -33.833 -66 -43.5s-49 -14.5 -77 -14.5s-54.167 5 -78.5 15s-45.333 23.833 -63 41.5s-31.5 38.667 -41.5 63s-15 50.5 -15 78.5z" />
    <glyph glyph-name="ordfeminine" unicode="&#xaa;" horiz-adv-x="441" 
d="M130 445c0 -14.667 5.83203 -26.5 17.499 -35.5s28.5 -13.5 50.5 -13.5c16 0 31 2.66699 45 8s26.167 12.333 36.5 21s18.5 18.667 24.5 30s9 23 9 35v19l-132 -14c-17.333 -2.66699 -30.166 -8.66699 -38.499 -18s-12.5 -20 -12.5 -32zM390.999 330l-78 -0.000976562v54
c-12.667 -19.333 -29.667 -34.5 -51 -45.5s-46.333 -16.5 -75 -16.5c-42 0 -75.333 11.667 -100 35s-37 53 -37 89c0 19.333 3.5 36.333 10.5 51s16.333 26.834 28 36.501s24.5 17 38.5 22s28 8.16699 42 9.5l144 12c0 30 -6.16699 51.167 -18.5 63.5s-33.5 18.5 -63.5 18.5
c-26 0 -47.5 -5 -64.5 -15s-28.5 -27 -34.5 -51l-70 37c9.33301 30 26.833 54 52.5 72s62.5 27 110.5 27c57.333 0 99.333 -13.167 126 -39.5s40 -64.5 40 -114.5v-245z" />
    <glyph glyph-name="guillemotleft" unicode="&#xab;" horiz-adv-x="563" 
d="M40 260l185 210l57 -52l-143 -158l143 -159l-57 -51zM242 260l185 210l57 -52l-143 -158l143 -159l-57 -51z" />
    <glyph glyph-name="logicalnot" unicode="&#xac;" 
d="M549 374v-254h-91v164h-367v90h458z" />
    <glyph glyph-name="softhyphen" unicode="&#xad;" horiz-adv-x="528" 
d="M448 354v-90h-368v90h368z" />
    <glyph glyph-name="registered" unicode="&#xae;" horiz-adv-x="824" 
d="M50 350c0 51.333 9.16699 99.166 27.5 143.499s43.5 82.666 75.5 114.999s70.167 57.666 114.5 75.999s92.5 27.5 144.5 27.5s100.167 -9.16699 144.5 -27.5s82.5 -43.666 114.5 -75.999s57.167 -70.666 75.5 -114.999s27.5 -92.166 27.5 -143.499
s-9.16699 -99.166 -27.5 -143.499s-43.5 -82.666 -75.5 -114.999s-70.167 -57.666 -114.5 -75.999s-92.5 -27.5 -144.5 -27.5s-100.167 9.16699 -144.5 27.5s-82.5 43.666 -114.5 75.999s-57.167 70.666 -75.5 114.999s-27.5 92.166 -27.5 143.499zM704 350
c0 42 -7.33301 80.833 -22 116.5s-35 66.5 -61 92.5s-56.833 46.333 -92.5 61s-74.5 22 -116.5 22s-80.833 -7.33301 -116.5 -22s-66.5 -35 -92.5 -61s-46.333 -56.833 -61 -92.5s-22 -74.5 -22 -116.5s7.33301 -80.833 22 -116.5s35 -66.5 61 -92.5
s56.833 -46.333 92.5 -61s74.5 -22 116.5 -22s80.833 7.33301 116.5 22s66.5 35 92.5 61s46.333 56.833 61 92.5s22 74.5 22 116.5zM503 426c0 17.333 -6.33301 31.667 -19 43s-28.334 17 -47.001 17h-86v-120h86c18.667 0 34.334 4.5 47.001 13.5s19 24.5 19 46.5z
M289 168.001v379h148c18 0 34.833 -3 50.5 -9s29.167 -14.333 40.5 -25s20.333 -23.5 27 -38.5s10 -31.167 10 -48.5c0 -32.667 -8.16699 -58.667 -24.5 -78s-37.5 -32 -63.5 -38l87 -142h-75l-81 136l1 1h-58v-137h-62z" />
    <glyph glyph-name="macron" unicode="&#xaf;" horiz-adv-x="400" 
d="M350 687v-70h-300v70h300z" />
    <glyph glyph-name="degree" unicode="&#xb0;" horiz-adv-x="370" 
d="M50 590c0 18.667 3.5 35.834 10.5 51.501s16.5 29.334 28.5 41.001s26.167 20.834 42.5 27.501s34.166 10 53.499 10s37.166 -3.33301 53.499 -10s30.5 -15.834 42.5 -27.501s21.5 -25.334 28.5 -41.001s10.5 -32.834 10.5 -51.501s-3.5 -35.834 -10.5 -51.501
s-16.5 -29.334 -28.5 -41.001s-26.167 -20.834 -42.5 -27.501s-34.166 -10 -53.499 -10s-37.166 3.33301 -53.499 10s-30.5 15.834 -42.5 27.501s-21.5 25.334 -28.5 41.001s-10.5 32.834 -10.5 51.501zM262 590c0 22 -7 40.333 -21 55s-32.667 22 -56 22
s-42 -7.33301 -56 -22s-21 -33 -21 -55s7 -40.333 21 -55s32.667 -22 56 -22s42 7.33301 56 22s21 33 21 55z" />
    <glyph glyph-name="plusminus" unicode="&#xb1;" 
d="M363 580v-139h193v-88h-193v-139h-86v139h-193v88h193v139h86zM556 173v-88h-472v88h472z" />
    <glyph glyph-name="twosuperior" unicode="&#xb2;" horiz-adv-x="356" 
d="M30 729c5.33301 10 12.167 20.499 20.5 31.499s18.5 20.833 30.5 29.5s25.667 15.834 41 21.501s32.666 8.5 51.999 8.5c40.667 0 73.834 -12.333 99.501 -37s38.5 -56.667 38.5 -96c0 -23.333 -4.5 -44.166 -13.5 -62.499s-20.167 -33.833 -33.5 -46.5l-103 -102h150
v-76h-270v62l165 162c8.66699 8 15.667 17 21 27s8 20.667 8 32c0 18.667 -6 33.5 -18 44.5s-27 16.5 -45 16.5c-20 0 -37.333 -6.33301 -52 -19s-26 -27.334 -34 -44.001l-57 48v0z" />
    <glyph glyph-name="threesuperior" unicode="&#xb3;" horiz-adv-x="349" 
d="M32 745c10.667 20.667 27.665 38.332 50.998 52.999s51 22 83 22c42 0 75.333 -11 100 -33s37 -50 37 -84c0 -24 -5.66699 -43.667 -17 -59s-24 -26.666 -38 -33.999c15.333 -7.33301 28.333 -18.666 39 -33.999s16 -35 16 -59c0 -36 -12.167 -64.5 -36.5 -85.5
s-57.5 -31.5 -99.5 -31.5c-33.333 0 -61.666 7.5 -84.999 22.5s-40 33.167 -50 54.5l55 55c7.33301 -18 18.333 -31.833 33 -41.5s30.667 -14.5 48 -14.5s31.5 4.33301 42.5 13s16.5 20.667 16.5 36c0 14.667 -5.16699 26.167 -15.5 34.5s-24.166 12.833 -41.499 13.5h-30
v75h30c17.333 0.666992 31.166 5.16699 41.499 13.5s15.5 19.833 15.5 34.5c0 15.333 -5.5 27.166 -16.5 35.499s-25.167 12.5 -42.5 12.5s-33.166 -4.83301 -47.499 -14.5s-25.5 -23.167 -33.5 -40.5l-55 56v0z" />
    <glyph glyph-name="acute" unicode="&#xb4;" horiz-adv-x="352" 
d="M261 767l41 -63l-213 -133l-39 60z" />
    <glyph glyph-name="uni00B5" unicode="&#xb5;" 
d="M292 -12c-41.333 0 -75.335 7.66699 -102.002 23v-211h-85v700h88v-296c0 -20 1.66699 -38.333 5 -55s9.33301 -31 18 -43s20.334 -21.333 35.001 -28s33.334 -10 56.001 -10c28.667 0 52.167 5.5 70.5 16.5s32.833 25.667 43.5 44s18 39.5 22 63.5s6 49 6 75v233h86
v-500h-83v72c-19.333 -28 -41.333 -49 -66 -63s-56 -21 -94 -21z" />
    <glyph glyph-name="paragraph" unicode="&#xb6;" horiz-adv-x="506" 
d="M476 700v-834.004h-78v759h-104v-759h-78v462c-26.667 0 -51.334 4.83301 -74.001 14.5s-42.334 22.834 -59.001 39.501s-29.667 36.334 -39 59.001s-14 47 -14 73s4.66699 50.333 14 73s22.333 42.334 39 59.001s36.334 29.834 59.001 39.501s47.334 14.5 74.001 14.5
h260z" />
    <glyph glyph-name="periodcentered" unicode="&#xb7;" horiz-adv-x="357" 
d="M178 425c22 0 40.667 -7.66699 56 -23s23 -34 23 -56s-7.66699 -40.5 -23 -55.5s-34 -22.5 -56 -22.5s-40.5 7.5 -55.5 22.5s-22.5 33.5 -22.5 55.5s7.5 40.667 22.5 56s33.5 23 55.5 23z" />
    <glyph glyph-name="cedilla" unicode="&#xb8;" horiz-adv-x="238" 
d="M132 30c21.333 -22.667 36.001 -42.668 44.001 -60.001s12 -34.333 12 -51c0 -28.667 -8.66699 -50.167 -26 -64.5s-37.666 -21.5 -60.999 -21.5c-7.33301 0 -15.5 0.833008 -24.5 2.5s-17.833 4.16699 -26.5 7.5v58c7.33301 -2 14.166 -3.66699 20.499 -5
s12.166 -2 17.499 -2c9.33301 0 17 2.5 23 7.5s9 13.833 9 26.5c0 12 -4 26.333 -12 43s-22.667 36.334 -44 59.001h68z" />
    <glyph glyph-name="onesuperior" unicode="&#xb9;" horiz-adv-x="310" 
d="M239 820v-420h-75v304l-86 -84l-52 54l148 146h65z" />
    <glyph glyph-name="ordmasculine" unicode="&#xba;" horiz-adv-x="518" 
d="M50 525c0 28 5.5 54.5 16.5 79.5s25.833 46.667 44.5 65s40.667 32.833 66 43.5s52.666 16 81.999 16c28.667 0 55.834 -5.33301 81.501 -16s47.834 -25.167 66.501 -43.5s33.5 -40 44.5 -65s16.5 -51.5 16.5 -79.5s-5.5 -54.5 -16.5 -79.5s-25.833 -46.667 -44.5 -65
s-40.834 -32.833 -66.501 -43.5s-52.834 -16 -81.501 -16c-29.333 0 -56.666 5.33301 -81.999 16s-47.333 25.167 -66 43.5s-33.5 40 -44.5 65s-16.5 51.5 -16.5 79.5zM384 525c0 17.333 -3.16699 33.666 -9.5 48.999s-15 28.666 -26 39.999s-24.167 20.333 -39.5 27
s-32 10 -50 10s-34.667 -3.33301 -50 -10s-28.5 -15.667 -39.5 -27s-19.5 -24.666 -25.5 -39.999s-9 -31.666 -9 -48.999s3 -33.666 9 -48.999s14.5 -28.666 25.5 -39.999s24.167 -20.333 39.5 -27s32 -10 50 -10s34.667 3.33301 50 10s28.5 15.667 39.5 27
s19.667 24.666 26 39.999s9.5 31.666 9.5 48.999z" />
    <glyph glyph-name="guillemotright" unicode="&#xbb;" horiz-adv-x="564" 
d="M339 50l-57 51l143 159l-143 158l57 52l185 -210zM137 50l-57 51l143 159l-143 158l57 52l185 -210z" />
    <glyph glyph-name="onequarter" unicode="&#xbc;" horiz-adv-x="871" 
d="M263 700v-420h-75v304l-86 -84l-52 54l148 146h65zM677 700l50 -40l-523 -660l-50 41zM753 420v-273h68v-75h-68v-72h-76v72h-222v66l235 282h63zM677 287l-115 -140h115v140z" />
    <glyph glyph-name="onehalf" unicode="&#xbd;" horiz-adv-x="839" 
d="M263 700v-420h-75v304l-86 -84l-52 54l148 146h65zM651 700l50 -40l-523 -660l-50 41zM507 329c5.33301 10 12.167 20.499 20.5 31.499s18.5 20.833 30.5 29.5s25.667 15.834 41 21.501s32.666 8.5 51.999 8.5c40.667 0 73.834 -12.333 99.501 -37s38.5 -56.667 38.5 -96
c0 -23.333 -4.5 -44.166 -13.5 -62.499s-20.167 -33.833 -33.5 -46.5l-103 -102h150v-76h-270v62l165 162c8.66699 8 15.667 17 21 27s8 20.667 8 32c0 18.667 -6 33.5 -18 44.5s-27 16.5 -45 16.5c-20 0 -37.333 -6.33301 -52 -19s-26 -27.334 -34 -44.001z" />
    <glyph glyph-name="threequarters" unicode="&#xbe;" horiz-adv-x="864" 
d="M695 700l50 -40l-523 -660l-50 41zM746 420v-273h68v-75h-68v-72h-76v72h-222v66l235 282h63zM184 700c42 0 75.3311 -11.002 99.998 -33.002s37 -50 37 -84c0 -24 -5.66699 -43.667 -17 -59s-24 -26.666 -38 -33.999c15.333 -7.33301 28.333 -18.666 39 -33.999
s16 -35 16 -59c0 -36 -12.167 -64.5 -36.5 -85.5s-57.5 -31.5 -99.5 -31.5c-33.333 0 -61.666 7.5 -84.999 22.5s-40 33.167 -50 54.5l55 55c7.33301 -18 18.333 -31.833 33 -41.5s30.667 -14.5 48 -14.5s31.5 4.33301 42.5 13s16.5 20.667 16.5 36
c0 14.667 -5.16699 26.167 -15.5 34.5s-24.166 12.833 -41.499 13.5h-30v75h30c17.333 0.666992 31.166 5.16699 41.499 13.5s15.5 19.833 15.5 34.5c0 15.333 -5.5 27.166 -16.5 35.499s-25.167 12.5 -42.5 12.5s-33.166 -4.83301 -47.499 -14.5s-25.5 -23.167 -33.5 -40.5
l-55 56c10.667 20.667 27.667 38.334 51 53.001s51 22 83 22zM669.998 286.998l-115 -140h115v140z" />
    <glyph glyph-name="questiondown" unicode="&#xbf;" horiz-adv-x="551" 
d="M282 343c-22 0 -40.667 7.66699 -56 23s-23 34 -23 56s7.66699 40.5 23 55.5s34 22.5 56 22.5s40.5 -7.5 55.5 -22.5s22.5 -33.5 22.5 -55.5s-7.5 -40.667 -22.5 -56s-33.5 -23 -55.5 -23zM501 32c0 -33.333 -4.8291 -64.165 -14.4961 -92.498
s-23.834 -52.833 -42.501 -73.5s-41.5 -36.834 -68.5 -48.501s-57.833 -17.5 -92.5 -17.5c-30.667 0 -58.5 4.66699 -83.5 14s-46.333 22.5 -64 39.5s-31.334 37.167 -41.001 60.5s-14.5 49.333 -14.5 78c0 20.667 2.5 39.334 7.5 56.001s12 32 21 46s19.333 27.167 31 39.5
s24.167 24.5 37.5 36.5l24.5 23.5c7.66699 7.66699 14.167 15.667 19.5 24s9.5 17.333 12.5 27s4.5 20.834 4.5 33.501v25h90v-25c0 -22.667 -3 -42.834 -9 -60.501s-13.667 -33.667 -23 -48s-19.833 -27.333 -31.5 -39s-23.167 -22.5 -34.5 -32.5
c-14 -12 -27.5 -25.833 -40.5 -41.5s-19.5 -36.167 -19.5 -61.5c0 -14 2.33301 -27.333 7 -40s11.667 -23.834 21 -33.501s21.166 -17.334 35.499 -23.001s31.166 -8.5 50.499 -8.5c40 0 71.5 12.5 94.5 37.5s34.5 59.833 34.5 104.5h88z" />
    <glyph glyph-name="Agrave" unicode="&#xc0;" horiz-adv-x="766" 
d="M291 907l211 -136l-39 -60l-213 133zM208 213h350l-175 378zM600 123h-434l-57 -123h-99l326 700h94l326 -700h-99z" />
    <glyph glyph-name="Aacute" unicode="&#xc1;" horiz-adv-x="766" 
d="M484 907l41 -63l-213 -133l-39 60zM208 213h350l-175 378zM600 123h-434l-57 -123h-99l326 700h94l326 -700h-99z" />
    <glyph glyph-name="Acircumflex" unicode="&#xc2;" horiz-adv-x="766" 
d="M383 918l176 -151l-47 -52l-129 112l-129 -112l-47 52zM208 213h350l-175 378zM600 123h-434l-57 -123h-99l326 700h94l326 -700h-99z" />
    <glyph glyph-name="Atilde" unicode="&#xc3;" horiz-adv-x="766" 
d="M442 737c-12 0 -23.5 2.5 -34.5 7.5s-21.333 10.333 -31 16l-27 16c-8.33301 5 -16.166 7.5 -23.499 7.5c-9.33301 0 -18.666 -4 -27.999 -12s-18.666 -17 -27.999 -27l-48 46c6.66699 8 14.167 16.167 22.5 24.5s17 15.666 26 21.999s18.333 11.666 28 15.999
s19.5 6.5 29.5 6.5c12 0 23.5 -2.5 34.5 -7.5s21.333 -10.333 31 -16l27 -16c8.33301 -5 16.166 -7.5 23.499 -7.5c9.33301 0 18.666 4 27.999 12s18.666 17 27.999 27l48 -46c-6.66699 -8 -14.167 -16.167 -22.5 -24.5s-17 -15.666 -26 -21.999
s-18.333 -11.666 -28 -15.999s-19.5 -6.5 -29.5 -6.5zM208 213h350l-175 378zM600 123h-434l-57 -123h-99l326 700h94l326 -700h-99z" />
    <glyph glyph-name="Adieresis" unicode="&#xc4;" horiz-adv-x="766" 
d="M214 801c0 19.333 6.5 35.5 19.5 48.5s29.167 19.5 48.5 19.5s35.5 -6.5 48.5 -19.5s19.5 -29.167 19.5 -48.5s-6.5 -35.5 -19.5 -48.5s-29.167 -19.5 -48.5 -19.5s-35.5 6.5 -48.5 19.5s-19.5 29.167 -19.5 48.5zM416 801c0 19.333 6.5 35.5 19.5 48.5
s29.167 19.5 48.5 19.5s35.5 -6.5 48.5 -19.5s19.5 -29.167 19.5 -48.5s-6.5 -35.5 -19.5 -48.5s-29.167 -19.5 -48.5 -19.5s-35.5 6.5 -48.5 19.5s-19.5 29.167 -19.5 48.5zM208 213h350l-175 378zM600 123h-434l-57 -123h-99l326 700h94l326 -700h-99z" />
    <glyph glyph-name="Aring" unicode="&#xc5;" horiz-adv-x="766" 
d="M436 755c0 16 -4.83301 29.167 -14.5 39.5s-22.5 15.5 -38.5 15.5s-28.833 -5.16699 -38.5 -15.5s-14.5 -23.5 -14.5 -39.5s4.83301 -29.167 14.5 -39.5s22.5 -15.5 38.5 -15.5s28.833 5.16699 38.5 15.5s14.5 23.5 14.5 39.5zM208 213h350l-175 378zM600 123h-434
l-57 -123h-99l309 664c-14 9.33301 -25.167 21.833 -33.5 37.5s-12.5 33.5 -12.5 53.5c0 32 10.333 58.5 31 79.5s47 31.5 79 31.5s58.333 -10.5 79 -31.5s31 -47.5 31 -79.5c0 -20 -4.16699 -37.833 -12.5 -53.5s-19.5 -28.167 -33.5 -37.5l309 -664h-99z" />
    <glyph glyph-name="AE" unicode="&#xc6;" horiz-adv-x="982" 
d="M497 123h-308l-78 -123h-106l443 700h49v-88l-252 -399h252v487h430v-90h-340v-215h340v-90h-340v-215h340v-90h-430v123z" />
    <glyph glyph-name="Ccedilla" unicode="&#xc7;" horiz-adv-x="659" 
d="M382 -167c-7.33301 0 -15.499 0.833984 -24.499 2.50098s-17.833 4.16699 -26.5 7.5v58c7.33301 -2 14.166 -3.66699 20.499 -5s12.166 -2 17.499 -2c9.33301 0 17 2.5 23 7.5s9 13.833 9 26.5c0 9.33301 -2.33301 20 -7 32s-12.667 25.667 -24 41
c-44.667 2.66699 -86.5 13.5 -125.5 32.5s-72.833 44 -101.5 75s-51.334 67 -68.001 108s-25 85.5 -25 133.5c0 50 9 96.333 27 139s42.5 79.667 73.5 111s67.667 55.833 110 73.5s88.166 26.5 137.499 26.5c50 0 95.333 -9 136 -27s77.334 -42 110.001 -72l-41 -85
c-25.333 26.667 -55.166 49 -89.499 67s-74.166 27 -119.499 27c-36 0 -69.5 -6.33301 -100.5 -19s-57.833 -30.334 -80.5 -53.001s-40.5 -50 -53.5 -82s-19.5 -67.333 -19.5 -106s6.5 -74 19.5 -106s30.833 -59.333 53.5 -82s49.5 -40.334 80.5 -53.001s64.5 -19 100.5 -19
c21.333 0 42.166 2 62.499 6s42.5 11.667 66.5 23l16 -90c-37.333 -13.333 -71.333 -22 -102 -26c12 -16 20.333 -30.667 25 -44s7 -26.666 7 -39.999c0 -28.667 -8.66699 -50.167 -26 -64.5s-37.666 -21.5 -60.999 -21.5z" />
    <glyph glyph-name="Egrave" unicode="&#xc8;" horiz-adv-x="565" 
d="M202 907l211 -136l-39 -60l-213 133zM510 700v-90h-340v-215h340v-90h-340v-215h340v-90h-430v700h430z" />
    <glyph glyph-name="Eacute" unicode="&#xc9;" horiz-adv-x="565" 
d="M395 907l41 -63l-213 -133l-39 60zM510 700v-90h-340v-215h340v-90h-340v-215h340v-90h-430v700h430z" />
    <glyph glyph-name="Ecircumflex" unicode="&#xca;" horiz-adv-x="565" 
d="M294 918l176 -151l-47 -52l-129 112l-129 -112l-47 52zM510 700v-90h-340v-215h340v-90h-340v-215h340v-90h-430v700h430z" />
    <glyph glyph-name="Edieresis" unicode="&#xcb;" horiz-adv-x="565" 
d="M125 801c0 19.333 6.5 35.5 19.5 48.5s29.167 19.5 48.5 19.5s35.5 -6.5 48.5 -19.5s19.5 -29.167 19.5 -48.5s-6.5 -35.5 -19.5 -48.5s-29.167 -19.5 -48.5 -19.5s-35.5 6.5 -48.5 19.5s-19.5 29.167 -19.5 48.5zM327 801c0 19.333 6.5 35.5 19.5 48.5
s29.167 19.5 48.5 19.5s35.5 -6.5 48.5 -19.5s19.5 -29.167 19.5 -48.5s-6.5 -35.5 -19.5 -48.5s-29.167 -19.5 -48.5 -19.5s-35.5 6.5 -48.5 19.5s-19.5 29.167 -19.5 48.5zM510 700v-90h-340v-215h340v-90h-340v-215h340v-90h-430v700h430z" />
    <glyph glyph-name="Igrave" unicode="&#xcc;" horiz-adv-x="250" 
d="M33 907l211 -136l-39 -60l-213 133zM170 700v-700h-90v700h90z" />
    <glyph glyph-name="Iacute" unicode="&#xcd;" horiz-adv-x="250" 
d="M226 907l41 -63l-213 -133l-39 60zM170 700v-700h-90v700h90z" />
    <glyph glyph-name="Icircumflex" unicode="&#xce;" horiz-adv-x="250" 
d="M125 918l176 -151l-47 -52l-129 112l-129 -112l-47 52zM170 700v-700h-90v700h90z" />
    <glyph glyph-name="Idieresis" unicode="&#xcf;" horiz-adv-x="250" 
d="M-44 801c0 19.333 6.5 35.5 19.5 48.5s29.167 19.5 48.5 19.5s35.5 -6.5 48.5 -19.5s19.5 -29.167 19.5 -48.5s-6.5 -35.5 -19.5 -48.5s-29.167 -19.5 -48.5 -19.5s-35.5 6.5 -48.5 19.5s-19.5 29.167 -19.5 48.5zM158 801c0 19.333 6.5 35.5 19.5 48.5
s29.167 19.5 48.5 19.5s35.5 -6.5 48.5 -19.5s19.5 -29.167 19.5 -48.5s-6.5 -35.5 -19.5 -48.5s-29.167 -19.5 -48.5 -19.5s-35.5 6.5 -48.5 19.5s-19.5 29.167 -19.5 48.5zM170 700v-700h-90v700h90z" />
    <glyph glyph-name="Eth" unicode="&#xd0;" horiz-adv-x="719" 
d="M80 0v310.002h-80v90h80v300h240c49.333 0 95.333 -8.83301 138 -26.5s79.667 -42 111 -73s55.833 -67.833 73.5 -110.5s26.5 -89.334 26.5 -140.001s-8.83301 -97.334 -26.5 -140.001s-42.167 -79.5 -73.5 -110.5s-68.333 -55.333 -111 -73s-88.667 -26.5 -138 -26.5
h-240zM320 90.002c37.333 0 71.833 6.33301 103.5 19s59 30.5 82 53.5s41 50.5 54 82.5s19.5 67 19.5 105s-6.5 72.833 -19.5 104.5s-31 59 -54 82s-50.333 41 -82 54s-66.167 19.5 -103.5 19.5h-150v-210h170v-90h-170v-220h150z" />
    <glyph glyph-name="Ntilde" unicode="&#xd1;" horiz-adv-x="767" 
d="M448 737c-12 0 -23.5 2.5 -34.5 7.5s-21.333 10.333 -31 16l-27 16c-8.33301 5 -16.166 7.5 -23.499 7.5c-9.33301 0 -18.666 -4 -27.999 -12s-18.666 -17 -27.999 -27l-48 46c6.66699 8 14.167 16.167 22.5 24.5s17 15.666 26 21.999s18.333 11.666 28 15.999
s19.5 6.5 29.5 6.5c12 0 23.5 -2.5 34.5 -7.5s21.333 -10.333 31 -16l27 -16c8.33301 -5 16.166 -7.5 23.499 -7.5c9.33301 0 18.666 4 27.999 12s18.666 17 27.999 27l48 -46c-6.66699 -8 -14.167 -16.167 -22.5 -24.5s-17 -15.666 -26 -21.999
s-18.333 -11.666 -28 -15.999s-19.5 -6.5 -29.5 -6.5zM697 700v-700h-90l-447 555v-555h-90v700h90l447 -556v556h90z" />
    <glyph glyph-name="Ograve" unicode="&#xd2;" horiz-adv-x="800" 
d="M306 907l211 -136l-39 -60l-213 133zM50 350c0 50 8.83301 96.333 26.5 139s42.167 79.667 73.5 111s68.333 55.833 111 73.5s89 26.5 139 26.5s96.5 -8.83301 139.5 -26.5s80 -42.167 111 -73.5s55.333 -68.333 73 -111s26.5 -89 26.5 -139s-8.83301 -96.333 -26.5 -139
s-42 -79.667 -73 -111s-68 -55.833 -111 -73.5s-89.5 -26.5 -139.5 -26.5s-96.333 8.83301 -139 26.5s-79.667 42.167 -111 73.5s-55.833 68.333 -73.5 111s-26.5 89 -26.5 139zM660 350c0 37.333 -6.5 72 -19.5 104s-31 59.5 -54 82.5s-50.5 41 -82.5 54
s-66.667 19.5 -104 19.5s-72 -6.5 -104 -19.5s-59.5 -31 -82.5 -54s-41 -50.5 -54 -82.5s-19.5 -66.667 -19.5 -104s6.5 -72 19.5 -104s31 -59.5 54 -82.5s50.5 -41 82.5 -54s66.667 -19.5 104 -19.5s72 6.5 104 19.5s59.5 31 82.5 54s41 50.5 54 82.5s19.5 66.667 19.5 104
z" />
    <glyph glyph-name="Oacute" unicode="&#xd3;" horiz-adv-x="800" 
d="M499 907l41 -63l-213 -133l-39 60zM50 350c0 50 8.83301 96.333 26.5 139s42.167 79.667 73.5 111s68.333 55.833 111 73.5s89 26.5 139 26.5s96.5 -8.83301 139.5 -26.5s80 -42.167 111 -73.5s55.333 -68.333 73 -111s26.5 -89 26.5 -139s-8.83301 -96.333 -26.5 -139
s-42 -79.667 -73 -111s-68 -55.833 -111 -73.5s-89.5 -26.5 -139.5 -26.5s-96.333 8.83301 -139 26.5s-79.667 42.167 -111 73.5s-55.833 68.333 -73.5 111s-26.5 89 -26.5 139zM660 350c0 37.333 -6.5 72 -19.5 104s-31 59.5 -54 82.5s-50.5 41 -82.5 54
s-66.667 19.5 -104 19.5s-72 -6.5 -104 -19.5s-59.5 -31 -82.5 -54s-41 -50.5 -54 -82.5s-19.5 -66.667 -19.5 -104s6.5 -72 19.5 -104s31 -59.5 54 -82.5s50.5 -41 82.5 -54s66.667 -19.5 104 -19.5s72 6.5 104 19.5s59.5 31 82.5 54s41 50.5 54 82.5s19.5 66.667 19.5 104
z" />
    <glyph glyph-name="Ocircumflex" unicode="&#xd4;" horiz-adv-x="800" 
d="M398 918l176 -151l-47 -52l-129 112l-129 -112l-47 52zM50 350c0 50 8.83301 96.333 26.5 139s42.167 79.667 73.5 111s68.333 55.833 111 73.5s89 26.5 139 26.5s96.5 -8.83301 139.5 -26.5s80 -42.167 111 -73.5s55.333 -68.333 73 -111s26.5 -89 26.5 -139
s-8.83301 -96.333 -26.5 -139s-42 -79.667 -73 -111s-68 -55.833 -111 -73.5s-89.5 -26.5 -139.5 -26.5s-96.333 8.83301 -139 26.5s-79.667 42.167 -111 73.5s-55.833 68.333 -73.5 111s-26.5 89 -26.5 139zM660 350c0 37.333 -6.5 72 -19.5 104s-31 59.5 -54 82.5
s-50.5 41 -82.5 54s-66.667 19.5 -104 19.5s-72 -6.5 -104 -19.5s-59.5 -31 -82.5 -54s-41 -50.5 -54 -82.5s-19.5 -66.667 -19.5 -104s6.5 -72 19.5 -104s31 -59.5 54 -82.5s50.5 -41 82.5 -54s66.667 -19.5 104 -19.5s72 6.5 104 19.5s59.5 31 82.5 54s41 50.5 54 82.5
s19.5 66.667 19.5 104z" />
    <glyph glyph-name="Otilde" unicode="&#xd5;" horiz-adv-x="800" 
d="M457 737c-12 0 -23.5 2.5 -34.5 7.5s-21.333 10.333 -31 16l-27 16c-8.33301 5 -16.166 7.5 -23.499 7.5c-9.33301 0 -18.666 -4 -27.999 -12s-18.666 -17 -27.999 -27l-48 46c6.66699 8 14.167 16.167 22.5 24.5s17 15.666 26 21.999s18.333 11.666 28 15.999
s19.5 6.5 29.5 6.5c12 0 23.5 -2.5 34.5 -7.5s21.333 -10.333 31 -16l27 -16c8.33301 -5 16.166 -7.5 23.499 -7.5c9.33301 0 18.666 4 27.999 12s18.666 17 27.999 27l48 -46c-6.66699 -8 -14.167 -16.167 -22.5 -24.5s-17 -15.666 -26 -21.999
s-18.333 -11.666 -28 -15.999s-19.5 -6.5 -29.5 -6.5zM50 350c0 50 8.83301 96.333 26.5 139s42.167 79.667 73.5 111s68.333 55.833 111 73.5s89 26.5 139 26.5s96.5 -8.83301 139.5 -26.5s80 -42.167 111 -73.5s55.333 -68.333 73 -111s26.5 -89 26.5 -139
s-8.83301 -96.333 -26.5 -139s-42 -79.667 -73 -111s-68 -55.833 -111 -73.5s-89.5 -26.5 -139.5 -26.5s-96.333 8.83301 -139 26.5s-79.667 42.167 -111 73.5s-55.833 68.333 -73.5 111s-26.5 89 -26.5 139zM660 350c0 37.333 -6.5 72 -19.5 104s-31 59.5 -54 82.5
s-50.5 41 -82.5 54s-66.667 19.5 -104 19.5s-72 -6.5 -104 -19.5s-59.5 -31 -82.5 -54s-41 -50.5 -54 -82.5s-19.5 -66.667 -19.5 -104s6.5 -72 19.5 -104s31 -59.5 54 -82.5s50.5 -41 82.5 -54s66.667 -19.5 104 -19.5s72 6.5 104 19.5s59.5 31 82.5 54s41 50.5 54 82.5
s19.5 66.667 19.5 104z" />
    <glyph glyph-name="Odieresis" unicode="&#xd6;" horiz-adv-x="800" 
d="M229 801c0 19.333 6.5 35.5 19.5 48.5s29.167 19.5 48.5 19.5s35.5 -6.5 48.5 -19.5s19.5 -29.167 19.5 -48.5s-6.5 -35.5 -19.5 -48.5s-29.167 -19.5 -48.5 -19.5s-35.5 6.5 -48.5 19.5s-19.5 29.167 -19.5 48.5zM431 801c0 19.333 6.5 35.5 19.5 48.5
s29.167 19.5 48.5 19.5s35.5 -6.5 48.5 -19.5s19.5 -29.167 19.5 -48.5s-6.5 -35.5 -19.5 -48.5s-29.167 -19.5 -48.5 -19.5s-35.5 6.5 -48.5 19.5s-19.5 29.167 -19.5 48.5zM50 350c0 50 8.83301 96.333 26.5 139s42.167 79.667 73.5 111s68.333 55.833 111 73.5
s89 26.5 139 26.5s96.5 -8.83301 139.5 -26.5s80 -42.167 111 -73.5s55.333 -68.333 73 -111s26.5 -89 26.5 -139s-8.83301 -96.333 -26.5 -139s-42 -79.667 -73 -111s-68 -55.833 -111 -73.5s-89.5 -26.5 -139.5 -26.5s-96.333 8.83301 -139 26.5s-79.667 42.167 -111 73.5
s-55.833 68.333 -73.5 111s-26.5 89 -26.5 139zM660 350c0 37.333 -6.5 72 -19.5 104s-31 59.5 -54 82.5s-50.5 41 -82.5 54s-66.667 19.5 -104 19.5s-72 -6.5 -104 -19.5s-59.5 -31 -82.5 -54s-41 -50.5 -54 -82.5s-19.5 -66.667 -19.5 -104s6.5 -72 19.5 -104
s31 -59.5 54 -82.5s50.5 -41 82.5 -54s66.667 -19.5 104 -19.5s72 6.5 104 19.5s59.5 31 82.5 54s41 50.5 54 82.5s19.5 66.667 19.5 104z" />
    <glyph glyph-name="multiply" unicode="&#xd7;" 
d="M496 555l60 -61l-176 -177l176 -176l-60 -61l-177 177l-176 -176l-60 60l176 176l-176 177l60 60l176 -176z" />
    <glyph glyph-name="Oslash" unicode="&#xd8;" horiz-adv-x="800" 
d="M140 350c0 -35.333 5.66797 -67.832 17.001 -97.499s27 -55.834 47 -78.501l337 398c-20 12 -41.833 21.333 -65.5 28s-48.834 10 -75.501 10c-37.333 0 -72 -6.5 -104 -19.5s-59.5 -31 -82.5 -54s-41 -50.5 -54 -82.5s-19.5 -66.667 -19.5 -104zM400.001 90.001
c37.333 0 72.001 6.5 104.001 19.5s59.5 31 82.5 54s41 50.5 54 82.5s19.5 66.667 19.5 104c0 35.333 -5.66699 67.833 -17 97.5s-27.333 56.167 -48 79.5l-337 -398c41.333 -26 88.666 -39 141.999 -39zM400.002 0.000976562c-38 0 -74 5.16699 -108 15.5
s-65 25.166 -93 44.499l-64 -76l-54 45l64 76c-30 31.333 -53.333 67.833 -70 109.5s-25 86.834 -25 135.501c0 50 8.83301 96.333 26.5 139s42.167 79.667 73.5 111s68.333 55.833 111 73.5s89 26.5 139 26.5c38 0 73.833 -5 107.5 -15s64.5 -24.667 92.5 -44l64 75l53 -46
l-63 -74c30 -31.333 53.5 -67.833 70.5 -109.5s25.5 -87.167 25.5 -136.5c0 -50 -8.83301 -96.333 -26.5 -139s-42 -79.667 -73 -111s-68 -55.833 -111 -73.5s-89.5 -26.5 -139.5 -26.5z" />
    <glyph glyph-name="Ugrave" unicode="&#xd9;" horiz-adv-x="780" 
d="M298 907l211 -136l-39 -60l-213 133zM710 700l-0.00195312 -380c0 -45.333 -8.16699 -87.5 -24.5 -126.5s-38.833 -72.833 -67.5 -101.5s-62.5 -51.167 -101.5 -67.5s-81.167 -24.5 -126.5 -24.5s-87.5 8.16699 -126.5 24.5s-72.833 38.833 -101.5 67.5
s-51.167 62.5 -67.5 101.5s-24.5 81.167 -24.5 126.5v380h90v-380c0 -32.667 5.83301 -63 17.5 -91s27.834 -52.333 48.501 -73s45 -36.834 73 -48.501s58.333 -17.5 91 -17.5s63 5.83301 91 17.5s52.333 27.834 73 48.501s36.834 45 48.501 73s17.5 58.333 17.5 91v380h90z
" />
    <glyph glyph-name="Uacute" unicode="&#xda;" horiz-adv-x="780" 
d="M491 907l41 -63l-213 -133l-39 60zM710 700l-0.00195312 -380c0 -45.333 -8.16699 -87.5 -24.5 -126.5s-38.833 -72.833 -67.5 -101.5s-62.5 -51.167 -101.5 -67.5s-81.167 -24.5 -126.5 -24.5s-87.5 8.16699 -126.5 24.5s-72.833 38.833 -101.5 67.5
s-51.167 62.5 -67.5 101.5s-24.5 81.167 -24.5 126.5v380h90v-380c0 -32.667 5.83301 -63 17.5 -91s27.834 -52.333 48.501 -73s45 -36.834 73 -48.501s58.333 -17.5 91 -17.5s63 5.83301 91 17.5s52.333 27.834 73 48.501s36.834 45 48.501 73s17.5 58.333 17.5 91v380h90z
" />
    <glyph glyph-name="Ucircumflex" unicode="&#xdb;" horiz-adv-x="780" 
d="M390 918l176 -151l-47 -52l-129 112l-129 -112l-47 52zM710 700l-0.00195312 -380c0 -45.333 -8.16699 -87.5 -24.5 -126.5s-38.833 -72.833 -67.5 -101.5s-62.5 -51.167 -101.5 -67.5s-81.167 -24.5 -126.5 -24.5s-87.5 8.16699 -126.5 24.5s-72.833 38.833 -101.5 67.5
s-51.167 62.5 -67.5 101.5s-24.5 81.167 -24.5 126.5v380h90v-380c0 -32.667 5.83301 -63 17.5 -91s27.834 -52.333 48.501 -73s45 -36.834 73 -48.501s58.333 -17.5 91 -17.5s63 5.83301 91 17.5s52.333 27.834 73 48.501s36.834 45 48.501 73s17.5 58.333 17.5 91v380h90z
" />
    <glyph glyph-name="Udieresis" unicode="&#xdc;" horiz-adv-x="780" 
d="M221 801c0 19.333 6.5 35.5 19.5 48.5s29.167 19.5 48.5 19.5s35.5 -6.5 48.5 -19.5s19.5 -29.167 19.5 -48.5s-6.5 -35.5 -19.5 -48.5s-29.167 -19.5 -48.5 -19.5s-35.5 6.5 -48.5 19.5s-19.5 29.167 -19.5 48.5zM423 801c0 19.333 6.5 35.5 19.5 48.5
s29.167 19.5 48.5 19.5s35.5 -6.5 48.5 -19.5s19.5 -29.167 19.5 -48.5s-6.5 -35.5 -19.5 -48.5s-29.167 -19.5 -48.5 -19.5s-35.5 6.5 -48.5 19.5s-19.5 29.167 -19.5 48.5zM710 700l-0.00195312 -380c0 -45.333 -8.16699 -87.5 -24.5 -126.5s-38.833 -72.833 -67.5 -101.5
s-62.5 -51.167 -101.5 -67.5s-81.167 -24.5 -126.5 -24.5s-87.5 8.16699 -126.5 24.5s-72.833 38.833 -101.5 67.5s-51.167 62.5 -67.5 101.5s-24.5 81.167 -24.5 126.5v380h90v-380c0 -32.667 5.83301 -63 17.5 -91s27.834 -52.333 48.501 -73s45 -36.834 73 -48.501
s58.333 -17.5 91 -17.5s63 5.83301 91 17.5s52.333 27.834 73 48.501s36.834 45 48.501 73s17.5 58.333 17.5 91v380h90z" />
    <glyph glyph-name="Yacute" unicode="&#xdd;" horiz-adv-x="662" 
d="M432 907l41 -63l-213 -133l-39 60zM286 0v295l-281 405h110l216 -312l216 312h110l-281 -405v-295h-90z" />
    <glyph glyph-name="Thorn" unicode="&#xde;" horiz-adv-x="594" 
d="M170 486v-272h133c18.667 0 36.5 3.33301 53.5 10s31.833 16 44.5 28s22.667 26.333 30 43s11 35 11 55s-3.66699 38.333 -11 55s-17.333 31 -30 43s-27.5 21.333 -44.5 28s-34.833 10 -53.5 10h-133zM170 124v-123.998h-90v700h90v-124h133
c33.333 0 64.166 -5.66699 92.499 -17s52.666 -27 72.999 -47s36.333 -43.833 48 -71.5s17.5 -57.834 17.5 -90.501s-5.83301 -62.834 -17.5 -90.501s-27.667 -51.5 -48 -71.5s-44.666 -35.667 -72.999 -47s-59.166 -17 -92.499 -17h-133z" />
    <glyph glyph-name="germandbls" unicode="&#xdf;" horiz-adv-x="573" 
d="M70 482c0 33.333 4.16797 64.168 12.501 92.501s21.333 52.666 39 72.999s39.834 36.166 66.501 47.499s58.667 17 96 17c34.667 0 64.834 -4.66699 90.501 -14s47 -22 64 -38s29.5 -34.667 37.5 -56s12 -44 12 -68c0 -16 -2.33301 -31.833 -7 -47.5s-11.5 -30 -20.5 -43
s-20 -24.333 -33 -34s-27.5 -16.5 -43.5 -20.5c22 -2.66699 42.667 -8.83398 62 -18.501s36.166 -22.5 50.499 -38.5s25.666 -35 33.999 -57s12.5 -46.333 12.5 -73c0 -34 -5.66699 -64.167 -17 -90.5s-27.333 -48.333 -48 -66s-45.5 -31.167 -74.5 -40.5
s-61.167 -14 -96.5 -14c-20 0 -41 1 -63 3v79c5.33301 -0.666992 11 -1 17 -1c5.33301 -0.666992 11 -1 17 -1h20c22.667 0 43.667 2.66699 63 8s36.166 13.333 50.499 24s25.5 24.167 33.5 40.5s12 35.833 12 58.5c0 23.333 -4.5 43.666 -13.5 60.999
s-21.333 31.833 -37 43.5s-34.167 20.334 -55.5 26.001s-44 8.5 -68 8.5h-33v80h33c38.667 0 68.167 10 88.5 30s30.5 47.667 30.5 83c0 28.667 -10.833 51.834 -32.5 69.501s-51.5 26.5 -89.5 26.5s-68.167 -12.667 -90.5 -38s-33.5 -62.666 -33.5 -111.999v-557h-86v557v0
z" />
    <glyph glyph-name="agrave" unicode="&#xe0;" horiz-adv-x="515" 
d="M178 767l211 -136l-39 -60l-213 133zM379 239l-163.001 -20.001c-28 -3.33301 -48.5 -12 -61.5 -26s-19.5 -30.333 -19.5 -49c0 -21.333 7.83301 -38.833 23.5 -52.5s38.834 -20.5 69.501 -20.5c24 0 45.333 3.83301 64 11.5s34.5 17.834 47.5 30.501
s22.833 26.667 29.5 42s10 31 10 47v37zM62.999 385.999c9.33301 37.333 30.001 67.665 62.001 90.998s78.333 35 139 35c69.333 0 120.166 -16.167 152.499 -48.5s48.5 -78.5 48.5 -138.5v-325h-86v71c-17.333 -25.333 -40 -45.166 -68 -59.499s-60 -21.5 -96 -21.5
c-27.333 0 -51.5 4 -72.5 12s-38.667 18.833 -53 32.5s-25.333 30 -33 49s-11.5 39.5 -11.5 61.5c0 23.333 4 44 12 62s19.333 33.5 34 46.5s31.667 23.333 51 31s40.666 12.5 63.999 14.5l141 14c21.333 2 32 11 32 27v13c0 24.667 -9.16699 44.5 -27.5 59.5
s-46.166 22.5 -83.499 22.5c-34.667 0 -63.5 -7.16699 -86.5 -21.5s-37.167 -37.166 -42.5 -68.499z" />
    <glyph glyph-name="aacute" unicode="&#xe1;" horiz-adv-x="515" 
d="M368 767l41 -63l-213 -133l-39 60zM379 239l-163.001 -20.001c-28 -3.33301 -48.5 -12 -61.5 -26s-19.5 -30.333 -19.5 -49c0 -21.333 7.83301 -38.833 23.5 -52.5s38.834 -20.5 69.501 -20.5c24 0 45.333 3.83301 64 11.5s34.5 17.834 47.5 30.501
s22.833 26.667 29.5 42s10 31 10 47v37zM62.999 385.999c9.33301 37.333 30.001 67.665 62.001 90.998s78.333 35 139 35c69.333 0 120.166 -16.167 152.499 -48.5s48.5 -78.5 48.5 -138.5v-325h-86v71c-17.333 -25.333 -40 -45.166 -68 -59.499s-60 -21.5 -96 -21.5
c-27.333 0 -51.5 4 -72.5 12s-38.667 18.833 -53 32.5s-25.333 30 -33 49s-11.5 39.5 -11.5 61.5c0 23.333 4 44 12 62s19.333 33.5 34 46.5s31.667 23.333 51 31s40.666 12.5 63.999 14.5l141 14c21.333 2 32 11 32 27v13c0 24.667 -9.16699 44.5 -27.5 59.5
s-46.166 22.5 -83.499 22.5c-34.667 0 -63.5 -7.16699 -86.5 -21.5s-37.167 -37.166 -42.5 -68.499z" />
    <glyph glyph-name="acircumflex" unicode="&#xe2;" horiz-adv-x="515" 
d="M273 768l176 -151l-47 -52l-129 112l-129 -112l-47 52zM379 239l-163.001 -20.001c-28 -3.33301 -48.5 -12 -61.5 -26s-19.5 -30.333 -19.5 -49c0 -21.333 7.83301 -38.833 23.5 -52.5s38.834 -20.5 69.501 -20.5c24 0 45.333 3.83301 64 11.5s34.5 17.834 47.5 30.501
s22.833 26.667 29.5 42s10 31 10 47v37zM62.999 385.999c9.33301 37.333 30.001 67.665 62.001 90.998s78.333 35 139 35c69.333 0 120.166 -16.167 152.499 -48.5s48.5 -78.5 48.5 -138.5v-325h-86v71c-17.333 -25.333 -40 -45.166 -68 -59.499s-60 -21.5 -96 -21.5
c-27.333 0 -51.5 4 -72.5 12s-38.667 18.833 -53 32.5s-25.333 30 -33 49s-11.5 39.5 -11.5 61.5c0 23.333 4 44 12 62s19.333 33.5 34 46.5s31.667 23.333 51 31s40.666 12.5 63.999 14.5l141 14c21.333 2 32 11 32 27v13c0 24.667 -9.16699 44.5 -27.5 59.5
s-46.166 22.5 -83.499 22.5c-34.667 0 -63.5 -7.16699 -86.5 -21.5s-37.167 -37.166 -42.5 -68.499z" />
    <glyph glyph-name="atilde" unicode="&#xe3;" horiz-adv-x="515" 
d="M330 577c-12 0 -23.5 2.5 -34.5 7.5s-21.333 10.333 -31 16l-27 16c-8.33301 5 -16.166 7.5 -23.499 7.5c-9.33301 0 -18.666 -4 -27.999 -12s-18.666 -17 -27.999 -27l-48 46c6.66699 8 14.167 16.167 22.5 24.5s17 15.666 26 21.999s18.333 11.666 28 15.999
s19.5 6.5 29.5 6.5c12 0 23.5 -2.5 34.5 -7.5s21.333 -10.333 31 -16l27 -16c8.33301 -5 16.166 -7.5 23.499 -7.5c9.33301 0 18.666 4 27.999 12s18.666 17 27.999 27l48 -46c-6.66699 -8 -14.167 -16.167 -22.5 -24.5s-17 -15.666 -26 -21.999
s-18.333 -11.666 -28 -15.999s-19.5 -6.5 -29.5 -6.5zM379 239l-163.001 -20.001c-28 -3.33301 -48.5 -12 -61.5 -26s-19.5 -30.333 -19.5 -49c0 -21.333 7.83301 -38.833 23.5 -52.5s38.834 -20.5 69.501 -20.5c24 0 45.333 3.83301 64 11.5s34.5 17.834 47.5 30.501
s22.833 26.667 29.5 42s10 31 10 47v37zM62.999 385.999c9.33301 37.333 30.001 67.665 62.001 90.998s78.333 35 139 35c69.333 0 120.166 -16.167 152.499 -48.5s48.5 -78.5 48.5 -138.5v-325h-86v71c-17.333 -25.333 -40 -45.166 -68 -59.499s-60 -21.5 -96 -21.5
c-27.333 0 -51.5 4 -72.5 12s-38.667 18.833 -53 32.5s-25.333 30 -33 49s-11.5 39.5 -11.5 61.5c0 23.333 4 44 12 62s19.333 33.5 34 46.5s31.667 23.333 51 31s40.666 12.5 63.999 14.5l141 14c21.333 2 32 11 32 27v13c0 24.667 -9.16699 44.5 -27.5 59.5
s-46.166 22.5 -83.499 22.5c-34.667 0 -63.5 -7.16699 -86.5 -21.5s-37.167 -37.166 -42.5 -68.499z" />
    <glyph glyph-name="adieresis" unicode="&#xe4;" horiz-adv-x="515" 
d="M104 644c0 19.333 6.5 35.5 19.5 48.5s29.167 19.5 48.5 19.5s35.5 -6.5 48.5 -19.5s19.5 -29.167 19.5 -48.5s-6.5 -35.5 -19.5 -48.5s-29.167 -19.5 -48.5 -19.5s-35.5 6.5 -48.5 19.5s-19.5 29.167 -19.5 48.5zM306 644c0 19.333 6.5 35.5 19.5 48.5
s29.167 19.5 48.5 19.5s35.5 -6.5 48.5 -19.5s19.5 -29.167 19.5 -48.5s-6.5 -35.5 -19.5 -48.5s-29.167 -19.5 -48.5 -19.5s-35.5 6.5 -48.5 19.5s-19.5 29.167 -19.5 48.5zM379 239l-163.001 -20.001c-28 -3.33301 -48.5 -12 -61.5 -26s-19.5 -30.333 -19.5 -49
c0 -21.333 7.83301 -38.833 23.5 -52.5s38.834 -20.5 69.501 -20.5c24 0 45.333 3.83301 64 11.5s34.5 17.834 47.5 30.501s22.833 26.667 29.5 42s10 31 10 47v37zM62.999 385.999c9.33301 37.333 30.001 67.665 62.001 90.998s78.333 35 139 35
c69.333 0 120.166 -16.167 152.499 -48.5s48.5 -78.5 48.5 -138.5v-325h-86v71c-17.333 -25.333 -40 -45.166 -68 -59.499s-60 -21.5 -96 -21.5c-27.333 0 -51.5 4 -72.5 12s-38.667 18.833 -53 32.5s-25.333 30 -33 49s-11.5 39.5 -11.5 61.5c0 23.333 4 44 12 62
s19.333 33.5 34 46.5s31.667 23.333 51 31s40.666 12.5 63.999 14.5l141 14c21.333 2 32 11 32 27v13c0 24.667 -9.16699 44.5 -27.5 59.5s-46.166 22.5 -83.499 22.5c-34.667 0 -63.5 -7.16699 -86.5 -21.5s-37.167 -37.166 -42.5 -68.499z" />
    <glyph glyph-name="aring" unicode="&#xe5;" horiz-adv-x="515" 
d="M163 683c0 32 10.333 58.5 31 79.5s47 31.5 79 31.5s58.333 -10.5 79 -31.5s31 -47.5 31 -79.5s-10.333 -58.333 -31 -79s-47 -31 -79 -31s-58.333 10.333 -79 31s-31 47 -31 79zM326 683c0 16 -4.83301 29.167 -14.5 39.5s-22.5 15.5 -38.5 15.5
s-28.833 -5.16699 -38.5 -15.5s-14.5 -23.5 -14.5 -39.5s4.83301 -29.167 14.5 -39.5s22.5 -15.5 38.5 -15.5s28.833 5.16699 38.5 15.5s14.5 23.5 14.5 39.5zM379 239l-163.001 -20.001c-28 -3.33301 -48.5 -12 -61.5 -26s-19.5 -30.333 -19.5 -49
c0 -21.333 7.83301 -38.833 23.5 -52.5s38.834 -20.5 69.501 -20.5c24 0 45.333 3.83301 64 11.5s34.5 17.834 47.5 30.501s22.833 26.667 29.5 42s10 31 10 47v37zM62.999 385.999c9.33301 37.333 30.001 67.665 62.001 90.998s78.333 35 139 35
c69.333 0 120.166 -16.167 152.499 -48.5s48.5 -78.5 48.5 -138.5v-325h-86v71c-17.333 -25.333 -40 -45.166 -68 -59.499s-60 -21.5 -96 -21.5c-27.333 0 -51.5 4 -72.5 12s-38.667 18.833 -53 32.5s-25.333 30 -33 49s-11.5 39.5 -11.5 61.5c0 23.333 4 44 12 62
s19.333 33.5 34 46.5s31.667 23.333 51 31s40.666 12.5 63.999 14.5l141 14c21.333 2 32 11 32 27v13c0 24.667 -9.16699 44.5 -27.5 59.5s-46.166 22.5 -83.499 22.5c-34.667 0 -63.5 -7.16699 -86.5 -21.5s-37.167 -37.166 -42.5 -68.499z" />
    <glyph glyph-name="ae" unicode="&#xe6;" horiz-adv-x="891" 
d="M632 -12c-48.667 0 -90.668 9.66699 -126.001 29s-63 47 -83 83c-22.667 -34 -52.167 -60.833 -88.5 -80.5s-76.166 -29.5 -119.499 -29.5c-27.333 0 -51.5 4 -72.5 12s-38.667 18.833 -53 32.5s-25.333 30 -33 49s-11.5 39.5 -11.5 61.5c0 23.333 4 44 12 62
s19.333 33.5 34 46.5s31.667 23.333 51 31s40.666 12.5 63.999 14.5l141 14c21.333 2 32 11 32 27v13c0 24.667 -9.16699 44.5 -27.5 59.5s-46.166 22.5 -83.499 22.5c-34.667 0 -63.5 -7.16699 -86.5 -21.5s-37.167 -37.166 -42.5 -68.499l-76 41
c9.33301 37.333 30 67.666 62 90.999s77.333 35 136 35c45.333 0 82.5 -7.5 111.5 -22.5s51.167 -37.5 66.5 -67.5c20 28 45.667 50 77 66s68.333 24 111 24c38.667 0 72.834 -6.66699 102.501 -20s54.667 -31.833 75 -55.5s35.666 -51.5 45.999 -83.5
s15.5 -66.333 15.5 -103v-26h-400v-1c1.33301 -25.333 6.66602 -47.666 15.999 -66.999s21.5 -35.5 36.5 -48.5s32.167 -22.833 51.5 -29.5s39.666 -10 60.999 -10c36.667 0 68 8 94 24s47.333 33.667 64 53l45 -67c-10 -11.333 -21.5 -22.333 -34.5 -33
s-27.667 -20.334 -44 -29.001s-34.666 -15.5 -54.999 -20.5s-43.166 -7.5 -68.499 -7.5zM771.999 293c-4 42 -17.833 75.667 -41.5 101s-58.5 38 -104.5 38s-82 -12.667 -108 -38s-42 -59 -48 -101h302zM378.999 239l-162.999 -20.001c-28 -3.33301 -48.5 -12 -61.5 -26
s-19.5 -30.333 -19.5 -49c0 -21.333 7.83301 -38.833 23.5 -52.5s39.167 -20.5 70.5 -20.5c23.333 0 44.166 3.83301 62.499 11.5s34 17.834 47 30.501s23 26.667 30 42s10.5 31 10.5 47v37z" />
    <glyph glyph-name="ccedilla" unicode="&#xe7;" horiz-adv-x="498" 
d="M271 -167c-7.33301 0 -15.499 0.832031 -24.499 2.49902s-17.833 4.16699 -26.5 7.5v58c7.33301 -2 14.166 -3.66699 20.499 -5s12.166 -2 17.499 -2c9.33301 0 17 2.5 23 7.5s9 13.833 9 26.5c0 8 -1.66699 17 -5 27s-9 21.333 -17 34c-36.667 2 -69.667 10 -99 24
s-54.333 32.5 -75 55.5s-36.5 49.833 -47.5 80.5s-16.5 64 -16.5 100c0 37.333 6.16699 72 18.5 104s30 59.833 53 83.5s50.667 42.167 83 55.5s68.5 20 108.5 20c38.667 0 72.834 -6.33301 102.501 -19s56.167 -30.667 79.5 -54l-56 -66c-17.333 16 -36.5 29.333 -57.5 40
s-45.5 16 -73.5 16c-24 0 -46.333 -4.16699 -67 -12.5s-38.5 -20.166 -53.5 -35.499s-26.833 -34 -35.5 -56s-13 -47 -13 -75c0 -27.333 4.33301 -52 13 -74s20.5 -40.833 35.5 -56.5s32.667 -27.667 53 -36s42.5 -12.5 66.5 -12.5c30 0 56.333 5.83301 79 17.5
s42.667 25.5 60 41.5l52 -67c-17.333 -17.333 -37.833 -32.333 -61.5 -45s-51.167 -21.667 -82.5 -27c9.33301 -13.333 15.666 -25.833 18.999 -37.5s5 -23.167 5 -34.5c0 -28.667 -8.66699 -50.167 -26 -64.5s-37.666 -21.5 -60.999 -21.5z" />
    <glyph glyph-name="egrave" unicode="&#xe8;" horiz-adv-x="542" 
d="M191 767l211 -136l-39 -60l-213 133zM30 246c0 36.667 5.83594 71.167 17.5029 103.5s28.167 60.5 49.5 84.5s47.166 43 77.499 57s64.5 21 102.5 21c39.333 0 74 -6.66699 104 -20s55 -31.833 75 -55.5s35.167 -51.5 45.5 -83.5s15.5 -66.333 15.5 -103v-26h-400v-1
c1.33301 -25.333 6.66602 -47.666 15.999 -66.999s21.333 -35.5 36 -48.5s31.667 -22.833 51 -29.5s39.666 -10 60.999 -10c36.667 0 68 7.66699 94 23s47.667 33.333 65 54l45 -67c-10 -11.333 -21.667 -22.333 -35 -33s-28.333 -20.334 -45 -29.001s-35 -15.5 -55 -20.5
s-41.667 -7.5 -65 -7.5c-38 0 -72.5 6 -103.5 18s-57.833 29.167 -80.5 51.5s-40.167 49.5 -52.5 81.5s-18.5 67.667 -18.5 107zM423.003 293c-4 42 -17.833 75.667 -41.5 101s-58.167 38 -103.5 38c-47.333 0 -83.833 -12.667 -109.5 -38s-41.5 -59 -47.5 -101h302z" />
    <glyph glyph-name="eacute" unicode="&#xe9;" horiz-adv-x="542" 
d="M381 767l41 -63l-213 -133l-39 60zM30 246c0 36.667 5.83594 71.167 17.5029 103.5s28.167 60.5 49.5 84.5s47.166 43 77.499 57s64.5 21 102.5 21c39.333 0 74 -6.66699 104 -20s55 -31.833 75 -55.5s35.167 -51.5 45.5 -83.5s15.5 -66.333 15.5 -103v-26h-400v-1
c1.33301 -25.333 6.66602 -47.666 15.999 -66.999s21.333 -35.5 36 -48.5s31.667 -22.833 51 -29.5s39.666 -10 60.999 -10c36.667 0 68 7.66699 94 23s47.667 33.333 65 54l45 -67c-10 -11.333 -21.667 -22.333 -35 -33s-28.333 -20.334 -45 -29.001s-35 -15.5 -55 -20.5
s-41.667 -7.5 -65 -7.5c-38 0 -72.5 6 -103.5 18s-57.833 29.167 -80.5 51.5s-40.167 49.5 -52.5 81.5s-18.5 67.667 -18.5 107zM423.003 293c-4 42 -17.833 75.667 -41.5 101s-58.167 38 -103.5 38c-47.333 0 -83.833 -12.667 -109.5 -38s-41.5 -59 -47.5 -101h302z" />
    <glyph glyph-name="ecircumflex" unicode="&#xea;" horiz-adv-x="542" 
d="M286 768l176 -151l-47 -52l-129 112l-129 -112l-47 52zM30 246c0 36.667 5.83594 71.167 17.5029 103.5s28.167 60.5 49.5 84.5s47.166 43 77.499 57s64.5 21 102.5 21c39.333 0 74 -6.66699 104 -20s55 -31.833 75 -55.5s35.167 -51.5 45.5 -83.5
s15.5 -66.333 15.5 -103v-26h-400v-1c1.33301 -25.333 6.66602 -47.666 15.999 -66.999s21.333 -35.5 36 -48.5s31.667 -22.833 51 -29.5s39.666 -10 60.999 -10c36.667 0 68 7.66699 94 23s47.667 33.333 65 54l45 -67c-10 -11.333 -21.667 -22.333 -35 -33
s-28.333 -20.334 -45 -29.001s-35 -15.5 -55 -20.5s-41.667 -7.5 -65 -7.5c-38 0 -72.5 6 -103.5 18s-57.833 29.167 -80.5 51.5s-40.167 49.5 -52.5 81.5s-18.5 67.667 -18.5 107zM423.003 293c-4 42 -17.833 75.667 -41.5 101s-58.167 38 -103.5 38
c-47.333 0 -83.833 -12.667 -109.5 -38s-41.5 -59 -47.5 -101h302z" />
    <glyph glyph-name="edieresis" unicode="&#xeb;" horiz-adv-x="542" 
d="M117 644c0 19.333 6.5 35.5 19.5 48.5s29.167 19.5 48.5 19.5s35.5 -6.5 48.5 -19.5s19.5 -29.167 19.5 -48.5s-6.5 -35.5 -19.5 -48.5s-29.167 -19.5 -48.5 -19.5s-35.5 6.5 -48.5 19.5s-19.5 29.167 -19.5 48.5zM319 644c0 19.333 6.5 35.5 19.5 48.5
s29.167 19.5 48.5 19.5s35.5 -6.5 48.5 -19.5s19.5 -29.167 19.5 -48.5s-6.5 -35.5 -19.5 -48.5s-29.167 -19.5 -48.5 -19.5s-35.5 6.5 -48.5 19.5s-19.5 29.167 -19.5 48.5zM30 246c0 36.667 5.83594 71.167 17.5029 103.5s28.167 60.5 49.5 84.5s47.166 43 77.499 57
s64.5 21 102.5 21c39.333 0 74 -6.66699 104 -20s55 -31.833 75 -55.5s35.167 -51.5 45.5 -83.5s15.5 -66.333 15.5 -103v-26h-400v-1c1.33301 -25.333 6.66602 -47.666 15.999 -66.999s21.333 -35.5 36 -48.5s31.667 -22.833 51 -29.5s39.666 -10 60.999 -10
c36.667 0 68 7.66699 94 23s47.667 33.333 65 54l45 -67c-10 -11.333 -21.667 -22.333 -35 -33s-28.333 -20.334 -45 -29.001s-35 -15.5 -55 -20.5s-41.667 -7.5 -65 -7.5c-38 0 -72.5 6 -103.5 18s-57.833 29.167 -80.5 51.5s-40.167 49.5 -52.5 81.5
s-18.5 67.667 -18.5 107zM423.003 293c-4 42 -17.833 75.667 -41.5 101s-58.167 38 -103.5 38c-47.333 0 -83.833 -12.667 -109.5 -38s-41.5 -59 -47.5 -101h302z" />
    <glyph glyph-name="igrave" unicode="&#xec;" horiz-adv-x="236" 
d="M23 767l211 -136l-39 -60l-213 133zM161 500v-500h-86v500h86z" />
    <glyph glyph-name="iacute" unicode="&#xed;" horiz-adv-x="236" 
d="M213 767l41 -63l-213 -133l-39 60zM161 500v-500h-86v500h86z" />
    <glyph glyph-name="icircumflex" unicode="&#xee;" horiz-adv-x="236" 
d="M118 768l176 -151l-47 -52l-129 112l-129 -112l-47 52zM161 500v-500h-86v500h86z" />
    <glyph glyph-name="idieresis" unicode="&#xef;" horiz-adv-x="236" 
d="M-51 644c0 19.333 6.5 35.5 19.5 48.5s29.167 19.5 48.5 19.5s35.5 -6.5 48.5 -19.5s19.5 -29.167 19.5 -48.5s-6.5 -35.5 -19.5 -48.5s-29.167 -19.5 -48.5 -19.5s-35.5 6.5 -48.5 19.5s-19.5 29.167 -19.5 48.5zM151 644c0 19.333 6.5 35.5 19.5 48.5
s29.167 19.5 48.5 19.5s35.5 -6.5 48.5 -19.5s19.5 -29.167 19.5 -48.5s-6.5 -35.5 -19.5 -48.5s-29.167 -19.5 -48.5 -19.5s-35.5 6.5 -48.5 19.5s-19.5 29.167 -19.5 48.5zM161 500v-500h-86v500h86z" />
    <glyph glyph-name="eth" unicode="&#xf0;" horiz-adv-x="594" 
d="M285 -12c-37.333 0 -71.668 6.49805 -103.001 19.498s-58.333 31 -81 54s-40.167 50.5 -52.5 82.5s-18.5 67 -18.5 105c0 39.333 6.5 75.166 19.5 107.499s30.667 60 53 83s48.833 40.833 79.5 53.5s63.667 19 99 19c16.667 0 33.834 -1.66699 51.501 -5
s35 -8.83301 52 -16.5s33.333 -18 49 -31s29.5 -29.5 41.5 -49.5v5c-7.33301 46.667 -23.333 88.834 -48 126.501s-55.667 70.834 -93 99.501l-114 -77l-40 55l92 62c-16.667 9.33301 -34 17.833 -52 25.5s-36.667 14.834 -56 21.501l30 68c58 -18 107.667 -40 149 -66
l80 54l40 -56l-60 -41c41.333 -33.333 74.333 -73.333 99 -120c19.333 -36.667 33.666 -76.5 42.999 -119.5s14 -89.5 14 -139.5c0 -52 -6.66699 -98 -20 -138s-32.666 -74 -57.999 -102c-24 -26 -52.5 -45.833 -85.5 -59.5s-69.833 -20.5 -110.5 -20.5zM459.998 248.998
c0 25.333 -3.83398 49.0029 -11.501 71.0029s-19 41 -34 57s-33.167 28.667 -54.5 38s-45.333 14 -72 14c-26 0 -49.5 -4.33301 -70.5 -13s-38.833 -20.834 -53.5 -36.501s-25.834 -34.334 -33.501 -56.001s-11.5 -45.5 -11.5 -71.5c0 -27.333 4.16699 -52 12.5 -74
s20 -41 35 -57s33 -28.333 54 -37s43.833 -13 68.5 -13c24 0 46.333 4.16699 67 12.5s38.834 20.166 54.501 35.499s27.834 34 36.501 56s13 46.667 13 74z" />
    <glyph glyph-name="ntilde" unicode="&#xf1;" horiz-adv-x="577" 
d="M346 577c-12 0 -23.5 2.5 -34.5 7.5s-21.333 10.333 -31 16l-27 16c-8.33301 5 -16.166 7.5 -23.499 7.5c-9.33301 0 -18.666 -4 -27.999 -12s-18.666 -17 -27.999 -27l-48 46c6.66699 8 14.167 16.167 22.5 24.5s17 15.666 26 21.999s18.333 11.666 28 15.999
s19.5 6.5 29.5 6.5c12 0 23.5 -2.5 34.5 -7.5s21.333 -10.333 31 -16l27 -16c8.33301 -5 16.166 -7.5 23.499 -7.5c9.33301 0 18.666 4 27.999 12s18.666 17 27.999 27l48 -46c-6.66699 -8 -14.167 -16.167 -22.5 -24.5s-17 -15.666 -26 -21.999
s-18.333 -11.666 -28 -15.999s-19.5 -6.5 -29.5 -6.5zM153 433c20 28 44.501 48.167 73.501 60.5s59.833 18.5 92.5 18.5c32 0 59.833 -5.33301 83.5 -16s43.167 -25.5 58.5 -44.5s26.833 -42 34.5 -69s11.5 -56.5 11.5 -88.5v-294h-88v298c0 44 -10.833 77.333 -32.5 100
s-50.167 34 -85.5 34c-28.667 0 -52.334 -5.16699 -71.001 -15.5s-33.5 -24.333 -44.5 -42s-18.667 -38.667 -23 -63s-6.5 -50.5 -6.5 -78.5v-233h-86v500h83v-67z" />
    <glyph glyph-name="ograve" unicode="&#xf2;" horiz-adv-x="584" 
d="M197 767l211 -136l-39 -60l-213 133zM30 250c0 37.333 6.66699 72 20 104s31.666 59.667 54.999 83s51 41.666 83 54.999s66.667 20 104 20s72 -6.66699 104 -20s59.667 -31.666 83 -54.999s41.666 -51 54.999 -83s20 -66.667 20 -104s-6.66699 -72 -20 -104
s-31.666 -59.667 -54.999 -83s-51 -41.666 -83 -54.999s-66.667 -20 -104 -20s-72 6.66699 -104 20s-59.667 31.666 -83 54.999s-41.666 51 -54.999 83s-20 66.667 -20 104zM465 250c0 26 -4.16699 50 -12.5 72s-20 40.833 -35 56.5s-33.167 28 -54.5 37s-45 13.5 -71 13.5
s-49.667 -4.5 -71 -13.5s-39.5 -21.333 -54.5 -37s-26.667 -34.5 -35 -56.5s-12.5 -46 -12.5 -72s4.16699 -50 12.5 -72s20 -40.833 35 -56.5s33.167 -28 54.5 -37s45 -13.5 71 -13.5s49.667 4.5 71 13.5s39.5 21.333 54.5 37s26.667 34.5 35 56.5s12.5 46 12.5 72z" />
    <glyph glyph-name="oacute" unicode="&#xf3;" horiz-adv-x="584" 
d="M387 767l41 -63l-213 -133l-39 60zM30 250c0 37.333 6.66699 72 20 104s31.666 59.667 54.999 83s51 41.666 83 54.999s66.667 20 104 20s72 -6.66699 104 -20s59.667 -31.666 83 -54.999s41.666 -51 54.999 -83s20 -66.667 20 -104s-6.66699 -72 -20 -104
s-31.666 -59.667 -54.999 -83s-51 -41.666 -83 -54.999s-66.667 -20 -104 -20s-72 6.66699 -104 20s-59.667 31.666 -83 54.999s-41.666 51 -54.999 83s-20 66.667 -20 104zM465 250c0 26 -4.16699 50 -12.5 72s-20 40.833 -35 56.5s-33.167 28 -54.5 37s-45 13.5 -71 13.5
s-49.667 -4.5 -71 -13.5s-39.5 -21.333 -54.5 -37s-26.667 -34.5 -35 -56.5s-12.5 -46 -12.5 -72s4.16699 -50 12.5 -72s20 -40.833 35 -56.5s33.167 -28 54.5 -37s45 -13.5 71 -13.5s49.667 4.5 71 13.5s39.5 21.333 54.5 37s26.667 34.5 35 56.5s12.5 46 12.5 72z" />
    <glyph glyph-name="ocircumflex" unicode="&#xf4;" horiz-adv-x="584" 
d="M292 768l176 -151l-47 -52l-129 112l-129 -112l-47 52zM30 250c0 37.333 6.66699 72 20 104s31.666 59.667 54.999 83s51 41.666 83 54.999s66.667 20 104 20s72 -6.66699 104 -20s59.667 -31.666 83 -54.999s41.666 -51 54.999 -83s20 -66.667 20 -104
s-6.66699 -72 -20 -104s-31.666 -59.667 -54.999 -83s-51 -41.666 -83 -54.999s-66.667 -20 -104 -20s-72 6.66699 -104 20s-59.667 31.666 -83 54.999s-41.666 51 -54.999 83s-20 66.667 -20 104zM465 250c0 26 -4.16699 50 -12.5 72s-20 40.833 -35 56.5
s-33.167 28 -54.5 37s-45 13.5 -71 13.5s-49.667 -4.5 -71 -13.5s-39.5 -21.333 -54.5 -37s-26.667 -34.5 -35 -56.5s-12.5 -46 -12.5 -72s4.16699 -50 12.5 -72s20 -40.833 35 -56.5s33.167 -28 54.5 -37s45 -13.5 71 -13.5s49.667 4.5 71 13.5s39.5 21.333 54.5 37
s26.667 34.5 35 56.5s12.5 46 12.5 72z" />
    <glyph glyph-name="otilde" unicode="&#xf5;" horiz-adv-x="584" 
d="M349 577c-12 0 -23.5 2.5 -34.5 7.5s-21.333 10.333 -31 16l-27 16c-8.33301 5 -16.166 7.5 -23.499 7.5c-9.33301 0 -18.666 -4 -27.999 -12s-18.666 -17 -27.999 -27l-48 46c6.66699 8 14.167 16.167 22.5 24.5s17 15.666 26 21.999s18.333 11.666 28 15.999
s19.5 6.5 29.5 6.5c12 0 23.5 -2.5 34.5 -7.5s21.333 -10.333 31 -16l27 -16c8.33301 -5 16.166 -7.5 23.499 -7.5c9.33301 0 18.666 4 27.999 12s18.666 17 27.999 27l48 -46c-6.66699 -8 -14.167 -16.167 -22.5 -24.5s-17 -15.666 -26 -21.999
s-18.333 -11.666 -28 -15.999s-19.5 -6.5 -29.5 -6.5zM30 250c0 37.333 6.66699 72 20 104s31.666 59.667 54.999 83s51 41.666 83 54.999s66.667 20 104 20s72 -6.66699 104 -20s59.667 -31.666 83 -54.999s41.666 -51 54.999 -83s20 -66.667 20 -104
s-6.66699 -72 -20 -104s-31.666 -59.667 -54.999 -83s-51 -41.666 -83 -54.999s-66.667 -20 -104 -20s-72 6.66699 -104 20s-59.667 31.666 -83 54.999s-41.666 51 -54.999 83s-20 66.667 -20 104zM465 250c0 26 -4.16699 50 -12.5 72s-20 40.833 -35 56.5
s-33.167 28 -54.5 37s-45 13.5 -71 13.5s-49.667 -4.5 -71 -13.5s-39.5 -21.333 -54.5 -37s-26.667 -34.5 -35 -56.5s-12.5 -46 -12.5 -72s4.16699 -50 12.5 -72s20 -40.833 35 -56.5s33.167 -28 54.5 -37s45 -13.5 71 -13.5s49.667 4.5 71 13.5s39.5 21.333 54.5 37
s26.667 34.5 35 56.5s12.5 46 12.5 72z" />
    <glyph glyph-name="odieresis" unicode="&#xf6;" horiz-adv-x="584" 
d="M123 644c0 19.333 6.5 35.5 19.5 48.5s29.167 19.5 48.5 19.5s35.5 -6.5 48.5 -19.5s19.5 -29.167 19.5 -48.5s-6.5 -35.5 -19.5 -48.5s-29.167 -19.5 -48.5 -19.5s-35.5 6.5 -48.5 19.5s-19.5 29.167 -19.5 48.5zM325 644c0 19.333 6.5 35.5 19.5 48.5
s29.167 19.5 48.5 19.5s35.5 -6.5 48.5 -19.5s19.5 -29.167 19.5 -48.5s-6.5 -35.5 -19.5 -48.5s-29.167 -19.5 -48.5 -19.5s-35.5 6.5 -48.5 19.5s-19.5 29.167 -19.5 48.5zM30 250c0 37.333 6.66699 72 20 104s31.666 59.667 54.999 83s51 41.666 83 54.999
s66.667 20 104 20s72 -6.66699 104 -20s59.667 -31.666 83 -54.999s41.666 -51 54.999 -83s20 -66.667 20 -104s-6.66699 -72 -20 -104s-31.666 -59.667 -54.999 -83s-51 -41.666 -83 -54.999s-66.667 -20 -104 -20s-72 6.66699 -104 20s-59.667 31.666 -83 54.999
s-41.666 51 -54.999 83s-20 66.667 -20 104zM465 250c0 26 -4.16699 50 -12.5 72s-20 40.833 -35 56.5s-33.167 28 -54.5 37s-45 13.5 -71 13.5s-49.667 -4.5 -71 -13.5s-39.5 -21.333 -54.5 -37s-26.667 -34.5 -35 -56.5s-12.5 -46 -12.5 -72s4.16699 -50 12.5 -72
s20 -40.833 35 -56.5s33.167 -28 54.5 -37s45 -13.5 71 -13.5s49.667 4.5 71 13.5s39.5 21.333 54.5 37s26.667 34.5 35 56.5s12.5 46 12.5 72z" />
    <glyph glyph-name="divide" unicode="&#xf7;" 
d="M310 576c22 0 40.667 -7.66699 56 -23s23 -34 23 -56s-7.66699 -40.5 -23 -55.5s-34 -22.5 -56 -22.5s-40.5 7.5 -55.5 22.5s-22.5 33.5 -22.5 55.5s7.5 40.667 22.5 56s33.5 23 55.5 23zM594 359v-90h-548v90h548zM310 209c22 0 40.667 -7.66699 56 -23s23 -34 23 -56
s-7.66699 -40.5 -23 -55.5s-34 -22.5 -56 -22.5s-40.5 7.5 -55.5 22.5s-22.5 33.5 -22.5 55.5s7.5 40.667 22.5 56s33.5 23 55.5 23z" />
    <glyph glyph-name="oslash" unicode="&#xf8;" horiz-adv-x="584" 
d="M119 250c0 -42.667 11.002 -79.668 33.002 -111.001l228 269c-12.667 6.66699 -26.334 11.834 -41.001 15.501s-30.334 5.5 -47.001 5.5c-26 0 -49.667 -4.5 -71 -13.5s-39.5 -21.333 -54.5 -37s-26.667 -34.5 -35 -56.5s-12.5 -46 -12.5 -72zM292.002 70.999
c26 0 49.665 4.50098 70.998 13.501s39.5 21.333 54.5 37s26.667 34.5 35 56.5s12.5 46 12.5 72c0 42.667 -11 79.667 -33 111l-228 -269c12.667 -6.66699 26.334 -11.834 41.001 -15.501s30.334 -5.5 47.001 -5.5zM292 -12c-53.333 0 -101 13.333 -143 40l-37 -44l-54 45
l37 44c-20.667 23.333 -36.667 49.833 -48 79.5s-17 62.167 -17 97.5c0 37.333 6.66699 72 20 104s31.666 59.667 54.999 83s51 41.666 83 54.999s66.667 20 104 20c53.333 0 101 -13.333 143 -40l37 44l53 -46l-36 -43c20.667 -23.333 36.667 -49.833 48 -79.5
s17 -62.167 17 -97.5c0 -37.333 -6.66699 -72 -20 -104s-31.666 -59.667 -54.999 -83s-51 -41.666 -83 -54.999s-66.667 -20 -104 -20z" />
    <glyph glyph-name="ugrave" unicode="&#xf9;" horiz-adv-x="570" 
d="M190 767l211 -136l-39 -60l-213 133zM500 500l-0.000976562 -499.999h-83v72c-19.333 -28 -41.333 -49 -66 -63s-56 -21 -94 -21c-35.333 0 -64.833 5.5 -88.5 16.5s-42.834 26 -57.501 45s-25.167 41.667 -31.5 68s-9.5 55.166 -9.5 86.499v296h88v-296
c0 -20 1.66699 -38.333 5 -55s9.33301 -31 18 -43s20.334 -21.333 35.001 -28s33.334 -10 56.001 -10c28.667 0 52.167 5.5 70.5 16.5s32.833 25.667 43.5 44s18 39.5 22 63.5s6 49 6 75v233h86z" />
    <glyph glyph-name="uacute" unicode="&#xfa;" horiz-adv-x="570" 
d="M380 767l41 -63l-213 -133l-39 60zM500 500l-0.000976562 -499.999h-83v72c-19.333 -28 -41.333 -49 -66 -63s-56 -21 -94 -21c-35.333 0 -64.833 5.5 -88.5 16.5s-42.834 26 -57.501 45s-25.167 41.667 -31.5 68s-9.5 55.166 -9.5 86.499v296h88v-296
c0 -20 1.66699 -38.333 5 -55s9.33301 -31 18 -43s20.334 -21.333 35.001 -28s33.334 -10 56.001 -10c28.667 0 52.167 5.5 70.5 16.5s32.833 25.667 43.5 44s18 39.5 22 63.5s6 49 6 75v233h86z" />
    <glyph glyph-name="ucircumflex" unicode="&#xfb;" horiz-adv-x="570" 
d="M285 768l176 -151l-47 -52l-129 112l-129 -112l-47 52zM500 500l-0.000976562 -499.999h-83v72c-19.333 -28 -41.333 -49 -66 -63s-56 -21 -94 -21c-35.333 0 -64.833 5.5 -88.5 16.5s-42.834 26 -57.501 45s-25.167 41.667 -31.5 68s-9.5 55.166 -9.5 86.499v296h88
v-296c0 -20 1.66699 -38.333 5 -55s9.33301 -31 18 -43s20.334 -21.333 35.001 -28s33.334 -10 56.001 -10c28.667 0 52.167 5.5 70.5 16.5s32.833 25.667 43.5 44s18 39.5 22 63.5s6 49 6 75v233h86z" />
    <glyph glyph-name="udieresis" unicode="&#xfc;" horiz-adv-x="570" 
d="M116 644c0 19.333 6.5 35.5 19.5 48.5s29.167 19.5 48.5 19.5s35.5 -6.5 48.5 -19.5s19.5 -29.167 19.5 -48.5s-6.5 -35.5 -19.5 -48.5s-29.167 -19.5 -48.5 -19.5s-35.5 6.5 -48.5 19.5s-19.5 29.167 -19.5 48.5zM318 644c0 19.333 6.5 35.5 19.5 48.5
s29.167 19.5 48.5 19.5s35.5 -6.5 48.5 -19.5s19.5 -29.167 19.5 -48.5s-6.5 -35.5 -19.5 -48.5s-29.167 -19.5 -48.5 -19.5s-35.5 6.5 -48.5 19.5s-19.5 29.167 -19.5 48.5zM500 500l-0.000976562 -499.999h-83v72c-19.333 -28 -41.333 -49 -66 -63s-56 -21 -94 -21
c-35.333 0 -64.833 5.5 -88.5 16.5s-42.834 26 -57.501 45s-25.167 41.667 -31.5 68s-9.5 55.166 -9.5 86.499v296h88v-296c0 -20 1.66699 -38.333 5 -55s9.33301 -31 18 -43s20.334 -21.333 35.001 -28s33.334 -10 56.001 -10c28.667 0 52.167 5.5 70.5 16.5
s32.833 25.667 43.5 44s18 39.5 22 63.5s6 49 6 75v233h86z" />
    <glyph glyph-name="yacute" unicode="&#xfd;" horiz-adv-x="525" 
d="M358 767l41 -63l-213 -133l-39 60zM104 -200l124 266l-218 434h104l160 -334l155 334h91l-323 -700h-93z" />
    <glyph glyph-name="thorn" unicode="&#xfe;" horiz-adv-x="603" 
d="M317 68c26 0 49.333 4.5 70 13.5s38.167 21.5 52.5 37.5s25.333 35.167 33 57.5s11.5 46.833 11.5 73.5s-3.83301 51.167 -11.5 73.5s-18.667 41.5 -33 57.5s-31.833 28.5 -52.5 37.5s-44 13.5 -70 13.5c-51.333 0 -92 -16.5 -122 -49.5s-45 -77.167 -45 -132.5
s15 -99.5 45 -132.5s70.667 -49.5 122 -49.5zM70 -200v899.999h86v-272c18.667 24.667 42.5 44.834 71.5 60.501s63.833 23.5 104.5 23.5c34 0 65.833 -6.16699 95.5 -18.5s55.167 -29.833 76.5 -52.5s38.166 -50.167 50.499 -82.5s18.5 -68.5 18.5 -108.5
s-6.16699 -76.167 -18.5 -108.5s-29.166 -59.833 -50.499 -82.5s-46.833 -40.167 -76.5 -52.5s-61.5 -18.5 -95.5 -18.5c-40 0 -74.167 7.83301 -102.5 23.5s-52.833 36.167 -73.5 61.5v-273h-86z" />
    <glyph glyph-name="ydieresis" unicode="&#xff;" horiz-adv-x="525" 
d="M94 644c0 19.333 6.5 35.5 19.5 48.5s29.167 19.5 48.5 19.5s35.5 -6.5 48.5 -19.5s19.5 -29.167 19.5 -48.5s-6.5 -35.5 -19.5 -48.5s-29.167 -19.5 -48.5 -19.5s-35.5 6.5 -48.5 19.5s-19.5 29.167 -19.5 48.5zM296 644c0 19.333 6.5 35.5 19.5 48.5
s29.167 19.5 48.5 19.5s35.5 -6.5 48.5 -19.5s19.5 -29.167 19.5 -48.5s-6.5 -35.5 -19.5 -48.5s-29.167 -19.5 -48.5 -19.5s-35.5 6.5 -48.5 19.5s-19.5 29.167 -19.5 48.5zM104 -200l124 266l-218 434h104l160 -334l155 334h91l-323 -700h-93z" />
    <glyph glyph-name="Amacron" unicode="&#x100;" horiz-adv-x="766" 
d="M533 827v-70h-300v70h300zM208 213h350l-175 378zM600 123h-434l-57 -123h-99l326 700h94l326 -700h-99z" />
    <glyph glyph-name="amacron" unicode="&#x101;" horiz-adv-x="515" 
d="M423 687v-70h-300v70h300zM379 239l-163.001 -20.001c-28 -3.33301 -48.5 -12 -61.5 -26s-19.5 -30.333 -19.5 -49c0 -21.333 7.83301 -38.833 23.5 -52.5s38.834 -20.5 69.501 -20.5c24 0 45.333 3.83301 64 11.5s34.5 17.834 47.5 30.501s22.833 26.667 29.5 42
s10 31 10 47v37zM62.999 385.999c9.33301 37.333 30.001 67.665 62.001 90.998s78.333 35 139 35c69.333 0 120.166 -16.167 152.499 -48.5s48.5 -78.5 48.5 -138.5v-325h-86v71c-17.333 -25.333 -40 -45.166 -68 -59.499s-60 -21.5 -96 -21.5c-27.333 0 -51.5 4 -72.5 12
s-38.667 18.833 -53 32.5s-25.333 30 -33 49s-11.5 39.5 -11.5 61.5c0 23.333 4 44 12 62s19.333 33.5 34 46.5s31.667 23.333 51 31s40.666 12.5 63.999 14.5l141 14c21.333 2 32 11 32 27v13c0 24.667 -9.16699 44.5 -27.5 59.5s-46.166 22.5 -83.499 22.5
c-34.667 0 -63.5 -7.16699 -86.5 -21.5s-37.167 -37.166 -42.5 -68.499z" />
    <glyph glyph-name="Abreve" unicode="&#x102;" horiz-adv-x="766" 
d="M525 881c0 -46 -12.5 -83 -37.5 -111s-59.833 -42 -104.5 -42s-79.5 14 -104.5 42s-37.5 65 -37.5 111h73c0 -26.667 6 -46.834 18 -60.501s29 -20.5 51 -20.5s39 6.83301 51 20.5s18 33.834 18 60.501h73zM208 213h350l-175 378zM600 123h-434l-57 -123h-99l326 700h94
l326 -700h-99z" />
    <glyph glyph-name="abreve" unicode="&#x103;" horiz-adv-x="515" 
d="M415 731c0 -46 -12.5 -83 -37.5 -111s-59.833 -42 -104.5 -42s-79.5 14 -104.5 42s-37.5 65 -37.5 111h73c0 -26.667 6 -46.834 18 -60.501s29 -20.5 51 -20.5s39 6.83301 51 20.5s18 33.834 18 60.501h73zM379 239l-163.001 -20.001c-28 -3.33301 -48.5 -12 -61.5 -26
s-19.5 -30.333 -19.5 -49c0 -21.333 7.83301 -38.833 23.5 -52.5s38.834 -20.5 69.501 -20.5c24 0 45.333 3.83301 64 11.5s34.5 17.834 47.5 30.501s22.833 26.667 29.5 42s10 31 10 47v37zM62.999 385.999c9.33301 37.333 30.001 67.665 62.001 90.998s78.333 35 139 35
c69.333 0 120.166 -16.167 152.499 -48.5s48.5 -78.5 48.5 -138.5v-325h-86v71c-17.333 -25.333 -40 -45.166 -68 -59.499s-60 -21.5 -96 -21.5c-27.333 0 -51.5 4 -72.5 12s-38.667 18.833 -53 32.5s-25.333 30 -33 49s-11.5 39.5 -11.5 61.5c0 23.333 4 44 12 62
s19.333 33.5 34 46.5s31.667 23.333 51 31s40.666 12.5 63.999 14.5l141 14c21.333 2 32 11 32 27v13c0 24.667 -9.16699 44.5 -27.5 59.5s-46.166 22.5 -83.499 22.5c-34.667 0 -63.5 -7.16699 -86.5 -21.5s-37.167 -37.166 -42.5 -68.499z" />
    <glyph glyph-name="Aogonek" unicode="&#x104;" horiz-adv-x="766" 
d="M208 213h350l-175 378zM720 -158c-17.333 -6 -34.3311 -8.99902 -50.998 -8.99902c-23.333 0 -43.666 7.16699 -60.999 21.5s-26 34.5 -26 60.5c0 17.333 5.16699 34 15.5 50s27.166 34.333 50.499 55l-48 103h-434l-57 -123h-99l326 700h94l326 -700h-66
c-30 -32 -45 -57.667 -45 -77c0 -8 3 -14.833 9 -20.5s15.333 -8.5 28 -8.5c5.33301 0 11.166 0.666992 17.499 2s13.166 2.66602 20.499 3.99902v-58z" />
    <glyph glyph-name="aogonek" unicode="&#x105;" horiz-adv-x="515" 
d="M379 239l-163.001 -20.001c-28 -3.33301 -48.5 -12 -61.5 -26s-19.5 -30.333 -19.5 -49c0 -21.333 7.83301 -38.833 23.5 -52.5s38.834 -20.5 69.501 -20.5c24 0 45.333 3.83301 64 11.5s34.5 17.834 47.5 30.501s22.833 26.667 29.5 42s10 31 10 47v37z
M466.999 -158.001c-17.333 -6 -34.3291 -9.00098 -50.9961 -9.00098c-23.333 0 -43.666 7.16699 -60.999 21.5s-26 34.5 -26 60.5c0 15.333 4 30 12 44s20.667 29.667 38 47v65c-17.333 -25.333 -40 -45.166 -68 -59.499s-60 -21.5 -96 -21.5c-27.333 0 -51.5 4 -72.5 12
s-38.667 18.833 -53 32.5s-25.333 30 -33 49s-11.5 39.5 -11.5 61.5c0 23.333 4 44 12 62s19.333 33.5 34 46.5s31.667 23.333 51 31s40.666 12.5 63.999 14.5l141 14c21.333 2 32 11 32 27v13c0 24.667 -9.16699 44.5 -27.5 59.5s-46.166 22.5 -83.499 22.5
c-34.667 0 -63.5 -7.16699 -86.5 -21.5s-37.167 -37.166 -42.5 -68.499l-76 41c9.33301 37.333 30 67.666 62 90.999s78.333 35 139 35c69.333 0 120.166 -16.167 152.499 -48.5s48.5 -78.5 48.5 -138.5v-295h4c-0.666992 -0.666992 -1.33398 -1.16699 -2.00098 -1.5
s-1.33398 -1.16602 -2.00098 -2.49902v-26h-28c-30 -32 -45 -57.667 -45 -77c0 -8 3 -14.833 9 -20.5s15.333 -8.5 28 -8.5c5.33301 0 11.166 0.666992 17.499 2s13.166 2.66602 20.499 3.99902v-58z" />
    <glyph glyph-name="Cacute" unicode="&#x106;" horiz-adv-x="659" 
d="M493 907l41 -63l-213 -133l-39 60zM50 350c0 50 8.99902 96.335 26.999 139.002s42.5 79.667 73.5 111s67.667 55.833 110 73.5s88.166 26.5 137.499 26.5c50 0 95.333 -9 136 -27s77.334 -42 110.001 -72l-41 -85c-25.333 26.667 -55.166 49 -89.499 67
s-74.166 27 -119.499 27c-36 0 -69.5 -6.33301 -100.5 -19s-57.833 -30.334 -80.5 -53.001s-40.5 -50 -53.5 -82s-19.5 -67.333 -19.5 -106s6.5 -74 19.5 -106s30.833 -59.333 53.5 -82s49.5 -40.334 80.5 -53.001s64.5 -19 100.5 -19c21.333 0 42.166 2 62.499 6
s42.5 11.667 66.5 23l16 -90c-28 -10 -53.333 -17.333 -76 -22s-45.667 -7 -69 -7c-47.333 -0 -92 8.83301 -134 26.5s-78.5 42.167 -109.5 73.5s-55.5 68.333 -73.5 111s-27 89 -27 139z" />
    <glyph glyph-name="cacute" unicode="&#x107;" horiz-adv-x="498" 
d="M383 767l41 -63l-213 -133l-39 60zM30 249c0 37.333 6.16504 71.998 18.498 103.998s30 59.833 53 83.5s50.667 42.167 83 55.5s68.5 20 108.5 20c38.667 0 72.834 -6.33301 102.501 -19s56.167 -30.667 79.5 -54l-56 -66c-17.333 16 -36.5 29.333 -57.5 40
s-45.5 16 -73.5 16c-24 0 -46.333 -4.16699 -67 -12.5s-38.5 -20.166 -53.5 -35.499s-26.833 -34 -35.5 -56s-13 -47 -13 -75c0 -27.333 4.33301 -52 13 -74s20.5 -40.833 35.5 -56.5s32.667 -27.667 53 -36s42.5 -12.5 66.5 -12.5c30 0 56.333 5.83301 79 17.5
s42.667 25.5 60 41.5l52 -67c-21.333 -21.333 -47.666 -39.166 -78.999 -53.499s-68.333 -21.5 -111 -21.5c-39.333 0 -75 6.5 -107 19.5s-59.167 31.167 -81.5 54.5s-39.5 50.833 -51.5 82.5s-18 66.5 -18 104.5z" />
    <glyph glyph-name="Ccircumflex" unicode="&#x108;" horiz-adv-x="659" 
d="M392 918l176 -151l-47 -52l-129 112l-129 -112l-47 52zM50 350c0 50 8.99902 96.335 26.999 139.002s42.5 79.667 73.5 111s67.667 55.833 110 73.5s88.166 26.5 137.499 26.5c50 0 95.333 -9 136 -27s77.334 -42 110.001 -72l-41 -85
c-25.333 26.667 -55.166 49 -89.499 67s-74.166 27 -119.499 27c-36 0 -69.5 -6.33301 -100.5 -19s-57.833 -30.334 -80.5 -53.001s-40.5 -50 -53.5 -82s-19.5 -67.333 -19.5 -106s6.5 -74 19.5 -106s30.833 -59.333 53.5 -82s49.5 -40.334 80.5 -53.001s64.5 -19 100.5 -19
c21.333 0 42.166 2 62.499 6s42.5 11.667 66.5 23l16 -90c-28 -10 -53.333 -17.333 -76 -22s-45.667 -7 -69 -7c-47.333 -0 -92 8.83301 -134 26.5s-78.5 42.167 -109.5 73.5s-55.5 68.333 -73.5 111s-27 89 -27 139z" />
    <glyph glyph-name="ccircumflex" unicode="&#x109;" horiz-adv-x="498" 
d="M288 768l176 -151l-47 -52l-129 112l-129 -112l-47 52zM30 249c0 37.333 6.16504 71.998 18.498 103.998s30 59.833 53 83.5s50.667 42.167 83 55.5s68.5 20 108.5 20c38.667 0 72.834 -6.33301 102.501 -19s56.167 -30.667 79.5 -54l-56 -66
c-17.333 16 -36.5 29.333 -57.5 40s-45.5 16 -73.5 16c-24 0 -46.333 -4.16699 -67 -12.5s-38.5 -20.166 -53.5 -35.499s-26.833 -34 -35.5 -56s-13 -47 -13 -75c0 -27.333 4.33301 -52 13 -74s20.5 -40.833 35.5 -56.5s32.667 -27.667 53 -36s42.5 -12.5 66.5 -12.5
c30 0 56.333 5.83301 79 17.5s42.667 25.5 60 41.5l52 -67c-21.333 -21.333 -47.666 -39.166 -78.999 -53.499s-68.333 -21.5 -111 -21.5c-39.333 0 -75 6.5 -107 19.5s-59.167 31.167 -81.5 54.5s-39.5 50.833 -51.5 82.5s-18 66.5 -18 104.5z" />
    <glyph glyph-name="Cdotaccent" unicode="&#x10a;" horiz-adv-x="659" 
d="M324 794c0 19.333 6.5 35.5 19.5 48.5s29.167 19.5 48.5 19.5s35.5 -6.5 48.5 -19.5s19.5 -29.167 19.5 -48.5s-6.5 -35.5 -19.5 -48.5s-29.167 -19.5 -48.5 -19.5s-35.5 6.5 -48.5 19.5s-19.5 29.167 -19.5 48.5zM50 350c0 50 8.99902 96.335 26.999 139.002
s42.5 79.667 73.5 111s67.667 55.833 110 73.5s88.166 26.5 137.499 26.5c50 0 95.333 -9 136 -27s77.334 -42 110.001 -72l-41 -85c-25.333 26.667 -55.166 49 -89.499 67s-74.166 27 -119.499 27c-36 0 -69.5 -6.33301 -100.5 -19s-57.833 -30.334 -80.5 -53.001
s-40.5 -50 -53.5 -82s-19.5 -67.333 -19.5 -106s6.5 -74 19.5 -106s30.833 -59.333 53.5 -82s49.5 -40.334 80.5 -53.001s64.5 -19 100.5 -19c21.333 0 42.166 2 62.499 6s42.5 11.667 66.5 23l16 -90c-28 -10 -53.333 -17.333 -76 -22s-45.667 -7 -69 -7
c-47.333 -0 -92 8.83301 -134 26.5s-78.5 42.167 -109.5 73.5s-55.5 68.333 -73.5 111s-27 89 -27 139z" />
    <glyph glyph-name="cdotaccent" unicode="&#x10b;" horiz-adv-x="498" 
d="M220 644c0 19.333 6.5 35.5 19.5 48.5s29.167 19.5 48.5 19.5s35.5 -6.5 48.5 -19.5s19.5 -29.167 19.5 -48.5s-6.5 -35.5 -19.5 -48.5s-29.167 -19.5 -48.5 -19.5s-35.5 6.5 -48.5 19.5s-19.5 29.167 -19.5 48.5zM30 249c0 37.333 6.16504 71.998 18.498 103.998
s30 59.833 53 83.5s50.667 42.167 83 55.5s68.5 20 108.5 20c38.667 0 72.834 -6.33301 102.501 -19s56.167 -30.667 79.5 -54l-56 -66c-17.333 16 -36.5 29.333 -57.5 40s-45.5 16 -73.5 16c-24 0 -46.333 -4.16699 -67 -12.5s-38.5 -20.166 -53.5 -35.499
s-26.833 -34 -35.5 -56s-13 -47 -13 -75c0 -27.333 4.33301 -52 13 -74s20.5 -40.833 35.5 -56.5s32.667 -27.667 53 -36s42.5 -12.5 66.5 -12.5c30 0 56.333 5.83301 79 17.5s42.667 25.5 60 41.5l52 -67c-21.333 -21.333 -47.666 -39.166 -78.999 -53.499
s-68.333 -21.5 -111 -21.5c-39.333 0 -75 6.5 -107 19.5s-59.167 31.167 -81.5 54.5s-39.5 50.833 -51.5 82.5s-18 66.5 -18 104.5z" />
    <glyph glyph-name="Ccaron" unicode="&#x10c;" horiz-adv-x="659" 
d="M521 928l47 -52l-176 -151l-176 151l47 52l129 -112zM50 350c0 50 8.99902 96.335 26.999 139.002s42.5 79.667 73.5 111s67.667 55.833 110 73.5s88.166 26.5 137.499 26.5c50 0 95.333 -9 136 -27s77.334 -42 110.001 -72l-41 -85
c-25.333 26.667 -55.166 49 -89.499 67s-74.166 27 -119.499 27c-36 0 -69.5 -6.33301 -100.5 -19s-57.833 -30.334 -80.5 -53.001s-40.5 -50 -53.5 -82s-19.5 -67.333 -19.5 -106s6.5 -74 19.5 -106s30.833 -59.333 53.5 -82s49.5 -40.334 80.5 -53.001s64.5 -19 100.5 -19
c21.333 0 42.166 2 62.499 6s42.5 11.667 66.5 23l16 -90c-28 -10 -53.333 -17.333 -76 -22s-45.667 -7 -69 -7c-47.333 -0 -92 8.83301 -134 26.5s-78.5 42.167 -109.5 73.5s-55.5 68.333 -73.5 111s-27 89 -27 139z" />
    <glyph glyph-name="ccaron" unicode="&#x10d;" horiz-adv-x="498" 
d="M417 758l47 -52l-176 -151l-176 151l47 52l129 -112zM30 249c0 37.333 6.16504 71.998 18.498 103.998s30 59.833 53 83.5s50.667 42.167 83 55.5s68.5 20 108.5 20c38.667 0 72.834 -6.33301 102.501 -19s56.167 -30.667 79.5 -54l-56 -66
c-17.333 16 -36.5 29.333 -57.5 40s-45.5 16 -73.5 16c-24 0 -46.333 -4.16699 -67 -12.5s-38.5 -20.166 -53.5 -35.499s-26.833 -34 -35.5 -56s-13 -47 -13 -75c0 -27.333 4.33301 -52 13 -74s20.5 -40.833 35.5 -56.5s32.667 -27.667 53 -36s42.5 -12.5 66.5 -12.5
c30 0 56.333 5.83301 79 17.5s42.667 25.5 60 41.5l52 -67c-21.333 -21.333 -47.666 -39.166 -78.999 -53.499s-68.333 -21.5 -111 -21.5c-39.333 0 -75 6.5 -107 19.5s-59.167 31.167 -81.5 54.5s-39.5 50.833 -51.5 82.5s-18 66.5 -18 104.5z" />
    <glyph glyph-name="Dcaron" unicode="&#x10e;" horiz-adv-x="719" 
d="M409 928l47 -52l-176 -151l-176 151l47 52l129 -112zM320 700c49.333 0 95.333 -8.83105 138 -26.498s79.667 -42 111 -73s55.833 -67.833 73.5 -110.5s26.5 -89.334 26.5 -140.001s-8.83301 -97.334 -26.5 -140.001s-42.167 -79.5 -73.5 -110.5
s-68.333 -55.333 -111 -73s-88.667 -26.5 -138 -26.5h-240v700h240zM579 350.002c0 38 -6.5 72.833 -19.5 104.5s-31 59 -54 82s-50.333 41 -82 54s-66.167 19.5 -103.5 19.5h-150v-520h150c37.333 0 71.833 6.33301 103.5 19s59 30.5 82 53.5s41 50.5 54 82.5
s19.5 67 19.5 105z" />
    <glyph glyph-name="dcaron" unicode="&#x10f;" horiz-adv-x="751" 
d="M583 444l71 122c-16.667 4.66699 -30.167 13.667 -40.5 27s-15.5 28.333 -15.5 45c0 19.333 7 36.5 21 51.5s31.667 22.5 53 22.5s39 -7.5 53 -22.5s21 -32.167 21 -51.5c0 -13.333 -3 -25 -9 -35l-104 -187zM286 432c-26 0 -49.333 -4.5 -70 -13.5
s-38.167 -21.5 -52.5 -37.5s-25.333 -35.167 -33 -57.5s-11.5 -46.833 -11.5 -73.5s3.83301 -51.167 11.5 -73.5s18.667 -41.5 33 -57.5s31.833 -28.5 52.5 -37.5s44 -13.5 70 -13.5c51.333 0 92 16.5 122 49.5s45 77.167 45 132.5s-15 99.5 -45 132.5
s-70.667 49.5 -122 49.5zM533 700v-699.999h-86v72c-18.667 -24.667 -42.5 -44.834 -71.5 -60.501s-63.833 -23.5 -104.5 -23.5c-34 0 -65.833 6.16699 -95.5 18.5s-55.167 29.833 -76.5 52.5s-38.166 50.167 -50.499 82.5s-18.5 68.5 -18.5 108.5
s6.16699 76.167 18.5 108.5s29.166 59.833 50.499 82.5s46.833 40.167 76.5 52.5s61.5 18.5 95.5 18.5c40 0 74.167 -7.83301 102.5 -23.5s52.833 -36.167 73.5 -61.5v273h86z" />
    <glyph glyph-name="Dcroat" unicode="&#x110;" horiz-adv-x="719" 
d="M80 0v310.002h-80v90h80v300h240c49.333 0 95.333 -8.83301 138 -26.5s79.667 -42 111 -73s55.833 -67.833 73.5 -110.5s26.5 -89.334 26.5 -140.001s-8.83301 -97.334 -26.5 -140.001s-42.167 -79.5 -73.5 -110.5s-68.333 -55.333 -111 -73s-88.667 -26.5 -138 -26.5
h-240zM320 90.002c37.333 0 71.833 6.33301 103.5 19s59 30.5 82 53.5s41 50.5 54 82.5s19.5 67 19.5 105s-6.5 72.833 -19.5 104.5s-31 59 -54 82s-50.333 41 -82 54s-66.167 19.5 -103.5 19.5h-150v-210h170v-90h-170v-220h150z" />
    <glyph glyph-name="dcroat" unicode="&#x111;" horiz-adv-x="604" 
d="M286 432c-26 0 -49.333 -4.5 -70 -13.5s-38.167 -21.5 -52.5 -37.5s-25.333 -35.167 -33 -57.5s-11.5 -46.833 -11.5 -73.5s3.83301 -51.167 11.5 -73.5s18.667 -41.5 33 -57.5s31.833 -28.5 52.5 -37.5s44 -13.5 70 -13.5c51.333 0 92 16.5 122 49.5s45 77.167 45 132.5
s-15 99.5 -45 132.5s-70.667 49.5 -122 49.5zM447 72c-18.667 -24.667 -42.5 -44.833 -71.5 -60.5s-63.833 -23.5 -104.5 -23.5c-34 0 -65.833 6.16699 -95.5 18.5s-55.167 29.833 -76.5 52.5s-38.166 50.167 -50.499 82.5s-18.5 68.5 -18.5 108.5
s6.16699 76.167 18.5 108.5s29.166 59.833 50.499 82.5s46.833 40.167 76.5 52.5s61.5 18.5 95.5 18.5c40 0 74.167 -7.83301 102.5 -23.5s52.833 -36.167 73.5 -61.5v158h-118v67h118v48h86v-48h66v-67h-66v-585h-86v72z" />
    <glyph glyph-name="Emacron" unicode="&#x112;" horiz-adv-x="565" 
d="M444 827v-70h-300v70h300zM510 700v-90h-340v-215h340v-90h-340v-215h340v-90h-430v700h430z" />
    <glyph glyph-name="emacron" unicode="&#x113;" horiz-adv-x="542" 
d="M436 687v-70h-300v70h300zM30 246c0 36.667 5.83594 71.167 17.5029 103.5s28.167 60.5 49.5 84.5s47.166 43 77.499 57s64.5 21 102.5 21c39.333 0 74 -6.66699 104 -20s55 -31.833 75 -55.5s35.167 -51.5 45.5 -83.5s15.5 -66.333 15.5 -103v-26h-400v-1
c1.33301 -25.333 6.66602 -47.666 15.999 -66.999s21.333 -35.5 36 -48.5s31.667 -22.833 51 -29.5s39.666 -10 60.999 -10c36.667 0 68 7.66699 94 23s47.667 33.333 65 54l45 -67c-10 -11.333 -21.667 -22.333 -35 -33s-28.333 -20.334 -45 -29.001s-35 -15.5 -55 -20.5
s-41.667 -7.5 -65 -7.5c-38 0 -72.5 6 -103.5 18s-57.833 29.167 -80.5 51.5s-40.167 49.5 -52.5 81.5s-18.5 67.667 -18.5 107zM423.003 293c-4 42 -17.833 75.667 -41.5 101s-58.167 38 -103.5 38c-47.333 0 -83.833 -12.667 -109.5 -38s-41.5 -59 -47.5 -101h302z" />
    <glyph glyph-name="Ebreve" unicode="&#x114;" horiz-adv-x="565" 
d="M436 881c0 -46 -12.5 -83 -37.5 -111s-59.833 -42 -104.5 -42s-79.5 14 -104.5 42s-37.5 65 -37.5 111h73c0 -26.667 6 -46.834 18 -60.501s29 -20.5 51 -20.5s39 6.83301 51 20.5s18 33.834 18 60.501h73zM510 700v-90h-340v-215h340v-90h-340v-215h340v-90h-430v700
h430z" />
    <glyph glyph-name="ebreve" unicode="&#x115;" horiz-adv-x="542" 
d="M428 731c0 -46 -12.5 -83 -37.5 -111s-59.833 -42 -104.5 -42s-79.5 14 -104.5 42s-37.5 65 -37.5 111h73c0 -26.667 6 -46.834 18 -60.501s29 -20.5 51 -20.5s39 6.83301 51 20.5s18 33.834 18 60.501h73zM30 246c0 36.667 5.83594 71.167 17.5029 103.5
s28.167 60.5 49.5 84.5s47.166 43 77.499 57s64.5 21 102.5 21c39.333 0 74 -6.66699 104 -20s55 -31.833 75 -55.5s35.167 -51.5 45.5 -83.5s15.5 -66.333 15.5 -103v-26h-400v-1c1.33301 -25.333 6.66602 -47.666 15.999 -66.999s21.333 -35.5 36 -48.5
s31.667 -22.833 51 -29.5s39.666 -10 60.999 -10c36.667 0 68 7.66699 94 23s47.667 33.333 65 54l45 -67c-10 -11.333 -21.667 -22.333 -35 -33s-28.333 -20.334 -45 -29.001s-35 -15.5 -55 -20.5s-41.667 -7.5 -65 -7.5c-38 0 -72.5 6 -103.5 18
s-57.833 29.167 -80.5 51.5s-40.167 49.5 -52.5 81.5s-18.5 67.667 -18.5 107zM423.003 293c-4 42 -17.833 75.667 -41.5 101s-58.167 38 -103.5 38c-47.333 0 -83.833 -12.667 -109.5 -38s-41.5 -59 -47.5 -101h302z" />
    <glyph glyph-name="Edotaccent" unicode="&#x116;" horiz-adv-x="565" 
d="M226 794c0 19.333 6.5 35.5 19.5 48.5s29.167 19.5 48.5 19.5s35.5 -6.5 48.5 -19.5s19.5 -29.167 19.5 -48.5s-6.5 -35.5 -19.5 -48.5s-29.167 -19.5 -48.5 -19.5s-35.5 6.5 -48.5 19.5s-19.5 29.167 -19.5 48.5zM510 700v-90h-340v-215h340v-90h-340v-215h340v-90h-430
v700h430z" />
    <glyph glyph-name="edotaccent" unicode="&#x117;" horiz-adv-x="542" 
d="M218 644c0 19.333 6.5 35.5 19.5 48.5s29.167 19.5 48.5 19.5s35.5 -6.5 48.5 -19.5s19.5 -29.167 19.5 -48.5s-6.5 -35.5 -19.5 -48.5s-29.167 -19.5 -48.5 -19.5s-35.5 6.5 -48.5 19.5s-19.5 29.167 -19.5 48.5zM30 246c0 36.667 5.83594 71.167 17.5029 103.5
s28.167 60.5 49.5 84.5s47.166 43 77.499 57s64.5 21 102.5 21c39.333 0 74 -6.66699 104 -20s55 -31.833 75 -55.5s35.167 -51.5 45.5 -83.5s15.5 -66.333 15.5 -103v-26h-400v-1c1.33301 -25.333 6.66602 -47.666 15.999 -66.999s21.333 -35.5 36 -48.5
s31.667 -22.833 51 -29.5s39.666 -10 60.999 -10c36.667 0 68 7.66699 94 23s47.667 33.333 65 54l45 -67c-10 -11.333 -21.667 -22.333 -35 -33s-28.333 -20.334 -45 -29.001s-35 -15.5 -55 -20.5s-41.667 -7.5 -65 -7.5c-38 0 -72.5 6 -103.5 18
s-57.833 29.167 -80.5 51.5s-40.167 49.5 -52.5 81.5s-18.5 67.667 -18.5 107zM423.003 293c-4 42 -17.833 75.667 -41.5 101s-58.167 38 -103.5 38c-47.333 0 -83.833 -12.667 -109.5 -38s-41.5 -59 -47.5 -101h302z" />
    <glyph glyph-name="Eogonek" unicode="&#x118;" horiz-adv-x="565" 
d="M498 -158c-17.333 -6 -34.332 -8.99805 -50.999 -8.99805c-23.333 0 -43.666 7.16699 -60.999 21.5s-26 34.5 -26 60.5c0 14.667 3.5 28.667 10.5 42s18.167 27.666 33.5 42.999h-324v700h430v-90h-340v-215h340v-90h-340v-215h340v-90h-42c-30 -32 -45 -57.667 -45 -77
c0 -8 3 -14.833 9 -20.5s15.333 -8.5 28 -8.5c5.33301 0 11.166 0.666992 17.499 2s13.166 2.66602 20.499 3.99902v-58v0z" />
    <glyph glyph-name="eogonek" unicode="&#x119;" horiz-adv-x="542" 
d="M376 -167c-23.333 0 -43.6641 7.16504 -60.9971 21.498s-26 34.5 -26 60.5c0 13.333 2.66699 26 8 38s14.333 24.667 27 38c-13.333 -2 -26.333 -3 -39 -3c-38 0 -72.5 6 -103.5 18s-57.833 29.167 -80.5 51.5s-40.167 49.5 -52.5 81.5s-18.5 67.667 -18.5 107
c0 36.667 5.83301 71.167 17.5 103.5s28.167 60.5 49.5 84.5s47.166 43 77.499 57s64.5 21 102.5 21c39.333 0 74 -6.66699 104 -20s55 -31.833 75 -55.5s35.167 -51.5 45.5 -83.5s15.5 -66.333 15.5 -103v-26h-400v-1c1.33301 -25.333 6.66602 -47.666 15.999 -66.999
s21.333 -35.5 36 -48.5s31.667 -22.833 51 -29.5s39.666 -10 60.999 -10c36.667 0 68 7.66699 94 23s47.667 33.333 65 54l45 -67c-7.33301 -8.66699 -15.666 -17 -24.999 -25s-19.666 -15.667 -30.999 -23c-27.333 -23.333 -47 -44.166 -59 -62.499
s-18 -33.166 -18 -44.499c0 -8 3 -14.833 9 -20.5s15.333 -8.5 28 -8.5c5.33301 0 11.166 0.666992 17.499 2s13.166 2.66602 20.499 3.99902v-58c-17.333 -6 -34.333 -9 -51 -9zM423.002 292.998c-4 42 -17.833 75.667 -41.5 101s-58.167 38 -103.5 38
c-47.333 0 -83.833 -12.667 -109.5 -38s-41.5 -59 -47.5 -101h302z" />
    <glyph glyph-name="Ecaron" unicode="&#x11a;" horiz-adv-x="565" 
d="M423 928l47 -52l-176 -151l-176 151l47 52l129 -112zM510 700v-90h-340v-215h340v-90h-340v-215h340v-90h-430v700h430z" />
    <glyph glyph-name="ecaron" unicode="&#x11b;" horiz-adv-x="542" 
d="M415 758l47 -52l-176 -151l-176 151l47 52l129 -112zM30 246c0 36.667 5.83594 71.167 17.5029 103.5s28.167 60.5 49.5 84.5s47.166 43 77.499 57s64.5 21 102.5 21c39.333 0 74 -6.66699 104 -20s55 -31.833 75 -55.5s35.167 -51.5 45.5 -83.5s15.5 -66.333 15.5 -103
v-26h-400v-1c1.33301 -25.333 6.66602 -47.666 15.999 -66.999s21.333 -35.5 36 -48.5s31.667 -22.833 51 -29.5s39.666 -10 60.999 -10c36.667 0 68 7.66699 94 23s47.667 33.333 65 54l45 -67c-10 -11.333 -21.667 -22.333 -35 -33s-28.333 -20.334 -45 -29.001
s-35 -15.5 -55 -20.5s-41.667 -7.5 -65 -7.5c-38 0 -72.5 6 -103.5 18s-57.833 29.167 -80.5 51.5s-40.167 49.5 -52.5 81.5s-18.5 67.667 -18.5 107zM423.003 293c-4 42 -17.833 75.667 -41.5 101s-58.167 38 -103.5 38c-47.333 0 -83.833 -12.667 -109.5 -38
s-41.5 -59 -47.5 -101h302z" />
    <glyph glyph-name="Gcircumflex" unicode="&#x11c;" horiz-adv-x="659" 
d="M388 918l176 -151l-47 -52l-129 112l-129 -112l-47 52zM50 351c0 49.333 8.99805 95.333 26.998 138s42.5 79.667 73.5 111s67.667 55.833 110 73.5s88.166 26.5 137.499 26.5c50 0 95.333 -9 136 -27s77.334 -42.333 110.001 -73l-41 -85
c-25.333 27.333 -55.166 50 -89.499 68s-74.166 27 -119.499 27c-36 0 -69.5 -6.33301 -100.5 -19s-57.833 -30.334 -80.5 -53.001s-40.5 -50 -53.5 -82s-19.5 -67.333 -19.5 -106s6.5 -74 19.5 -106s30.833 -59.333 53.5 -82s49.5 -40.334 80.5 -53.001
s64.833 -19 101.5 -19c12.667 0 23.667 0.666992 33 2s19.333 3.33301 30 6v181h-161v90h251v-337c-24 -9.33301 -48.833 -17 -74.5 -23s-52.5 -9 -80.5 -9c-47.333 0 -91.833 8.83301 -133.5 26.5s-78 42.334 -109 74.001s-55.5 68.834 -73.5 111.501s-27 89 -27 139z" />
    <glyph glyph-name="gcircumflex" unicode="&#x11d;" horiz-adv-x="613" 
d="M307 768l176 -151l-47 -52l-129 112l-129 -112l-47 52zM463 250c0 55.333 -14.5 99.5 -43.5 132.5s-69.167 49.5 -120.5 49.5c-26 0 -49.5 -4.5 -70.5 -13.5s-38.833 -21.5 -53.5 -37.5s-26 -35.167 -34 -57.5s-12 -46.833 -12 -73.5s4 -51.167 12 -73.5
s19.333 -41.5 34 -57.5s32.5 -28.5 53.5 -37.5s44.5 -13.5 70.5 -13.5c51.333 0 91.5 16.5 120.5 49.5s43.5 77.167 43.5 132.5zM40 250c0 40 6.16504 76.166 18.498 108.499s29.5 59.833 51.5 82.5s47.833 40.167 77.5 52.5s61.834 18.5 96.501 18.5
c42 0 77.667 -7.83301 107 -23.5s51.333 -34.5 66 -56.5v68h86v-473c0 -30 -3.33301 -59.333 -10 -88s-19 -54.167 -37 -76.5s-42.667 -40.5 -74 -54.5s-71.333 -21 -120 -21c-31.333 0 -59 3 -83 9s-45 14.333 -63 25s-33.667 23.667 -47 39s-24.666 32 -33.999 50l67 53
c16 -32 37.333 -56.667 64 -74s61 -26 103 -26c31.333 0 56.833 4.66699 76.5 14s35 21.833 46 37.5s18.5 33.334 22.5 53.001s6 39.5 6 59.5v41c-16 -23.333 -39.167 -42.5 -69.5 -57.5s-65.5 -22.5 -105.5 -22.5c-37.333 0 -71 6.16699 -101 18.5s-55.667 29.833 -77 52.5
s-37.833 50.167 -49.5 82.5s-17.5 68.5 -17.5 108.5z" />
    <glyph glyph-name="Gbreve" unicode="&#x11e;" horiz-adv-x="659" 
d="M530 881c0 -46 -12.5 -83 -37.5 -111s-59.833 -42 -104.5 -42s-79.5 14 -104.5 42s-37.5 65 -37.5 111h73c0 -26.667 6 -46.834 18 -60.501s29 -20.5 51 -20.5s39 6.83301 51 20.5s18 33.834 18 60.501h73zM50 351c0 49.333 8.99805 95.333 26.998 138
s42.5 79.667 73.5 111s67.667 55.833 110 73.5s88.166 26.5 137.499 26.5c50 0 95.333 -9 136 -27s77.334 -42.333 110.001 -73l-41 -85c-25.333 27.333 -55.166 50 -89.499 68s-74.166 27 -119.499 27c-36 0 -69.5 -6.33301 -100.5 -19s-57.833 -30.334 -80.5 -53.001
s-40.5 -50 -53.5 -82s-19.5 -67.333 -19.5 -106s6.5 -74 19.5 -106s30.833 -59.333 53.5 -82s49.5 -40.334 80.5 -53.001s64.833 -19 101.5 -19c12.667 0 23.667 0.666992 33 2s19.333 3.33301 30 6v181h-161v90h251v-337c-24 -9.33301 -48.833 -17 -74.5 -23
s-52.5 -9 -80.5 -9c-47.333 0 -91.833 8.83301 -133.5 26.5s-78 42.334 -109 74.001s-55.5 68.834 -73.5 111.501s-27 89 -27 139z" />
    <glyph glyph-name="gbreve" unicode="&#x11f;" horiz-adv-x="613" 
d="M449 731c0 -46 -12.5 -83 -37.5 -111s-59.833 -42 -104.5 -42s-79.5 14 -104.5 42s-37.5 65 -37.5 111h73c0 -26.667 6 -46.834 18 -60.501s29 -20.5 51 -20.5s39 6.83301 51 20.5s18 33.834 18 60.501h73zM463 250c0 55.333 -14.5 99.5 -43.5 132.5
s-69.167 49.5 -120.5 49.5c-26 0 -49.5 -4.5 -70.5 -13.5s-38.833 -21.5 -53.5 -37.5s-26 -35.167 -34 -57.5s-12 -46.833 -12 -73.5s4 -51.167 12 -73.5s19.333 -41.5 34 -57.5s32.5 -28.5 53.5 -37.5s44.5 -13.5 70.5 -13.5c51.333 0 91.5 16.5 120.5 49.5
s43.5 77.167 43.5 132.5zM40 250c0 40 6.16504 76.166 18.498 108.499s29.5 59.833 51.5 82.5s47.833 40.167 77.5 52.5s61.834 18.5 96.501 18.5c42 0 77.667 -7.83301 107 -23.5s51.333 -34.5 66 -56.5v68h86v-473c0 -30 -3.33301 -59.333 -10 -88s-19 -54.167 -37 -76.5
s-42.667 -40.5 -74 -54.5s-71.333 -21 -120 -21c-31.333 0 -59 3 -83 9s-45 14.333 -63 25s-33.667 23.667 -47 39s-24.666 32 -33.999 50l67 53c16 -32 37.333 -56.667 64 -74s61 -26 103 -26c31.333 0 56.833 4.66699 76.5 14s35 21.833 46 37.5s18.5 33.334 22.5 53.001
s6 39.5 6 59.5v41c-16 -23.333 -39.167 -42.5 -69.5 -57.5s-65.5 -22.5 -105.5 -22.5c-37.333 0 -71 6.16699 -101 18.5s-55.667 29.833 -77 52.5s-37.833 50.167 -49.5 82.5s-17.5 68.5 -17.5 108.5z" />
    <glyph glyph-name="Gdotaccent" unicode="&#x120;" horiz-adv-x="659" 
d="M320 794c0 19.333 6.5 35.5 19.5 48.5s29.167 19.5 48.5 19.5s35.5 -6.5 48.5 -19.5s19.5 -29.167 19.5 -48.5s-6.5 -35.5 -19.5 -48.5s-29.167 -19.5 -48.5 -19.5s-35.5 6.5 -48.5 19.5s-19.5 29.167 -19.5 48.5zM50 351c0 49.333 8.99805 95.333 26.998 138
s42.5 79.667 73.5 111s67.667 55.833 110 73.5s88.166 26.5 137.499 26.5c50 0 95.333 -9 136 -27s77.334 -42.333 110.001 -73l-41 -85c-25.333 27.333 -55.166 50 -89.499 68s-74.166 27 -119.499 27c-36 0 -69.5 -6.33301 -100.5 -19s-57.833 -30.334 -80.5 -53.001
s-40.5 -50 -53.5 -82s-19.5 -67.333 -19.5 -106s6.5 -74 19.5 -106s30.833 -59.333 53.5 -82s49.5 -40.334 80.5 -53.001s64.833 -19 101.5 -19c12.667 0 23.667 0.666992 33 2s19.333 3.33301 30 6v181h-161v90h251v-337c-24 -9.33301 -48.833 -17 -74.5 -23
s-52.5 -9 -80.5 -9c-47.333 0 -91.833 8.83301 -133.5 26.5s-78 42.334 -109 74.001s-55.5 68.834 -73.5 111.501s-27 89 -27 139z" />
    <glyph glyph-name="gdotaccent" unicode="&#x121;" horiz-adv-x="613" 
d="M239 644c0 19.333 6.5 35.5 19.5 48.5s29.167 19.5 48.5 19.5s35.5 -6.5 48.5 -19.5s19.5 -29.167 19.5 -48.5s-6.5 -35.5 -19.5 -48.5s-29.167 -19.5 -48.5 -19.5s-35.5 6.5 -48.5 19.5s-19.5 29.167 -19.5 48.5zM463 250c0 55.333 -14.5 99.5 -43.5 132.5
s-69.167 49.5 -120.5 49.5c-26 0 -49.5 -4.5 -70.5 -13.5s-38.833 -21.5 -53.5 -37.5s-26 -35.167 -34 -57.5s-12 -46.833 -12 -73.5s4 -51.167 12 -73.5s19.333 -41.5 34 -57.5s32.5 -28.5 53.5 -37.5s44.5 -13.5 70.5 -13.5c51.333 0 91.5 16.5 120.5 49.5
s43.5 77.167 43.5 132.5zM40 250c0 40 6.16504 76.166 18.498 108.499s29.5 59.833 51.5 82.5s47.833 40.167 77.5 52.5s61.834 18.5 96.501 18.5c42 0 77.667 -7.83301 107 -23.5s51.333 -34.5 66 -56.5v68h86v-473c0 -30 -3.33301 -59.333 -10 -88s-19 -54.167 -37 -76.5
s-42.667 -40.5 -74 -54.5s-71.333 -21 -120 -21c-31.333 0 -59 3 -83 9s-45 14.333 -63 25s-33.667 23.667 -47 39s-24.666 32 -33.999 50l67 53c16 -32 37.333 -56.667 64 -74s61 -26 103 -26c31.333 0 56.833 4.66699 76.5 14s35 21.833 46 37.5s18.5 33.334 22.5 53.001
s6 39.5 6 59.5v41c-16 -23.333 -39.167 -42.5 -69.5 -57.5s-65.5 -22.5 -105.5 -22.5c-37.333 0 -71 6.16699 -101 18.5s-55.667 29.833 -77 52.5s-37.833 50.167 -49.5 82.5s-17.5 68.5 -17.5 108.5z" />
    <glyph glyph-name="Gcommaaccent" unicode="&#x122;" horiz-adv-x="659" 
d="M50 351c0 49.333 8.99805 95.333 26.998 138s42.5 79.667 73.5 111s67.667 55.833 110 73.5s88.166 26.5 137.499 26.5c50 0 95.333 -9 136 -27s77.334 -42.333 110.001 -73l-41 -85c-25.333 27.333 -55.166 50 -89.499 68s-74.166 27 -119.499 27
c-36 0 -69.5 -6.33301 -100.5 -19s-57.833 -30.334 -80.5 -53.001s-40.5 -50 -53.5 -82s-19.5 -67.333 -19.5 -106s6.5 -74 19.5 -106s30.833 -59.333 53.5 -82s49.5 -40.334 80.5 -53.001s64.833 -19 101.5 -19c12.667 0 23.667 0.666992 33 2s19.333 3.33301 30 6v181
h-161v90h251v-337c-24 -9.33301 -48.833 -17 -74.5 -23s-52.5 -9 -80.5 -9c-47.333 0 -91.833 8.83301 -133.5 26.5s-78 42.334 -109 74.001s-55.5 68.834 -73.5 111.501s-27 89 -27 139zM328.998 -231l46.001 76.999c-13.333 3.33301 -24.5 10.5 -33.5 21.5
s-13.5 23.833 -13.5 38.5c0 17.333 6 32 18 44s26.667 18 44 18s32 -6 44 -18s18 -26.667 18 -44c0 -5.33301 -0.833008 -10.666 -2.5 -15.999s-3.83398 -10.333 -6.50098 -15l-73 -129z" />
    <glyph glyph-name="gcommaaccent" unicode="&#x123;" horiz-adv-x="613" 
d="M282 560c-17.333 0 -32.001 6.00098 -44.001 18.001s-18 26.667 -18 44c0 5.33301 0.833008 10.666 2.5 15.999s3.83398 10.333 6.50098 15l73 129l41 -23l-46 -77c13.333 -3.33301 24.5 -10.5 33.5 -21.5s13.5 -23.833 13.5 -38.5c0 -17.333 -6 -32 -18 -44
s-26.667 -18 -44 -18zM462.999 250.001c0 55.333 -14.5 99.5 -43.5 132.5s-69.167 49.5 -120.5 49.5c-26 0 -49.5 -4.5 -70.5 -13.5s-38.833 -21.5 -53.5 -37.5s-26 -35.167 -34 -57.5s-12 -46.833 -12 -73.5s4 -51.167 12 -73.5s19.333 -41.5 34 -57.5
s32.5 -28.5 53.5 -37.5s44.5 -13.5 70.5 -13.5c51.333 0 91.5 16.5 120.5 49.5s43.5 77.167 43.5 132.5zM39.999 250.001c0 40 6.16504 76.166 18.498 108.499s29.5 59.833 51.5 82.5s47.833 40.167 77.5 52.5s61.834 18.5 96.501 18.5c42 0 77.667 -7.83301 107 -23.5
s51.333 -34.5 66 -56.5v68h86v-473c0 -30 -3.33301 -59.333 -10 -88s-19 -54.167 -37 -76.5s-42.667 -40.5 -74 -54.5s-71.333 -21 -120 -21c-31.333 0 -59 3 -83 9s-45 14.333 -63 25s-33.667 23.667 -47 39s-24.666 32 -33.999 50l67 53c16 -32 37.333 -56.667 64 -74
s61 -26 103 -26c31.333 0 56.833 4.66699 76.5 14s35 21.833 46 37.5s18.5 33.334 22.5 53.001s6 39.5 6 59.5v41c-16 -23.333 -39.167 -42.5 -69.5 -57.5s-65.5 -22.5 -105.5 -22.5c-37.333 0 -71 6.16699 -101 18.5s-55.667 29.833 -77 52.5s-37.833 50.167 -49.5 82.5
s-17.5 68.5 -17.5 108.5z" />
    <glyph glyph-name="Hcircumflex" unicode="&#x124;" horiz-adv-x="740" 
d="M370 918l176 -151l-47 -52l-129 112l-129 -112l-47 52zM660 700v-700h-90v305h-400v-305h-90v700h90v-305h400v305h90z" />
    <glyph glyph-name="hcircumflex" unicode="&#x125;" horiz-adv-x="567" 
d="M117 918l176 -151l-47 -52l-129 112l-129 -112l-47 52zM156 700v-266c38 52 92.333 78 163 78c32 0 59.833 -5.33301 83.5 -16s43.167 -25.5 58.5 -44.5s26.833 -42 34.5 -69s11.5 -56.5 11.5 -88.5v-294h-88v298c0 41.333 -10 74 -30 98s-49 36 -87 36
c-28.667 0 -52.5 -5.16699 -71.5 -15.5s-34 -24.333 -45 -42s-18.667 -38.667 -23 -63s-6.5 -50.5 -6.5 -78.5v-233h-86v700h86z" />
    <glyph glyph-name="Hbar" unicode="&#x126;" horiz-adv-x="740" 
d="M570 395v102h-400v-102h400zM170 0h-90v497h-50v90h50v113h90v-113h400v113h90v-113h50v-90h-50v-497h-90v305h-400v-305z" />
    <glyph glyph-name="hbar" unicode="&#x127;" horiz-adv-x="567" 
d="M156 0h-86v585h-68v67h68v48h86v-48h108v-67h-108v-151c38 52 92.333 78 163 78c32 0 59.833 -5.33301 83.5 -16s43.167 -25.5 58.5 -44.5s26.833 -42 34.5 -69s11.5 -56.5 11.5 -88.5v-294h-88v298c0 41.333 -10 74 -30 98s-49 36 -87 36
c-28.667 0 -52.5 -5.16699 -71.5 -15.5s-34 -24.333 -45 -42s-18.667 -38.667 -23 -63s-6.5 -50.5 -6.5 -78.5v-233z" />
    <glyph glyph-name="Itilde" unicode="&#x128;" horiz-adv-x="250" 
d="M184 737c-12 0 -23.5 2.5 -34.5 7.5s-21.333 10.333 -31 16l-27 16c-8.33301 5 -16.166 7.5 -23.499 7.5c-9.33301 0 -18.666 -4 -27.999 -12s-18.666 -17 -27.999 -27l-48 46c6.66699 8 14.167 16.167 22.5 24.5s17 15.666 26 21.999s18.333 11.666 28 15.999
s19.5 6.5 29.5 6.5c12 0 23.5 -2.5 34.5 -7.5s21.333 -10.333 31 -16l27 -16c8.33301 -5 16.166 -7.5 23.499 -7.5c9.33301 0 18.666 4 27.999 12s18.666 17 27.999 27l48 -46c-6.66699 -8 -14.167 -16.167 -22.5 -24.5s-17 -15.666 -26 -21.999
s-18.333 -11.666 -28 -15.999s-19.5 -6.5 -29.5 -6.5zM170 700v-700h-90v700h90z" />
    <glyph glyph-name="itilde" unicode="&#x129;" horiz-adv-x="236" 
d="M175 577c-12 0 -23.5 2.5 -34.5 7.5s-21.333 10.333 -31 16l-27 16c-8.33301 5 -16.166 7.5 -23.499 7.5c-9.33301 0 -18.666 -4 -27.999 -12s-18.666 -17 -27.999 -27l-48 46c6.66699 8 14.167 16.167 22.5 24.5s17 15.666 26 21.999s18.333 11.666 28 15.999
s19.5 6.5 29.5 6.5c12 0 23.5 -2.5 34.5 -7.5s21.333 -10.333 31 -16l27 -16c8.33301 -5 16.166 -7.5 23.499 -7.5c9.33301 0 18.666 4 27.999 12s18.666 17 27.999 27l48 -46c-6.66699 -8 -14.167 -16.167 -22.5 -24.5s-17 -15.666 -26 -21.999
s-18.333 -11.666 -28 -15.999s-19.5 -6.5 -29.5 -6.5zM161 500v-500h-86v500h86z" />
    <glyph glyph-name="Imacron" unicode="&#x12a;" horiz-adv-x="250" 
d="M275 827v-70h-300v70h300zM170 700v-700h-90v700h90z" />
    <glyph glyph-name="imacron" unicode="&#x12b;" horiz-adv-x="236" 
d="M268 687v-70h-300v70h300zM161 500v-500h-86v500h86z" />
    <glyph glyph-name="Ibreve" unicode="&#x12c;" horiz-adv-x="250" 
d="M267 881c0 -46 -12.5 -83 -37.5 -111s-59.833 -42 -104.5 -42s-79.5 14 -104.5 42s-37.5 65 -37.5 111h73c0 -26.667 6 -46.834 18 -60.501s29 -20.5 51 -20.5s39 6.83301 51 20.5s18 33.834 18 60.501h73zM170 700v-700h-90v700h90z" />
    <glyph glyph-name="ibreve" unicode="&#x12d;" horiz-adv-x="236" 
d="M260 731c0 -46 -12.5 -83 -37.5 -111s-59.833 -42 -104.5 -42s-79.5 14 -104.5 42s-37.5 65 -37.5 111h73c0 -26.667 6 -46.834 18 -60.501s29 -20.5 51 -20.5s39 6.83301 51 20.5s18 33.834 18 60.501h73zM161 500v-500h-86v500h86z" />
    <glyph glyph-name="Iogonek" unicode="&#x12e;" horiz-adv-x="250" 
d="M165 -158c-17.333 -6 -34.332 -8.99902 -50.999 -8.99902c-23.333 0 -43.666 7.16699 -60.999 21.5s-26 34.5 -26 60.5c0 16 4 31.333 12 46s21.667 30.667 41 48v691h90v-700h-35c-30 -32 -45 -57.667 -45 -77c0 -8 3 -14.833 9 -20.5s15.333 -8.5 28 -8.5
c5.33301 0 11.166 0.666992 17.499 2s13.166 2.66602 20.499 3.99902v-58v0z" />
    <glyph glyph-name="iogonek" unicode="&#x12f;" horiz-adv-x="236" 
d="M50 644c0 19.333 6.5 35.5 19.5 48.5s29.167 19.5 48.5 19.5s35.5 -6.5 48.5 -19.5s19.5 -29.167 19.5 -48.5s-6.5 -35.5 -19.5 -48.5s-29.167 -19.5 -48.5 -19.5s-35.5 6.5 -48.5 19.5s-19.5 29.167 -19.5 48.5zM159 -158
c-17.333 -6 -34.3311 -8.99902 -50.998 -8.99902c-23.333 0 -43.666 7.16699 -60.999 21.5s-26 34.5 -26 60.5c0 16 4.16699 31.333 12.5 46s22.166 31 41.499 49v490h86v-500h-32c-30 -32 -45 -57.667 -45 -77c0 -8 3 -14.833 9 -20.5s15.333 -8.5 28 -8.5
c5.33301 0 11.166 0.666992 17.499 2s13.166 2.66602 20.499 3.99902v-58z" />
    <glyph glyph-name="Idotaccent" unicode="&#x130;" horiz-adv-x="250" 
d="M57 794c0 19.333 6.5 35.5 19.5 48.5s29.167 19.5 48.5 19.5s35.5 -6.5 48.5 -19.5s19.5 -29.167 19.5 -48.5s-6.5 -35.5 -19.5 -48.5s-29.167 -19.5 -48.5 -19.5s-35.5 6.5 -48.5 19.5s-19.5 29.167 -19.5 48.5zM170 700v-700h-90v700h90z" />
    <glyph glyph-name="dotlessi" unicode="&#x131;" horiz-adv-x="236" 
d="M161 500v-500h-86v500h86z" />
    <glyph glyph-name="Jcircumflex" unicode="&#x134;" horiz-adv-x="492" 
d="M377 918l176 -151l-47 -52l-129 112l-129 -112l-47 52zM422 700l0.000976562 -479c0 -32.667 -4.33301 -62.5 -13 -89.5s-21.5 -50.333 -38.5 -70s-38.167 -34.834 -63.5 -45.501s-54.333 -16 -87 -16c-36.667 0 -68 6.16699 -94 18.5s-47.167 28 -63.5 47
s-28.333 40.333 -36 64s-11.5 46.834 -11.5 69.501l83 41c0 -20 2.33301 -39.167 7 -57.5s12 -34.333 22 -48s22.667 -24.5 38 -32.5s33.666 -12 54.999 -12c20 0 37.167 3.5 51.5 10.5s26 16.5 35 28.5s15.5 25.833 19.5 41.5s6 32.5 6 50.5v479h90z" />
    <glyph glyph-name="jcircumflex" unicode="&#x135;" horiz-adv-x="255" 
d="M131 758l176 -151l-47 -52l-129 112l-129 -112l-47 52zM175 500l0.000976562 -524.001c0 -30 -3.5 -56.333 -10.5 -79s-18.333 -41.5 -34 -56.5s-36.334 -26.167 -62.001 -33.5s-57.167 -11 -94.5 -11h-4v83h4c24 0 43.5 2.16699 58.5 6.5s26.667 10.833 35 19.5
s14 18.834 17 30.501s4.5 25.167 4.5 40.5v524h86z" />
    <glyph glyph-name="Kcommaaccent" unicode="&#x136;" horiz-adv-x="647" 
d="M276 330l-106 -107v-223h-90v700h90v-349l345 349h127l-302 -305l302 -395h-114zM263 -231l46.001 76.999c-13.333 3.33301 -24.5 10.5 -33.5 21.5s-13.5 23.833 -13.5 38.5c0 17.333 6 32 18 44s26.667 18 44 18s32 -6 44 -18s18 -26.667 18 -44
c0 -5.33301 -0.833008 -10.666 -2.5 -15.999s-3.83398 -10.333 -6.50098 -15l-73 -129z" />
    <glyph glyph-name="kcommaaccent" unicode="&#x137;" horiz-adv-x="515" 
d="M231 223l-75 -76v-147h-86v700h86v-442l228 242h121l-216 -218l216 -282h-112zM197 -231l46.001 76.999c-13.333 3.33301 -24.5 10.5 -33.5 21.5s-13.5 23.833 -13.5 38.5c0 17.333 6 32 18 44s26.667 18 44 18s32 -6 44 -18s18 -26.667 18 -44
c0 -5.33301 -0.833008 -10.666 -2.5 -15.999s-3.83398 -10.333 -6.50098 -15l-73 -129z" />
    <glyph glyph-name="kgreenlandic" unicode="&#x138;" horiz-adv-x="515" 
d="M231 223l-75 -76v-147h-86v500h86v-242l228 242h121l-216 -218l216 -282h-112z" />
    <glyph glyph-name="Lacute" unicode="&#x139;" horiz-adv-x="532" 
d="M304 907l41 -63l-213 -133l-39 60zM170 700v-610h347v-90h-437v700h90z" />
    <glyph glyph-name="lacute" unicode="&#x13a;" horiz-adv-x="228" 
d="M215 907l41 -63l-213 -133l-39 60zM158 700v-700h-88v700h88z" />
    <glyph glyph-name="Lcommaaccent" unicode="&#x13b;" horiz-adv-x="532" 
d="M170 700v-610h347v-90h-437v700h90zM205 -231l46.001 76.999c-13.333 3.33301 -24.5 10.5 -33.5 21.5s-13.5 23.833 -13.5 38.5c0 17.333 6 32 18 44s26.667 18 44 18s32 -6 44 -18s18 -26.667 18 -44c0 -5.33301 -0.833008 -10.666 -2.5 -15.999
s-3.83398 -10.333 -6.50098 -15l-73 -129z" />
    <glyph glyph-name="lcommaaccent" unicode="&#x13c;" horiz-adv-x="228" 
d="M158 700v-700h-88v700h88zM53 -231l46.001 76.999c-13.333 3.33301 -24.5 10.5 -33.5 21.5s-13.5 23.833 -13.5 38.5c0 17.333 6 32 18 44s26.667 18 44 18s32 -6 44 -18s18 -26.667 18 -44c0 -5.33301 -0.833008 -10.666 -2.5 -15.999s-3.83398 -10.333 -6.50098 -15
l-73 -129z" />
    <glyph glyph-name="Lcaron" unicode="&#x13d;" horiz-adv-x="532" 
d="M301 445l71 122c-16.667 4.66699 -30.167 13.667 -40.5 27s-15.5 28.333 -15.5 45c0 19.333 7 36.5 21 51.5s31.667 22.5 53 22.5s39 -7.5 53 -22.5s21 -32.167 21 -51.5c0 -13.333 -3 -25 -9 -35l-104 -187zM170 700v-610h347v-90h-437v700h90z" />
    <glyph glyph-name="lcaron" unicode="&#x13e;" horiz-adv-x="368" 
d="M200 444l71 122c-16.667 4.66699 -30.167 13.667 -40.5 27s-15.5 28.333 -15.5 45c0 19.333 7 36.5 21 51.5s31.667 22.5 53 22.5s39 -7.5 53 -22.5s21 -32.167 21 -51.5c0 -13.333 -3 -25 -9 -35l-104 -187zM158 700v-700h-88v700h88z" />
    <glyph glyph-name="Ldot" unicode="&#x13f;" horiz-adv-x="532" 
d="M170 700v-610h347v-90h-437v700h90zM366 516c22 0 40.667 -7.66699 56 -23s23 -34 23 -56s-7.66699 -40.5 -23 -55.5s-34 -22.5 -56 -22.5s-40.5 7.5 -55.5 22.5s-22.5 33.5 -22.5 55.5s7.5 40.667 22.5 56s33.5 23 55.5 23z" />
    <glyph glyph-name="ldot" unicode="&#x140;" horiz-adv-x="354" 
d="M158 700v-700h-88v700h88zM208 396c0 19.333 6.5 35.5 19.5 48.5s29.167 19.5 48.5 19.5s35.5 -6.5 48.5 -19.5s19.5 -29.167 19.5 -48.5s-6.5 -35.5 -19.5 -48.5s-29.167 -19.5 -48.5 -19.5s-35.5 6.5 -48.5 19.5s-19.5 29.167 -19.5 48.5z" />
    <glyph glyph-name="Lslash" unicode="&#x141;" horiz-adv-x="532" 
d="M80 0v241l-62 -26l-31 74l93 39v372h90v-335l189 78l31 -74l-220 -91v-188h347v-90h-437z" />
    <glyph glyph-name="lslash" unicode="&#x142;" horiz-adv-x="228" 
d="M70 0v335l-96 -43l-29 62l125 56v290h88v-251l96 43l29 -62l-125 -56v-374h-88z" />
    <glyph glyph-name="Nacute" unicode="&#x143;" horiz-adv-x="767" 
d="M490 907l41 -63l-213 -133l-39 60zM697 700v-700h-90l-447 555v-555h-90v700h90l447 -556v556h90z" />
    <glyph glyph-name="nacute" unicode="&#x144;" horiz-adv-x="577" 
d="M384 767l41 -63l-213 -133l-39 60zM153 433c20 28 44.501 48.167 73.501 60.5s59.833 18.5 92.5 18.5c32 0 59.833 -5.33301 83.5 -16s43.167 -25.5 58.5 -44.5s26.833 -42 34.5 -69s11.5 -56.5 11.5 -88.5v-294h-88v298c0 44 -10.833 77.333 -32.5 100
s-50.167 34 -85.5 34c-28.667 0 -52.334 -5.16699 -71.001 -15.5s-33.5 -24.333 -44.5 -42s-18.667 -38.667 -23 -63s-6.5 -50.5 -6.5 -78.5v-233h-86v500h83v-67z" />
    <glyph glyph-name="Ncommaaccent" unicode="&#x145;" horiz-adv-x="767" 
d="M697 700v-700h-90l-447 555v-555h-90v700h90l447 -556v556h90zM298 -231l46.001 76.999c-13.333 3.33301 -24.5 10.5 -33.5 21.5s-13.5 23.833 -13.5 38.5c0 17.333 6 32 18 44s26.667 18 44 18s32 -6 44 -18s18 -26.667 18 -44
c0 -5.33301 -0.833008 -10.666 -2.5 -15.999s-3.83398 -10.333 -6.50098 -15l-73 -129z" />
    <glyph glyph-name="ncommaaccent" unicode="&#x146;" horiz-adv-x="577" 
d="M153 433c20 28 44.501 48.167 73.501 60.5s59.833 18.5 92.5 18.5c32 0 59.833 -5.33301 83.5 -16s43.167 -25.5 58.5 -44.5s26.833 -42 34.5 -69s11.5 -56.5 11.5 -88.5v-294h-88v298c0 44 -10.833 77.333 -32.5 100s-50.167 34 -85.5 34
c-28.667 0 -52.334 -5.16699 -71.001 -15.5s-33.5 -24.333 -44.5 -42s-18.667 -38.667 -23 -63s-6.5 -50.5 -6.5 -78.5v-233h-86v500h83v-67zM228.001 -231l46.001 76.999c-13.333 3.33301 -24.5 10.5 -33.5 21.5s-13.5 23.833 -13.5 38.5c0 17.333 6 32 18 44
s26.667 18 44 18s32 -6 44 -18s18 -26.667 18 -44c0 -5.33301 -0.833008 -10.666 -2.5 -15.999s-3.83398 -10.333 -6.50098 -15l-73 -129z" />
    <glyph glyph-name="Ncaron" unicode="&#x147;" horiz-adv-x="767" 
d="M518 928l47 -52l-176 -151l-176 151l47 52l129 -112zM697 700v-700h-90l-447 555v-555h-90v700h90l447 -556v556h90z" />
    <glyph glyph-name="ncaron" unicode="&#x148;" horiz-adv-x="577" 
d="M418 758l47 -52l-176 -151l-176 151l47 52l129 -112zM153 433c20 28 44.501 48.167 73.501 60.5s59.833 18.5 92.5 18.5c32 0 59.833 -5.33301 83.5 -16s43.167 -25.5 58.5 -44.5s26.833 -42 34.5 -69s11.5 -56.5 11.5 -88.5v-294h-88v298c0 44 -10.833 77.333 -32.5 100
s-50.167 34 -85.5 34c-28.667 0 -52.334 -5.16699 -71.001 -15.5s-33.5 -24.333 -44.5 -42s-18.667 -38.667 -23 -63s-6.5 -50.5 -6.5 -78.5v-233h-86v500h83v-67z" />
    <glyph glyph-name="napostrophe" unicode="&#x149;" horiz-adv-x="648" 
d="M5 444l71 122c-16.667 4.66699 -30.167 13.667 -40.5 27s-15.5 28.333 -15.5 45c0 19.333 7 36.5 21 51.5s31.667 22.5 53 22.5s39 -7.5 53 -22.5s21 -32.167 21 -51.5c0 -13.333 -3 -25 -9 -35l-104 -187zM224 433c20 28 44.501 48.167 73.501 60.5
s59.833 18.5 92.5 18.5c32 0 59.833 -5.33301 83.5 -16s43.167 -25.5 58.5 -44.5s26.833 -42 34.5 -69s11.5 -56.5 11.5 -88.5v-294h-88v298c0 44 -10.833 77.333 -32.5 100s-50.167 34 -85.5 34c-28.667 0 -52.334 -5.16699 -71.001 -15.5s-33.5 -24.333 -44.5 -42
s-18.667 -38.667 -23 -63s-6.5 -50.5 -6.5 -78.5v-233h-86v500h83v-67z" />
    <glyph glyph-name="Eng" unicode="&#x14a;" horiz-adv-x="767" 
d="M544 -202c-9.33301 0 -19.166 0.5 -29.499 1.5s-21.5 2.16699 -33.5 3.5v78c12.667 -1.33301 22.167 -2.16602 28.5 -2.49902s14.166 -0.5 23.499 -0.5c25.333 0 44.333 6.66699 57 20s19 38.666 19 75.999v26h-2l-447 555v-555h-90v700h90l447 -556v556h90v-726
c0 -64 -14 -109.333 -42 -136s-65 -40 -111 -40z" />
    <glyph glyph-name="eng" unicode="&#x14b;" horiz-adv-x="572" 
d="M364 -202c-9.33301 0 -19.165 0.498047 -29.498 1.49805s-21.5 2.16699 -33.5 3.5v78c12.667 -1.33301 22.167 -2.16602 28.5 -2.49902s14.166 -0.5 23.499 -0.5c22 0 38.5 6.33301 49.5 19s16.5 36.667 16.5 72v329c0 44 -10.833 77.333 -32.5 100s-50.167 34 -85.5 34
c-28.667 0 -52.334 -5.16699 -71.001 -15.5s-33.5 -24.333 -44.5 -42s-18.667 -38.667 -23 -63s-6.5 -50.5 -6.5 -78.5v-233h-86v500h83v-67c20 28 44.5 48.167 73.5 60.5s59.833 18.5 92.5 18.5c32 0 59.833 -5.33301 83.5 -16s43.167 -25.5 58.5 -44.5
s26.833 -42 34.5 -69s11.5 -56.5 11.5 -88.5v-325c0 -31.333 -3.5 -57.833 -10.5 -79.5s-16.667 -39.167 -29 -52.5s-27.333 -23.166 -45 -29.499s-37.167 -9.5 -58.5 -9.5z" />
    <glyph glyph-name="Omacron" unicode="&#x14c;" horiz-adv-x="800" 
d="M548 827v-70h-300v70h300zM50 350c0 50 8.83301 96.333 26.5 139s42.167 79.667 73.5 111s68.333 55.833 111 73.5s89 26.5 139 26.5s96.5 -8.83301 139.5 -26.5s80 -42.167 111 -73.5s55.333 -68.333 73 -111s26.5 -89 26.5 -139s-8.83301 -96.333 -26.5 -139
s-42 -79.667 -73 -111s-68 -55.833 -111 -73.5s-89.5 -26.5 -139.5 -26.5s-96.333 8.83301 -139 26.5s-79.667 42.167 -111 73.5s-55.833 68.333 -73.5 111s-26.5 89 -26.5 139zM660 350c0 37.333 -6.5 72 -19.5 104s-31 59.5 -54 82.5s-50.5 41 -82.5 54
s-66.667 19.5 -104 19.5s-72 -6.5 -104 -19.5s-59.5 -31 -82.5 -54s-41 -50.5 -54 -82.5s-19.5 -66.667 -19.5 -104s6.5 -72 19.5 -104s31 -59.5 54 -82.5s50.5 -41 82.5 -54s66.667 -19.5 104 -19.5s72 6.5 104 19.5s59.5 31 82.5 54s41 50.5 54 82.5s19.5 66.667 19.5 104
z" />
    <glyph glyph-name="omacron" unicode="&#x14d;" horiz-adv-x="584" 
d="M442 687v-70h-300v70h300zM30 250c0 37.333 6.66699 72 20 104s31.666 59.667 54.999 83s51 41.666 83 54.999s66.667 20 104 20s72 -6.66699 104 -20s59.667 -31.666 83 -54.999s41.666 -51 54.999 -83s20 -66.667 20 -104s-6.66699 -72 -20 -104
s-31.666 -59.667 -54.999 -83s-51 -41.666 -83 -54.999s-66.667 -20 -104 -20s-72 6.66699 -104 20s-59.667 31.666 -83 54.999s-41.666 51 -54.999 83s-20 66.667 -20 104zM465 250c0 26 -4.16699 50 -12.5 72s-20 40.833 -35 56.5s-33.167 28 -54.5 37s-45 13.5 -71 13.5
s-49.667 -4.5 -71 -13.5s-39.5 -21.333 -54.5 -37s-26.667 -34.5 -35 -56.5s-12.5 -46 -12.5 -72s4.16699 -50 12.5 -72s20 -40.833 35 -56.5s33.167 -28 54.5 -37s45 -13.5 71 -13.5s49.667 4.5 71 13.5s39.5 21.333 54.5 37s26.667 34.5 35 56.5s12.5 46 12.5 72z" />
    <glyph glyph-name="Obreve" unicode="&#x14e;" horiz-adv-x="800" 
d="M540 881c0 -46 -12.5 -83 -37.5 -111s-59.833 -42 -104.5 -42s-79.5 14 -104.5 42s-37.5 65 -37.5 111h73c0 -26.667 6 -46.834 18 -60.501s29 -20.5 51 -20.5s39 6.83301 51 20.5s18 33.834 18 60.501h73zM50 350c0 50 8.83301 96.333 26.5 139s42.167 79.667 73.5 111
s68.333 55.833 111 73.5s89 26.5 139 26.5s96.5 -8.83301 139.5 -26.5s80 -42.167 111 -73.5s55.333 -68.333 73 -111s26.5 -89 26.5 -139s-8.83301 -96.333 -26.5 -139s-42 -79.667 -73 -111s-68 -55.833 -111 -73.5s-89.5 -26.5 -139.5 -26.5s-96.333 8.83301 -139 26.5
s-79.667 42.167 -111 73.5s-55.833 68.333 -73.5 111s-26.5 89 -26.5 139zM660 350c0 37.333 -6.5 72 -19.5 104s-31 59.5 -54 82.5s-50.5 41 -82.5 54s-66.667 19.5 -104 19.5s-72 -6.5 -104 -19.5s-59.5 -31 -82.5 -54s-41 -50.5 -54 -82.5s-19.5 -66.667 -19.5 -104
s6.5 -72 19.5 -104s31 -59.5 54 -82.5s50.5 -41 82.5 -54s66.667 -19.5 104 -19.5s72 6.5 104 19.5s59.5 31 82.5 54s41 50.5 54 82.5s19.5 66.667 19.5 104z" />
    <glyph glyph-name="obreve" unicode="&#x14f;" horiz-adv-x="584" 
d="M434 731c0 -46 -12.5 -83 -37.5 -111s-59.833 -42 -104.5 -42s-79.5 14 -104.5 42s-37.5 65 -37.5 111h73c0 -26.667 6 -46.834 18 -60.501s29 -20.5 51 -20.5s39 6.83301 51 20.5s18 33.834 18 60.501h73zM30 250c0 37.333 6.66699 72 20 104s31.666 59.667 54.999 83
s51 41.666 83 54.999s66.667 20 104 20s72 -6.66699 104 -20s59.667 -31.666 83 -54.999s41.666 -51 54.999 -83s20 -66.667 20 -104s-6.66699 -72 -20 -104s-31.666 -59.667 -54.999 -83s-51 -41.666 -83 -54.999s-66.667 -20 -104 -20s-72 6.66699 -104 20
s-59.667 31.666 -83 54.999s-41.666 51 -54.999 83s-20 66.667 -20 104zM465 250c0 26 -4.16699 50 -12.5 72s-20 40.833 -35 56.5s-33.167 28 -54.5 37s-45 13.5 -71 13.5s-49.667 -4.5 -71 -13.5s-39.5 -21.333 -54.5 -37s-26.667 -34.5 -35 -56.5s-12.5 -46 -12.5 -72
s4.16699 -50 12.5 -72s20 -40.833 35 -56.5s33.167 -28 54.5 -37s45 -13.5 71 -13.5s49.667 4.5 71 13.5s39.5 21.333 54.5 37s26.667 34.5 35 56.5s12.5 46 12.5 72z" />
    <glyph glyph-name="Ohungarumlaut" unicode="&#x150;" horiz-adv-x="800" 
d="M382 928l61 -41l-113 -163l-59 39zM535 918l61 -41l-113 -163l-59 39zM50 350c0 50 8.83301 96.333 26.5 139s42.167 79.667 73.5 111s68.333 55.833 111 73.5s89 26.5 139 26.5s96.5 -8.83301 139.5 -26.5s80 -42.167 111 -73.5s55.333 -68.333 73 -111
s26.5 -89 26.5 -139s-8.83301 -96.333 -26.5 -139s-42 -79.667 -73 -111s-68 -55.833 -111 -73.5s-89.5 -26.5 -139.5 -26.5s-96.333 8.83301 -139 26.5s-79.667 42.167 -111 73.5s-55.833 68.333 -73.5 111s-26.5 89 -26.5 139zM660 350c0 37.333 -6.5 72 -19.5 104
s-31 59.5 -54 82.5s-50.5 41 -82.5 54s-66.667 19.5 -104 19.5s-72 -6.5 -104 -19.5s-59.5 -31 -82.5 -54s-41 -50.5 -54 -82.5s-19.5 -66.667 -19.5 -104s6.5 -72 19.5 -104s31 -59.5 54 -82.5s50.5 -41 82.5 -54s66.667 -19.5 104 -19.5s72 6.5 104 19.5s59.5 31 82.5 54
s41 50.5 54 82.5s19.5 66.667 19.5 104z" />
    <glyph glyph-name="ohungarumlaut" unicode="&#x151;" horiz-adv-x="584" 
d="M260 778l61 -41l-113 -163l-59 39zM413 768l61 -41l-113 -163l-59 39zM30 250c0 37.333 6.66699 72 20 104s31.666 59.667 54.999 83s51 41.666 83 54.999s66.667 20 104 20s72 -6.66699 104 -20s59.667 -31.666 83 -54.999s41.666 -51 54.999 -83s20 -66.667 20 -104
s-6.66699 -72 -20 -104s-31.666 -59.667 -54.999 -83s-51 -41.666 -83 -54.999s-66.667 -20 -104 -20s-72 6.66699 -104 20s-59.667 31.666 -83 54.999s-41.666 51 -54.999 83s-20 66.667 -20 104zM465 250c0 26 -4.16699 50 -12.5 72s-20 40.833 -35 56.5
s-33.167 28 -54.5 37s-45 13.5 -71 13.5s-49.667 -4.5 -71 -13.5s-39.5 -21.333 -54.5 -37s-26.667 -34.5 -35 -56.5s-12.5 -46 -12.5 -72s4.16699 -50 12.5 -72s20 -40.833 35 -56.5s33.167 -28 54.5 -37s45 -13.5 71 -13.5s49.667 4.5 71 13.5s39.5 21.333 54.5 37
s26.667 34.5 35 56.5s12.5 46 12.5 72z" />
    <glyph glyph-name="OE" unicode="&#x152;" horiz-adv-x="885" 
d="M400 700h430v-90h-340v-215h340v-90h-340v-215h340v-90h-430c-50 -0 -96.333 8.83301 -139 26.5s-79.667 42.167 -111 73.5s-55.833 68.333 -73.5 111s-26.5 89 -26.5 139s8.83301 96.333 26.5 139s42.167 79.667 73.5 111s68.333 55.833 111 73.5s89 26.5 139 26.5v-90
c-37.333 0 -72 -6.5 -104 -19.5s-59.5 -31 -82.5 -54s-41 -50.5 -54 -82.5s-19.5 -66.667 -19.5 -104s6.5 -72 19.5 -104s31 -59.5 54 -82.5s50.5 -41 82.5 -54s66.667 -19.5 104 -19.5v610z" />
    <glyph glyph-name="oe" unicode="&#x153;" horiz-adv-x="977" 
d="M720 -12c-50.667 0 -94.001 10.002 -130.001 30.002s-63.667 48.667 -83 86c-21.333 -36 -50.166 -64.333 -86.499 -85s-79.166 -31 -128.499 -31c-37.333 0 -72 6.66699 -104 20s-59.667 31.666 -83 54.999s-41.666 51 -54.999 83s-20 66.667 -20 104s6.66699 72 20 104
s31.666 59.667 54.999 83s51 41.666 83 54.999s66.667 20 104 20c50 0 93.333 -10.667 130 -32s65.334 -50.333 86.001 -87c19.333 36 45.833 64.833 79.5 86.5s75.167 32.5 124.5 32.5c39.333 0 74 -6.66699 104 -20s55 -31.833 75 -55.5s35.167 -51.5 45.5 -83.5
s15.5 -66.333 15.5 -103v-26h-400v-1c1.33301 -25.333 6.66602 -47.666 15.999 -66.999s21.333 -35.5 36 -48.5s31.667 -22.833 51 -29.5s39.666 -10 60.999 -10c36.667 0 68 7.66699 94 23s47.667 33.333 65 54l45 -67c-10 -11.333 -21.667 -22.333 -35 -33
s-28.333 -20.334 -45 -29.001s-35 -15.5 -55 -20.5s-41.667 -7.5 -65 -7.5zM857.999 293.002c-4 42 -17.833 75.667 -41.5 101s-58.167 38 -103.5 38c-47.333 0 -83.833 -12.667 -109.5 -38s-41.5 -59 -47.5 -101h302zM464.999 250.002c0 26 -4.16699 50 -12.5 72
s-20 40.833 -35 56.5s-33.167 28 -54.5 37s-45 13.5 -71 13.5s-49.667 -4.5 -71 -13.5s-39.5 -21.333 -54.5 -37s-26.667 -34.5 -35 -56.5s-12.5 -46 -12.5 -72s4.16699 -50 12.5 -72s20 -40.833 35 -56.5s33.167 -28 54.5 -37s45 -13.5 71 -13.5s49.667 4.5 71 13.5
s39.5 21.333 54.5 37s26.667 34.5 35 56.5s12.5 46 12.5 72z" />
    <glyph glyph-name="Racute" unicode="&#x154;" horiz-adv-x="673" 
d="M411 907l41 -63l-213 -133l-39 60zM293 320l-40 50l70 56l78 -97c28 10 50.667 27 68 51s26 52.333 26 85c0 21.333 -3.83301 40.833 -11.5 58.5s-18.167 33 -31.5 46s-28.833 23 -46.5 30s-36.5 10.5 -56.5 10.5h-179v-290h123zM170 0h-90v700h269
c34 0 65.333 -5.83301 94 -17.5s53.5 -28 74.5 -49s37.5 -45.833 49.5 -74.5s18 -60 18 -94c0 -48 -11.167 -90 -33.5 -126s-52.5 -63.667 -90.5 -83l207 -256h-118l-185 230h-16h-179v-230z" />
    <glyph glyph-name="racute" unicode="&#x155;" horiz-adv-x="373" 
d="M282 767l41 -63l-213 -133l-39 60zM153 425c15.333 28 35.5029 49.5 60.5029 64.5s55.167 22.5 90.5 22.5c8.66699 0 17 -0.5 25 -1.5s16 -2.16699 24 -3.5v-91c-8.66699 2 -16.834 3.5 -24.501 4.5s-16.167 1.5 -25.5 1.5c-28 0 -51.333 -4.5 -70 -13.5
s-33.834 -21.833 -45.501 -38.5s-19.834 -36.667 -24.501 -60s-7 -49 -7 -77v-233h-86v500h83v-75z" />
    <glyph glyph-name="Rcommaaccent" unicode="&#x156;" horiz-adv-x="673" 
d="M293 320l-40 50l70 56l78 -97c28 10 50.667 27 68 51s26 52.333 26 85c0 21.333 -3.83301 40.833 -11.5 58.5s-18.167 33 -31.5 46s-28.833 23 -46.5 30s-36.5 10.5 -56.5 10.5h-179v-290h123zM170 0h-90v700h269c34 0 65.333 -5.83301 94 -17.5s53.5 -28 74.5 -49
s37.5 -45.833 49.5 -74.5s18 -60 18 -94c0 -48 -11.167 -90 -33.5 -126s-52.5 -63.667 -90.5 -83l207 -256h-118l-185 230h-16h-179v-230zM276 -231l46.001 76.999c-13.333 3.33301 -24.5 10.5 -33.5 21.5s-13.5 23.833 -13.5 38.5c0 17.333 6 32 18 44s26.667 18 44 18
s32 -6 44 -18s18 -26.667 18 -44c0 -5.33301 -0.833008 -10.666 -2.5 -15.999s-3.83398 -10.333 -6.50098 -15l-73 -129z" />
    <glyph glyph-name="rcommaaccent" unicode="&#x157;" horiz-adv-x="373" 
d="M153 425c15.333 28 35.5029 49.5 60.5029 64.5s55.167 22.5 90.5 22.5c8.66699 0 17 -0.5 25 -1.5s16 -2.16699 24 -3.5v-91c-8.66699 2 -16.834 3.5 -24.501 4.5s-16.167 1.5 -25.5 1.5c-28 0 -51.333 -4.5 -70 -13.5s-33.834 -21.833 -45.501 -38.5
s-19.834 -36.667 -24.501 -60s-7 -49 -7 -77v-233h-86v500h83v-75zM46.0029 -231l46.001 76.999c-13.333 3.33301 -24.5 10.5 -33.5 21.5s-13.5 23.833 -13.5 38.5c0 17.333 6 32 18 44s26.667 18 44 18s32 -6 44 -18s18 -26.667 18 -44
c0 -5.33301 -0.833008 -10.666 -2.5 -15.999s-3.83398 -10.333 -6.50098 -15l-73 -129z" />
    <glyph glyph-name="Rcaron" unicode="&#x158;" horiz-adv-x="673" 
d="M439 928l47 -52l-176 -151l-176 151l47 52l129 -112zM293 320l-40 50l70 56l78 -97c28 10 50.667 27 68 51s26 52.333 26 85c0 21.333 -3.83301 40.833 -11.5 58.5s-18.167 33 -31.5 46s-28.833 23 -46.5 30s-36.5 10.5 -56.5 10.5h-179v-290h123zM170 0h-90v700h269
c34 0 65.333 -5.83301 94 -17.5s53.5 -28 74.5 -49s37.5 -45.833 49.5 -74.5s18 -60 18 -94c0 -48 -11.167 -90 -33.5 -126s-52.5 -63.667 -90.5 -83l207 -256h-118l-185 230h-16h-179v-230z" />
    <glyph glyph-name="rcaron" unicode="&#x159;" horiz-adv-x="373" 
d="M316 758l47 -52l-176 -151l-176 151l47 52l129 -112zM153 425c15.333 28 35.5029 49.5 60.5029 64.5s55.167 22.5 90.5 22.5c8.66699 0 17 -0.5 25 -1.5s16 -2.16699 24 -3.5v-91c-8.66699 2 -16.834 3.5 -24.501 4.5s-16.167 1.5 -25.5 1.5
c-28 0 -51.333 -4.5 -70 -13.5s-33.834 -21.833 -45.501 -38.5s-19.834 -36.667 -24.501 -60s-7 -49 -7 -77v-233h-86v500h83v-75z" />
    <glyph glyph-name="Sacute" unicode="&#x15a;" horiz-adv-x="519" 
d="M361 907l41 -63l-213 -133l-39 60zM48 511c0 30 5.6709 56.8311 17.0039 80.498s26.666 43.5 45.999 59.5s41.833 28.167 67.5 36.5s52.5 12.5 80.5 12.5c55.333 0 102 -15 140 -45s64.667 -71 80 -123l-85 -34c-10.667 40 -27.667 68.667 -51 86s-52 26 -86 26
c-39.333 0 -69 -9.66699 -89 -29s-30 -43 -30 -71c0 -17.333 3.5 -31.833 10.5 -43.5s16.667 -21.834 29 -30.501s27 -16.167 44 -22.5l54.5 -19.5c27.333 -9.33301 52.833 -19.166 76.5 -29.499s44.167 -23 61.5 -38s31 -33.167 41 -54.5s15 -47.333 15 -78
c0 -33.333 -5.66699 -62.166 -17 -86.499s-26.5 -44.5 -45.5 -60.5s-41 -27.833 -66 -35.5s-51.167 -11.5 -78.5 -11.5c-21.333 0 -43.333 2.66699 -66 8s-44.167 14.333 -64.5 27s-38.666 29.834 -54.999 51.501s-28.833 48.5 -37.5 80.5l79 42
c9.33301 -38.667 25.666 -68.167 48.999 -88.5s54.666 -30.5 93.999 -30.5c36 0 64.667 8.66699 86 26s32 42.333 32 75c0 18.667 -3.5 34.167 -10.5 46.5s-16.333 22.833 -28 31.5s-24.834 15.667 -39.501 21l-46 16c-22.667 7.33301 -46.334 15.833 -71.001 25.5
s-47.167 22.167 -67.5 37.5s-37 34.5 -50 57.5s-19.5 51.167 -19.5 84.5z" />
    <glyph glyph-name="sacute" unicode="&#x15b;" horiz-adv-x="463" 
d="M336 767l41 -63l-213 -133l-39 60zM53 364c0 44 16.5 79.6709 49.5 107.004s78.833 41 137.5 41c50 0 90.833 -9.66699 122.5 -29s56.834 -45.666 75.501 -78.999l-71 -45c-10.667 20.667 -26.167 38 -46.5 52s-47.833 21 -82.5 21c-28 0 -51.5 -5.5 -70.5 -16.5
s-28.5 -26.5 -28.5 -46.5c0 -12 3 -21.833 9 -29.5s14.333 -14.334 25 -20.001s23.167 -10.334 37.5 -14.001s30.166 -7.5 47.499 -11.5c20.667 -4.66699 41.667 -9.66699 63 -15s40.666 -13.333 57.999 -24s31.5 -24.834 42.5 -42.501s16.5 -40.834 16.5 -69.501
c0 -26.667 -4.83301 -49.834 -14.5 -69.501s-23.167 -35.834 -40.5 -48.501s-37.666 -22 -60.999 -28s-48.666 -9 -75.999 -9c-23.333 0 -46 2.16699 -68 6.5s-42.667 11.333 -62 21s-36.833 21.834 -52.5 36.501s-28.5 32.334 -38.5 53.001l71 45
c15.333 -31.333 36.833 -52.833 64.5 -64.5s56.834 -17.5 87.501 -17.5c32.667 0 58.167 5.66699 76.5 17s27.5 28.666 27.5 51.999c0 12.667 -2.66699 23 -8 31s-12.833 14.667 -22.5 20s-21.334 9.83301 -35.001 13.5s-28.834 7.16699 -45.501 10.5
c-20.667 4 -42 9.16699 -64 15.5s-42.167 15 -60.5 26s-33.5 25.333 -45.5 43s-18 40.167 -18 67.5z" />
    <glyph glyph-name="Scircumflex" unicode="&#x15c;" horiz-adv-x="519" 
d="M260 918l176 -151l-47 -52l-129 112l-129 -112l-47 52zM48 511c0 30 5.6709 56.8311 17.0039 80.498s26.666 43.5 45.999 59.5s41.833 28.167 67.5 36.5s52.5 12.5 80.5 12.5c55.333 0 102 -15 140 -45s64.667 -71 80 -123l-85 -34c-10.667 40 -27.667 68.667 -51 86
s-52 26 -86 26c-39.333 0 -69 -9.66699 -89 -29s-30 -43 -30 -71c0 -17.333 3.5 -31.833 10.5 -43.5s16.667 -21.834 29 -30.501s27 -16.167 44 -22.5l54.5 -19.5c27.333 -9.33301 52.833 -19.166 76.5 -29.499s44.167 -23 61.5 -38s31 -33.167 41 -54.5s15 -47.333 15 -78
c0 -33.333 -5.66699 -62.166 -17 -86.499s-26.5 -44.5 -45.5 -60.5s-41 -27.833 -66 -35.5s-51.167 -11.5 -78.5 -11.5c-21.333 0 -43.333 2.66699 -66 8s-44.167 14.333 -64.5 27s-38.666 29.834 -54.999 51.501s-28.833 48.5 -37.5 80.5l79 42
c9.33301 -38.667 25.666 -68.167 48.999 -88.5s54.666 -30.5 93.999 -30.5c36 0 64.667 8.66699 86 26s32 42.333 32 75c0 18.667 -3.5 34.167 -10.5 46.5s-16.333 22.833 -28 31.5s-24.834 15.667 -39.501 21l-46 16c-22.667 7.33301 -46.334 15.833 -71.001 25.5
s-47.167 22.167 -67.5 37.5s-37 34.5 -50 57.5s-19.5 51.167 -19.5 84.5z" />
    <glyph glyph-name="scircumflex" unicode="&#x15d;" horiz-adv-x="463" 
d="M241 768l176 -151l-47 -52l-129 112l-129 -112l-47 52zM53 364c0 44 16.5 79.6709 49.5 107.004s78.833 41 137.5 41c50 0 90.833 -9.66699 122.5 -29s56.834 -45.666 75.501 -78.999l-71 -45c-10.667 20.667 -26.167 38 -46.5 52s-47.833 21 -82.5 21
c-28 0 -51.5 -5.5 -70.5 -16.5s-28.5 -26.5 -28.5 -46.5c0 -12 3 -21.833 9 -29.5s14.333 -14.334 25 -20.001s23.167 -10.334 37.5 -14.001s30.166 -7.5 47.499 -11.5c20.667 -4.66699 41.667 -9.66699 63 -15s40.666 -13.333 57.999 -24s31.5 -24.834 42.5 -42.501
s16.5 -40.834 16.5 -69.501c0 -26.667 -4.83301 -49.834 -14.5 -69.501s-23.167 -35.834 -40.5 -48.501s-37.666 -22 -60.999 -28s-48.666 -9 -75.999 -9c-23.333 0 -46 2.16699 -68 6.5s-42.667 11.333 -62 21s-36.833 21.834 -52.5 36.501s-28.5 32.334 -38.5 53.001
l71 45c15.333 -31.333 36.833 -52.833 64.5 -64.5s56.834 -17.5 87.501 -17.5c32.667 0 58.167 5.66699 76.5 17s27.5 28.666 27.5 51.999c0 12.667 -2.66699 23 -8 31s-12.833 14.667 -22.5 20s-21.334 9.83301 -35.001 13.5s-28.834 7.16699 -45.501 10.5
c-20.667 4 -42 9.16699 -64 15.5s-42.167 15 -60.5 26s-33.5 25.333 -45.5 43s-18 40.167 -18 67.5z" />
    <glyph glyph-name="Scedilla" unicode="&#x15e;" horiz-adv-x="519" 
d="M242 -167c-7.33301 0 -15.4961 0.833008 -24.4961 2.5s-17.833 4.16699 -26.5 7.5v58c7.33301 -2 14.166 -3.66699 20.499 -5s12.166 -2 17.499 -2c9.33301 0 17 2.5 23 7.5s9 13.833 9 26.5c0 9.33301 -2.33301 20.166 -7 32.499s-13 26.166 -25 41.499
c-19.333 2 -38.666 6.5 -57.999 13.5s-37.5 17 -54.5 30s-32.167 29.5 -45.5 49.5s-23.666 44 -30.999 72l79 42c9.33301 -38.667 25.666 -68.167 48.999 -88.5s54.666 -30.5 93.999 -30.5c36 0 64.667 8.66699 86 26s32 42.333 32 75c0 18.667 -3.5 34.167 -10.5 46.5
s-16.333 22.833 -28 31.5s-24.834 15.667 -39.501 21l-46 16c-22.667 7.33301 -46.334 15.833 -71.001 25.5s-47.167 22.167 -67.5 37.5s-37 34.5 -50 57.5s-19.5 51.167 -19.5 84.5c0 30 5.66699 56.833 17 80.5s26.666 43.5 45.999 59.5s41.833 28.167 67.5 36.5
s52.5 12.5 80.5 12.5c55.333 0 102 -15 140 -45s64.667 -71 80 -123l-85 -34c-10.667 40 -27.667 68.667 -51 86s-52 26 -86 26c-39.333 0 -69 -9.66699 -89 -29s-30 -43 -30 -71c0 -17.333 3.5 -31.833 10.5 -43.5s16.667 -21.834 29 -30.501s27 -16.167 44 -22.5
l54.5 -19.5c27.333 -9.33301 52.833 -19.166 76.5 -29.499s44.167 -23 61.5 -38s31 -33.167 41 -54.5s15 -47.333 15 -78c0 -29.333 -4.5 -55.333 -13.5 -78s-21.333 -42 -37 -58s-34 -28.667 -55 -38s-43.5 -15.333 -67.5 -18c12 -15.333 20.333 -29.666 25 -42.999
s7 -26.666 7 -39.999c0 -28.667 -8.66699 -50.167 -26 -64.5s-37.666 -21.5 -60.999 -21.5z" />
    <glyph glyph-name="scedilla" unicode="&#x15f;" horiz-adv-x="463" 
d="M217 -167c-7.33301 0 -15.4971 0.834961 -24.4971 2.50195s-17.833 4.16699 -26.5 7.5v58c7.33301 -2 14.166 -3.66699 20.499 -5s12.166 -2 17.499 -2c9.33301 0 17 2.5 23 7.5s9 13.833 9 26.5c0 8 -1.66699 17 -5 27s-9.33301 21.667 -18 35
c-40 3.33301 -77 14.333 -111 33s-59.667 46 -77 82l71 45c15.333 -31.333 36.833 -52.833 64.5 -64.5s56.834 -17.5 87.501 -17.5c32.667 0 58.167 5.66699 76.5 17s27.5 28.666 27.5 51.999c0 12.667 -2.66699 23 -8 31s-12.833 14.667 -22.5 20
s-21.334 9.83301 -35.001 13.5s-28.834 7.16699 -45.501 10.5c-20.667 4 -42 9.16699 -64 15.5s-42.167 15 -60.5 26s-33.5 25.333 -45.5 43s-18 40.167 -18 67.5c0 44 16.5 79.667 49.5 107s78.833 41 137.5 41c50 0 90.833 -9.66699 122.5 -29
s56.834 -45.666 75.501 -78.999l-71 -45c-10.667 20.667 -26.167 38 -46.5 52s-47.833 21 -82.5 21c-28 0 -51.5 -5.5 -70.5 -16.5s-28.5 -26.5 -28.5 -46.5c0 -12 3 -21.833 9 -29.5s14.333 -14.334 25 -20.001s23.167 -10.334 37.5 -14.001s30.166 -7.5 47.499 -11.5
c20.667 -4.66699 41.667 -9.66699 63 -15s40.666 -13.333 57.999 -24s31.5 -24.834 42.5 -42.501s16.5 -40.834 16.5 -69.501c0 -24 -3.83301 -45 -11.5 -63s-18.5 -33.333 -32.5 -46s-30.667 -22.667 -50 -30s-40.333 -12 -63 -14
c8.66699 -13.333 14.667 -25.666 18 -36.999s5 -22.666 5 -33.999c0 -28.667 -8.66699 -50.167 -26 -64.5s-37.666 -21.5 -60.999 -21.5z" />
    <glyph glyph-name="Scaron" unicode="&#x160;" horiz-adv-x="519" 
d="M389 928l47 -52l-176 -151l-176 151l47 52l129 -112zM48 511c0 30 5.6709 56.8311 17.0039 80.498s26.666 43.5 45.999 59.5s41.833 28.167 67.5 36.5s52.5 12.5 80.5 12.5c55.333 0 102 -15 140 -45s64.667 -71 80 -123l-85 -34c-10.667 40 -27.667 68.667 -51 86
s-52 26 -86 26c-39.333 0 -69 -9.66699 -89 -29s-30 -43 -30 -71c0 -17.333 3.5 -31.833 10.5 -43.5s16.667 -21.834 29 -30.501s27 -16.167 44 -22.5l54.5 -19.5c27.333 -9.33301 52.833 -19.166 76.5 -29.499s44.167 -23 61.5 -38s31 -33.167 41 -54.5s15 -47.333 15 -78
c0 -33.333 -5.66699 -62.166 -17 -86.499s-26.5 -44.5 -45.5 -60.5s-41 -27.833 -66 -35.5s-51.167 -11.5 -78.5 -11.5c-21.333 0 -43.333 2.66699 -66 8s-44.167 14.333 -64.5 27s-38.666 29.834 -54.999 51.501s-28.833 48.5 -37.5 80.5l79 42
c9.33301 -38.667 25.666 -68.167 48.999 -88.5s54.666 -30.5 93.999 -30.5c36 0 64.667 8.66699 86 26s32 42.333 32 75c0 18.667 -3.5 34.167 -10.5 46.5s-16.333 22.833 -28 31.5s-24.834 15.667 -39.501 21l-46 16c-22.667 7.33301 -46.334 15.833 -71.001 25.5
s-47.167 22.167 -67.5 37.5s-37 34.5 -50 57.5s-19.5 51.167 -19.5 84.5z" />
    <glyph glyph-name="scaron" unicode="&#x161;" horiz-adv-x="463" 
d="M370 758l47 -52l-176 -151l-176 151l47 52l129 -112zM53 364c0 44 16.5 79.6709 49.5 107.004s78.833 41 137.5 41c50 0 90.833 -9.66699 122.5 -29s56.834 -45.666 75.501 -78.999l-71 -45c-10.667 20.667 -26.167 38 -46.5 52s-47.833 21 -82.5 21
c-28 0 -51.5 -5.5 -70.5 -16.5s-28.5 -26.5 -28.5 -46.5c0 -12 3 -21.833 9 -29.5s14.333 -14.334 25 -20.001s23.167 -10.334 37.5 -14.001s30.166 -7.5 47.499 -11.5c20.667 -4.66699 41.667 -9.66699 63 -15s40.666 -13.333 57.999 -24s31.5 -24.834 42.5 -42.501
s16.5 -40.834 16.5 -69.501c0 -26.667 -4.83301 -49.834 -14.5 -69.501s-23.167 -35.834 -40.5 -48.501s-37.666 -22 -60.999 -28s-48.666 -9 -75.999 -9c-23.333 0 -46 2.16699 -68 6.5s-42.667 11.333 -62 21s-36.833 21.834 -52.5 36.501s-28.5 32.334 -38.5 53.001
l71 45c15.333 -31.333 36.833 -52.833 64.5 -64.5s56.834 -17.5 87.501 -17.5c32.667 0 58.167 5.66699 76.5 17s27.5 28.666 27.5 51.999c0 12.667 -2.66699 23 -8 31s-12.833 14.667 -22.5 20s-21.334 9.83301 -35.001 13.5s-28.834 7.16699 -45.501 10.5
c-20.667 4 -42 9.16699 -64 15.5s-42.167 15 -60.5 26s-33.5 25.333 -45.5 43s-18 40.167 -18 67.5z" />
    <glyph glyph-name="Tcommaaccent" unicode="&#x162;" horiz-adv-x="651" 
d="M370 610v-610h-90v610h-275v90h641v-90h-276zM265 -231l46.001 76.999c-13.333 3.33301 -24.5 10.5 -33.5 21.5s-13.5 23.833 -13.5 38.5c0 17.333 6 32 18 44s26.667 18 44 18s32 -6 44 -18s18 -26.667 18 -44c0 -5.33301 -0.833008 -10.666 -2.5 -15.999
s-3.83398 -10.333 -6.50098 -15l-73 -129z" />
    <glyph glyph-name="tcommaaccent" unicode="&#x163;" horiz-adv-x="363" 
d="M338 7c-13.333 -3.33301 -26.998 -6.16797 -40.998 -8.50098s-29 -3.5 -45 -3.5c-46 0 -80.5 10.833 -103.5 32.5s-34.5 59.167 -34.5 112.5v285h-99v75h99v134h86v-134h137v-75h-137v-290c0 -19.333 4.16699 -34.166 12.5 -44.499s23.166 -15.5 44.499 -15.5
c16 0 30.167 0.666992 42.5 2s25.166 3.33301 38.499 6v-76zM171.002 -231.002l46.001 76.999c-13.333 3.33301 -24.5 10.5 -33.5 21.5s-13.5 23.833 -13.5 38.5c0 17.333 6 32 18 44s26.667 18 44 18s32 -6 44 -18s18 -26.667 18 -44
c0 -5.33301 -0.833008 -10.666 -2.5 -15.999s-3.83398 -10.333 -6.50098 -15l-73 -129z" />
    <glyph glyph-name="Tcaron" unicode="&#x164;" horiz-adv-x="651" 
d="M455 928l47 -52l-176 -151l-176 151l47 52l129 -112zM370 610v-610h-90v610h-275v90h641v-90h-276z" />
    <glyph glyph-name="tcaron" unicode="&#x165;" horiz-adv-x="541" 
d="M373 444l71 122c-16.667 4.66699 -30.167 13.667 -40.5 27s-15.5 28.333 -15.5 45c0 19.333 7 36.5 21 51.5s31.667 22.5 53 22.5s39 -7.5 53 -22.5s21 -32.167 21 -51.5c0 -13.333 -3 -25 -9 -35l-104 -187zM338 7c-13.333 -3.33301 -26.998 -6.16797 -40.998 -8.50098
s-29 -3.5 -45 -3.5c-46 0 -80.5 10.833 -103.5 32.5s-34.5 59.167 -34.5 112.5v285h-99v75h99v134h86v-134h137v-75h-137v-290c0 -19.333 4.16699 -34.166 12.5 -44.499s23.166 -15.5 44.499 -15.5c16 0 30.167 0.666992 42.5 2s25.166 3.33301 38.499 6v-76z" />
    <glyph glyph-name="Tbar" unicode="&#x166;" horiz-adv-x="651" 
d="M370 330v-330h-90v330h-125v90h125v190h-275v90h641v-90h-276v-190h125v-90h-125z" />
    <glyph glyph-name="tbar" unicode="&#x167;" horiz-adv-x="363" 
d="M338 7c-13.333 -3.33301 -26.998 -6.16797 -40.998 -8.50098s-29 -3.5 -45 -3.5c-46 0 -80.5 10.833 -103.5 32.5s-34.5 59.167 -34.5 112.5v108h-81v77h81v100h-99v75h99v134h86v-134h137v-75h-137v-100h119v-77h-119v-113c0 -19.333 4.16699 -34.166 12.5 -44.499
s23.166 -15.5 44.499 -15.5c16 0 30.167 0.666992 42.5 2s25.166 3.33301 38.499 6v-76v0z" />
    <glyph glyph-name="Utilde" unicode="&#x168;" horiz-adv-x="780" 
d="M449 737c-12 0 -23.5 2.5 -34.5 7.5s-21.333 10.333 -31 16l-27 16c-8.33301 5 -16.166 7.5 -23.499 7.5c-9.33301 0 -18.666 -4 -27.999 -12s-18.666 -17 -27.999 -27l-48 46c6.66699 8 14.167 16.167 22.5 24.5s17 15.666 26 21.999s18.333 11.666 28 15.999
s19.5 6.5 29.5 6.5c12 0 23.5 -2.5 34.5 -7.5s21.333 -10.333 31 -16l27 -16c8.33301 -5 16.166 -7.5 23.499 -7.5c9.33301 0 18.666 4 27.999 12s18.666 17 27.999 27l48 -46c-6.66699 -8 -14.167 -16.167 -22.5 -24.5s-17 -15.666 -26 -21.999
s-18.333 -11.666 -28 -15.999s-19.5 -6.5 -29.5 -6.5zM710 700l-0.00195312 -380c0 -45.333 -8.16699 -87.5 -24.5 -126.5s-38.833 -72.833 -67.5 -101.5s-62.5 -51.167 -101.5 -67.5s-81.167 -24.5 -126.5 -24.5s-87.5 8.16699 -126.5 24.5s-72.833 38.833 -101.5 67.5
s-51.167 62.5 -67.5 101.5s-24.5 81.167 -24.5 126.5v380h90v-380c0 -32.667 5.83301 -63 17.5 -91s27.834 -52.333 48.501 -73s45 -36.834 73 -48.501s58.333 -17.5 91 -17.5s63 5.83301 91 17.5s52.333 27.834 73 48.501s36.834 45 48.501 73s17.5 58.333 17.5 91v380h90z
" />
    <glyph glyph-name="utilde" unicode="&#x169;" horiz-adv-x="570" 
d="M342 577c-12 0 -23.5 2.5 -34.5 7.5s-21.333 10.333 -31 16l-27 16c-8.33301 5 -16.166 7.5 -23.499 7.5c-9.33301 0 -18.666 -4 -27.999 -12s-18.666 -17 -27.999 -27l-48 46c6.66699 8 14.167 16.167 22.5 24.5s17 15.666 26 21.999s18.333 11.666 28 15.999
s19.5 6.5 29.5 6.5c12 0 23.5 -2.5 34.5 -7.5s21.333 -10.333 31 -16l27 -16c8.33301 -5 16.166 -7.5 23.499 -7.5c9.33301 0 18.666 4 27.999 12s18.666 17 27.999 27l48 -46c-6.66699 -8 -14.167 -16.167 -22.5 -24.5s-17 -15.666 -26 -21.999
s-18.333 -11.666 -28 -15.999s-19.5 -6.5 -29.5 -6.5zM500 500l-0.000976562 -499.999h-83v72c-19.333 -28 -41.333 -49 -66 -63s-56 -21 -94 -21c-35.333 0 -64.833 5.5 -88.5 16.5s-42.834 26 -57.501 45s-25.167 41.667 -31.5 68s-9.5 55.166 -9.5 86.499v296h88v-296
c0 -20 1.66699 -38.333 5 -55s9.33301 -31 18 -43s20.334 -21.333 35.001 -28s33.334 -10 56.001 -10c28.667 0 52.167 5.5 70.5 16.5s32.833 25.667 43.5 44s18 39.5 22 63.5s6 49 6 75v233h86z" />
    <glyph glyph-name="Umacron" unicode="&#x16a;" horiz-adv-x="780" 
d="M540 827v-70h-300v70h300zM710 700l-0.00195312 -380c0 -45.333 -8.16699 -87.5 -24.5 -126.5s-38.833 -72.833 -67.5 -101.5s-62.5 -51.167 -101.5 -67.5s-81.167 -24.5 -126.5 -24.5s-87.5 8.16699 -126.5 24.5s-72.833 38.833 -101.5 67.5s-51.167 62.5 -67.5 101.5
s-24.5 81.167 -24.5 126.5v380h90v-380c0 -32.667 5.83301 -63 17.5 -91s27.834 -52.333 48.501 -73s45 -36.834 73 -48.501s58.333 -17.5 91 -17.5s63 5.83301 91 17.5s52.333 27.834 73 48.501s36.834 45 48.501 73s17.5 58.333 17.5 91v380h90z" />
    <glyph glyph-name="umacron" unicode="&#x16b;" horiz-adv-x="570" 
d="M435 687v-70h-300v70h300zM500 500l-0.000976562 -499.999h-83v72c-19.333 -28 -41.333 -49 -66 -63s-56 -21 -94 -21c-35.333 0 -64.833 5.5 -88.5 16.5s-42.834 26 -57.501 45s-25.167 41.667 -31.5 68s-9.5 55.166 -9.5 86.499v296h88v-296
c0 -20 1.66699 -38.333 5 -55s9.33301 -31 18 -43s20.334 -21.333 35.001 -28s33.334 -10 56.001 -10c28.667 0 52.167 5.5 70.5 16.5s32.833 25.667 43.5 44s18 39.5 22 63.5s6 49 6 75v233h86z" />
    <glyph glyph-name="Ubreve" unicode="&#x16c;" horiz-adv-x="780" 
d="M532 881c0 -46 -12.5 -83 -37.5 -111s-59.833 -42 -104.5 -42s-79.5 14 -104.5 42s-37.5 65 -37.5 111h73c0 -26.667 6 -46.834 18 -60.501s29 -20.5 51 -20.5s39 6.83301 51 20.5s18 33.834 18 60.501h73zM710 700l-0.00195312 -380
c0 -45.333 -8.16699 -87.5 -24.5 -126.5s-38.833 -72.833 -67.5 -101.5s-62.5 -51.167 -101.5 -67.5s-81.167 -24.5 -126.5 -24.5s-87.5 8.16699 -126.5 24.5s-72.833 38.833 -101.5 67.5s-51.167 62.5 -67.5 101.5s-24.5 81.167 -24.5 126.5v380h90v-380
c0 -32.667 5.83301 -63 17.5 -91s27.834 -52.333 48.501 -73s45 -36.834 73 -48.501s58.333 -17.5 91 -17.5s63 5.83301 91 17.5s52.333 27.834 73 48.501s36.834 45 48.501 73s17.5 58.333 17.5 91v380h90z" />
    <glyph glyph-name="ubreve" unicode="&#x16d;" horiz-adv-x="570" 
d="M427 731c0 -46 -12.5 -83 -37.5 -111s-59.833 -42 -104.5 -42s-79.5 14 -104.5 42s-37.5 65 -37.5 111h73c0 -26.667 6 -46.834 18 -60.501s29 -20.5 51 -20.5s39 6.83301 51 20.5s18 33.834 18 60.501h73zM500 500l-0.000976562 -499.999h-83v72
c-19.333 -28 -41.333 -49 -66 -63s-56 -21 -94 -21c-35.333 0 -64.833 5.5 -88.5 16.5s-42.834 26 -57.501 45s-25.167 41.667 -31.5 68s-9.5 55.166 -9.5 86.499v296h88v-296c0 -20 1.66699 -38.333 5 -55s9.33301 -31 18 -43s20.334 -21.333 35.001 -28
s33.334 -10 56.001 -10c28.667 0 52.167 5.5 70.5 16.5s32.833 25.667 43.5 44s18 39.5 22 63.5s6 49 6 75v233h86z" />
    <glyph glyph-name="Uring" unicode="&#x16e;" horiz-adv-x="780" 
d="M280 755c0 32 10.333 58.5 31 79.5s47 31.5 79 31.5s58.333 -10.5 79 -31.5s31 -47.5 31 -79.5s-10.333 -58.333 -31 -79s-47 -31 -79 -31s-58.333 10.333 -79 31s-31 47 -31 79zM443 755c0 16 -4.83301 29.167 -14.5 39.5s-22.5 15.5 -38.5 15.5
s-28.833 -5.16699 -38.5 -15.5s-14.5 -23.5 -14.5 -39.5s4.83301 -29.167 14.5 -39.5s22.5 -15.5 38.5 -15.5s28.833 5.16699 38.5 15.5s14.5 23.5 14.5 39.5zM710 700l-0.00195312 -380c0 -45.333 -8.16699 -87.5 -24.5 -126.5s-38.833 -72.833 -67.5 -101.5
s-62.5 -51.167 -101.5 -67.5s-81.167 -24.5 -126.5 -24.5s-87.5 8.16699 -126.5 24.5s-72.833 38.833 -101.5 67.5s-51.167 62.5 -67.5 101.5s-24.5 81.167 -24.5 126.5v380h90v-380c0 -32.667 5.83301 -63 17.5 -91s27.834 -52.333 48.501 -73s45 -36.834 73 -48.501
s58.333 -17.5 91 -17.5s63 5.83301 91 17.5s52.333 27.834 73 48.501s36.834 45 48.501 73s17.5 58.333 17.5 91v380h90z" />
    <glyph glyph-name="uring" unicode="&#x16f;" horiz-adv-x="570" 
d="M175 683c0 32 10.333 58.5 31 79.5s47 31.5 79 31.5s58.333 -10.5 79 -31.5s31 -47.5 31 -79.5s-10.333 -58.333 -31 -79s-47 -31 -79 -31s-58.333 10.333 -79 31s-31 47 -31 79zM338 683c0 16 -4.83301 29.167 -14.5 39.5s-22.5 15.5 -38.5 15.5
s-28.833 -5.16699 -38.5 -15.5s-14.5 -23.5 -14.5 -39.5s4.83301 -29.167 14.5 -39.5s22.5 -15.5 38.5 -15.5s28.833 5.16699 38.5 15.5s14.5 23.5 14.5 39.5zM500 500l-0.000976562 -499.999h-83v72c-19.333 -28 -41.333 -49 -66 -63s-56 -21 -94 -21
c-35.333 0 -64.833 5.5 -88.5 16.5s-42.834 26 -57.501 45s-25.167 41.667 -31.5 68s-9.5 55.166 -9.5 86.499v296h88v-296c0 -20 1.66699 -38.333 5 -55s9.33301 -31 18 -43s20.334 -21.333 35.001 -28s33.334 -10 56.001 -10c28.667 0 52.167 5.5 70.5 16.5
s32.833 25.667 43.5 44s18 39.5 22 63.5s6 49 6 75v233h86z" />
    <glyph glyph-name="Uhungarumlaut" unicode="&#x170;" horiz-adv-x="780" 
d="M374 928l61 -41l-113 -163l-59 39zM527 918l61 -41l-113 -163l-59 39zM710 700l-0.00195312 -380c0 -45.333 -8.16699 -87.5 -24.5 -126.5s-38.833 -72.833 -67.5 -101.5s-62.5 -51.167 -101.5 -67.5s-81.167 -24.5 -126.5 -24.5s-87.5 8.16699 -126.5 24.5
s-72.833 38.833 -101.5 67.5s-51.167 62.5 -67.5 101.5s-24.5 81.167 -24.5 126.5v380h90v-380c0 -32.667 5.83301 -63 17.5 -91s27.834 -52.333 48.501 -73s45 -36.834 73 -48.501s58.333 -17.5 91 -17.5s63 5.83301 91 17.5s52.333 27.834 73 48.501s36.834 45 48.501 73
s17.5 58.333 17.5 91v380h90z" />
    <glyph glyph-name="uhungarumlaut" unicode="&#x171;" horiz-adv-x="570" 
d="M253 778l61 -41l-113 -163l-59 39zM406 768l61 -41l-113 -163l-59 39zM500 500l-0.000976562 -499.999h-83v72c-19.333 -28 -41.333 -49 -66 -63s-56 -21 -94 -21c-35.333 0 -64.833 5.5 -88.5 16.5s-42.834 26 -57.501 45s-25.167 41.667 -31.5 68
s-9.5 55.166 -9.5 86.499v296h88v-296c0 -20 1.66699 -38.333 5 -55s9.33301 -31 18 -43s20.334 -21.333 35.001 -28s33.334 -10 56.001 -10c28.667 0 52.167 5.5 70.5 16.5s32.833 25.667 43.5 44s18 39.5 22 63.5s6 49 6 75v233h86z" />
    <glyph glyph-name="Uogonek" unicode="&#x172;" horiz-adv-x="780" 
d="M411 -167c-23.333 0 -43.665 7.16504 -60.998 21.498s-26 34.5 -26 60.5c0 14.667 3.5 28.834 10.5 42.501s18.167 28.167 33.5 43.5c-42.667 2.66699 -82.167 12.5 -118.5 29.5s-67.833 39.667 -94.5 68s-47.5 61.333 -62.5 99s-22.5 78.5 -22.5 122.5v380h90v-380
c0 -32.667 5.83301 -63 17.5 -91s27.834 -52.333 48.501 -73s45 -36.834 73 -48.501s58.333 -17.5 91 -17.5s63 5.83301 91 17.5s52.333 27.834 73 48.501s36.834 45 48.501 73s17.5 58.333 17.5 91v380h90v-380c0 -42 -6.83301 -81 -20.5 -117s-32.834 -68 -57.501 -96
s-53.667 -51 -87 -69s-70 -29.667 -110 -35c-16.667 -17.333 -28.834 -32.666 -36.501 -45.999s-11.5 -24.666 -11.5 -33.999c0 -8 3 -14.833 9 -20.5s15.333 -8.5 28 -8.5c5.33301 0 11.166 0.666992 17.499 2s13.166 2.66602 20.499 3.99902v-58
c-17.333 -6 -34.333 -9 -51 -9z" />
    <glyph glyph-name="uogonek" unicode="&#x173;" horiz-adv-x="570" 
d="M496 -158c-17.333 -6 -34.333 -8.99805 -51 -8.99805c-23.333 0 -43.666 7.16699 -60.999 21.5s-26 34.5 -26 60.5c0 17.333 4.5 33.5 13.5 48.5s24.167 31.833 45.5 50.5v58c-19.333 -28 -41.333 -49 -66 -63s-56 -21 -94 -21c-35.333 0 -64.833 5.5 -88.5 16.5
s-42.834 26 -57.501 45s-25.167 41.667 -31.5 68s-9.5 55.166 -9.5 86.499v296h88v-296c0 -20 1.66699 -38.333 5 -55s9.33301 -31 18 -43s20.334 -21.333 35.001 -28s33.334 -10 56.001 -10c28.667 0 52.167 5.5 70.5 16.5s32.833 25.667 43.5 44s18 39.5 22 63.5
s6 49 6 75v233h86v-500h-34c-30 -32 -45 -57.667 -45 -77c0 -8 3 -14.833 9 -20.5s15.333 -8.5 28 -8.5c5.33301 0 11.166 0.666992 17.499 2s13.166 2.66602 20.499 3.99902v-58v0z" />
    <glyph glyph-name="Wcircumflex" unicode="&#x174;" horiz-adv-x="1220" 
d="M610 918l176 -151l-47 -52l-129 112l-129 -112l-47 52zM288 0l-278 700h97l217 -546l243 546h86l243 -546l217 546h97l-278 -700h-66l-256 573l-256 -573h-66z" />
    <glyph glyph-name="wcircumflex" unicode="&#x175;" horiz-adv-x="866" 
d="M433 768l176 -151l-47 -52l-129 112l-129 -112l-47 52zM215 0l-205 500h98l142 -371l152 371h62l152 -371l142 371h98l-205 -500h-66l-152 359l-152 -359h-66z" />
    <glyph glyph-name="Ycircumflex" unicode="&#x176;" horiz-adv-x="662" 
d="M331 918l176 -151l-47 -52l-129 112l-129 -112l-47 52zM286 0v295l-281 405h110l216 -312l216 312h110l-281 -405v-295h-90z" />
    <glyph glyph-name="ycircumflex" unicode="&#x177;" horiz-adv-x="525" 
d="M263 768l176 -151l-47 -52l-129 112l-129 -112l-47 52zM104 -200l124 266l-218 434h104l160 -334l155 334h91l-323 -700h-93z" />
    <glyph glyph-name="Ydieresis" unicode="&#x178;" horiz-adv-x="662" 
d="M162 801c0 19.333 6.5 35.5 19.5 48.5s29.167 19.5 48.5 19.5s35.5 -6.5 48.5 -19.5s19.5 -29.167 19.5 -48.5s-6.5 -35.5 -19.5 -48.5s-29.167 -19.5 -48.5 -19.5s-35.5 6.5 -48.5 19.5s-19.5 29.167 -19.5 48.5zM364 801c0 19.333 6.5 35.5 19.5 48.5
s29.167 19.5 48.5 19.5s35.5 -6.5 48.5 -19.5s19.5 -29.167 19.5 -48.5s-6.5 -35.5 -19.5 -48.5s-29.167 -19.5 -48.5 -19.5s-35.5 6.5 -48.5 19.5s-19.5 29.167 -19.5 48.5zM286 0v295l-281 405h110l216 -312l216 312h110l-281 -405v-295h-90z" />
    <glyph glyph-name="Zacute" unicode="&#x179;" horiz-adv-x="662" 
d="M432 907l41 -63l-213 -133l-39 60zM612 700v-69l-428 -541h428v-90h-562v69l428 541h-428v90h562z" />
    <glyph glyph-name="zacute" unicode="&#x17a;" horiz-adv-x="454" 
d="M322 767l41 -63l-213 -133l-39 60zM414 500v-77l-278 -343h288v-80h-394v77l278 343h-269v80h375z" />
    <glyph glyph-name="Zdotaccent" unicode="&#x17b;" horiz-adv-x="662" 
d="M263 794c0 19.333 6.5 35.5 19.5 48.5s29.167 19.5 48.5 19.5s35.5 -6.5 48.5 -19.5s19.5 -29.167 19.5 -48.5s-6.5 -35.5 -19.5 -48.5s-29.167 -19.5 -48.5 -19.5s-35.5 6.5 -48.5 19.5s-19.5 29.167 -19.5 48.5zM612 700v-69l-428 -541h428v-90h-562v69l428 541h-428
v90h562z" />
    <glyph glyph-name="zdotaccent" unicode="&#x17c;" horiz-adv-x="454" 
d="M159 644c0 19.333 6.5 35.5 19.5 48.5s29.167 19.5 48.5 19.5s35.5 -6.5 48.5 -19.5s19.5 -29.167 19.5 -48.5s-6.5 -35.5 -19.5 -48.5s-29.167 -19.5 -48.5 -19.5s-35.5 6.5 -48.5 19.5s-19.5 29.167 -19.5 48.5zM414 500v-77l-278 -343h288v-80h-394v77l278 343h-269
v80h375z" />
    <glyph glyph-name="Zcaron" unicode="&#x17d;" horiz-adv-x="662" 
d="M460 928l47 -52l-176 -151l-176 151l47 52l129 -112zM612 700v-69l-428 -541h428v-90h-562v69l428 541h-428v90h562z" />
    <glyph glyph-name="zcaron" unicode="&#x17e;" horiz-adv-x="454" 
d="M356 758l47 -52l-176 -151l-176 151l47 52l129 -112zM414 500v-77l-278 -343h288v-80h-394v77l278 343h-269v80h375z" />
    <glyph glyph-name="florin" unicode="&#x192;" horiz-adv-x="411" 
d="M78 -203c-9.33301 0 -19.167 0.498047 -29.5 1.49805s-21.5 2.16699 -33.5 3.5v78c13.333 -1.33301 23 -2.16602 29 -2.49902s13.667 -0.5 23 -0.5c22 0 38.5 6.33301 49.5 19s16.5 36.667 16.5 72v457h-92v75h92v28c0 65.333 14.5 111.833 43.5 139.5
s68.167 41.5 117.5 41.5c9.33301 0 21.166 -0.666992 35.499 -2s28.166 -3 41.499 -5v-78c-14 2 -26 3.33301 -36 4s-20 1 -30 1c-29.333 0 -51 -7 -65 -21s-21 -40.667 -21 -80v-28h145v-75h-145v-457c0 -31.333 -3.33301 -57.833 -10 -79.5s-16.167 -39.167 -28.5 -52.5
s-27.166 -23.166 -44.499 -29.499s-36.666 -9.5 -57.999 -9.5z" />
    <glyph glyph-name="AEacute" unicode="&#x1fc;" horiz-adv-x="982" 
d="M836 907l41 -63l-213 -133l-39 60zM497 123h-308l-78 -123h-106l443 700h49v-88l-252 -399h252v487h430v-90h-340v-215h340v-90h-340v-215h340v-90h-430v123z" />
    <glyph glyph-name="aeacute" unicode="&#x1fd;" horiz-adv-x="891" 
d="M528 767l41 -63l-213 -133l-39 60zM632 -12c-48.667 0 -90.668 9.66699 -126.001 29s-63 47 -83 83c-22.667 -34 -52.167 -60.833 -88.5 -80.5s-76.166 -29.5 -119.499 -29.5c-27.333 0 -51.5 4 -72.5 12s-38.667 18.833 -53 32.5s-25.333 30 -33 49
s-11.5 39.5 -11.5 61.5c0 23.333 4 44 12 62s19.333 33.5 34 46.5s31.667 23.333 51 31s40.666 12.5 63.999 14.5l141 14c21.333 2 32 11 32 27v13c0 24.667 -9.16699 44.5 -27.5 59.5s-46.166 22.5 -83.499 22.5c-34.667 0 -63.5 -7.16699 -86.5 -21.5
s-37.167 -37.166 -42.5 -68.499l-76 41c9.33301 37.333 30 67.666 62 90.999s77.333 35 136 35c45.333 0 82.5 -7.5 111.5 -22.5s51.167 -37.5 66.5 -67.5c20 28 45.667 50 77 66s68.333 24 111 24c38.667 0 72.834 -6.66699 102.501 -20s54.667 -31.833 75 -55.5
s35.666 -51.5 45.999 -83.5s15.5 -66.333 15.5 -103v-26h-400v-1c1.33301 -25.333 6.66602 -47.666 15.999 -66.999s21.5 -35.5 36.5 -48.5s32.167 -22.833 51.5 -29.5s39.666 -10 60.999 -10c36.667 0 68 8 94 24s47.333 33.667 64 53l45 -67
c-10 -11.333 -21.5 -22.333 -34.5 -33s-27.667 -20.334 -44 -29.001s-34.666 -15.5 -54.999 -20.5s-43.166 -7.5 -68.499 -7.5zM771.999 293c-4 42 -17.833 75.667 -41.5 101s-58.5 38 -104.5 38s-82 -12.667 -108 -38s-42 -59 -48 -101h302zM378.999 239l-162.999 -20.001
c-28 -3.33301 -48.5 -12 -61.5 -26s-19.5 -30.333 -19.5 -49c0 -21.333 7.83301 -38.833 23.5 -52.5s39.167 -20.5 70.5 -20.5c23.333 0 44.166 3.83301 62.499 11.5s34 17.834 47 30.501s23 26.667 30 42s10.5 31 10.5 47v37z" />
    <glyph glyph-name="Oslashacute" unicode="&#x1fe;" horiz-adv-x="800" 
d="M500 907l41 -63l-213 -133l-39 60zM140 350c0 -35.333 5.66797 -67.832 17.001 -97.499s27 -55.834 47 -78.501l337 398c-20 12 -41.833 21.333 -65.5 28s-48.834 10 -75.501 10c-37.333 0 -72 -6.5 -104 -19.5s-59.5 -31 -82.5 -54s-41 -50.5 -54 -82.5
s-19.5 -66.667 -19.5 -104zM400.001 90.001c37.333 0 72.001 6.5 104.001 19.5s59.5 31 82.5 54s41 50.5 54 82.5s19.5 66.667 19.5 104c0 35.333 -5.66699 67.833 -17 97.5s-27.333 56.167 -48 79.5l-337 -398c41.333 -26 88.666 -39 141.999 -39zM400.002 0.000976562
c-38 0 -74 5.16699 -108 15.5s-65 25.166 -93 44.499l-64 -76l-54 45l64 76c-30 31.333 -53.333 67.833 -70 109.5s-25 86.834 -25 135.501c0 50 8.83301 96.333 26.5 139s42.167 79.667 73.5 111s68.333 55.833 111 73.5s89 26.5 139 26.5c38 0 73.833 -5 107.5 -15
s64.5 -24.667 92.5 -44l64 75l53 -46l-63 -74c30 -31.333 53.5 -67.833 70.5 -109.5s25.5 -87.167 25.5 -136.5c0 -50 -8.83301 -96.333 -26.5 -139s-42 -79.667 -73 -111s-68 -55.833 -111 -73.5s-89.5 -26.5 -139.5 -26.5z" />
    <glyph glyph-name="oslashacute" unicode="&#x1ff;" horiz-adv-x="584" 
d="M387 767l41 -63l-213 -133l-39 60zM119 250c0 -42.667 11.002 -79.668 33.002 -111.001l228 269c-12.667 6.66699 -26.334 11.834 -41.001 15.501s-30.334 5.5 -47.001 5.5c-26 0 -49.667 -4.5 -71 -13.5s-39.5 -21.333 -54.5 -37s-26.667 -34.5 -35 -56.5
s-12.5 -46 -12.5 -72zM292.002 70.999c26 0 49.665 4.50098 70.998 13.501s39.5 21.333 54.5 37s26.667 34.5 35 56.5s12.5 46 12.5 72c0 42.667 -11 79.667 -33 111l-228 -269c12.667 -6.66699 26.334 -11.834 41.001 -15.501s30.334 -5.5 47.001 -5.5zM292 -12
c-53.333 0 -101 13.333 -143 40l-37 -44l-54 45l37 44c-20.667 23.333 -36.667 49.833 -48 79.5s-17 62.167 -17 97.5c0 37.333 6.66699 72 20 104s31.666 59.667 54.999 83s51 41.666 83 54.999s66.667 20 104 20c53.333 0 101 -13.333 143 -40l37 44l53 -46l-36 -43
c20.667 -23.333 36.667 -49.833 48 -79.5s17 -62.167 17 -97.5c0 -37.333 -6.66699 -72 -20 -104s-31.666 -59.667 -54.999 -83s-51 -41.666 -83 -54.999s-66.667 -20 -104 -20z" />
    <glyph glyph-name="Scommaaccent" unicode="&#x218;" horiz-adv-x="519" 
d="M48 511c0 30 5.6709 56.8311 17.0039 80.498s26.666 43.5 45.999 59.5s41.833 28.167 67.5 36.5s52.5 12.5 80.5 12.5c55.333 0 102 -15 140 -45s64.667 -71 80 -123l-85 -34c-10.667 40 -27.667 68.667 -51 86s-52 26 -86 26c-39.333 0 -69 -9.66699 -89 -29
s-30 -43 -30 -71c0 -17.333 3.5 -31.833 10.5 -43.5s16.667 -21.834 29 -30.501s27 -16.167 44 -22.5l54.5 -19.5c27.333 -9.33301 52.833 -19.166 76.5 -29.499s44.167 -23 61.5 -38s31 -33.167 41 -54.5s15 -47.333 15 -78c0 -33.333 -5.66699 -62.166 -17 -86.499
s-26.5 -44.5 -45.5 -60.5s-41 -27.833 -66 -35.5s-51.167 -11.5 -78.5 -11.5c-21.333 0 -43.333 2.66699 -66 8s-44.167 14.333 -64.5 27s-38.666 29.834 -54.999 51.501s-28.833 48.5 -37.5 80.5l79 42c9.33301 -38.667 25.666 -68.167 48.999 -88.5
s54.666 -30.5 93.999 -30.5c36 0 64.667 8.66699 86 26s32 42.333 32 75c0 18.667 -3.5 34.167 -10.5 46.5s-16.333 22.833 -28 31.5s-24.834 15.667 -39.501 21l-46 16c-22.667 7.33301 -46.334 15.833 -71.001 25.5s-47.167 22.167 -67.5 37.5s-37 34.5 -50 57.5
s-19.5 51.167 -19.5 84.5zM199.004 -231.002l46.001 76.999c-13.333 3.33301 -24.5 10.5 -33.5 21.5s-13.5 23.833 -13.5 38.5c0 17.333 6 32 18 44s26.667 18 44 18s32 -6 44 -18s18 -26.667 18 -44c0 -5.33301 -0.833008 -10.666 -2.5 -15.999
s-3.83398 -10.333 -6.50098 -15l-73 -129z" />
    <glyph glyph-name="scommaaccent" unicode="&#x219;" horiz-adv-x="463" 
d="M53 364c0 44 16.5 79.6709 49.5 107.004s78.833 41 137.5 41c50 0 90.833 -9.66699 122.5 -29s56.834 -45.666 75.501 -78.999l-71 -45c-10.667 20.667 -26.167 38 -46.5 52s-47.833 21 -82.5 21c-28 0 -51.5 -5.5 -70.5 -16.5s-28.5 -26.5 -28.5 -46.5
c0 -12 3 -21.833 9 -29.5s14.333 -14.334 25 -20.001s23.167 -10.334 37.5 -14.001s30.166 -7.5 47.499 -11.5c20.667 -4.66699 41.667 -9.66699 63 -15s40.666 -13.333 57.999 -24s31.5 -24.834 42.5 -42.501s16.5 -40.834 16.5 -69.501
c0 -26.667 -4.83301 -49.834 -14.5 -69.501s-23.167 -35.834 -40.5 -48.501s-37.666 -22 -60.999 -28s-48.666 -9 -75.999 -9c-23.333 0 -46 2.16699 -68 6.5s-42.667 11.333 -62 21s-36.833 21.834 -52.5 36.501s-28.5 32.334 -38.5 53.001l71 45
c15.333 -31.333 36.833 -52.833 64.5 -64.5s56.834 -17.5 87.501 -17.5c32.667 0 58.167 5.66699 76.5 17s27.5 28.666 27.5 51.999c0 12.667 -2.66699 23 -8 31s-12.833 14.667 -22.5 20s-21.334 9.83301 -35.001 13.5s-28.834 7.16699 -45.501 10.5
c-20.667 4 -42 9.16699 -64 15.5s-42.167 15 -60.5 26s-33.5 25.333 -45.5 43s-18 40.167 -18 67.5zM174 -230.996l46.001 76.999c-13.333 3.33301 -24.5 10.5 -33.5 21.5s-13.5 23.833 -13.5 38.5c0 17.333 6 32 18 44s26.667 18 44 18s32 -6 44 -18s18 -26.667 18 -44
c0 -5.33301 -0.833008 -10.666 -2.5 -15.999s-3.83398 -10.333 -6.50098 -15l-73 -129z" />
    <glyph glyph-name="uni021A" unicode="&#x21a;" horiz-adv-x="651" 
d="M370 610v-610h-90v610h-275v90h641v-90h-276zM265 -231l46.001 76.999c-13.333 3.33301 -24.5 10.5 -33.5 21.5s-13.5 23.833 -13.5 38.5c0 17.333 6 32 18 44s26.667 18 44 18s32 -6 44 -18s18 -26.667 18 -44c0 -5.33301 -0.833008 -10.666 -2.5 -15.999
s-3.83398 -10.333 -6.50098 -15l-73 -129z" />
    <glyph glyph-name="uni021B" unicode="&#x21b;" horiz-adv-x="363" 
d="M338 7c-13.333 -3.33301 -26.998 -6.16797 -40.998 -8.50098s-29 -3.5 -45 -3.5c-46 0 -80.5 10.833 -103.5 32.5s-34.5 59.167 -34.5 112.5v285h-99v75h99v134h86v-134h137v-75h-137v-290c0 -19.333 4.16699 -34.166 12.5 -44.499s23.166 -15.5 44.499 -15.5
c16 0 30.167 0.666992 42.5 2s25.166 3.33301 38.499 6v-76zM171.002 -231.002l46.001 76.999c-13.333 3.33301 -24.5 10.5 -33.5 21.5s-13.5 23.833 -13.5 38.5c0 17.333 6 32 18 44s26.667 18 44 18s32 -6 44 -18s18 -26.667 18 -44
c0 -5.33301 -0.833008 -10.666 -2.5 -15.999s-3.83398 -10.333 -6.50098 -15l-73 -129z" />
    <glyph glyph-name="apostrophemod" unicode="&#x2bc;" horiz-adv-x="243" 
d="M40 444l71 122c-16.667 4.66699 -30.167 13.667 -40.5 27s-15.5 28.333 -15.5 45c0 19.333 7 36.5 21 51.5s31.667 22.5 53 22.5s39 -7.5 53 -22.5s21 -32.167 21 -51.5c0 -13.333 -3 -25 -9 -35l-104 -187z" />
    <glyph glyph-name="circumflex" unicode="&#x2c6;" horiz-adv-x="452" 
d="M226 768l176 -151l-47 -52l-129 112l-129 -112l-47 52z" />
    <glyph glyph-name="caron" unicode="&#x2c7;" horiz-adv-x="452" 
d="M355 758l47 -52l-176 -151l-176 151l47 52l129 -112z" />
    <glyph glyph-name="breve" unicode="&#x2d8;" horiz-adv-x="384" 
d="M334 731c0 -46 -12.5 -83 -37.5 -111s-59.833 -42 -104.5 -42s-79.5 14 -104.5 42s-37.5 65 -37.5 111h73c0 -26.667 6 -46.834 18 -60.501s29 -20.5 51 -20.5s39 6.83301 51 20.5s18 33.834 18 60.501h73z" />
    <glyph glyph-name="dotaccent" unicode="&#x2d9;" horiz-adv-x="236" 
d="M50 644c0 19.333 6.5 35.5 19.5 48.5s29.167 19.5 48.5 19.5s35.5 -6.5 48.5 -19.5s19.5 -29.167 19.5 -48.5s-6.5 -35.5 -19.5 -48.5s-29.167 -19.5 -48.5 -19.5s-35.5 6.5 -48.5 19.5s-19.5 29.167 -19.5 48.5z" />
    <glyph glyph-name="ring" unicode="&#x2da;" horiz-adv-x="320" 
d="M50 683c0 32 10.333 58.5 31 79.5s47 31.5 79 31.5s58.333 -10.5 79 -31.5s31 -47.5 31 -79.5s-10.333 -58.333 -31 -79s-47 -31 -79 -31s-58.333 10.333 -79 31s-31 47 -31 79zM213 683c0 16 -4.83301 29.167 -14.5 39.5s-22.5 15.5 -38.5 15.5
s-28.833 -5.16699 -38.5 -15.5s-14.5 -23.5 -14.5 -39.5s4.83301 -29.167 14.5 -39.5s22.5 -15.5 38.5 -15.5s28.833 5.16699 38.5 15.5s14.5 23.5 14.5 39.5z" />
    <glyph glyph-name="ogonek" unicode="&#x2db;" horiz-adv-x="240" 
d="M190 30c-27.333 -23.333 -46.999 -44.167 -58.999 -62.5s-18 -33.166 -18 -44.499c0 -8 3 -14.833 9 -20.5s15.333 -8.5 28 -8.5c5.33301 0 11.166 0.666992 17.499 2s13.166 2.66602 20.499 3.99902v-58c-17.333 -6 -34.333 -9 -51 -9
c-23.333 0 -43.666 7.16699 -60.999 21.5s-26 34.5 -26 60.5c0 19.333 5.83301 37.5 17.5 54.5s31.5 37.167 59.5 60.5h63z" />
    <glyph glyph-name="tilde" unicode="&#x2dc;" horiz-adv-x="426" 
d="M270 577c-12 0 -23.5 2.5 -34.5 7.5s-21.333 10.333 -31 16l-27 16c-8.33301 5 -16.166 7.5 -23.499 7.5c-9.33301 0 -18.666 -4 -27.999 -12s-18.666 -17 -27.999 -27l-48 46c6.66699 8 14.167 16.167 22.5 24.5s17 15.666 26 21.999s18.333 11.666 28 15.999
s19.5 6.5 29.5 6.5c12 0 23.5 -2.5 34.5 -7.5s21.333 -10.333 31 -16l27 -16c8.33301 -5 16.166 -7.5 23.499 -7.5c9.33301 0 18.666 4 27.999 12s18.666 17 27.999 27l48 -46c-6.66699 -8 -14.167 -16.167 -22.5 -24.5s-17 -15.666 -26 -21.999
s-18.333 -11.666 -28 -15.999s-19.5 -6.5 -29.5 -6.5z" />
    <glyph glyph-name="hungarumlaut" unicode="&#x2dd;" horiz-adv-x="425" 
d="M161 778l61 -41l-113 -163l-59 39zM314 768l61 -41l-113 -163l-59 39z" />
    <glyph glyph-name="Delta" unicode="&#x394;" horiz-adv-x="708" 
d="M379 745l309 -745h-668l309 745h50zM355 582l-208 -517h416z" />
    <glyph glyph-name="Omega" unicode="&#x3a9;" horiz-adv-x="740" 
d="M34 0l-0.000976562 80h130c-20 15.333 -38.833 32.5 -56.5 51.5s-33 40.167 -46 63.5s-23.167 49 -30.5 77s-11 58.667 -11 92c0 51.333 8.83301 98.333 26.5 141s42.167 79.334 73.5 110.001s68.333 54.5 111 71.5s89 25.5 139 25.5s96.333 -8.5 139 -25.5
s79.667 -40.833 111 -71.5s55.833 -67.334 73.5 -110.001s26.5 -89.667 26.5 -141c0 -33.333 -3.66699 -64 -11 -92s-17.5 -53.667 -30.5 -77s-28.333 -44.5 -46 -63.5s-36.5 -36.167 -56.5 -51.5h130v-80h-286v80c28.667 15.333 55.334 32.333 80.001 51
s46.334 39.5 65.001 62.5s33.334 48.667 44.001 77s16 59.5 16 93.5c0 37.333 -6.33301 71.833 -19 103.5s-30.334 59 -53.001 82s-49.667 40.833 -81 53.5s-65.333 19 -102 19s-70.667 -6.33301 -102 -19s-58.333 -30.5 -81 -53.5s-40.334 -50.333 -53.001 -82
s-19 -66.167 -19 -103.5c0 -34 5.33301 -65.167 16 -93.5s25.167 -54 43.5 -77s40 -43.833 65 -62.5s51.833 -35.667 80.5 -51v-80h-286z" />
    <glyph glyph-name="mu" unicode="&#x3bc;" 
d="M292 -12c-41.333 0 -75.335 7.66699 -102.002 23v-211h-85v700h88v-296c0 -20 1.66699 -38.333 5 -55s9.33301 -31 18 -43s20.334 -21.333 35.001 -28s33.334 -10 56.001 -10c28.667 0 52.167 5.5 70.5 16.5s32.833 25.667 43.5 44s18 39.5 22 63.5s6 49 6 75v233h86
v-500h-83v72c-19.333 -28 -41.333 -49 -66 -63s-56 -21 -94 -21z" />
    <glyph glyph-name="pi" unicode="&#x3c0;" 
d="M596 500l-0.000976562 -90.001h-89v-410h-88v410h-149l-87 -410h-92l87 410c-34.667 0 -62.667 -1.5 -84 -4.5s-38.333 -6.16699 -51 -9.5v74c12.667 6.66699 30.834 13.334 54.501 20.001s52.167 10 85.5 10h413z" />
    <glyph glyph-name="THB" unicode="&#xe3f;" horiz-adv-x="587" 
d="M280 395v215h-100v-215h100zM330 610l-0.000976562 -215h18c28.667 0 52.334 10.333 71.001 31s28 47 28 79s-9.83301 57.5 -29.5 76.5s-44.5 28.5 -74.5 28.5h-13zM279.999 90v215h-100v-215h100zM329.999 305l0.000976562 -215h13c30 0 54.833 9.5 74.5 28.5
s29.5 44.5 29.5 76.5s-9.33301 58.333 -28 79s-42.334 31 -71.001 31h-18zM330 0v-80.002h-50v80h-190v700h190v80h50v-80h13c26.667 0 51.834 -4.66699 75.501 -14s44.167 -22.5 61.5 -39.5s31.166 -37.5 41.499 -61.5s15.5 -50.667 15.5 -80
c0 -33.333 -7.66699 -63.666 -23 -90.999s-36 -48.666 -62 -63.999c26 -15.333 46.667 -36.5 62 -63.5s23 -57.5 23 -91.5c0 -29.333 -5.16699 -56 -15.5 -80s-24.166 -44.5 -41.499 -61.5s-37.833 -30.167 -61.5 -39.5s-48.834 -14 -75.501 -14h-13z" />
    <glyph glyph-name="Wgrave" unicode="&#x1e80;" horiz-adv-x="1220" 
d="M518 907l211 -136l-39 -60l-213 133zM288 0l-278 700h97l217 -546l243 546h86l243 -546l217 546h97l-278 -700h-66l-256 573l-256 -573h-66z" />
    <glyph glyph-name="wgrave" unicode="&#x1e81;" horiz-adv-x="866" 
d="M338 767l211 -136l-39 -60l-213 133zM215 0l-205 500h98l142 -371l152 371h62l152 -371l142 371h98l-205 -500h-66l-152 359l-152 -359h-66z" />
    <glyph glyph-name="Wacute" unicode="&#x1e82;" horiz-adv-x="1220" 
d="M711 907l41 -63l-213 -133l-39 60zM288 0l-278 700h97l217 -546l243 546h86l243 -546l217 546h97l-278 -700h-66l-256 573l-256 -573h-66z" />
    <glyph glyph-name="wacute" unicode="&#x1e83;" horiz-adv-x="866" 
d="M528 767l41 -63l-213 -133l-39 60zM215 0l-205 500h98l142 -371l152 371h62l152 -371l142 371h98l-205 -500h-66l-152 359l-152 -359h-66z" />
    <glyph glyph-name="Wdieresis" unicode="&#x1e84;" horiz-adv-x="1220" 
d="M441 801c0 19.333 6.5 35.5 19.5 48.5s29.167 19.5 48.5 19.5s35.5 -6.5 48.5 -19.5s19.5 -29.167 19.5 -48.5s-6.5 -35.5 -19.5 -48.5s-29.167 -19.5 -48.5 -19.5s-35.5 6.5 -48.5 19.5s-19.5 29.167 -19.5 48.5zM643 801c0 19.333 6.5 35.5 19.5 48.5
s29.167 19.5 48.5 19.5s35.5 -6.5 48.5 -19.5s19.5 -29.167 19.5 -48.5s-6.5 -35.5 -19.5 -48.5s-29.167 -19.5 -48.5 -19.5s-35.5 6.5 -48.5 19.5s-19.5 29.167 -19.5 48.5zM288 0l-278 700h97l217 -546l243 546h86l243 -546l217 546h97l-278 -700h-66l-256 573l-256 -573
h-66z" />
    </font>
</defs>
</svg>
