<?xml version="1.0" encoding="UTF-8" standalone="no"?>
<svg width="113px" height="36px" viewBox="0 0 113 36" version="1.1" xmlns="http://www.w3.org/2000/svg" xmlns:xlink="http://www.w3.org/1999/xlink">
    <!-- Generator: Sketch 40.3 (33839) - http://www.bohemiancoding.com/sketch -->
    <title>Delightful</title>
    <desc>Created with Sketch.</desc>
    <defs></defs>
    <g id="Page-1" stroke="none" stroke-width="1" fill="none" fill-rule="evenodd">
        <g id="Desktop-HD-Copy" transform="translate(-758.000000, -606.000000)" fill="#F59C5D">
            <g id="Group-4" transform="translate(571.000000, 597.000000)">
                <path d="M195.35,12.448 C197.726,12.448 200.066,14.572 200.066,23.788 C200.066,33.328 197.69,34.876 195.494,34.876 C194.27,34.876 193.55,34.624 193.478,33.976 C193.298,32.32 193.262,27.748 193.262,23.68 C193.262,19.612 193.298,15.004 193.478,13.348 C193.55,12.7 194.126,12.448 195.35,12.448 L195.35,12.448 Z M187.142,12.16 C187.142,12.34 187.25,12.448 187.502,12.448 L188.69,12.448 C189.446,12.448 189.734,12.7 189.806,13.348 C189.986,15.004 190.022,19.612 190.022,23.68 C190.022,27.748 189.986,32.32 189.806,33.976 C189.734,34.624 189.446,34.876 188.69,34.876 L187.502,34.876 C187.25,34.876 187.142,34.984 187.142,35.164 C187.142,35.344 187.25,35.452 187.502,35.452 C188.582,35.452 189.914,35.38 191.282,35.38 C192.29,35.38 194.594,35.452 195.602,35.452 C200.102,35.452 203.738,31.816 203.738,23.788 C203.738,16.408 200.39,11.872 195.53,11.872 C194.522,11.872 192.29,11.944 191.282,11.944 C189.914,11.944 188.582,11.872 187.502,11.872 C187.25,11.872 187.142,11.98 187.142,12.16 L187.142,12.16 Z M212.81,35.992 C210.47,35.992 209.066,34.444 209.066,27.892 L209.066,27.748 C211.622,27.676 215.006,27.748 217.562,27.748 C217.85,27.748 217.958,27.64 217.958,27.352 C217.958,22.168 215.474,18.82 212.054,18.82 C208.562,18.82 205.466,22.492 205.466,27.892 C205.466,33.688 208.706,36.64 212.666,36.64 C215.69,36.64 217.85,34.948 218.606,31.924 C218.678,31.636 218.642,31.348 218.39,31.276 C218.102,31.204 217.922,31.312 217.85,31.636 C217.094,34.624 215.222,35.992 212.81,35.992 L212.81,35.992 Z M214.358,27.136 C212.81,27.136 210.578,27.136 209.066,27.1 C209.138,21.88 210.218,19.396 212.054,19.396 C213.854,19.396 214.502,21.808 214.358,27.136 L214.358,27.136 Z M223.682,24.148 C223.682,19.792 223.754,15.184 223.754,14.176 C223.754,12.34 223.322,11.8 221.486,11.8 L218.498,11.8 C218.246,11.8 218.138,11.908 218.138,12.088 C218.138,12.268 218.246,12.376 218.498,12.376 C218.894,12.376 219.362,12.34 219.758,12.34 C220.154,12.34 220.334,12.556 220.406,12.916 C220.658,14.104 220.622,19.432 220.622,23.896 C220.622,28.36 220.586,33.076 220.334,34.228 C220.262,34.588 220.082,34.804 219.722,34.804 L218.462,34.804 C218.21,34.804 218.102,34.912 218.102,35.092 C218.102,35.272 218.21,35.38 218.462,35.38 C219.542,35.38 220.73,35.308 222.098,35.308 C223.43,35.308 224.618,35.38 225.662,35.38 C225.95,35.38 226.058,35.272 226.058,35.092 C226.058,34.912 225.95,34.804 225.662,34.804 L224.402,34.804 C224.042,34.804 223.898,34.66 223.826,34.228 C223.61,32.896 223.682,28.9 223.682,24.148 L223.682,24.148 Z M230.594,22.096 C230.594,20.26 230.162,19.72 228.326,19.72 L225.338,19.72 C225.086,19.72 224.978,19.828 224.978,20.008 C224.978,20.188 225.086,20.296 225.338,20.296 C225.734,20.296 226.166,20.26 226.562,20.26 C226.958,20.26 227.138,20.476 227.21,20.836 C227.39,21.592 227.462,25.264 227.462,27.928 C227.462,30.772 227.426,34.408 227.21,35.308 C227.138,35.668 226.958,35.884 226.598,35.884 L225.338,35.884 C225.086,35.884 224.978,35.992 224.978,36.172 C224.978,36.352 225.086,36.46 225.338,36.46 C226.418,36.46 227.606,36.388 228.974,36.388 C230.306,36.388 231.458,36.46 232.502,36.46 C232.754,36.46 232.862,36.352 232.862,36.172 C232.862,35.992 232.754,35.884 232.502,35.884 L231.278,35.884 C230.918,35.884 230.738,35.74 230.702,35.308 C230.594,33.904 230.558,31.132 230.558,28.9 C230.558,27.424 230.594,23.104 230.594,22.096 L230.594,22.096 Z M226.562,15.364 C226.562,16.552 227.462,17.236 228.794,17.236 C230.234,17.236 231.062,16.516 231.062,15.364 C231.062,14.32 230.234,13.492 228.794,13.492 C227.426,13.492 226.562,14.32 226.562,15.364 L226.562,15.364 Z M248.306,20.944 C248.306,20.764 248.198,20.656 247.946,20.656 L245.75,20.656 C244.13,20.656 243.194,21.124 242.87,22.672 C242.438,20.404 241.214,18.82 239.486,18.82 C236.282,18.82 233.222,22.456 233.222,27.964 C233.222,33.436 235.85,36.604 239.09,36.604 C240.782,36.604 242.15,35.128 242.69,32.788 C242.762,34.984 242.762,37.432 242.654,39.052 C242.366,42.4 241.07,43.732 239.09,43.732 C238.154,43.732 237.29,43.408 236.678,42.868 C237.362,42.148 237.686,41.068 237.686,39.952 C237.686,38.188 236.822,37.216 235.814,37.216 C234.77,37.216 234.158,38.116 234.158,39.412 C234.158,42.184 236.246,44.308 239.342,44.308 C243.014,44.308 245.606,41.716 245.822,37.612 C245.966,34.66 245.822,31.888 245.786,29.044 C245.75,25.804 245.786,22.564 246.038,21.7 C246.146,21.34 246.326,21.196 246.722,21.196 C247.046,21.196 247.622,21.232 247.946,21.232 C248.198,21.232 248.306,21.124 248.306,20.944 L248.306,20.944 Z M239.306,35.992 C238.01,35.992 236.822,34.768 236.822,27.856 C236.822,21.016 238.334,19.396 239.63,19.396 C241.286,19.396 242.69,21.628 242.69,27.46 C242.69,33.292 240.962,35.992 239.306,35.992 L239.306,35.992 Z M256.334,18.928 C254.462,18.928 253.022,20.08 252.446,22.06 C252.446,19.108 252.518,14.536 252.518,12.52 C252.518,11.26 252.122,10.864 250.97,10.864 L247.262,10.864 C247.01,10.864 246.902,10.972 246.902,11.152 C246.902,11.332 247.01,11.44 247.262,11.44 C247.658,11.44 248.09,11.404 248.486,11.404 C248.882,11.404 249.062,11.62 249.134,11.98 C249.386,13.168 249.386,18.964 249.386,23.428 C249.386,27.892 249.35,33.076 249.098,34.228 C249.026,34.588 248.846,34.804 248.486,34.804 L247.226,34.804 C246.974,34.804 246.866,34.912 246.866,35.092 C246.866,35.272 246.974,35.38 247.226,35.38 C248.306,35.38 249.494,35.308 250.862,35.308 C252.194,35.308 253.382,35.38 254.426,35.38 C254.714,35.38 254.822,35.272 254.822,35.092 C254.822,34.912 254.714,34.804 254.426,34.804 L253.166,34.804 C252.806,34.804 252.662,34.66 252.59,34.228 C252.374,32.896 252.374,27.244 252.554,24.652 C252.77,21.052 254.21,19.756 255.65,19.756 C257.054,19.756 257.63,20.656 257.738,24.112 C257.846,27.316 257.702,35.416 257.522,36.388 C257.45,36.748 257.27,36.892 256.91,36.892 L255.65,36.892 C255.398,36.892 255.29,37 255.29,37.18 C255.29,37.36 255.398,37.468 255.65,37.468 C256.73,37.468 257.954,37.432 259.214,37.432 C260.546,37.432 261.842,37.468 262.886,37.468 C263.138,37.468 263.246,37.36 263.246,37.18 C263.246,37 263.138,36.892 262.886,36.892 L261.626,36.892 C261.302,36.892 261.086,36.748 261.014,36.352 C260.69,34.66 260.942,28.972 260.906,25.516 C260.87,21.592 259.862,18.928 256.334,18.928 L256.334,18.928 Z M268.646,37.756 C269.51,37.756 270.338,37.612 270.986,37.36 C271.274,37.252 271.382,37.108 271.346,36.928 C271.31,36.748 271.13,36.712 270.842,36.784 C270.446,36.892 269.906,36.964 269.438,36.964 C268.142,36.964 267.386,36.244 267.242,34.192 C267.062,31.78 267.062,25.624 267.17,20.332 C267.962,20.332 268.862,20.368 269.798,20.368 C270.086,20.368 270.194,20.224 270.194,20.044 C270.194,19.864 270.086,19.72 269.798,19.72 C269.114,19.72 268.142,19.756 267.17,19.756 C267.242,17.236 267.314,14.932 267.422,13.384 C267.458,12.916 267.17,12.916 267.026,13.312 C266.378,15.04 265.334,15.796 264.11,15.76 C264.038,16.912 264.002,18.28 263.966,19.756 C263.282,19.756 262.634,19.72 262.058,19.72 C261.806,19.72 261.698,19.864 261.698,20.044 C261.698,20.224 261.806,20.368 262.058,20.368 L263.966,20.368 C263.858,24.328 263.858,29.008 263.966,32.068 C264.11,36.388 265.766,37.756 268.646,37.756 L268.646,37.756 Z M278.546,20.044 C278.546,19.864 278.438,19.72 278.15,19.72 C277.43,19.72 276.17,19.756 274.982,19.756 C274.982,18.352 275.054,17.092 275.09,16.156 C275.234,12.196 276.494,10.468 278.51,10.468 C279.338,10.468 279.986,10.828 280.382,11.332 C279.446,12.088 278.87,13.6 278.87,14.788 C278.87,16.12 279.554,16.912 280.598,16.912 C281.534,16.912 282.398,15.94 282.398,14.248 C282.398,11.836 280.814,9.856 278.222,9.856 C274.622,9.856 272.03,12.808 271.922,17.596 C271.886,18.172 271.886,18.892 271.886,19.756 C271.166,19.756 270.482,19.72 269.87,19.72 C269.618,19.72 269.51,19.864 269.51,20.044 C269.51,20.224 269.618,20.368 269.87,20.368 C270.482,20.368 271.166,20.332 271.886,20.332 C271.886,25.156 271.958,32.824 271.742,34.156 C271.67,34.552 271.418,34.732 271.058,34.732 L269.87,34.732 C269.618,34.732 269.51,34.84 269.51,35.02 C269.51,35.2 269.618,35.308 269.87,35.308 C270.95,35.308 272.138,35.236 273.506,35.236 C274.838,35.236 277.106,35.308 278.15,35.308 C278.438,35.308 278.546,35.2 278.546,35.02 C278.546,34.84 278.438,34.732 278.15,34.732 L275.846,34.732 C275.45,34.732 275.234,34.588 275.198,34.156 C275.09,32.932 274.946,25.696 274.982,20.332 C276.17,20.332 277.43,20.368 278.15,20.368 C278.438,20.368 278.546,20.224 278.546,20.044 L278.546,20.044 Z M282.218,21.736 C282.218,20.332 281.714,19.72 280.31,19.72 L276.926,19.72 C276.674,19.72 276.566,19.828 276.566,20.008 C276.566,20.188 276.674,20.296 276.926,20.296 C277.322,20.296 277.862,20.26 278.258,20.26 C278.654,20.26 278.834,20.44 278.906,20.836 C279.23,22.492 278.906,27.1 278.906,30.52 C278.906,35.272 280.634,36.928 283.514,36.928 C285.35,36.928 286.646,35.812 287.222,33.868 C287.222,36.748 288.122,37.576 290.246,37.576 L292.442,37.576 C292.694,37.576 292.802,37.468 292.802,37.288 C292.802,37.108 292.694,37 292.442,37 C292.118,37 291.686,37.036 291.362,37.036 C290.894,37.036 290.642,36.82 290.498,36.352 C290.246,35.452 290.246,32.176 290.318,29.368 C290.39,26.524 290.462,24.58 290.462,22.816 C290.462,21.412 289.994,20.8 288.59,20.8 L284.882,20.8 C284.63,20.8 284.522,20.908 284.522,21.088 C284.522,21.268 284.63,21.376 284.882,21.376 C285.278,21.376 286.142,21.34 286.538,21.34 C286.934,21.34 287.114,21.52 287.186,21.916 C287.438,23.284 287.294,28.612 287.114,31.204 C286.898,34.804 285.674,36.1 284.234,36.1 C282.866,36.1 282.182,35.2 282.074,31.744 C282.002,29.08 282.218,23.968 282.218,21.736 L282.218,21.736 Z M297.122,24.148 C297.122,19.792 297.194,15.184 297.194,14.176 C297.194,12.34 296.762,11.8 294.926,11.8 L291.938,11.8 C291.686,11.8 291.578,11.908 291.578,12.088 C291.578,12.268 291.686,12.376 291.938,12.376 C292.334,12.376 292.802,12.34 293.198,12.34 C293.594,12.34 293.774,12.556 293.846,12.916 C294.098,14.104 294.062,19.432 294.062,23.896 C294.062,28.36 294.026,33.076 293.774,34.228 C293.702,34.588 293.522,34.804 293.162,34.804 L291.902,34.804 C291.65,34.804 291.542,34.912 291.542,35.092 C291.542,35.272 291.65,35.38 291.902,35.38 C292.982,35.38 294.17,35.308 295.538,35.308 C296.87,35.308 298.058,35.38 299.102,35.38 C299.39,35.38 299.498,35.272 299.498,35.092 C299.498,34.912 299.39,34.804 299.102,34.804 L297.842,34.804 C297.482,34.804 297.338,34.66 297.266,34.228 C297.05,32.896 297.122,28.9 297.122,24.148 L297.122,24.148 Z" id="Delightful"></path>
            </g>
        </g>
    </g>
</svg>