<?xml version="1.0" encoding="UTF-8" standalone="no"?>
<svg width="250px" height="180px" viewBox="0 0 250 180" version="1.1" xmlns="http://www.w3.org/2000/svg" xmlns:xlink="http://www.w3.org/1999/xlink">
    <!-- Generator: Sketch 40.3 (33839) - http://www.bohemiancoding.com/sketch -->
    <title>Page-1</title>
    <desc>Created with Sketch.</desc>
    <defs>
        <radialGradient cx="26.0831593%" cy="109.928601%" fx="26.0831593%" fy="109.928601%" r="134.809646%" id="radialGradient-1">
            <stop stop-color="#F9ED32" offset="0%"></stop>
            <stop stop-color="#EE2A7B" stop-opacity="0.864168128" offset="31.6812313%"></stop>
            <stop stop-color="#002AFF" offset="100%"></stop>
        </radialGradient>
    </defs>
    <g id="Page-1" stroke="none" stroke-width="1" fill="none" fill-rule="evenodd">
        <path d="M63.290095,16 C61.833032,22.398898 60.568816,28.920721 59.523384,35.769594 L59.523384,35.769594 C40.350374,39.499089 21.983711,45.520188 6,51.140932 L6,51.140932 L13.386813,69.331665 C29.137079,62.130932 40.836438,57.286085 57.482143,52.020583 L57.482143,52.020583 C57.477632,52.061183 57.474248,52.10291 57.470865,52.144637 L57.470865,52.144637 C62.963045,49.889121 71.849777,48.276428 71.849777,48.276428 L71.849777,48.276428 L71.976086,48.31026 C71.987363,48.255 71.997513,48.196357 72.007663,48.139969 L72.007663,48.139969 C135.58388,33.888494 116.106375,73.58444 67.541742,99.172136 L67.541742,99.172136 L67.192137,98.664645 C67.026357,82.422678 68.48342,67.526125 71.378374,51.54467 L71.378374,51.54467 C67.294763,52.899107 61.829649,55.153495 56.929541,58.630372 L56.929541,58.630372 C54.376298,93.235619 58.285106,119.315018 66.233543,143.559555 L66.233543,143.559555 L72.740705,141.598384 C70.629543,132.865028 68.705588,125.049666 67.59813,109.175348 L67.59813,109.175348 C75.842039,120.996505 89.040189,126.520262 101.30681,126.520262 L101.30681,126.520262 L99.86328,113.359329 L99.840725,113.370607 L99.795614,113.370607 L99.761782,113.393162 C93.629035,114.926912 80.72523,113.993129 71.27462,103.976384 L71.27462,103.976384 C138.799117,71.908592 139.757711,26.246807 75.334548,33.299804 L75.334548,33.299804 C76.995735,26.78362 77.743439,24.407434 79.022316,20.105038 L79.022316,20.105038 L63.290095,16 L63.290095,16 Z M160.525371,67.07615 L170.088757,71.226298 C172.088271,67.711077 170.689852,70.029747 174.847895,63.309439 L174.847895,63.309439 L163.919922,57.648095 C161.107294,65.1646 161.628318,63.660171 160.525371,67.07615 L160.525371,67.07615 L160.525371,67.07615 Z M185.48265,67.809192 C180.835161,69.004616 174.745269,74.010732 173.562251,81.815944 L173.562251,81.815944 C173.354743,81.815944 169.361353,81.334391 169.14144,81.308453 L169.14144,81.308453 L168.318177,85.514989 C171.281925,86.303292 180.849822,89.468908 188.629095,85.266883 L188.629095,85.266883 C198.418032,79.975443 196.130939,67.537403 187.718994,67.536275 L187.718994,67.536275 C187.014146,67.536275 186.268698,67.623112 185.48265,67.809192 L185.48265,67.809192 L185.48265,67.809192 Z M188.099049,75.442985 C190.241788,77.902624 185.899921,82.470043 178.682271,82.67304 L178.682271,82.67304 C180.227299,75.08323 186.125472,73.166042 188.099049,75.442985 L188.099049,75.442985 L188.099049,75.442985 Z M159.961492,97.366596 C164.324787,100.144263 169.309476,98.32519 173.79908,95.80014 L173.79908,95.80014 L172.31044,92.596181 C167.479125,95.005071 162.209113,94.641933 162.589168,89.326811 L162.589168,89.326811 C162.908323,85.344698 165.742378,79.444269 167.765576,75.308782 L167.765576,75.308782 L158.732236,71.677402 C156.978573,77.506781 152.552123,92.504832 159.961492,97.366596 L159.961492,97.366596 L159.961492,97.366596 Z M145.052534,77.64324 C132.987781,75.630193 122.453396,92.64693 131.406665,102.160694 L131.406665,102.160694 C132.086703,102.859904 133.098302,103.525281 133.098302,103.525281 L133.098302,103.525281 C137.336415,105.946577 141.655728,105.594717 145.571303,103.468893 L145.571303,103.468893 C145.571303,105.983793 145.53747,108.622746 145.424694,111.373348 L145.424694,111.373348 C92.194527,132.998103 92.583603,166.904141 112.668969,167 L112.668969,167 L112.842644,167 C116.007133,166.985339 119.650918,166.136138 123.647691,164.277593 L123.647691,164.277593 C140.723072,156.650567 148.082819,141.12247 150.610124,122.443418 L150.610124,122.443418 C148.732408,122.315981 146.277279,122.26636 144.483016,122.634009 L144.483016,122.634009 C143.189478,132.104919 140.561803,141.3187 134.462889,148.737091 L134.462889,148.737091 C126.970066,157.815541 113.7753,162.987438 108.907897,159.58612 L108.907897,159.58612 C102.585687,155.244253 109.900324,134.889353 144.108601,121.395731 L144.108601,121.395731 C144.109729,121.392348 144.108601,121.390092 144.109729,121.386709 L144.109729,121.386709 C144.110856,121.386709 144.680374,121.163413 144.680374,121.163413 L144.680374,121.163413 L144.680374,121.166796 L144.680374,121.166796 C148.697447,119.611618 150.869509,118.940602 152.654749,118.364318 L152.654749,118.364318 L152.655877,118.367701 C171.796182,112.259765 191.961619,110.09447 212.131567,109.761782 L212.131567,109.761782 L211.387247,96.544461 C190.850777,98.655623 171.310118,102.046791 151.762693,108.961074 L151.762693,108.961074 C152.326572,96.65047 151.751415,87.800954 152.619789,74.66596 L152.619789,74.66596 L145.086367,74.327632 C145.048023,77.554147 145.052534,76.955308 145.052534,77.64324 L145.052534,77.64324 L145.052534,77.64324 Z M136.143248,87.872003 L136.154525,87.826893 C139.639297,83.295562 142.941372,82.850098 145.131477,83.631634 L145.131477,83.631634 C145.227337,87.990418 145.234103,86.474711 145.424694,94.706215 L145.424694,94.706215 L145.232975,94.988155 C143.036103,97.578614 140.830209,98.636451 138.978431,98.636451 L138.978431,98.636451 C134.782044,98.636451 132.41488,93.199531 136.143248,87.872003 L136.143248,87.872003 L136.143248,87.872003 Z M99.750504,104.404932 C100.588428,109.344511 104.626929,114.522047 111.445352,115.163741 L111.445352,115.163741 C125.294218,116.153913 133.010337,91.218061 117.332248,85.729263 L117.332248,85.729263 L117.309693,85.729263 C117.274732,85.716858 116.195468,85.456346 116.15938,85.447324 L116.15938,85.447324 C115.982322,85.404469 115.671061,85.428152 115.368822,85.450707 L115.368822,85.450707 C115.110565,85.472135 114.860203,85.491307 114.704572,85.469879 L114.704572,85.469879 C114.215125,85.396575 113.723423,85.360487 113.233976,85.360487 L113.233976,85.360487 C105.313733,85.360487 97.762267,94.71411 99.750504,104.404932 L99.750504,104.404932 L99.750504,104.404932 Z M109.96799,107.889704 C109.495459,107.511905 109.048867,107.438601 108.468072,106.728113 L108.468072,106.728113 C105.843779,104.234641 106.405403,98.393983 107.430535,97.265098 L107.430535,97.265098 C108.649641,94.396082 111.096875,92.627758 112.719719,92.326646 L112.719719,92.326646 C114.033556,91.887949 116.16953,92.413484 116.238323,92.619863 L116.238323,92.619863 C123.547321,95.939982 120.076083,108.41975 112.673481,108.41975 L112.673481,108.41975 C111.819768,108.41975 110.914178,108.25397 109.96799,107.889704 L109.96799,107.889704 L109.96799,107.889704 Z M173.95471,89.297489 C175.765889,95.099803 181.54452,97.99814 190.399674,91.999597 L190.399674,91.999597 L191.922147,90.950782 L190.354564,88.142665 C186.220204,89.726037 180.8002,92.122522 179.767174,88.036656 L179.767174,88.036656 C177.3549,88.61294 174.973076,89.09562 173.95471,89.297489 L173.95471,89.297489 L173.95471,89.297489 Z" id="Fill-1" fill="url(#radialGradient-1)"></path>
    </g>
</svg>